<svg width="20" height="21" viewBox="0 0 20 21" fill="none" xmlns="http://www.w3.org/2000/svg">
<circle cx="9.8" cy="11.4001" r="7.8" fill="#035591"/>
<path d="M8.60004 12.2002L6.42503 10.0252C6.2417 9.84186 6.0167 9.75019 5.75003 9.75019C5.48336 9.75019 5.25003 9.85019 5.05002 10.0502C4.86669 10.2335 4.77502 10.4669 4.77502 10.7502C4.77502 11.0335 4.86669 11.2669 5.05002 11.4502L7.90004 14.3002C8.08337 14.4835 8.31671 14.5752 8.60004 14.5752C8.88338 14.5752 9.11671 14.4835 9.30005 14.3002L14.9751 8.62519C15.1584 8.44185 15.2501 8.21685 15.2501 7.95018C15.2501 7.68352 15.1501 7.45018 14.9501 7.25018C14.7667 7.06685 14.5334 6.97518 14.2501 6.97518C13.9667 6.97518 13.7334 7.06685 13.5501 7.25018L11.0751 9.72519L8.60004 12.2002ZM10 20.4002C8.61671 20.4002 7.3167 20.1376 6.10003 19.6122C4.88336 19.0876 3.82502 18.3752 2.92501 17.4752C2.02501 16.5752 1.31267 15.5169 0.788004 14.3002C0.262668 13.0835 0 11.7835 0 10.4002C0 9.01685 0.262668 7.71685 0.788004 6.50018C1.31267 5.2835 2.02501 4.22517 2.92501 3.32516C3.82502 2.42516 4.88336 1.71249 6.10003 1.18715C7.3167 0.662481 8.61671 0.400146 10 0.400146C11.3834 0.400146 12.6834 0.662481 13.9001 1.18715C15.1167 1.71249 16.1751 2.42516 17.0751 3.32516C17.9751 4.22517 18.6874 5.2835 19.2121 6.50018C19.7374 7.71685 20.0001 9.01685 20.0001 10.4002C20.0001 11.7835 19.7374 13.0835 19.2121 14.3002C18.6874 15.5169 17.9751 16.5752 17.0751 17.4752C16.1751 18.3752 15.1167 19.0876 13.9001 19.6122C12.6834 20.1376 11.3834 20.4002 10 20.4002Z" fill="#8FCBE7"/>
</svg>
