<?xml version="1.0" encoding="UTF-8" standalone="no"?>
<!DOCTYPE svg PUBLIC "-//W3C//DTD SVG 1.1//EN" "http://www.w3.org/Graphics/SVG/1.1/DTD/svg11.dtd">
<svg width="100%" height="100%" viewBox="0 0 598 432" version="1.1" xmlns="http://www.w3.org/2000/svg" xmlns:xlink="http://www.w3.org/1999/xlink" xml:space="preserve" xmlns:serif="http://www.serif.com/" style="fill-rule:evenodd;clip-rule:evenodd;stroke-linejoin:round;stroke-miterlimit:2;">
    <g>
        <g>
            <g>
                <path d="M548.231,168.967C543.45,167.853 538.589,167.192 533.78,166.225C532.238,165.913 530.673,165.688 529.117,165.429C527.746,165.083 526.373,164.724 524.938,164.704C520.531,163.72 516.083,162.982 511.64,162.225C509.559,162.148 508.815,160.917 508.313,158.998C506.815,153.313 505.09,147.689 503.446,142.041C503.302,141.557 503.114,141.086 502.945,140.611C502.957,140.232 503.014,139.841 502.746,139.515C502.869,137.65 502.413,135.844 502.126,134.035C500.926,126.425 499.95,118.787 498.833,111.161C498.76,110.674 498.799,110.142 498.479,109.712C498.054,109.804 497.927,110.145 497.736,110.396C493.815,115.599 489.9,120.808 485.987,126.023C485.853,126.202 485.761,126.409 485.648,126.605C485.103,126.887 485.113,127.446 485.022,127.926C483.649,135.324 482.284,142.728 480.925,150.131C480.539,152.243 480.193,154.363 479.834,156.478C479.834,156.478 477.492,169.408 476.645,173.608C475.834,177.616 475.128,181.636 474.377,185.649C460.123,192.907 445.869,200.165 431.616,207.423C431.058,207.706 430.485,207.926 429.869,208.054C422.277,209.617 414.687,211.192 407.09,212.762C406.816,212.815 406.528,212.805 406.251,212.826C404.74,213.356 403.175,213.607 401.59,213.807C399.944,214.354 398.244,214.667 396.524,214.878C394.484,215.61 392.332,215.855 390.231,216.301C387.292,216.928 384.369,217.632 381.385,218.05C379.339,219.108 377.394,218.22 375.468,217.655C374.657,217.416 373.854,217.136 373.038,216.904C368.186,215.532 363.332,214.186 358.528,212.672C356.855,212.147 355.144,211.738 353.47,211.207C350.658,210.321 347.784,209.664 344.953,208.839C340.826,207.632 336.729,206.304 332.583,205.158C330.29,204.521 328.006,203.85 325.718,203.192C324.03,202.709 322.342,202.225 320.664,201.708C320.292,201.597 319.968,201.344 319.619,201.159C316.238,200.622 313.041,199.406 309.764,198.498C303.09,196.653 296.435,194.707 289.8,192.7C287.534,192.014 285.202,191.538 283.072,190.366C262.396,179.028 241.695,167.751 221.013,156.42C218.24,154.897 215.377,153.535 212.72,151.789C211.416,151.669 210.432,150.813 209.351,150.236C201.31,145.952 193.3,141.606 185.279,137.281C184.826,137.037 184.39,136.778 184.119,136.323C181.489,135.265 179.088,133.748 176.599,132.412C165.533,126.461 154.493,120.461 143.437,114.489C143.193,114.356 142.912,114.299 142.648,114.214C142.201,113.865 141.738,113.538 141.308,113.167C132.987,105.863 124.642,98.575 116.368,91.22C114.05,89.16 111.363,87.698 108.784,86.054C105.053,83.671 101.258,81.401 97.521,79.026C96.201,78.191 94.823,77.683 93.277,77.403C87.242,76.307 81.215,75.124 75.191,73.961C70.554,73.064 66.066,71.569 61.49,70.43C58.292,69.63 55.131,68.709 51.958,67.801C51.276,67.605 50.609,67.635 49.935,67.659C46.817,67.78 43.7,67.915 40.578,68.057C39.84,68.089 39.117,68.197 38.396,68.376C33.435,69.61 28.476,70.817 23.513,72.038L17.199,74.994C17.149,75.013 17.085,75.021 17.044,75.052C15.07,76.419 14.021,78.308 13.896,80.721C13.862,81.454 13.847,82.185 13.82,82.918C13.459,84.917 13.808,86.808 14.409,88.734C15.679,92.773 16.825,96.86 17.964,100.941C18.311,102.175 18.87,103.233 19.745,104.148L19.84,104.286L21.35,106.459C21.374,106.495 21.398,106.531 21.429,106.567L24.379,110.816C24.515,111.125 24.774,111.38 24.965,111.663C27.677,115.616 30.39,119.576 33.139,123.511C34.309,125.185 35.312,126.938 36.182,128.779C36.155,129.141 36.334,129.438 36.47,129.747C39.377,136.405 42.758,142.836 46.059,149.303C49.264,155.58 52.494,161.84 55.662,168.134C56.73,170.257 58.414,171.881 59.931,173.629C70.38,185.701 80.859,197.749 91.325,209.805C93.26,212.036 95.201,214.267 97.13,216.505C97.767,217.241 98.482,217.87 99.297,218.408C107.622,223.934 115.94,229.466 124.258,234.999C126.4,236.423 128.828,237.259 131.151,238.303C140.299,242.424 149.475,246.503 158.633,250.598C159.815,251.26 161.196,251.527 162.286,252.39C161.196,251.527 159.822,251.26 158.633,250.598C158.586,250.792 158.544,250.986 158.497,251.181C158.185,251.564 158.098,252.018 158.112,252.505C156.718,257.658 155.324,262.812 153.916,267.954C153.686,268.79 153.611,269.607 153.678,270.472C155.189,289.755 156.693,309.039 158.198,328.323C158.218,328.594 158.125,328.898 158.41,329.098C158.882,329.391 159.143,328.969 159.444,328.763C162.676,326.549 165.9,324.317 169.133,322.103C169.71,321.707 170.152,321.223 170.566,320.671C174.546,315.363 178.533,310.054 182.542,304.769C183.075,304.065 183.367,303.319 183.523,302.46C185.717,290.395 187.938,278.334 190.151,266.267C190.35,265.975 190.45,265.677 190.323,265.327C190.338,265.13 190.352,264.933 190.361,264.737C190.753,264.799 191.144,264.855 191.537,264.925C196.599,265.893 201.643,266.975 206.734,267.803C211.093,268.512 215.39,269.555 219.768,270.152C223.095,273.646 226.653,276.902 230.101,280.264C234.938,284.979 239.898,289.569 244.631,294.388C249.088,298.922 253.324,303.665 257.648,308.333C264.284,315.498 270.909,322.678 277.539,329.843C277.885,330.218 278.27,330.548 278.639,330.901C289.316,346.37 299.987,361.846 310.656,377.31C311.265,377.177 311.114,376.687 311.203,376.351C312.632,371.01 312.749,365.694 311.751,360.209C310.432,352.958 309.617,345.62 308.605,338.319C308.466,337.294 308.186,336.338 307.777,335.392C298.733,314.433 289.708,293.466 280.682,272.499C280.527,272.134 280.396,271.759 280.253,271.392C279.998,271.17 279.755,270.939 279.505,270.709C279.755,270.939 280.004,271.169 280.253,271.392C282.03,270.901 283.845,271.199 285.632,271.221C296.627,271.332 307.617,271.509 318.611,271.665C325.012,271.76 331.415,271.867 337.824,271.974C338.105,271.978 339.183,272.113 339.472,271.974C339.511,271.969 339.556,271.963 339.594,271.959L339.521,272L343.012,270.882C343.265,270.818 343.509,270.69 343.753,270.608C355.101,266.69 366.447,262.759 377.802,258.839C378.757,258.507 379.684,258.042 380.721,257.999C381.071,257.826 381.415,257.608 381.784,257.478C387.026,255.663 392.269,253.855 397.512,252.052C397.775,251.961 398.057,251.927 398.33,251.867C402.06,250.466 405.798,249.082 409.64,248.012C411.354,247.222 413.136,246.619 414.97,246.173C416.151,245.546 417.421,245.176 418.712,244.868C418.994,244.566 419.387,244.479 419.763,244.355C424.3,242.795 428.838,241.236 433.367,239.664C433.842,239.502 434.296,239.27 434.76,239.07C435.495,238.96 435.912,238.375 436.411,237.93C451.398,224.7 466.379,211.472 481.359,198.243C481.741,197.903 482.138,197.581 482.527,197.253C490.003,198.623 497.479,199.986 504.955,201.362C506.854,201.709 508.747,202.063 510.639,202.456C511.334,202.599 511.96,202.555 512.616,202.273C523.131,197.727 533.655,193.199 544.172,188.666C544.314,188.603 544.427,188.466 544.558,188.365L544.611,188.313C546.72,186.022 548.542,183.506 550.499,181.091C552.847,178.191 555.164,175.262 557.482,172.334C557.82,171.901 558.297,171.543 558.396,170.86C555.034,170.055 551.635,169.533 548.233,168.987L548.231,168.967ZM507.984,161.676C508.197,161.715 508.29,161.789 508.316,161.89C508.291,161.795 508.197,161.715 507.984,161.676Z" style="fill:white;fill-rule:nonzero;"/>
            </g>
        </g>
        <path d="M212.758,151.85C211.454,151.729 210.47,150.873 209.389,150.296C201.348,146.012 193.338,141.667 185.317,137.342C184.864,137.098 184.428,136.838 184.157,136.383C181.527,135.325 179.126,133.808 176.637,132.472C165.571,126.521 154.531,120.521 143.475,114.549C143.231,114.416 142.951,114.366 142.686,114.275C142.519,114.562 142.382,114.879 142.18,115.144C139.141,119.151 136.066,123.13 133.056,127.16C131.988,128.593 130.655,129.884 130.195,131.712C130.778,131.901 130.892,132.349 130.935,132.911C131.165,135.905 131.447,138.892 131.683,141.885C131.841,143.866 132.037,145.783 133.363,147.457C134.386,148.738 135.197,150.196 136.035,151.617C137.17,153.542 138.489,155.211 140.428,156.471C143.556,158.504 146.539,160.783 149.574,162.964C151.546,164.383 153.541,165.78 155.467,167.257C157.251,168.627 159.254,169.508 161.38,170.114C163.775,170.791 166.211,171.319 168.613,171.995C171.661,172.846 174.65,173.958 177.791,174.504C179.01,174.72 180.236,174.947 181.362,175.578C181.935,175.898 182.657,175.94 183.351,175.972C185.324,176.069 187.304,176.119 189.255,176.369C192.114,176.734 194.994,176.798 197.859,177.105C202.73,177.628 207.638,177.762 212.535,178.074C213.185,178.118 213.784,178.279 213.945,179.054C214.278,179.013 214.7,178.837 214.937,178.971C216.145,179.683 217.549,179.712 218.812,180.189C222.031,181.416 225.361,182.285 228.639,183.309C231.599,184.236 234.518,185.304 237.513,186.142C238.801,186.505 240.18,186.753 241.38,187.349C243.127,188.216 245.059,188.409 246.858,189.106C248.575,189.775 250.437,190.192 252.174,190.812C254.987,191.816 257.853,192.669 260.693,193.578C263.697,194.539 266.657,195.68 269.746,196.389C270.115,196.474 270.615,196.465 270.666,196.98C270.712,197.521 270.206,197.531 269.851,197.666C268.316,198.271 266.684,198.556 265.113,199.028C261.754,200.053 258.414,201.126 255.053,202.131C251.365,203.235 247.645,204.238 243.971,205.405C242.73,205.798 241.437,206.035 240.226,206.522C239.083,206.975 238.968,207.256 239.785,208.185C240.428,208.914 240.909,209.754 241.539,210.477C243.95,213.25 246.105,216.222 248.38,219.103C250.654,221.983 252.935,224.855 255.145,227.796C258.671,232.489 262.429,237.005 266.093,241.597C266.385,241.965 266.602,242.355 266.493,242.844C269.466,244.355 272.644,245.359 275.71,246.625C278.778,247.896 281.9,249.031 284.993,250.248C287.3,251.157 289.58,252.115 291.876,253.045C294.274,254.014 296.673,254.99 299.077,255.946C301.953,257.092 304.829,258.237 307.715,259.362C310.813,260.565 313.92,261.734 317.013,262.944C319.421,263.886 321.815,264.876 324.22,265.844C327.303,267.082 330.362,268.387 333.473,269.536C335.636,270.339 337.704,271.427 340.022,271.795C340.389,271.652 340.75,271.516 341.117,271.374C341.243,271.182 341.404,271.065 341.646,271.126L341.628,271.135C341.779,270.824 341.996,270.686 342.341,270.846L342.322,270.848C342.536,270.145 343.234,270.052 343.753,269.767C354.974,263.539 366.204,257.336 377.434,251.126C385.681,246.565 393.927,241.998 402.165,237.425C402.83,237.057 403.484,236.807 404.26,236.875C405.954,237.032 407.649,237.15 409.343,237.268C415.846,237.708 422.351,238.122 428.852,238.601C430.824,238.75 432.819,238.714 434.771,239.12C435.506,239.01 435.923,238.425 436.422,237.979C451.409,224.75 466.389,211.521 481.37,198.293C481.752,197.953 482.148,197.631 482.538,197.303C483.529,195.931 484.499,194.542 485.518,193.186C488.239,189.563 490.989,185.963 493.718,182.345C497.707,177.056 501.704,171.779 505.649,166.455C506.516,165.287 507.614,164.254 508.047,162.794C506.073,163.798 504.337,165.157 502.531,166.414C496.114,170.862 489.649,175.243 483.208,179.661C480.27,181.675 477.347,183.701 474.415,185.715C460.161,192.973 445.908,200.231 431.654,207.489C431.096,207.772 430.524,207.992 429.908,208.12C422.316,209.682 414.726,211.258 407.128,212.828C406.855,212.881 406.567,212.871 406.289,212.892C404.778,213.422 403.213,213.673 401.629,213.873C399.983,214.42 398.282,214.733 396.563,214.944C394.523,215.676 392.371,215.92 390.269,216.367C387.331,216.994 384.408,217.698 381.424,218.116C379.378,219.174 377.433,218.286 375.507,217.721C374.696,217.482 373.893,217.202 373.077,216.97C368.225,215.598 363.371,214.252 358.567,212.738C356.894,212.213 355.183,211.804 353.509,211.273C350.697,210.387 347.823,209.73 344.992,208.905C340.865,207.698 336.768,206.37 332.622,205.224C330.329,204.587 328.045,203.916 325.756,203.258C324.069,202.775 322.381,202.291 320.703,201.774C320.331,201.663 320.007,201.41 319.658,201.225C316.277,200.688 313.08,199.472 309.803,198.564C303.129,196.719 296.474,194.773 289.839,192.766C287.573,192.08 285.241,191.604 283.111,190.432C262.435,179.094 241.734,167.817 221.052,156.486C218.279,154.963 215.416,153.601 212.759,151.856L212.758,151.85Z" style="fill:rgb(150,24,42);fill-rule:nonzero;"/>
        <path d="M38.434,68.437C39.155,68.258 39.884,68.149 40.616,68.118C43.732,67.977 46.854,67.835 49.973,67.72C50.647,67.696 51.321,67.665 51.996,67.862C55.168,68.763 58.33,69.691 61.529,70.491C66.105,71.636 70.593,73.131 75.229,74.022C81.253,75.185 87.28,76.367 93.315,77.464C94.854,77.744 96.238,78.246 97.559,79.087C101.296,81.462 105.091,83.732 108.822,86.114C111.401,87.759 114.088,89.22 116.406,91.281C124.681,98.636 133.025,105.924 141.346,113.228C141.769,113.599 142.239,113.926 142.686,114.275C142.519,114.562 142.382,114.879 142.18,115.145C139.141,119.152 136.066,123.131 133.056,127.16C131.988,128.594 130.655,129.884 130.195,131.712C129.823,132.552 129.45,133.393 129.077,134.227C127.774,134.757 126.428,135.203 125.177,135.832C122.796,137.029 120.345,137.219 117.784,136.627C116.785,136.398 115.779,136.209 114.791,135.959C109.95,134.728 104.941,134.353 100.111,133.049C99.963,133.009 99.779,132.947 99.617,133.273C100.111,134.007 100.841,134.647 101.486,135.284C104.277,138.023 106.874,140.928 109.578,143.749C112.237,146.53 114.868,149.341 117.545,152.106C118.037,152.612 118.413,153.341 119.267,153.4C119.235,153.618 119.198,153.844 119.166,154.063C118.546,154.048 118.133,153.656 117.714,153.271C111.617,147.629 105.525,141.986 99.433,136.337C99.219,136.135 99.01,135.966 98.707,135.944L98.681,135.889C98.706,135.716 98.634,135.608 98.459,135.564C95.886,133.17 93.319,130.775 90.747,128.388C90.254,127.927 89.726,127.503 89.216,127.064C85.503,123.494 81.616,120.108 77.781,116.664C76.091,115.152 74.473,113.54 72.654,112.199C71.1,111.048 70.258,109.23 68.505,108.266C66.724,107.286 65.119,105.991 63.441,104.842C61.756,103.687 60.072,102.546 58.387,101.391C49.55,95.349 40.707,89.308 31.875,83.258C30.887,82.578 29.891,81.945 28.696,81.707C26.576,80.834 24.393,80.137 22.159,79.604C21.048,78.776 20.151,77.727 19.231,76.706C18.65,76.061 18.203,75.23 17.231,75.056L23.545,72.1C28.508,70.879 33.473,69.671 38.428,68.438L38.434,68.437Z" style="fill:rgb(230,43,91);fill-rule:nonzero;"/>
        <path d="M340.021,271.788C337.703,271.421 335.635,270.333 333.472,269.53C330.36,268.374 327.302,267.075 324.22,265.838C321.815,264.869 319.427,263.879 317.012,262.937C313.92,261.727 310.806,260.559 307.715,259.355C304.828,258.231 301.952,257.085 299.076,255.94C296.673,254.984 294.273,254.008 291.875,253.039C289.579,252.109 287.292,251.151 284.992,250.241C281.905,249.018 278.777,247.89 275.71,246.618C272.642,245.347 269.464,244.342 266.492,242.837C265.721,242.658 264.986,242.397 264.245,242.097C262.732,241.494 261.25,240.777 259.561,240.652C256.979,240.467 254.392,240.198 251.823,239.907C249.524,239.642 247.217,239.365 244.923,239.197C241.775,238.97 238.617,238.706 235.504,238.287C232.649,237.901 229.775,237.674 226.927,237.235C225.772,237.057 224.571,236.774 223.4,236.833C221.114,236.944 218.861,236.576 216.672,236.199C213.318,235.621 209.902,235.968 206.558,235.199C205.204,234.889 203.697,234.599 202.19,234.744C201.496,234.816 200.686,234.584 200.052,234.251C199.021,233.7 197.911,233.523 196.816,233.247C196.372,233.139 195.888,233.12 195.497,232.908C193.633,231.886 191.483,231.778 189.531,230.995C187.819,230.312 185.973,229.861 184.204,229.303C181.568,228.467 178.85,227.869 176.262,226.896C174.61,226.278 172.887,225.929 171.23,225.377C168.928,224.611 166.663,223.722 164.287,223.2C163.899,223.117 163.494,223.056 163.131,222.905C159.994,221.603 156.646,220.964 153.472,219.777C150.783,218.772 147.96,218.115 145.211,217.26C141.92,216.237 138.698,214.978 135.304,214.287C135.03,214.229 134.753,214.146 134.487,214.048C132.485,213.284 130.488,212.454 128.37,212.076C126.892,211.814 125.622,211.019 124.171,210.715C123.743,210.624 123.37,210.292 123.178,209.84C122.203,209.588 121.149,209.548 120.386,208.736C119.57,207.872 118.719,207.045 117.874,206.211C113.714,202.136 109.566,198.052 105.389,193.999C100.606,189.355 95.792,184.734 90.986,180.113C90.69,179.824 90.409,179.558 90.536,179.1C90.45,178.824 90.229,178.721 89.975,178.667C89.873,178.53 89.771,178.386 89.669,178.249C88.48,177.151 87.318,176.016 85.986,175.086C85.011,174.41 84.184,173.619 83.565,172.608C83.284,172.44 83.082,172.224 83.046,171.877L83.047,171.89C82.766,171.826 82.571,171.668 82.539,171.359C82.468,171.257 82.469,171.159 82.528,171.054L82.544,171.078C82.238,171.031 82.013,170.896 81.928,170.574L81.944,170.598C81.357,170.319 81.01,169.775 80.596,169.324C71.338,159.315 62.093,149.304 52.84,139.288C44.744,130.524 36.672,121.743 28.554,113.008C26.664,110.979 24.918,108.803 22.807,106.984C22.563,107.438 22.881,107.698 23.122,108.014C23.525,108.544 24.044,109.054 23.794,109.833C23.812,110.189 24.075,110.209 24.338,110.229C24.618,110.286 24.89,110.376 25.075,110.614C26.618,112.568 28.159,114.515 29.689,116.477C31.08,118.254 32.459,120.045 33.856,121.828C34.975,123.254 36.111,124.658 37.224,126.085C39.165,128.583 41.078,131.11 43.025,133.607C45.244,136.461 47.5,139.291 49.719,142.146C51.527,144.464 53.294,146.814 55.109,149.132C56.879,151.403 58.685,153.65 60.473,155.912C62.331,158.263 64.243,160.569 66.005,162.991C66.71,163.96 67.843,164.7 67.933,166.07C68.081,166.163 68.101,166.219 67.977,166.221C67.964,166.222 67.945,166.121 67.926,166.071C66.98,165.737 66.611,164.48 65.43,164.514C65.641,165.126 66.147,165.527 66.555,165.991C78.965,180.134 91.379,194.264 103.771,208.422C104.65,209.428 105.628,210.187 106.838,210.756C118.812,216.354 130.782,221.973 142.741,227.606C156.551,234.107 170.347,240.642 184.161,247.122C185.944,247.959 187.644,249.014 189.729,249.13C195.114,249.433 200.489,249.823 205.866,250.167C211.473,250.528 217.078,250.876 222.684,251.237C228.232,251.593 233.787,251.908 239.328,252.317C242.265,252.53 245.231,252.492 248.141,253.066L248.111,253.083L248.469,252.87C249.583,252.876 250.335,252.1 251.16,251.55C251.99,250.992 252.785,250.836 253.703,251.199C254.381,250.94 254.864,251.271 255.377,251.678C257.63,253.479 259.91,255.238 262.169,257.032C262.703,257.456 263.214,257.907 263.914,258.043C267.298,258.761 270.702,259.38 274.106,259.991C279.794,261.02 285.476,262.101 291.174,263.103C297.318,264.18 303.451,265.33 309.577,266.474C314.43,267.377 319.273,268.314 324.122,269.237C324.509,269.313 324.909,269.336 325.302,269.405C329.755,270.24 334.215,271.08 338.67,271.921C339.123,271.905 339.608,272.243 340.029,271.8L340.021,271.788Z" style="fill:rgb(173,24,48);fill-rule:nonzero;"/>
        <path d="M248.134,253.061C245.223,252.48 242.265,252.523 239.321,252.311C233.774,251.904 228.224,251.587 222.677,251.232C217.071,250.877 211.465,250.522 205.859,250.161C200.481,249.811 195.099,249.422 189.722,249.124C187.643,249.008 185.936,247.947 184.154,247.117C170.333,240.637 156.544,234.101 142.734,227.601C130.775,221.968 118.805,216.349 106.831,210.75C105.621,210.182 104.643,209.429 103.763,208.417C91.372,194.258 78.957,180.129 66.548,165.986C66.139,165.522 65.635,165.127 65.422,164.509L65.435,164.507C65.157,164.417 64.972,164.238 64.904,163.947C64.298,163.305 63.675,162.684 63.092,162.02C60.574,159.176 58.039,156.347 55.563,153.472C52.532,149.949 49.308,146.599 46.46,142.923C43.303,138.849 40.504,134.509 37.575,130.27C37.195,129.723 36.954,129.03 36.207,128.835C36.179,129.197 36.359,129.494 36.495,129.803C39.402,136.461 42.776,142.893 46.083,149.359C49.289,155.636 52.518,161.896 55.687,168.19C56.755,170.313 58.439,171.937 59.956,173.685C70.405,185.756 80.884,197.804 91.35,209.86C93.285,212.092 95.226,214.322 97.155,216.561C97.792,217.297 98.507,217.926 99.322,218.464C107.646,223.989 115.965,229.522 124.283,235.054C126.425,236.479 128.853,237.314 131.176,238.358C140.324,242.48 149.5,246.559 158.658,250.653C159.84,251.316 161.221,251.583 162.311,252.446C162.689,252.556 163.088,252.624 163.446,252.782C166.236,254.023 169.016,255.284 171.799,256.526C177.994,259.29 184.193,262.04 190.387,264.798C190.779,264.861 191.17,264.917 191.562,264.986C196.625,265.955 201.668,267.036 206.759,267.865C211.119,268.574 215.415,269.617 219.794,270.214C220.117,269.979 220.417,269.72 220.758,269.522C225.607,266.681 230.471,263.857 235.32,261.009C239.384,258.621 243.432,256.204 247.488,253.798C247.785,253.618 248.07,253.44 248.134,253.061Z" style="fill:rgb(237,120,156);fill-rule:nonzero;"/>
        <path d="M263.914,258.037C263.213,257.901 262.708,257.448 262.168,257.026C259.904,255.239 257.622,253.474 255.376,251.671C254.863,251.259 254.38,250.934 253.702,251.193C254.275,252.145 255.136,252.847 255.482,254.023C257.529,261.054 259.678,268.059 261.814,275.066C264.58,284.139 267.365,293.196 270.138,302.268C272.74,310.794 275.355,319.318 277.913,327.856C278.22,328.874 278.738,329.859 278.666,330.968C289.336,346.438 300.013,361.914 310.683,377.378C311.292,377.244 311.141,376.755 311.23,376.418C312.659,371.078 312.776,365.762 311.778,360.276C310.459,353.026 309.637,345.688 308.631,338.386C308.493,337.361 308.213,336.406 307.803,335.459C298.759,314.501 289.734,293.534 280.708,272.567C280.553,272.202 280.422,271.827 280.28,271.46C279.775,271.014 279.287,270.54 278.76,270.116C274.192,266.488 269.62,262.88 265.059,259.251C264.633,258.912 264.046,258.691 263.922,258.055L263.914,258.037Z" style="fill:rgb(150,24,42);fill-rule:nonzero;"/>
        <path d="M89.962,178.669C90.216,178.723 90.437,178.826 90.523,179.102C90.899,179.355 91.297,179.574 91.639,179.864C97.26,184.535 103.027,189.026 108.568,193.791C112.266,196.966 116.106,199.967 119.883,203.047C120.325,203.409 120.754,203.774 121.355,203.837C120.276,200.563 119.221,197.272 118.104,194.009C116.481,189.271 115.047,184.478 113.399,179.749C112.915,178.356 112.201,177.206 111.241,176.171C110.279,175.129 109.324,174.087 108.369,173.045C103.481,167.704 98.551,162.394 93.621,157.091C88.767,151.87 83.884,146.678 79.041,141.449C76.309,138.501 73.653,135.486 70.934,132.536C65.751,126.919 60.545,121.331 55.351,115.728C50.194,110.159 45.049,104.59 39.892,99.021C35.658,94.453 31.366,89.938 27.203,85.31C25.507,83.427 23.539,81.773 22.159,79.604C21.048,78.776 20.151,77.727 19.231,76.706C18.65,76.061 18.203,75.23 17.231,75.056C17.181,75.075 17.117,75.083 17.075,75.114C15.094,76.482 14.042,78.371 13.921,80.783C13.887,81.517 13.873,82.248 13.845,82.981C15.023,84.406 16.295,85.748 17.385,87.256C18.467,88.745 19.674,90.147 20.787,91.626C22.063,93.326 23.472,94.932 24.73,96.64C25.894,98.217 27.2,99.679 28.323,101.293C29.596,103.13 31.092,104.809 32.473,106.568C33.647,108.065 34.785,109.593 35.953,111.091C37.328,112.857 38.734,114.6 40.122,116.357C41.372,117.943 42.545,119.597 43.828,121.14C45.654,123.339 47.409,125.592 49.096,127.873C50.611,129.928 52.151,131.967 53.713,133.977C62.916,145.817 72.165,157.612 81.397,169.428C81.667,169.773 82.08,170.061 81.932,170.6L81.916,170.576C82.238,170.602 82.447,170.765 82.531,171.08L82.515,171.056C82.663,171.149 82.794,171.257 82.747,171.464C82.964,171.529 83.072,171.665 83.042,171.897L83.034,171.885C83.488,171.927 83.631,172.189 83.553,172.616C84.172,173.628 84.999,174.419 85.974,175.094C87.305,176.018 88.468,177.159 89.657,178.257C89.759,178.394 89.861,178.538 89.963,178.675L89.962,178.669Z" style="fill:rgb(190,22,53);fill-rule:nonzero;"/>
        <path d="M278.659,330.969C278.731,329.853 278.213,328.868 277.906,327.857C275.342,319.32 272.734,310.794 270.132,302.268C267.359,293.203 264.574,284.139 261.807,275.067C259.671,268.06 257.524,261.061 255.475,254.023C255.136,252.847 254.268,252.146 253.695,251.193C252.778,250.83 251.989,250.986 251.153,251.544C250.328,252.095 249.576,252.871 248.462,252.864C248.34,252.938 248.218,253.005 248.103,253.077L248.134,253.061C248.076,253.439 247.786,253.624 247.488,253.798C243.432,256.203 239.384,258.621 235.32,261.008C230.471,263.857 225.607,266.681 220.758,269.522C220.417,269.72 220.111,269.986 219.794,270.214C223.121,273.707 226.679,276.964 230.126,280.325C234.964,285.041 239.923,289.63 244.657,294.449C249.114,298.983 253.35,303.727 257.674,308.394C264.31,315.559 270.935,322.739 277.565,329.905C277.91,330.279 278.296,330.61 278.665,330.962L278.659,330.969Z" style="fill:rgb(217,25,74);fill-rule:nonzero;"/>
        <path d="M190.387,264.798C184.186,262.041 177.993,259.283 171.799,256.526C169.009,255.285 166.236,254.023 163.446,252.782C163.088,252.624 162.689,252.556 162.311,252.446C161.924,253.705 161.943,255.025 161.722,256.302C161.218,259.204 160.568,262.084 160.071,264.992C159.577,267.866 159.354,270.668 159.563,273.593C160.377,285.067 161.036,296.554 161.766,308.032C161.863,309.512 161.859,310.965 161.49,312.423C161.099,313.963 160.691,315.518 160.526,317.094C160.107,321.165 158.795,325.077 158.435,329.153C158.907,329.447 159.168,329.024 159.469,328.818C162.701,326.604 165.925,324.372 169.158,322.159C169.735,321.762 170.177,321.278 170.591,320.726C174.571,315.418 178.558,310.109 182.567,304.824C183.1,304.12 183.392,303.374 183.548,302.515C185.742,290.451 187.963,278.389 190.176,266.322C189.996,265.966 190.115,265.665 190.347,265.383C190.362,265.185 190.377,264.988 190.386,264.792L190.387,264.798Z" style="fill:rgb(150,24,42);fill-rule:nonzero;"/>
        <path d="M508.047,162.794C507.614,164.254 506.516,165.288 505.649,166.456C501.704,171.779 497.707,177.056 493.718,182.346C490.989,185.963 488.246,189.562 485.518,193.186C484.499,194.542 483.529,195.931 482.538,197.303C490.014,198.673 497.489,200.036 504.966,201.412C506.865,201.759 508.758,202.113 510.649,202.506C511.344,202.649 511.971,202.605 512.626,202.322C523.142,197.776 533.666,193.249 544.182,188.716C544.325,188.653 544.438,188.515 544.569,188.414C543.238,186.806 542.226,184.976 540.996,183.284C537.942,179.092 535.116,174.743 532.2,170.456C531.596,169.573 531.043,168.67 530.329,167.846C529.767,167.192 529.09,166.5 529.135,165.491C527.764,165.144 526.391,164.785 524.956,164.766C525.723,164.965 526.495,165.15 527.263,165.362C528.388,165.667 528.451,165.803 527.952,166.887C526.958,169.034 525.945,171.184 525.006,173.351C521.33,181.832 517.227,190.119 513.634,198.642C513.195,199.686 512.6,200.671 512.069,201.707C511.668,201.411 511.6,201.126 511.58,200.855C511.332,197.075 511.103,193.299 510.862,189.525C510.452,183.153 510.035,176.782 509.633,170.416C509.478,167.934 509.344,165.456 509.195,162.973C509.16,162.365 509.415,162.158 510.003,162.229C510.552,162.298 511.089,162.643 511.654,162.306C509.573,162.229 508.83,160.998 508.327,159.08C506.829,153.395 505.104,147.771 503.461,142.123C503.317,141.639 503.128,141.167 502.96,140.693C502.052,140.837 501.577,141.638 500.877,142.088C497.169,144.464 493.588,147.027 489.991,149.559C487.082,151.602 484.097,153.544 481.149,155.534C480.74,155.812 480.201,155.983 480.173,156.605C481.486,156.958 482.885,156.891 484.181,157.208C488.694,158.315 493.327,158.757 497.842,159.831C498.775,160.056 499.724,160.311 500.674,160.35C503.189,160.465 505.548,161.323 507.998,161.758C508.564,161.858 508.277,162.232 508.144,162.528C508.176,162.57 508.239,162.608 508.244,162.653C508.259,162.768 508.181,162.83 508.038,162.828L508.049,162.814L508.047,162.794Z" style="fill:rgb(190,22,53);fill-rule:nonzero;"/>
        <path d="M398.348,251.923C402.078,250.521 405.816,249.138 409.658,248.068C411.372,247.278 413.154,246.675 414.988,246.229C416.169,245.602 417.439,245.231 418.73,244.923C419.012,244.622 419.405,244.534 419.781,244.41C424.318,242.851 428.856,241.291 433.385,239.72C433.86,239.557 434.314,239.326 434.778,239.126C432.826,238.72 430.831,238.756 428.859,238.607C422.357,238.121 415.853,237.714 409.351,237.274C407.656,237.156 405.961,237.038 404.268,236.881C403.49,236.807 402.83,237.057 402.173,237.431C393.934,242.004 385.687,246.565 377.441,251.132C366.211,257.342 354.982,263.551 343.76,269.773C343.241,270.058 342.543,270.151 342.329,270.854C342.86,271.147 343.322,270.824 343.784,270.663C355.132,266.744 366.478,262.813 377.833,258.893C378.788,258.561 379.715,258.096 380.752,258.054C381.102,257.88 381.446,257.662 381.815,257.532C387.057,255.717 392.3,253.909 397.543,252.106C397.806,252.015 398.088,251.981 398.361,251.921L398.348,251.923Z" style="fill:rgb(237,120,155);fill-rule:nonzero;"/>
        <path d="M81.938,170.599C82.087,170.06 81.674,169.772 81.403,169.427C72.171,157.611 62.922,145.816 53.719,133.976C52.157,131.966 50.618,129.927 49.102,127.872C47.415,125.585 45.654,123.332 43.835,121.139C42.551,119.596 41.378,117.942 40.128,116.356C38.747,114.598 37.341,112.855 35.959,111.09C34.785,109.593 33.653,108.064 32.48,106.567C31.098,104.808 29.603,103.129 28.329,101.292C27.206,99.678 25.894,98.217 24.736,96.639C23.477,94.924 22.07,93.325 20.793,91.625C19.68,90.146 18.473,88.744 17.391,87.255C16.295,85.748 15.029,84.405 13.852,82.98C13.491,84.978 13.84,86.87 14.441,88.796C15.711,92.835 16.857,96.921 17.996,101.002C18.343,102.236 18.902,103.294 19.776,104.21C19.95,104.032 20.168,103.953 20.341,104.141C20.878,104.746 21.586,105.212 21.856,106.033L22.15,106.303C22.553,106.351 22.711,106.631 22.775,106.995L22.807,106.991C24.919,108.809 26.665,110.986 28.555,113.014C36.673,121.75 44.751,130.529 52.841,139.294C62.094,149.311 71.339,159.321 80.597,169.331C81.017,169.781 81.364,170.324 81.945,170.605L81.938,170.599Z" style="fill:rgb(233,83,128);fill-rule:nonzero;"/>
        <path d="M508.035,162.808C508.035,162.808 508.034,162.802 508.034,162.796L508.04,162.795L508.029,162.809L508.035,162.808Z" style="fill:rgb(217,25,74);fill-rule:nonzero;"/>
        <path d="M479.865,156.538C479.966,156.565 480.072,156.578 480.176,156.578C481.49,156.932 482.895,156.864 484.184,157.181C488.697,158.289 493.33,158.73 497.845,159.805C498.778,160.029 499.728,160.284 500.677,160.324C503.192,160.439 505.551,161.296 508.001,161.732C508.567,161.832 508.281,162.205 508.148,162.502C508.093,162.587 508.06,162.689 508.04,162.789C506.072,163.792 504.337,165.151 502.529,166.402C496.112,170.849 489.647,175.231 483.207,179.648C480.269,181.663 477.345,183.689 474.414,185.703C475.166,181.689 475.87,177.662 476.682,173.661C477.529,169.461 479.871,156.531 479.871,156.531L479.865,156.538Z" style="fill:rgb(217,25,74);fill-rule:nonzero;"/>
        <path d="M511.658,162.286C511.094,162.629 510.556,162.278 510.007,162.209C509.418,162.131 509.158,162.345 509.2,162.952C509.354,165.435 509.482,167.914 509.637,170.396C510.04,176.768 510.457,183.139 510.866,189.505C511.108,193.286 511.336,197.061 511.584,200.835C511.604,201.106 511.672,201.391 512.073,201.687C512.605,200.657 513.194,199.673 513.638,198.622C517.224,190.1 521.328,181.813 525.01,173.331C525.949,171.164 526.963,169.02 527.956,166.866C528.455,165.783 528.392,165.647 527.267,165.342C526.5,165.137 525.727,164.945 524.96,164.746C520.554,163.762 516.112,163.023 511.662,162.266L511.658,162.286Z" style="fill:rgb(173,24,48);fill-rule:nonzero;"/>
        <path d="M263.914,258.037C264.037,258.673 264.624,258.894 265.05,259.232C269.612,262.861 274.184,266.476 278.751,270.097C279.278,270.515 279.766,270.989 280.271,271.442C282.047,270.95 283.862,271.249 285.649,271.264C296.644,271.375 307.634,271.552 318.628,271.708C325.029,271.803 331.432,271.91 337.841,272.016C338.128,272.02 339.259,272.162 339.52,272.006C335.066,271.165 329.761,270.233 325.301,269.399C324.914,269.322 324.514,269.3 324.121,269.231C319.273,268.314 314.429,267.371 309.577,266.468C303.444,265.324 297.312,264.181 291.174,263.096C285.475,262.095 279.793,261.014 274.105,259.985C270.702,259.373 267.297,258.755 263.914,258.037Z" style="fill:rgb(237,120,155);fill-rule:nonzero;"/>
        <path d="M158.429,329.16C158.789,325.084 160.101,321.172 160.52,317.102C160.685,315.525 161.094,313.97 161.485,312.431C161.853,310.972 161.852,309.526 161.76,308.039C161.024,296.562 160.371,285.074 159.557,273.6C159.348,270.675 159.571,267.873 160.066,264.999C160.562,262.091 161.212,259.211 161.716,256.309C161.937,255.032 161.918,253.705 162.305,252.453C161.216,251.59 159.841,251.322 158.653,250.66C158.605,250.855 158.564,251.049 158.516,251.244C158.617,251.752 158.556,252.209 158.131,252.567C156.737,257.721 155.343,262.875 153.935,268.017C153.706,268.853 153.63,269.67 153.697,270.534C155.208,289.817 156.713,309.101 158.217,328.385C158.237,328.656 158.151,328.96 158.429,329.16Z" style="fill:rgb(217,25,74);fill-rule:nonzero;"/>
        <path d="M479.865,156.538C479.966,156.565 480.072,156.578 480.176,156.578C480.21,155.949 480.75,155.785 481.152,155.508C484.1,153.518 487.087,151.582 489.994,149.532C493.592,147 497.173,144.444 500.88,142.062C501.587,141.61 502.056,140.81 502.963,140.667C502.975,140.287 503.032,139.903 502.763,139.571C502.122,140.131 501.731,139.547 501.308,139.228C499.909,138.175 498.526,137.101 497.126,136.041C493.524,133.324 489.921,130.607 486.296,127.925C485.817,127.573 485.598,127.222 485.672,126.66C485.127,126.941 485.137,127.5 485.046,127.98C483.673,135.379 482.308,142.782 480.949,150.185C480.563,152.297 480.217,154.417 479.858,156.533L479.865,156.538Z" style="fill:rgb(230,43,91);fill-rule:nonzero;"/>
        <path d="M485.673,126.666C485.605,127.228 485.824,127.579 486.297,127.931C489.928,130.612 493.525,133.337 497.127,136.048C498.526,137.101 499.903,138.182 501.309,139.234C501.731,139.547 502.123,140.138 502.764,139.577C502.887,137.712 502.431,135.905 502.144,134.097C500.944,126.487 499.969,118.849 498.851,111.222C498.779,110.736 498.817,110.204 498.498,109.774C498.079,109.865 497.945,110.207 497.754,110.458C493.833,115.661 489.919,120.87 486.005,126.085C485.871,126.264 485.779,126.471 485.666,126.667L485.673,126.666Z" style="fill:rgb(217,25,74);fill-rule:nonzero;"/>
        <path d="M529.135,165.491C529.083,166.5 529.767,167.192 530.33,167.846C531.042,168.664 531.596,169.573 532.2,170.456C535.116,174.743 537.942,179.099 540.996,183.284C542.225,184.97 543.238,186.8 544.569,188.414L544.621,188.362C545.107,186.271 545.352,184.124 545.794,182.044C546.717,177.723 547.22,173.33 548.244,169.036C543.463,167.922 538.601,167.261 533.793,166.294C532.25,165.982 530.686,165.757 529.13,165.498L529.135,165.491Z" style="fill:rgb(168,24,46);fill-rule:nonzero;"/>
        <path d="M36.194,128.837C36.947,129.031 37.188,129.724 37.562,130.271C40.491,134.51 43.29,138.85 46.447,142.925C49.295,146.601 52.52,149.957 55.55,153.474C58.026,156.349 60.561,159.178 63.079,162.021C63.661,162.679 64.285,163.306 64.891,163.948C65.578,163.649 65.506,164.075 65.422,164.509L65.41,164.51C66.584,164.477 66.96,165.734 67.906,166.067C67.817,164.704 66.684,163.957 65.979,162.988C64.216,160.566 62.305,158.26 60.447,155.909C58.658,153.647 56.859,151.399 55.082,149.128C53.274,146.81 51.501,144.461 49.693,142.143C47.467,139.289 45.218,136.458 42.999,133.604C41.057,131.106 39.14,128.586 37.198,126.082C36.091,124.655 34.949,123.251 33.83,121.825C32.433,120.049 31.054,118.257 29.663,116.474C28.127,114.519 26.585,112.566 25.049,110.611C24.863,110.373 24.592,110.283 24.311,110.226C24.169,110.875 24.654,111.265 24.963,111.716C27.675,115.669 30.388,119.629 33.137,123.564C34.307,125.238 35.31,126.991 36.18,128.832L36.194,128.837Z" style="fill:rgb(156,24,44);fill-rule:nonzero;"/>
        <path d="M548.249,169.029C547.232,173.322 546.729,177.715 545.8,182.037C545.351,184.117 545.113,186.263 544.627,188.355C546.736,186.064 548.558,183.548 550.515,181.133C552.863,178.233 555.181,175.305 557.498,172.376C557.836,171.944 558.313,171.586 558.412,170.903C555.05,170.097 551.651,169.576 548.249,169.029Z" style="fill:rgb(190,22,53);fill-rule:nonzero;"/>
        <path d="M23.789,109.84C24.032,109.062 23.513,108.552 23.116,108.021C22.875,107.699 22.557,107.445 22.801,106.991L22.769,106.995C22.524,106.96 22.278,106.925 22.034,106.897C21.962,106.951 21.89,106.999 21.818,107.047C22.472,107.976 23.134,108.911 23.789,109.84Z" style="fill:rgb(156,24,44);fill-rule:nonzero;"/>
        <path d="M21.843,106.034C21.573,105.214 20.871,104.747 20.328,104.142C20.162,103.954 19.936,104.028 19.764,104.212C20.168,104.644 20.347,105.254 20.853,105.609C20.956,105.752 21.051,105.897 21.153,106.034L21.145,106.022C21.374,106.027 21.608,106.031 21.837,106.035L21.843,106.034Z" style="fill:rgb(173,24,48);fill-rule:nonzero;"/>
        <path d="M21.843,106.034C21.615,106.03 21.38,106.026 21.151,106.021C21.243,106.447 21.527,106.75 21.818,107.047C21.89,106.999 21.962,106.945 22.034,106.897C22.069,106.704 22.103,106.504 22.138,106.311L21.844,106.041L21.843,106.034Z" style="fill:rgb(156,24,44);fill-rule:nonzero;"/>
        <path d="M158.13,252.561C158.556,252.209 158.616,251.746 158.515,251.237C158.205,251.627 158.116,252.074 158.13,252.561Z" style="fill:rgb(237,120,155);fill-rule:nonzero;"/>
        <path d="M357.354,374.586C357.853,374.356 357.905,373.932 357.842,373.465C357.494,373.761 357.379,374.153 357.354,374.586Z" style="fill:rgb(58,93,130);fill-rule:nonzero;"/>
        <path d="M190.342,265.39C190.109,265.672 189.99,265.974 190.17,266.329C190.369,266.038 190.469,265.739 190.342,265.39Z" style="fill:rgb(237,120,155);fill-rule:nonzero;"/>
        <path d="M342.341,270.846C342.003,270.686 341.779,270.824 341.628,271.135C341.948,271.246 342.229,271.257 342.341,270.846Z" style="fill:rgb(237,120,155);fill-rule:nonzero;"/>
        <path d="M341.646,271.126C341.404,271.065 341.242,271.176 341.117,271.374C341.357,271.422 341.554,271.385 341.646,271.126Z" style="fill:rgb(237,120,155);fill-rule:nonzero;"/>
        <path d="M21.159,106.033C21.057,105.89 20.961,105.745 20.86,105.608C20.884,105.807 20.967,105.953 21.159,106.033Z" style="fill:rgb(156,24,44);fill-rule:nonzero;"/>
        <path d="M28.709,81.706C28.727,82.172 29.104,82.38 29.413,82.616C32.355,84.834 35.303,87.039 38.251,89.25C40.518,90.953 42.784,92.648 45.051,94.357C49.263,97.52 53.48,100.683 57.687,103.861C61.354,106.628 64.993,109.426 68.666,112.18C72.245,114.868 75.864,117.505 79.444,120.192C82.256,122.303 85.023,124.471 87.835,126.582C88.223,126.873 88.517,127.632 89.23,127.069C89.74,127.508 90.267,127.932 90.76,128.392C93.333,130.78 95.906,133.181 98.473,135.569C98.544,135.677 98.623,135.785 98.695,135.893L98.715,135.95C98.527,136.546 98.811,137.052 99.012,137.581C101.842,145.095 104.666,152.617 107.49,160.139C109.201,164.69 110.925,169.24 112.593,173.81C113.004,174.938 113.693,175.616 114.867,175.837C115.406,175.934 115.764,175.772 115.865,175.213C116.332,172.596 117.307,170.08 117.354,167.384C117.359,167.214 117.357,167.038 117.396,166.877C118.267,163.247 118.93,159.57 119.52,155.883C120.224,155.998 120.701,156.487 121.21,156.919C122.52,158.042 123.983,158.976 125.134,160.288C124.98,161.427 125.93,162.112 126.322,163.021C127.159,164.963 128.201,166.822 129.286,168.975C129.899,167.865 129.375,166.991 129.491,166.182C129.624,165.306 129.157,164.523 129.261,163.67C130.723,164.227 131.714,165.454 132.959,166.317C134.725,167.54 136.409,168.903 138.062,170.27C144.886,175.934 152.236,180.797 159.925,185.176C161.01,185.792 162.041,186.499 163.328,186.634C163.987,186.703 164.463,187.133 164.919,187.559C166.443,188.988 168.108,190.243 169.722,191.562C172.35,193.715 174.979,195.868 177.572,198.058C178.233,198.615 178.734,198.71 179.5,198.212C182.783,196.09 185.957,193.825 189.123,191.542C190.774,190.349 192.522,189.301 194.14,188.054C195.211,187.226 196.416,186.589 197.452,185.687C198.752,184.551 200.463,184.165 202.044,183.561C206.001,182.053 210.053,180.782 213.923,179.037C214.257,178.996 214.678,178.821 214.916,178.954C216.123,179.666 217.527,179.696 218.791,180.173C222.009,181.4 225.34,182.268 228.618,183.293C231.578,184.219 234.496,185.288 237.491,186.126C238.78,186.489 240.158,186.737 241.358,187.332C243.106,188.199 245.038,188.392 246.836,189.09C248.553,189.759 250.415,190.175 252.152,190.796C254.965,191.799 257.831,192.653 260.672,193.561C263.675,194.522 266.635,195.664 269.725,196.372C270.093,196.458 270.594,196.448 270.644,196.963C270.691,197.505 270.184,197.515 269.829,197.649C268.295,198.254 266.662,198.539 265.092,199.012C261.733,200.036 258.393,201.11 255.031,202.115C251.343,203.218 247.623,204.221 243.95,205.388C242.708,205.781 241.415,206.018 240.205,206.505C239.062,206.958 238.946,207.239 239.764,208.168C240.407,208.897 240.888,209.737 241.517,210.461C243.928,213.233 246.084,216.206 248.358,219.086C250.633,221.966 252.913,224.839 255.123,227.779C258.649,232.473 262.408,236.988 266.071,241.58C266.364,241.948 266.581,242.338 266.471,242.827C265.7,242.648 264.965,242.387 264.225,242.087C262.711,241.484 261.23,240.767 259.54,240.642C256.958,240.457 254.372,240.188 251.802,239.897C249.503,239.632 247.196,239.355 244.902,239.186C241.755,238.96 238.596,238.696 235.483,238.277C232.629,237.891 229.754,237.663 226.906,237.224C225.751,237.047 224.551,236.764 223.379,236.823C221.093,236.934 218.84,236.565 216.651,236.189C213.297,235.61 209.881,235.957 206.537,235.189C205.183,234.879 203.676,234.588 202.169,234.734C201.475,234.806 200.665,234.573 200.031,234.241C199,233.69 197.89,233.513 196.795,233.237C196.352,233.129 195.867,233.11 195.477,232.897C193.612,231.875 191.463,231.768 189.51,230.984C187.798,230.302 185.952,229.851 184.183,229.293C181.547,228.457 178.829,227.858 176.242,226.886C174.59,226.268 172.866,225.919 171.209,225.367C168.907,224.6 166.643,223.712 164.266,223.189C163.878,223.107 163.474,223.045 163.11,222.895C159.974,221.592 156.626,220.954 153.451,219.767C150.762,218.762 147.939,218.105 145.19,217.25C141.899,216.227 138.677,214.968 135.283,214.276C135.009,214.219 134.732,214.136 134.466,214.038C132.464,213.274 130.467,212.444 128.349,212.065C126.871,211.804 125.601,211.008 124.151,210.704C123.723,210.613 123.35,210.281 123.158,209.829C123.033,207.962 122.293,206.282 121.548,204.614C121.431,204.355 121.311,204.122 121.354,203.83C120.275,200.556 119.227,197.265 118.104,194.003C116.481,189.265 115.046,184.471 113.398,179.743C112.915,178.349 112.2,177.199 111.24,176.164C110.278,175.123 109.323,174.081 108.368,173.038C103.48,167.697 98.55,162.388 93.62,157.085C88.766,151.863 83.883,146.672 79.04,141.443C76.308,138.495 73.652,135.479 70.933,132.53C65.75,126.913 60.544,121.324 55.35,115.721C50.193,110.153 45.048,104.583 39.891,99.015C35.657,94.447 31.365,89.932 27.202,85.303C25.506,83.42 23.538,81.766 22.158,79.597C24.392,80.131 26.569,80.828 28.695,81.701L28.709,81.706ZM129.927,172.609C130.16,175.994 130.399,179.378 130.579,182.762C130.609,183.325 130.772,183.696 131.158,184.085C134.465,187.418 137.743,190.774 141.032,194.123C141.271,194.367 141.508,194.605 141.747,194.849C142.5,195.63 143.236,196.321 144.507,196.113C145.081,196.017 145.778,196.231 146.32,196.503C148.236,197.467 150.391,197.515 152.357,198.199C155.35,199.239 158.525,199.631 161.452,200.874C163.266,201.642 165.109,201.325 166.954,200.962C169.619,200.44 172.294,199.949 174.961,199.44C175.184,199.399 175.404,199.34 175.618,199.274C175.944,199.176 176.297,199.074 176.248,198.624C176.205,198.271 175.906,198.223 175.641,198.132C172.931,197.174 170.212,196.251 167.517,195.252C164.931,194.293 162.392,193.191 159.788,192.292C157.869,191.628 155.981,190.889 154.078,190.191C151.855,189.376 149.62,188.621 147.421,187.744C145.435,186.952 143.385,186.324 141.373,185.588C140.05,185.105 138.768,184.526 137.439,184.051C136.847,183.837 136.486,183.445 136.234,182.928C134.76,179.944 133.299,176.951 131.838,173.958C131.421,173.11 131.029,172.246 130.293,171.666C129.773,171.938 129.9,172.281 129.921,172.617L129.927,172.609Z" style="fill:rgb(168,24,46);fill-rule:nonzero;"/>
        <path d="M119.519,155.876C120.223,155.992 120.7,156.481 121.209,156.913C122.519,158.036 123.982,158.97 125.133,160.281C126.673,161.213 128.032,162.362 129.267,163.663C130.729,164.22 131.719,165.447 132.965,166.31C134.73,167.533 136.415,168.896 138.068,170.263C144.891,175.927 152.242,180.79 159.93,185.169C161.015,185.785 162.046,186.492 163.333,186.627C163.993,186.696 164.469,187.126 164.925,187.552C166.449,188.981 168.113,190.236 169.728,191.555C172.356,193.708 174.984,195.861 177.578,198.051C178.239,198.608 178.739,198.703 179.505,198.205C182.788,196.083 185.963,193.818 189.128,191.534C190.78,190.342 192.527,189.294 194.146,188.047C195.217,187.219 196.422,186.582 197.458,185.68C198.758,184.544 200.469,184.158 202.049,183.554C206.007,182.046 210.059,180.774 213.929,179.03C213.768,178.255 213.169,178.094 212.519,178.05C207.622,177.738 202.714,177.604 197.843,177.081C194.978,176.774 192.099,176.717 189.24,176.345C187.288,176.096 185.308,176.045 183.335,175.948C182.641,175.916 181.919,175.868 181.346,175.554C180.221,174.93 178.994,174.696 177.775,174.481C174.634,173.934 171.645,172.822 168.597,171.972C166.196,171.302 163.76,170.773 161.364,170.09C159.238,169.485 157.235,168.603 155.451,167.233C153.525,165.756 151.53,164.359 149.558,162.94C146.523,160.759 143.547,158.486 140.412,156.448C138.473,155.187 137.154,153.519 136.02,151.593C135.181,150.172 134.37,148.714 133.347,147.433C132.022,145.765 131.819,143.843 131.667,141.862C131.431,138.868 131.155,135.88 130.919,132.887C130.876,132.325 130.763,131.883 130.179,131.688C129.807,132.528 129.434,133.369 129.061,134.202C128.09,136.536 127.266,138.949 126.121,141.193C124.252,144.862 122.195,148.429 120.173,152.018C119.91,152.48 119.874,153.143 119.251,153.375C119.22,153.594 119.182,153.82 119.15,154.039C118.302,154.827 119.135,155.292 119.496,155.853L119.519,155.876Z" style="fill:rgb(156,24,44);fill-rule:nonzero;"/>
        <path d="M119.519,155.876C119.158,155.321 118.319,154.857 119.173,154.062C118.552,154.047 118.139,153.655 117.721,153.27C111.623,147.628 105.532,141.985 99.439,136.336C99.226,136.134 99.016,135.965 98.714,135.943C98.52,136.54 98.81,137.045 99.011,137.574C101.841,145.089 104.665,152.61 107.49,160.132C109.2,164.684 110.924,169.234 112.592,173.803C113.004,174.932 113.692,175.609 114.866,175.83C115.405,175.927 115.763,175.766 115.864,175.206C116.331,172.589 117.306,170.073 117.353,167.377C117.358,167.207 117.356,167.032 117.395,166.87C118.266,163.24 118.929,159.563 119.519,155.876Z" style="fill:rgb(190,22,53);fill-rule:nonzero;"/>
        <path d="M119.274,153.399C119.897,153.166 119.933,152.504 120.195,152.042C122.218,148.459 124.274,144.885 126.143,141.217C127.288,138.973 128.112,136.559 129.083,134.226C127.781,134.757 126.435,135.202 125.183,135.831C122.803,137.028 120.351,137.218 117.79,136.626C116.792,136.397 115.785,136.208 114.797,135.958C109.957,134.728 104.947,134.352 100.117,133.049C99.969,133.008 99.786,132.946 99.624,133.272C100.118,134.006 100.847,134.646 101.492,135.283C104.284,138.022 106.88,140.928 109.584,143.749C112.244,146.529 114.875,149.34 117.552,152.105C118.044,152.612 118.42,153.341 119.274,153.399Z" style="fill:rgb(217,25,74);fill-rule:nonzero;"/>
        <path d="M28.709,81.705C28.727,82.172 29.104,82.38 29.413,82.616C32.355,84.834 35.303,87.039 38.251,89.25C40.518,90.952 42.784,92.648 45.051,94.357C49.263,97.52 53.48,100.683 57.687,103.86C61.354,106.628 64.993,109.426 68.666,112.18C72.245,114.868 75.864,117.505 79.444,120.192C82.256,122.303 85.023,124.471 87.835,126.582C88.223,126.873 88.517,127.632 89.23,127.069C85.516,123.499 81.629,120.113 77.794,116.669C76.104,115.157 74.487,113.544 72.668,112.204C71.113,111.053 70.272,109.235 68.519,108.271C66.737,107.291 65.133,105.996 63.455,104.847C61.77,103.692 60.086,102.55 58.401,101.396C49.564,95.354 40.72,89.312 31.889,83.263C30.9,82.583 29.904,81.95 28.709,81.712L28.709,81.705Z" style="fill:rgb(156,24,44);fill-rule:nonzero;"/>
        <path d="M98.473,135.569C98.545,135.678 98.623,135.785 98.695,135.894C98.72,135.721 98.647,135.613 98.473,135.569Z" style="fill:rgb(190,22,53);fill-rule:nonzero;"/>
        <path d="M123.178,209.84C123.054,207.973 122.313,206.292 121.568,204.625C121.452,204.365 121.332,204.133 121.375,203.841C120.774,203.778 120.344,203.407 119.903,203.051C116.126,199.971 112.28,196.971 108.588,193.795C103.041,189.03 97.28,184.539 91.659,179.868C91.311,179.578 86.282,175.219 85.907,174.972C85.787,175.429 90.698,179.836 90.993,180.119C95.8,184.74 100.606,189.361 105.396,194.004C109.573,198.058 113.721,202.141 117.882,206.217C118.732,207.044 119.583,207.877 120.393,208.742C121.164,209.559 122.21,209.594 123.185,209.845L123.178,209.84Z" style="fill:rgb(150,24,42);fill-rule:nonzero;"/>
        <path d="M83.559,172.608C83.637,172.188 83.488,171.927 83.039,171.877C83.074,172.218 83.278,172.441 83.559,172.608Z" style="fill:rgb(230,43,91);fill-rule:nonzero;"/>
        <path d="M82.538,171.08C82.454,170.764 82.238,170.602 81.922,170.575C82.006,170.891 82.233,171.033 82.538,171.08Z" style="fill:rgb(237,120,155);fill-rule:nonzero;"/>
        <path d="M83.048,171.891C83.078,171.659 82.97,171.522 82.754,171.463C82.695,171.405 82.619,171.369 82.526,171.361C82.564,171.669 82.753,171.829 83.041,171.891L83.048,171.891Z" style="fill:rgb(230,43,91);fill-rule:nonzero;"/>
        <path d="M248.104,253.078C248.225,253.004 248.347,252.937 248.463,252.864C248.341,252.938 248.219,253.005 248.104,253.078Z" style="fill:rgb(237,120,155);fill-rule:nonzero;"/>
        <path d="M82.526,171.361C82.612,171.37 82.687,171.4 82.754,171.463C82.794,171.256 82.67,171.154 82.522,171.055C82.456,171.161 82.462,171.264 82.533,171.36L82.526,171.361Z" style="fill:rgb(237,120,155);fill-rule:nonzero;"/>
        <path d="M67.912,166.06C67.925,166.111 67.944,166.213 67.963,166.211C68.087,166.209 68.067,166.152 67.918,166.059L67.912,166.06Z" style="fill:rgb(156,24,44);fill-rule:nonzero;"/>
        <path d="M65.43,164.509C65.513,164.075 65.585,163.648 64.898,163.948C64.966,164.239 65.15,164.413 65.43,164.509Z" style="fill:rgb(173,24,48);fill-rule:nonzero;"/>
        <path d="M508.142,162.509C508.082,162.601 508.049,162.703 508.029,162.81C508.173,162.812 508.251,162.757 508.236,162.635C508.23,162.59 508.174,162.551 508.136,162.51L508.142,162.509Z" style="fill:rgb(150,24,42);fill-rule:nonzero;"/>
        <path d="M22.137,106.304C22.102,106.498 22.068,106.697 22.033,106.89C22.278,106.925 22.524,106.96 22.768,106.989C22.705,106.632 22.547,106.352 22.143,106.297L22.137,106.304Z" style="fill:rgb(173,24,48);fill-rule:nonzero;"/>
        <path d="M130.299,171.658C129.779,171.931 129.905,172.273 129.927,172.609C130.16,175.994 130.399,179.378 130.579,182.762C130.609,183.325 130.772,183.696 131.158,184.085C134.465,187.418 137.743,190.774 141.032,194.123C141.271,194.367 141.508,194.605 141.747,194.849C142.5,195.63 143.236,196.321 144.507,196.113C145.081,196.017 145.778,196.231 146.32,196.503C148.236,197.467 150.391,197.515 152.357,198.199C155.35,199.239 158.525,199.631 161.452,200.874C163.266,201.642 165.109,201.325 166.954,200.962C169.619,200.44 172.294,199.949 174.961,199.44C175.184,199.399 175.404,199.34 175.618,199.274C175.944,199.176 176.297,199.074 176.248,198.624C176.205,198.271 175.906,198.223 175.641,198.132C172.931,197.174 170.212,196.25 167.517,195.252C164.931,194.293 162.392,193.191 159.788,192.292C157.869,191.628 155.981,190.889 154.078,190.191C151.855,189.376 149.62,188.621 147.421,187.744C145.435,186.952 143.385,186.324 141.373,185.587C140.05,185.105 138.768,184.526 137.439,184.051C136.847,183.837 136.486,183.445 136.234,182.928C134.76,179.944 133.299,176.951 131.838,173.958C131.421,173.11 131.029,172.246 130.293,171.666L130.299,171.658Z" style="fill:rgb(168,24,46);fill-rule:nonzero;"/>
        <path d="M19.77,104.211L26.023,110.218L22.961,102.719L19.568,100.914L19.77,104.211Z" style="fill:rgb(233,83,128);fill-rule:nonzero;"/>
        <path d="M19.77,104.211L19.864,104.343L24.983,111.72L25.069,110.615L22.596,106.965" style="fill:rgb(156,24,44);fill-rule:nonzero;"/>
        <path d="M66.294,106.915L75.86,114.867C75.86,114.867 70.691,102.989 70.256,102.893C69.821,102.796 63.139,101.153 63.139,101.153L66.301,106.914L66.294,106.915Z" style="fill:rgb(230,43,91);fill-rule:nonzero;"/>
        <path d="M343.154,270.889L339.538,272.049L344.098,269.504L343.154,270.889Z" style="fill:rgb(237,120,155);fill-rule:nonzero;"/>
        <path d="M340.021,271.788L345.026,269.051L343.904,268.134L340.021,271.788Z" style="fill:rgb(150,24,42);fill-rule:nonzero;"/>
        <path d="M129.267,163.663L177.58,198.07L137.445,184.043L129.267,163.663Z" style="fill:rgb(168,24,46);fill-rule:nonzero;"/>
        <path d="M177.58,198.07L118.866,155.279L122.921,147.181L174.442,190.319L177.58,198.07Z" style="fill:rgb(156,24,44);fill-rule:nonzero;"/>
        <path d="M136.239,182.921L119.519,155.876L178.486,198.18L136.239,182.921Z" style="fill:rgb(168,24,46);fill-rule:nonzero;"/>
        <path d="M119.261,157.653L119.986,154.848L110.813,146.867L115.864,175.206L119.261,157.653Z" style="fill:rgb(190,22,53);fill-rule:nonzero;"/>
        <path d="M131.011,130.185L118.866,155.279L130.874,164.026L131.011,130.185Z" style="fill:rgb(156,24,44);fill-rule:nonzero;"/>
        <path d="M130.385,131.558L118.866,155.279L99.625,133.278L120.745,136.29L130.385,131.558Z" style="fill:rgb(217,25,74);fill-rule:nonzero;"/>
        <path d="M118.866,155.279L112.626,176.847L119.547,179.484L122.256,162.106L120.408,156.171" style="fill:rgb(168,24,46);fill-rule:nonzero;"/>
        <path d="M179.508,198.224L133.548,171.97L120.908,170.765L119.461,183.93L123.273,198.13L150.459,211.934L172.434,211.506L179.508,198.224Z" style="fill:rgb(168,24,46);fill-rule:nonzero;"/>
        <path d="M85.979,175.086L13.845,82.981L23.949,105.144L77.755,167.185L85.979,175.086Z" style="fill:rgb(233,83,128);fill-rule:nonzero;"/>
        <path d="M273.13,198.964L209.66,177.899L241.611,179.146L277.722,196.095" style="fill:rgb(150,24,42);fill-rule:nonzero;"/>
        <path d="M213.937,179.042L181.628,176.841L157.272,169.7L137.594,155.295L131.742,146.451L130.195,131.712L152.797,152.649L213.937,179.042Z" style="fill:rgb(150,24,42);fill-rule:nonzero;"/>
        <path d="M270.906,198.624L208.79,177.921L221.163,178.429L272.263,196.673L270.906,198.624Z" style="fill:rgb(150,24,42);fill-rule:nonzero;"/>
        <path d="M266.091,241.584L259.312,238.989L218.576,234.409L199.338,231.349L123.148,208.906L124.165,210.715L200.117,235.207L261.523,241.936L266.491,242.831L266.091,241.584Z" style="fill:rgb(168,24,46);fill-rule:nonzero;"/>
        <path d="M338.662,271.916L266.316,243.686L238.401,207.306L270.658,196.968L338.662,271.916Z" style="fill:rgb(150,24,42);fill-rule:nonzero;"/>
    </g>
</svg>
