<svg width="206" height="56" viewBox="0 0 206 56" fill="none" xmlns="http://www.w3.org/2000/svg">
<path d="M14.5416 32.6749C13.8994 32.6749 13.4157 32.3261 13.1065 31.6283L8.54739 21.8045C8.39674 21.4477 8.12716 21.2653 7.73864 21.2653H4.06758C3.81385 21.2653 3.67906 21.3922 3.67906 21.6538V31.5094C3.67906 31.8741 3.57599 32.1516 3.36984 32.3578C3.16369 32.5639 2.87825 32.667 2.52145 32.667H1.16561C0.808812 32.667 0.523372 32.5639 0.317222 32.3578C0.111071 32.1516 0.00799561 31.8662 0.00799561 31.5094V7.54043C0.00799561 7.1757 0.111071 6.89819 0.317222 6.69204C0.523372 6.48589 0.808812 6.38281 1.16561 6.38281H9.09448C10.1252 6.38281 11.0926 6.56518 11.9964 6.94576C12.9003 7.31842 13.6774 7.8338 14.3355 8.49189C14.9936 9.14999 15.5089 9.92702 15.8816 10.8309C16.2543 11.7348 16.4445 12.7021 16.4445 13.7329C16.4445 15.1997 16.0957 16.508 15.39 17.6418C14.6843 18.7756 13.8042 19.6399 12.7259 20.2346C12.3136 20.4645 12.2264 20.8371 12.4563 21.3525L17.0947 31.2953C17.2771 31.6759 17.285 32.0089 17.1344 32.2785C16.9837 32.5481 16.7141 32.6829 16.3256 32.6829H14.5495L14.5416 32.6749ZM8.85662 17.7845C9.37199 17.7845 9.87151 17.6894 10.3472 17.4912C10.823 17.3009 11.2432 17.0234 11.6 16.6586C11.9568 16.3018 12.2502 15.8657 12.4722 15.3662C12.6942 14.8667 12.7973 14.3196 12.7973 13.7249C12.7973 13.1303 12.6863 12.599 12.4722 12.1233C12.2581 11.6476 11.9647 11.2432 11.6 10.9102C11.2432 10.5693 10.823 10.3155 10.3472 10.1332C9.87151 9.9508 9.37199 9.86359 8.85662 9.86359H4.09929C3.83764 9.86359 3.71078 9.99838 3.71078 10.2521V17.4039C3.71078 17.6577 3.83764 17.7925 4.09929 17.7925H8.85662V17.7845Z" fill="white"/>
<path d="M43.3472 32.6749C42.9904 32.6749 42.7049 32.5719 42.4988 32.3657C42.2926 32.1596 42.1896 31.8741 42.1896 31.5173V21.4635C42.1896 21.2098 42.0548 21.075 41.801 21.075H32.7145C32.4529 21.075 32.326 21.2019 32.326 21.4635V31.5173C32.326 31.8821 32.223 32.1596 32.0168 32.3657C31.8107 32.5719 31.5252 32.6749 31.1684 32.6749H29.8126C29.4479 32.6749 29.1703 32.5719 28.9642 32.3657C28.758 32.1596 28.655 31.8741 28.655 31.5173V7.54043C28.655 7.1757 28.758 6.89819 28.9642 6.69204C29.1703 6.48589 29.4558 6.38281 29.8126 6.38281H31.1684C31.5252 6.38281 31.8107 6.48589 32.0168 6.69204C32.223 6.89819 32.326 7.18363 32.326 7.54043V17.2057C32.326 17.4594 32.4529 17.5942 32.7145 17.5942H41.801C42.0548 17.5942 42.1896 17.4674 42.1896 17.2057V7.54043C42.1896 7.1757 42.2926 6.89819 42.4988 6.69204C42.7049 6.48589 42.9904 6.38281 43.3472 6.38281H44.703C45.0598 6.38281 45.3452 6.48589 45.5514 6.69204C45.7575 6.89819 45.8606 7.18363 45.8606 7.54043V31.5173C45.8606 31.8821 45.7575 32.1596 45.5514 32.3657C45.3452 32.5719 45.0598 32.6749 44.703 32.6749H43.3472Z" fill="white"/>
<path d="M60.1723 32.6749C59.8075 32.6749 59.53 32.5719 59.3239 32.3657C59.1177 32.1596 59.0146 31.8741 59.0146 31.5173V7.54043C59.0146 7.1757 59.1177 6.89819 59.3239 6.69204C59.53 6.48589 59.8155 6.38281 60.1723 6.38281H61.5281C61.8849 6.38281 62.1703 6.48589 62.3765 6.69204C62.5826 6.89819 62.6857 7.18363 62.6857 7.54043V31.5173C62.6857 31.8821 62.5826 32.1596 62.3765 32.3657C62.1703 32.5719 61.8849 32.6749 61.5281 32.6749H60.1723Z" fill="white"/>
<path d="M75.8318 32.675C75.475 32.675 75.1896 32.5719 74.9834 32.3657C74.7773 32.1596 74.6742 31.8741 74.6742 31.5173V30.6293C74.6742 30.3201 74.7218 30.0267 74.809 29.7571C74.8962 29.4876 75.0706 29.1704 75.3323 28.8136L87.9392 10.371C88.0185 10.2442 88.0185 10.1253 87.963 10.0222C87.8996 9.9191 87.7806 9.87153 87.5983 9.87153H77.0053C76.6406 9.87153 76.363 9.76845 76.1569 9.5623C75.9507 9.35615 75.8477 9.07071 75.8477 8.71391V7.5563C75.8477 7.19157 75.9507 6.91406 76.1569 6.70791C76.363 6.50176 76.6485 6.39868 77.0053 6.39868H92.0463C92.4031 6.39868 92.6886 6.50176 92.8947 6.70791C93.1009 6.91406 93.204 7.1995 93.204 7.5563V8.40469C93.204 8.71391 93.1326 9.02314 92.9899 9.33236C92.8472 9.64159 92.6727 9.95082 92.4666 10.26L79.939 28.5916C79.8121 28.774 79.7804 28.9167 79.8438 29.0356C79.9072 29.1545 80.0579 29.21 80.2878 29.21H92.4269C92.7917 29.21 93.0692 29.3131 93.2753 29.5193C93.4815 29.7254 93.5846 30.0109 93.5846 30.3677V31.5253C93.5846 31.89 93.4815 32.1675 93.2753 32.3737C93.0692 32.5798 92.7837 32.6829 92.4269 32.6829H75.8397L75.8318 32.675Z" fill="white"/>
<path d="M123.397 24.1672C123.397 25.4834 123.167 26.6886 122.723 27.7828C122.271 28.877 121.637 29.8126 120.828 30.5896C120.019 31.3587 119.052 31.9692 117.942 32.4053C116.832 32.8414 115.619 33.0634 114.311 33.0634C113.002 33.0634 111.781 32.8414 110.671 32.4053C109.561 31.9692 108.602 31.3587 107.793 30.5896C106.984 29.8205 106.35 28.8849 105.898 27.7828C105.446 26.6886 105.224 25.4834 105.224 24.1672V14.8825C105.224 13.5663 105.454 12.3611 105.898 11.267C106.35 10.1728 106.976 9.23717 107.793 8.46014C108.602 7.69104 109.561 7.08051 110.671 6.64442C111.781 6.20834 112.994 5.98633 114.311 5.98633C115.627 5.98633 116.84 6.20834 117.942 6.64442C119.052 7.08051 120.011 7.69104 120.828 8.46014C121.637 9.22924 122.271 10.1648 122.723 11.267C123.175 12.3611 123.397 13.5663 123.397 14.8825V24.1672ZM119.718 14.8825C119.718 13.3364 119.258 12.044 118.331 11.0132C117.403 9.98248 116.063 9.4671 114.311 9.4671C112.558 9.4671 111.218 9.98248 110.291 11.0132C109.363 12.044 108.895 13.3364 108.895 14.8825V24.1672C108.895 25.7134 109.363 27.0058 110.291 28.0365C111.218 29.0673 112.558 29.5826 114.311 29.5826C116.063 29.5826 117.403 29.0673 118.331 28.0365C119.258 27.0058 119.718 25.7134 119.718 24.1672V14.8825Z" fill="white"/>
<path d="M155.303 32.6749C154.938 32.6749 154.661 32.5719 154.455 32.3657C154.248 32.1596 154.145 31.8741 154.145 31.5173V13.6139C154.145 13.384 154.066 13.2254 153.915 13.1541C153.765 13.0748 153.63 13.1779 153.527 13.4633L149.618 24.4844C149.356 25.1822 148.896 25.531 148.223 25.531H145.749C145.075 25.531 144.615 25.1822 144.353 24.4844L140.444 13.4633C140.341 13.2254 140.214 13.1144 140.056 13.1144C139.897 13.1144 139.818 13.2809 139.818 13.6139V31.5173C139.818 31.8821 139.715 32.1596 139.509 32.3657C139.303 32.5719 139.017 32.6749 138.66 32.6749H137.304C136.94 32.6749 136.662 32.5719 136.456 32.3657C136.25 32.1596 136.147 31.8741 136.147 31.5173V7.54043C136.147 7.1757 136.25 6.89819 136.456 6.69204C136.662 6.48589 136.948 6.38281 137.304 6.38281H140.706C141.063 6.38281 141.348 6.4621 141.554 6.62861C141.76 6.79511 141.911 7.02505 142.014 7.30256L146.581 20.7975C146.661 21.0512 146.779 21.1781 146.946 21.1622C147.112 21.1464 147.247 21.0274 147.35 20.7975L151.917 7.30256C152.02 7.01712 152.171 6.79511 152.377 6.62861C152.583 6.4621 152.869 6.38281 153.226 6.38281H156.627C156.984 6.38281 157.269 6.48589 157.476 6.69204C157.682 6.89819 157.785 7.18363 157.785 7.54043V31.5173C157.785 31.8821 157.682 32.1596 157.476 32.3657C157.269 32.5719 156.984 32.6749 156.627 32.6749H155.271H155.303Z" fill="white"/>
<path d="M172.128 32.6749C171.763 32.6749 171.486 32.5719 171.28 32.3657C171.074 32.1596 170.971 31.8741 170.971 31.5173V7.54043C170.971 7.1757 171.074 6.89819 171.28 6.69204C171.486 6.48589 171.771 6.38281 172.128 6.38281H184.894C185.25 6.38281 185.536 6.48589 185.742 6.69204C185.948 6.89819 186.051 7.18363 186.051 7.54043V8.69804C186.051 9.05484 185.948 9.34028 185.742 9.54643C185.536 9.75258 185.25 9.85566 184.894 9.85566H175.03C174.768 9.85566 174.642 9.99045 174.642 10.2442V17.2057C174.642 17.4594 174.768 17.5942 175.03 17.5942H184.117C184.473 17.5942 184.759 17.6973 184.965 17.9035C185.171 18.1096 185.274 18.3951 185.274 18.7519V19.9095C185.274 20.2742 185.171 20.5517 184.965 20.7579C184.759 20.964 184.473 21.0671 184.117 21.0671H175.03C174.768 21.0671 174.642 21.1939 174.642 21.4556V28.8057C174.642 29.0594 174.768 29.1942 175.03 29.1942H185.663C186.02 29.1942 186.305 29.2972 186.511 29.5034C186.717 29.7096 186.82 29.995 186.82 30.3518V31.5094C186.82 31.8741 186.717 32.1516 186.511 32.3578C186.305 32.5639 186.02 32.667 185.663 32.667H172.128V32.6749Z" fill="white"/>
<path d="M193.908 2.02173C193.885 1.93452 193.782 1.57772 193.782 1.07027C193.782 0.562822 193.885 0.206023 193.908 0.118805C193.996 0.0950187 194.345 -0.00805664 194.86 -0.00805664C195.375 -0.00805664 195.724 0.0950187 195.811 0.118805C195.835 0.198094 195.938 0.554893 195.938 1.07027C195.938 1.58565 195.835 1.92659 195.811 2.02173C195.724 2.03759 195.367 2.14067 194.86 2.14067C194.352 2.14067 193.996 2.03759 193.908 2.02173ZM195.899 6.12889V12.4641C195.899 13.2252 196.025 13.915 196.485 14.5811C196.414 14.6286 196.049 14.9934 195.518 14.9934C194.527 14.9934 193.853 14.2798 193.853 12.8209V6.12889C193.853 5.61351 193.805 4.82855 193.782 4.74927C193.885 4.72548 194.368 4.59862 194.876 4.59862C195.383 4.59862 195.93 4.72548 195.986 4.74927C195.954 4.82063 195.906 5.61351 195.906 6.12889H195.899Z" fill="white"/>
<path d="M199.221 6.39855L198.151 6.3589V4.80484C198.5 4.78899 198.856 4.77313 199.221 4.7652V2.35482C199.221 1.83945 199.166 1.02277 199.15 0.943483C199.261 0.911767 201.132 0.436035 201.338 0.436035C201.322 0.507395 201.267 1.32407 201.267 1.83945V4.67005L205.358 4.5194V6.56505L200.371 6.42233L201.259 6.85049V10.5216C201.259 12.4245 201.782 13.1936 202.765 13.1936C203.748 13.1936 204.605 12.8368 205.413 12.5038L205.992 14.4701C205.62 14.6129 204.121 14.9776 202.329 14.9776C200.307 14.9776 199.213 13.2729 199.213 10.1251V6.38269L199.221 6.39855Z" fill="white"/>
<path d="M32.2624 42.6812L32.2465 44.2352H27.1007V47.1927H31.7629V48.7309H27.1007V52.9332H25.3722V42.6812H32.2545H32.2624Z" fill="white"/>
<path d="M38.669 45.0837V46.6933C37.0991 46.6061 36.1079 47.5258 35.9732 48.8658V52.9412H34.2922V45.1472H35.9732V46.7012C36.5044 45.6467 37.44 45.0917 38.669 45.0917V45.0837Z" fill="white"/>
<path d="M47.5018 49.6824H41.6107C41.8723 50.8875 42.8 51.6329 44.029 51.6329C44.8773 51.6329 45.6544 51.3078 46.2253 50.721L47.1212 51.6725C46.36 52.505 45.2421 52.9887 43.8942 52.9887C41.4917 52.9887 39.9059 51.395 39.9059 49.048C39.9059 46.7011 41.5314 45.0915 43.8466 45.0757C46.59 45.0757 47.7 46.8597 47.4939 49.6744L47.5018 49.6824ZM46.035 48.4534C45.9795 47.1927 45.139 46.4315 43.8624 46.4315C42.5859 46.4315 41.7534 47.2086 41.5789 48.4534H46.035Z" fill="white"/>
<path d="M56.6991 49.6824H50.808C51.0696 50.8875 51.9973 51.6329 53.2263 51.6329C54.0747 51.6329 54.8517 51.3078 55.4226 50.721L56.3185 51.6725C55.5574 52.505 54.4394 52.9887 53.0915 52.9887C50.689 52.9887 49.1033 51.395 49.1033 49.048C49.1033 46.7011 50.7287 45.0915 53.0439 45.0757C55.7873 45.0757 56.8974 46.8597 56.6912 49.6744L56.6991 49.6824ZM55.2323 48.4534C55.1768 47.1927 54.3363 46.4315 53.0598 46.4315C51.7832 46.4315 50.9507 47.2086 50.7763 48.4534H55.2323Z" fill="white"/>
<path d="M60.7985 42.0627V52.9332H59.1176V42.0627H60.7985Z" fill="white"/>
<path d="M68.6243 52.9333V51.9818C68.0693 52.6717 67.1733 53.0047 66.0474 53.0047C64.3665 53.0047 63.304 51.966 63.304 50.5864C63.304 49.2067 64.3744 48.2553 66.2457 48.2394H68.6085V48.0016C68.6085 47.0184 67.9821 46.4316 66.7452 46.4316C65.9999 46.4316 65.2228 46.6933 64.4458 47.2245L63.756 46.0511C64.8423 45.4088 65.6351 45.0679 67.1099 45.0679C69.1159 45.0679 70.2497 46.0907 70.2577 47.8113L70.2735 52.9254H68.6164L68.6243 52.9333ZM68.6085 50.1899V49.4684H66.4994C65.3973 49.4684 64.8898 49.7618 64.8898 50.5071C64.8898 51.2127 65.4607 51.6647 66.3963 51.6647C67.6015 51.6647 68.5212 51.0383 68.6085 50.182V50.1899Z" fill="white"/>
<path d="M80.5809 48.0888V52.9412H78.8999V48.5566C78.8999 47.3831 78.1943 46.6695 77.0208 46.6695C75.7284 46.6854 74.9276 47.5813 74.8086 48.7945V52.9412H73.1277V45.1472H74.8086V46.6378C75.3637 45.5515 76.3627 45.0837 77.6789 45.0837C79.4946 45.0837 80.5809 46.2255 80.5809 48.0888Z" fill="white"/>
<path d="M86.6863 46.5584C85.3384 46.5584 84.3711 47.5733 84.3711 49.048C84.3711 50.5228 85.3384 51.5377 86.6863 51.5377C87.6695 51.5377 88.4624 51.2126 88.9857 50.6021L89.9213 51.5377C89.2156 52.4575 88.0897 52.9887 86.607 52.9887C84.2918 52.9887 82.6822 51.395 82.6822 49.048C82.6822 46.7011 84.2918 45.0757 86.607 45.0757C88.0104 45.0757 89.1125 45.5276 89.8341 46.3522L88.9143 47.4385C88.3752 46.8835 87.6219 46.5425 86.6863 46.5584Z" fill="white"/>
<path d="M98.8174 49.6824H92.9263C93.1879 50.8875 94.1156 51.6329 95.3446 51.6329C96.193 51.6329 96.97 51.3078 97.5409 50.721L98.4368 51.6725C97.6757 52.505 96.5577 52.9887 95.2098 52.9887C92.8073 52.9887 91.2216 51.395 91.2216 49.048C91.2216 46.7011 92.847 45.0915 95.1622 45.0757C97.9056 45.0757 99.0156 46.8597 98.8095 49.6744L98.8174 49.6824ZM97.3506 48.4534C97.2951 47.1927 96.4546 46.4315 95.1781 46.4315C93.9015 46.4315 93.069 47.2086 92.8945 48.4534H97.3506Z" fill="white"/>
<path d="M112.249 50.618H107.079L106.096 52.9332H104.296L108.824 42.6812H110.6L115.08 52.9332H113.232L112.249 50.618ZM111.591 49.0798L109.656 44.5207L107.722 49.0798H111.591Z" fill="white"/>
<path d="M125.038 45.1391V52.172C125.038 54.4159 123.445 55.8193 120.995 55.8193C119.781 55.8193 118.711 55.4387 117.76 54.7965L118.481 53.5834C119.21 54.1225 119.972 54.4318 120.931 54.4318C122.414 54.4318 123.381 53.5675 123.381 52.2196V51.2364C122.85 52.0848 121.978 52.5526 120.804 52.5526C118.695 52.5526 117.284 51.0303 117.284 48.7864C117.284 46.5425 118.679 45.0916 120.741 45.0836C121.938 45.0678 122.834 45.5514 123.381 46.3998V45.1391H125.054H125.038ZM123.365 48.834C123.365 47.4306 122.445 46.4474 121.121 46.4474C119.797 46.4474 118.862 47.4464 118.854 48.834C118.87 50.2374 119.773 51.2364 121.121 51.2364C122.469 51.2364 123.365 50.2374 123.365 48.834Z" fill="white"/>
<path d="M134.822 49.6824H128.931C129.193 50.8875 130.12 51.6329 131.349 51.6329C132.198 51.6329 132.975 51.3078 133.546 50.721L134.442 51.6725C133.681 52.505 132.563 52.9887 131.215 52.9887C128.812 52.9887 127.226 51.395 127.226 49.048C127.226 46.7011 128.852 45.0915 131.167 45.0757C133.91 45.0757 135.02 46.8597 134.814 49.6744L134.822 49.6824ZM133.355 48.4534C133.3 47.1927 132.459 46.4315 131.183 46.4315C129.906 46.4315 129.074 47.2086 128.899 48.4534H133.355Z" fill="white"/>
<path d="M144.622 48.0888V52.9412H142.942V48.5566C142.942 47.3831 142.236 46.6695 141.062 46.6695C139.77 46.6854 138.969 47.5813 138.85 48.7945V52.9412H137.169V45.1472H138.85V46.6378C139.405 45.5515 140.404 45.0837 141.72 45.0837C143.536 45.0837 144.622 46.2255 144.622 48.0888Z" fill="white"/>
<path d="M150.728 46.5584C149.38 46.5584 148.412 47.5733 148.412 49.048C148.412 50.5228 149.38 51.5377 150.728 51.5377C151.711 51.5377 152.504 51.2126 153.027 50.6021L153.963 51.5377C153.257 52.4575 152.131 52.9887 150.648 52.9887C148.333 52.9887 146.724 51.395 146.724 49.048C146.724 46.7011 148.333 45.0757 150.648 45.0757C152.052 45.0757 153.154 45.5276 153.875 46.3522L152.956 47.4385C152.417 46.8835 151.663 46.5425 150.728 46.5584Z" fill="white"/>
<path d="M156.841 55.851C156.135 55.851 155.58 55.6448 155.041 55.1929L155.763 53.8925C156.127 54.1542 156.421 54.2731 156.777 54.2731C157.293 54.2731 157.697 53.9956 157.967 53.4089L158.228 52.8221L155.001 45.147H156.746L159.077 51.054L161.241 45.147H162.922L159.378 54.0115C158.894 55.2404 158.014 55.8589 156.841 55.8589V55.851Z" fill="white"/>
</svg>
