<svg width="107" height="107" viewBox="0 0 107 107" fill="none" xmlns="http://www.w3.org/2000/svg">
<circle cx="53" cy="53" r="53" fill="#035591"/>
<path opacity="0.5" d="M68.5562 74.3798L46.0613 56.7051L11.7832 70.095L48 106.5L63 105L75.5 101L80 97.9999L70.163 85.0917V77.5933L87.302 67.417L100 77.5933L104 67.417L106 58.4999L102.299 51.3492L91.0512 43.8509L77.6613 41.7085L68.5562 49.7424H61.5935L72.3054 61.5255H77.6613L83.5529 65.2747L68.5562 74.3798Z" fill="#24293A"/>
<path d="M14.9967 75.5023L6.59193 77.9743L2.67797 77.0578L0 60.2585L6.59193 59.0225L11.9479 56.9625L18.9518 51.1946L30.5289 47.0646H36.4204L38.7276 49.1346L60.1514 39.2467V35.9507L61.3874 32.6548L73.3353 24.8268L80.3392 24.0028L91.4631 16.5869H95.8714L101.763 25.2388V32.6548L98.467 33.8907L95.1711 35.9507L93.9351 39.2467L93.1935 41.7086L97.231 44.6026L100.115 47.8986L106.5 54.5001L105.883 57.5001L104 55.5001L100.115 52.4306L95.1711 46.2506H91.4631L90.2271 49.1346L84.0472 51.1946H81.946L79.268 49.1346L74.1593 47.8986L71.6873 49.1346H68.3913L63.0354 51.1946L60.1514 49.1346V43.3666L41.1996 52.4306L44.9076 55.7265V59.0225L41.1996 61.0825L40.3756 63.5544L37.0796 65.2024L33.3717 70.1464V75.5023L26.7797 79.2103L22.2478 77.9743V86.6986L23 94.4541V97.0001L20 95.0001V93.0001L18.9518 80.8583V76.3263L14.9967 75.5023Z" fill="white"/>
<path d="M60.4523 41.6337L60.1738 49.2815L63.8946 50.6907L67.298 49.1924L71.3697 49.8496L73.5087 47.4211L74.1492 48.5295L78.2655 49.2815L81.1453 45.4437L83.4458 39.8903L83.5906 35.2392L80.2318 34.6042L78.739 35.6625L76.5611 35.2838L72.2275 36.0469L67.6211 36.0023L66.3009 37.9184L66.9972 42.5249L64.6132 46.0007L61.9395 46.5633L59.0264 35.9633L60.5526 33.4791L68.1836 28.0203L73.8429 25.3355L83.3121 23.5085" stroke="#0F4276" stroke-width="1.30341" stroke-miterlimit="10"/>
<path d="M79.6198 24.2215L91.5001 17" stroke="#0F4276" stroke-width="1.30341" stroke-miterlimit="10"/>
<path d="M86.3205 47.6883L87.5571 43.2322L87.8412 38.5088L84.9169 37.7847L83.4464 39.8902" stroke="#0F4276" stroke-width="1.30341" stroke-miterlimit="10"/>
<path d="M79.062 48.2175L79.9198 50.0222L83.0669 51.2309L89.8123 48.858L91.6727 45.1038" stroke="#0F4276" stroke-width="1.30341" stroke-miterlimit="10"/>
<path d="M93.0545 41.5836L93.8677 38.8264L92.7983 30.8778L89.0217 26.7949" stroke="#0F4276" stroke-width="1.30341" stroke-miterlimit="10"/>
<path d="M93.8681 38.8263L97.6001 35.0609L102 33.5" stroke="#0F4276" stroke-width="1.30341" stroke-miterlimit="10"/>
<path d="M73.5093 47.4211L75.9212 43.1433L77.5477 39.0548L78.7397 35.6626" stroke="#0F4276" stroke-width="1.30341" stroke-miterlimit="10"/>
<path d="M77.9878 37.7959L76.5452 36.2585L72.2283 36.0469L70.9361 39.3611L67.2988 49.1924" stroke="#0F4276" stroke-width="1.30341" stroke-miterlimit="10"/>
<path d="M77.4252 37.7569L75.5871 35.2671L78.7398 35.6626L77.4252 37.7569Z" fill="#0F4276"/>
<path opacity="0.2" d="M87.5566 43.2323L82.8443 41.3385L83.3178 40.1966L77.8423 38.7874L77.9871 37.7959L71.3364 38.3362L72.133 36.292L69.1641 34.6321L65.6048 35.022L63.4046 39.7399L64.4406 45.8503L62.5969 46.424L61.2935 45.4047L60.7699 42.291L59.94 43.6L60.1739 49.2815L63.4881 50.5348L67.6713 49.2536L71.3699 49.8496L73.4197 47.5213L74.9737 49.1924L78.5943 49.1255L79.3295 48.7746L79.92 50.0223L83.0671 51.231L86.8938 49.8831L90.0075 48.407L90.8541 46.7582L89.2165 45.1095L87.033 45.1206L87.5566 43.2323Z" fill="#0F4276"/>
<path opacity="0.2" d="M61.2935 45.4046L62.5969 46.4239L64.4406 45.8502L67.7381 46.2958L74.4111 45.8223L75.5864 43.7335L80.8279 45.477L80.1874 46.591L86.1641 47.3541L90.0075 48.4069L83.0671 51.2309L79.92 50.0222L79.3295 48.7745L77.6474 49.571L74.9737 49.1923L73.4197 47.5212L71.3699 49.8495L67.6713 49.2535L64.5409 50.7352L60.5471 50.0612L60.1739 49.2814L59.94 43.5999L61.2935 45.4046Z" fill="#0F4276"/>
<path opacity="0.2" d="M74.0654 35.1779L78.7165 32.6323L83.8076 33.0501L89.3944 38.3138L93.4049 39.0435L92.7253 41.7395L90.5418 40.0517L88.208 39.2775L86.821 38.2581L84.7044 38.0855L83.3174 40.1965L82.8439 36.86L81.1339 36.0022L79.4406 35.7015L77.9868 37.7958L75.9426 36.0134L74.0654 35.1779Z" fill="#0F4276"/>
<path opacity="0.2" d="M92.7988 30.8777L95.3666 31.3289L101 28L102 33L98.4302 34.8771L93.4059 39.0435L92.7988 30.8777Z" fill="#0F4276"/>
<path d="M83.4452 24.149L85.2889 21.5366L81.6126 22.6896L83.4452 24.149Z" fill="#0F4276"/>
<path d="M39.8208 51.4149L45.9201 56.0437L44.6557 59.8146L41.3415 61.5024L39.275 65.0673L36.0443 65.1898L36.4899 66.3874L34.4679 70.0469L29.6776 69.852L23.9237 68.1141L20.2307 65.2845L21.8572 62.2822L23.6285 61.7976L24.7091 59.8703L28.0456 56.9962L30.9254 53.4034L33.2481 53.5928L36.3674 57.0463L40.5728 57.4028L42.695 55.6872L36.3339 46.7249L33.443 46.335L24.386 48.7858L18.7324 51.4706L11.3185 57.6479" stroke="#0F4276" stroke-width="1.30341" stroke-miterlimit="10"/>
<path d="M14.209 55.2361L0.222412 60.2436" stroke="#0F4276" stroke-width="1.30341" stroke-miterlimit="10"/>
<path d="M28.14 75.2773L23.9067 73.4113L20.0689 70.6485L21.3611 67.9192L23.9234 68.1141" stroke="#0F4276" stroke-width="1.30341" stroke-miterlimit="10"/>
<path d="M33.1418 69.9912L33.994 71.7959L32.9413 74.9987L26.8308 78.7196L22.748 77.7838" stroke="#0F4276" stroke-width="1.30341" stroke-miterlimit="10"/>
<path d="M19.1444 76.6255L16.5042 75.5114L11.0232 69.6517L10.2489 64.1428" stroke="#0F4276" stroke-width="1.30341" stroke-miterlimit="10"/>
<path d="M16.5039 75.5112L11.2234 76.0181L6.33286 78.3353" stroke="#0F4276" stroke-width="1.30341" stroke-miterlimit="10"/>
<path d="M36.0442 65.1898L31.1982 64.3487L27.0039 63.0175L23.6284 61.7976" stroke="#0F4276" stroke-width="1.30341" stroke-miterlimit="10"/>
<path d="M25.7498 62.5665L25.4769 60.4721L28.0447 56.9963L31.4313 58.0937L41.3406 61.5026" stroke="#0F4276" stroke-width="1.30341" stroke-miterlimit="10"/>
<path d="M26.0793 62.1041L25.3106 59.1018L23.6284 61.7977L26.0793 62.1041Z" fill="#0F4276"/>
<path opacity="0.2" d="M23.9071 73.4113L25.4221 68.5709L24.2357 68.2088L26.6142 63.0787L25.7508 62.5663L30.3851 57.7537L28.2963 57.0797L28.8868 53.7321L31.4379 51.22L36.4844 52.5011L40.5617 57.1744L42.1771 56.1105L42.2105 54.4562L40.1328 52.0778L41.6702 52.2616L45.9202 56.0437L44.7894 59.3969L41.1522 61.8255L39.275 65.0673L36.178 65.1843L36.4844 67.4457L34.1394 70.2029L33.4041 70.5483L33.9946 71.796L32.9418 74.9988L29.4716 77.1099L26.3635 78.586L24.5532 78.1961L24.3081 75.8845L25.7007 74.2023L23.9071 73.4113Z" fill="#0F4276"/>
<path opacity="0.2" d="M42.2097 54.4561L42.1762 56.1104L40.5609 57.1743L38.8175 60.0039L34.2277 64.8722L31.8659 64.4656L29.8997 69.6235L31.1697 69.8352L27.978 74.943L26.3627 78.5858L32.941 74.9987L33.9937 71.7959L33.4033 70.5482L35.0855 69.7516L36.4836 67.4456L36.1772 65.1841L39.2742 65.0672L41.1513 61.8254L44.2817 60.3437L46.287 56.8234L45.9194 56.0436L41.6694 52.2615L42.2097 54.4561Z" fill="#0F4276"/>
<path opacity="0.2" d="M26.2076 57.8706L21.2947 59.8591L18.3927 64.0646L18.933 71.7235L16.9612 75.2939L19.4789 76.4692L19.5513 73.712L20.4369 71.4171L20.5205 69.696L21.7292 67.9469L24.2358 68.2087L21.9576 65.73L22.3753 63.8641L23.2109 62.3657L25.7508 62.5662L25.6673 59.848L26.2076 57.8706Z" fill="#0F4276"/>
<path opacity="0.2" d="M11.0224 69.6514L9.74684 71.9295L3.56958 74.8594L6.41591 78.5134L10.5545 76.5472L16.9601 75.2939L11.0224 69.6514Z" fill="#0F4276"/>
<path d="M11.7297 58.1493L8.54364 57.9265L11.7576 55.8098L11.7297 58.1493Z" fill="#0F4276"/>
<path d="M88.2082 39.2776L93.3215 42.1406L100.674 47.4824L105 52" stroke="#0F4276" stroke-width="1.30341" stroke-miterlimit="10"/>
<path d="M87.556 43.2324L91.6723 45.104L98.117 49.9277L104.45 56.74" stroke="#0F4276" stroke-width="1.30341" stroke-miterlimit="10"/>
<path d="M90.2521 40.8037L90.3022 44.636" stroke="#0F4276" stroke-width="0.434469" stroke-miterlimit="10"/>
<path d="M93.338 42.2297L93.3881 46.062" stroke="#0F4276" stroke-width="0.434469" stroke-miterlimit="10"/>
<path d="M96.1513 44.4353L95.9508 47.7384" stroke="#0F4276" stroke-width="0.434469" stroke-miterlimit="10"/>
<path d="M99.2818 46.9644L98.1176 49.9277" stroke="#0F4276" stroke-width="0.434469" stroke-miterlimit="10"/>
<path d="M101.905 48.7747L100.725 52.3841" stroke="#0F4276" stroke-width="0.434469" stroke-miterlimit="10"/>
<path d="M104.189 51.2253L103.013 54.8348" stroke="#0F4276" stroke-width="0.434469" stroke-miterlimit="10"/>
<path d="M59.6951 39.3833L38.5119 49.4318" stroke="#0F4276" stroke-width="1.30341" stroke-miterlimit="10"/>
<path d="M60.0676 43.2268L40.8674 52.3284" stroke="#0F4276" stroke-width="1.30341" stroke-miterlimit="10"/>
<path d="M57.2109 40.2412L57.0493 44.6583" stroke="#0F4276" stroke-width="0.434469" stroke-miterlimit="10"/>
<path d="M53.2723 42.1069L53.1163 46.524" stroke="#0F4276" stroke-width="0.434469" stroke-miterlimit="10"/>
<path d="M49.3349 43.9731L49.179 48.3902" stroke="#0F4276" stroke-width="0.434469" stroke-miterlimit="10"/>
<path d="M45.4014 45.8391L45.2455 50.2562" stroke="#0F4276" stroke-width="0.434469" stroke-miterlimit="10"/>
<path d="M41.4636 47.7051L41.3076 52.1222" stroke="#0F4276" stroke-width="0.434469" stroke-miterlimit="10"/>
<path d="M20.3645 71.4448L19.3452 77.2155L18.8272 86.2948L19.5 93.4999" stroke="#0F4276" stroke-width="1.30341" stroke-miterlimit="10"/>
<path d="M23.8346 73.4443L22.6815 77.8169L22.3418 85.8601L23.6006 95.0731" stroke="#0F4276" stroke-width="1.30341" stroke-miterlimit="10"/>
<path d="M20.2529 73.9958L23.1883 76.4578" stroke="#0F4276" stroke-width="0.434469" stroke-miterlimit="10"/>
<path d="M19.4009 77.2878L22.3364 79.7554" stroke="#0F4276" stroke-width="0.434469" stroke-miterlimit="10"/>
<path d="M19.3279 80.8584L22.0127 82.7968" stroke="#0F4276" stroke-width="0.434469" stroke-miterlimit="10"/>
<path d="M19.3119 84.8855L22.3421 85.8603" stroke="#0F4276" stroke-width="0.434469" stroke-miterlimit="10"/>
<path d="M19.0497 88.0605L22.5923 89.4364" stroke="#0F4276" stroke-width="0.434469" stroke-miterlimit="10"/>
<path d="M19.4953 91.3857L23.0434 92.756" stroke="#0F4276" stroke-width="0.434469" stroke-miterlimit="10"/>
</svg>
