<svg width="106" height="106" viewBox="0 0 106 106" fill="none" xmlns="http://www.w3.org/2000/svg">
<circle cx="53" cy="53" r="53" fill="#035591"/>
<path opacity="0.5" d="M83 97L53 78.5L90.5 48L105.5 59L102.5 73C100.1 83.4 88.5 93.3333 83 97Z" fill="#24293A"/>
<path d="M25.0314 58.4477L14.208 47.6579L53.4693 23.9138L92.0577 48.0729L82.5354 58.4981L53.4693 55.61L25.0314 58.4477Z" fill="white" stroke="white" stroke-width="1.2674" stroke-linecap="round" stroke-linejoin="round"/>
<path d="M53.4697 59.6815L65.5773 60.1806L81.8572 62.1322L82.3596 57.9894L53.4697 55.6101L24.7962 58.9076L25.0822 62.1322L53.4697 59.6815Z" fill="#03467A"/>
<path d="M66.5306 63.4444L64.7922 63.3098L53.4697 62.9116L25.1214 65.3791L25.0317 65.3903L53.5987 77.0886L82.1712 65.4408L81.8235 65.3791L66.5306 63.4444Z" fill="white" stroke="white" stroke-width="1.2674" stroke-linecap="round" stroke-linejoin="round"/>
<path d="M53.6044 37.1206L53.1109 37.7431L53.6044 38.36L54.0923 37.7431L53.6044 37.1206Z" fill="#03467A"/>
<path d="M53.5818 32.1687L44.9792 42.6276L53.5818 53.0864L62.1901 42.6276L53.5818 32.1687ZM58.9206 45.7961L58.1523 45.3082L55.3988 47.9832L53.6043 49.0038L51.8097 47.9832L49.0562 45.3082L48.2879 45.7961L48.3552 42.8294L50.2002 44.7698L49.4039 45.1231L53.0323 45.9979V40.6423H51.7144L51.1872 40.9227L50.5311 40.2274L51.1872 39.532L51.7144 39.8124H53.0323V38.9599L52.3032 37.7318L53.6043 36.3579L54.9053 37.7318L54.1763 38.9599V39.8124H55.4941L56.0213 39.532L56.6774 40.2274L56.0213 40.9227L55.4941 40.6423H54.1763V45.9979L57.8102 45.1231L57.0139 44.7698L58.8589 42.8294L58.9262 45.7961H58.9206Z" fill="#03467A"/>
<path opacity="0.2" d="M53.5984 25.1588L53.4695 57.2083L82.5355 58.4981L92.6298 47.4505L53.6433 23.9138" fill="#03467A"/>
<path opacity="0.3" d="M93.0002 47.6692L52.9425 44.5063L53.4192 55.6101L82.5357 58.4982L93.0002 47.6692Z" fill="#03467A"/>
<path opacity="0.2" d="M53.4695 62.9116V77.0886L80.7298 65.2389L66.5304 63.4444L53.4695 62.9116Z" fill="#03467A"/>
<path opacity="0.3" d="M24.796 58.9076L14.2081 47.658L52.9423 44.5063L53.419 55.6101" fill="#03467A"/>
</svg>
