<svg width="106" height="106" viewBox="0 0 106 106" fill="none" xmlns="http://www.w3.org/2000/svg">
<circle cx="53" cy="53" r="53" fill="#035591"/>
<path opacity="0.5" d="M65.5 104L27.5 77L45 49.5L90.5 34.5C95.8333 39.6667 105 46.7 105 49.5C105 53 106.138 65 95 84C88.2 95.6 72 102.333 65.5 104Z" fill="#24293A"/>
<g clip-path="url(#clip0_424_204)">
<path d="M84.5191 23.539C84.5191 23.539 82.1567 27.4285 84.4809 23.539C81.5077 24.5956 78.5388 25.6563 75.5741 26.7129C72.6052 27.7695 69.6362 28.8302 66.6716 29.891C66.6716 29.891 66.6673 29.8952 66.6631 29.8994L54.5838 16.4924L26.3789 40.0062L36.1891 49.2122L32.4567 49.8605L32.4907 48.0631H32.4186L32.4355 47.9242L28.894 44.725L22.7144 43.4411L16.2549 44.5608L11.9838 47.6548L11.53 51.5443L11.5851 51.5948L11.5173 51.6495L11.53 54.836L15.0715 58.0352L20.2629 59.1128L19.6691 64.2104L19.7752 64.3072L19.6437 64.4125L19.6691 70.6803L26.6334 76.9734L38.7933 79.5032L51.5046 77.3017L59.9109 71.2107L60.8016 63.5579L60.9161 57.3659H60.7719L60.8058 57.0881L57.3873 54.0026C60.9797 53.0218 64.5721 52.041 68.1688 51.056C69.4624 48.8839 68.0754 51.3422 68.0754 51.3422L80.5492 67.2201L90.5163 34.4498L84.5318 23.5474L84.5191 23.539Z" fill="white"/>
<path fill-rule="evenodd" clip-rule="evenodd" d="M54.5838 16.4927L26.3789 40.0065L45.1298 57.6019L66.6716 29.9081L54.5838 16.4927Z" fill="white"/>
<path fill-rule="evenodd" clip-rule="evenodd" d="M84.5194 23.5393L68.063 51.3341L80.5367 67.212L90.5039 34.4417L84.5194 23.5393Z" fill="white"/>
<path fill-rule="evenodd" clip-rule="evenodd" d="M68.1603 51.0479C64.3304 52.0961 60.5005 53.1442 56.6748 54.1881C52.8534 55.2321 49.0234 56.2802 45.1978 57.32C48.7605 52.8032 52.3274 48.2823 55.8902 43.7614C59.4529 39.2405 63.1047 34.4081 66.6674 29.8872C69.6321 28.8306 72.601 27.7656 75.5699 26.7091C78.5346 25.6525 81.5036 24.5917 84.4767 23.5352C81.7665 28.0729 78.9715 32.9179 76.2698 37.4515C73.568 41.9808 70.8578 46.5186 68.1603 51.0437V51.0479Z" fill="white"/>
<path d="M57 45.5L35 48L36.5 49.5L52.5 53L57 45.5Z" fill="#BCCDDB" fill-opacity="0.4"/>
<path d="M21.2469 59.315L15.063 58.0269L11.5215 54.832L11.5088 51.6454L16.2464 47.8443L22.7101 46.7246L28.8898 48.0085L32.4864 48.059L32.4313 51.2076L31.9775 55.0971L27.7064 58.1953L21.2469 59.315Z" fill="white" stroke="#03467A" stroke-width="1.16021" stroke-miterlimit="10"/>
<path d="M21.2469 56.0232L15.063 54.7393L11.5215 51.5401L11.9753 47.6506L16.2463 44.5567L22.7101 43.437L28.8897 44.7209L32.4312 47.92L31.9774 51.8095L27.7064 54.9035L21.2469 56.0232Z" fill="white" stroke="#03467A" stroke-width="1.16021" stroke-miterlimit="10"/>
<path d="M22.706 48.0801L16.9802 49.0693L14.2275 51.0646L15.9113 52.5884L21.2469 53.6954L26.9727 52.702L29.7254 50.711L28.0416 49.1872L22.706 48.0801Z" fill="#035591" stroke="#03467A" stroke-width="1.16021" stroke-miterlimit="10"/>
<path d="M38.7892 73.025L26.6293 70.4993L19.665 64.2063L20.5557 56.5535L28.9578 50.4625L41.6691 48.261L53.829 50.7908L60.7975 57.0839L59.9068 64.7367L51.5005 70.8235L38.7892 73.025Z" fill="white"/>
<path d="M28.3005 66.2646L23.9743 62.3583L24.3433 59.1844L30.3999 54.7939L41.6649 52.845L52.1622 55.0254L56.4883 58.9318L56.1193 62.1057L50.0627 66.4919L38.7935 68.4451L28.3005 66.2646Z" fill="white" stroke="#03467A" stroke-width="1.22963" stroke-miterlimit="10"/>
<path d="M29.8017 54.8445L42.2797 59.0076L37.1137 61.9458L29.8017 54.8445Z" fill="white"/>
<path d="M31.8165 56.0653L41.0032 59.1298L37.203 61.2934L31.8207 56.0653M27.7957 53.6196L37.0375 62.5983L43.565 58.8814L27.7957 53.6196Z" fill="#03467A"/>
<path d="M37.0288 62.5983L52.8024 67.86L43.5563 58.8813L37.0288 62.5983Z" fill="#03467A"/>
<path d="M38.5 79.5V73.5L50.5 71L57 67.5L61 57.5L60 71L51.5 77.5L38.5 79.5Z" fill="#CDDAE4"/>
<path d="M38.751 73.3618L38.7891 79.4949" stroke="#03467A" stroke-width="0.431361" stroke-miterlimit="10"/>
<path d="M26.5 70L26.2942 70.343L26.3403 70.3707L26.3921 70.3852L26.5 70ZM39 73.5L38.8921 73.8852L38.9845 73.911L39.0784 73.8922L39 73.5ZM51.5 71L51.5784 71.3922L51.6517 71.3776L51.7148 71.3375L51.5 71ZM57.2147 67.8375C57.4011 67.7189 57.4561 67.4716 57.3375 67.2852C57.2189 67.0989 56.9716 67.0439 56.7853 67.1625L57.2147 67.8375ZM23.7942 68.843L26.2942 70.343L26.7058 69.657L24.2058 68.157L23.7942 68.843ZM26.3921 70.3852L38.8921 73.8852L39.1079 73.1148L26.6079 69.6148L26.3921 70.3852ZM39.0784 73.8922L51.5784 71.3922L51.4216 70.6078L38.9216 73.1078L39.0784 73.8922ZM51.7148 71.3375L57.2147 67.8375L56.7853 67.1625L51.2852 70.6625L51.7148 71.3375Z" fill="#035591"/>
<path d="M53.5 51L66.5 29.5L84 24L68 52L58 54.5L53.5 51Z" fill="#ABC1D2" fill-opacity="0.8"/>
<g opacity="0.42">
<path opacity="0.5" d="M51.5342 39.9812L55.6695 45.8786L66.7818 42.0312L78.1528 47.4192L82.2881 36.1338L72.4652 34.8499L63.9359 38.1838L63.6814 30.2322L56.9589 29.4661L52.0474 35.3635L53.1841 38.8236L51.5342 39.9812Z" fill="#03467A"/>
<path opacity="0.5" d="M42.5724 33.886L47.2166 33.2251L48.875 37.8344L45.2274 40.7978L41.5799 35.8602L42.5724 33.886Z" fill="#03467A"/>
<path opacity="0.5" d="M63.9358 38.1838L70.8831 40.339L82.2881 36.1338" fill="#03467A"/>
<path opacity="0.5" d="M72.4652 34.8499L72.0241 39.8843L66.7818 42.0311" fill="#03467A"/>
<path opacity="0.5" d="M53.184 38.8237L58.3161 39.4298L52.0474 35.3635" fill="#03467A"/>
<path opacity="0.5" d="M42.5724 33.886L45.6685 35.6245L41.5799 35.8602" fill="#03467A"/>
<path opacity="0.5" d="M46.6779 33.3345L46.2452 35.7675L48.8749 37.8343" fill="#03467A"/>
</g>
<path d="M51.5005 70.8237V77.2936" stroke="#03467A" stroke-width="0.431361" stroke-miterlimit="10"/>
<path d="M26.4595 70.3101V76.7799" stroke="#03467A" stroke-width="0.431361" stroke-miterlimit="10"/>
<path d="M16.5 46.5L13.5 49V51L16.5 48.5L22.5 47.5L28 49L30.5 50V48.5L28 46.5L22 45.5L16.5 46.5Z" fill="#A2BBCE"/>
<path d="M15 56L15.5 53.5L13.5 51L12.5 48L12 51V54.5L15 56Z" fill="white"/>
<path d="M59.0869 40.2183C58.9313 40.4465 58.9902 40.7576 59.2183 40.9131C59.4465 41.0687 59.7576 41.0098 59.9131 40.7817L59.0869 40.2183ZM66.5869 29.2183L59.0869 40.2183L59.9131 40.7817L67.4131 29.7817L66.5869 29.2183Z" fill="#035591"/>
<path d="M59.5 71.5L57.5 67L61 57V63.5L60 71L59.5 71.5Z" fill="#ABC1D2"/>
<path d="M67.5 52.5L79.5 32.5" stroke="#035591" stroke-linecap="round"/>
<path d="M32.5 49.5L42 48.5L53.5 50.5L60.5 56.5" stroke="#03467A" stroke-linecap="round"/>
</g>
<defs>
<clipPath id="clip0_424_204">
<rect width="80" height="64" fill="white" transform="translate(11 16)"/>
</clipPath>
</defs>
</svg>
