<svg width="109" height="108" viewBox="0 0 109 108" fill="none" xmlns="http://www.w3.org/2000/svg">
<path d="M108.197 53.6C108.197 24.3215 84.3769 0.501709 55.0983 0.501709C25.8197 0.501709 2 24.3215 2 53.6C2 82.8786 25.8197 106.698 55.0983 106.698C84.3769 106.698 108.197 82.8786 108.197 53.6Z" stroke="#03467A" stroke-width="0.995921" stroke-miterlimit="10" stroke-dasharray="1.99 1.99"/>
<path fill-rule="evenodd" clip-rule="evenodd" d="M40.0801 9.017L1.14102 61.7618L39.2116 87.0448L65.438 29.471L40.0801 9.017Z" fill="white" stroke="#03467A" stroke-width="1.77438" stroke-linecap="round" stroke-linejoin="round"/>
<path fill-rule="evenodd" clip-rule="evenodd" d="M93.2288 11.6971L75.7096 68.2677L102.64 93.109L107.356 29.6281L93.2288 11.6971Z" fill="white" stroke="#03467A" stroke-width="1.77438" stroke-linecap="round" stroke-linejoin="round"/>
<path fill-rule="evenodd" clip-rule="evenodd" d="M75.7694 67.7136C69.6901 70.9404 63.6108 74.1747 57.539 77.3941C51.4671 80.6134 45.3878 83.8477 39.3235 87.0596C43.6733 77.5663 48.0232 68.0505 52.373 58.5497C56.7229 49.0489 61.0952 38.9417 65.4451 29.4334C70.057 26.4836 74.6838 23.5188 79.3032 20.569C83.9151 17.6192 88.542 14.6619 93.1688 11.7046C90.2714 20.9433 87.3441 30.7885 84.4541 40.0198C81.5642 49.2436 78.6668 58.4898 75.7844 67.7136H75.7694Z" fill="white" stroke="#03467A" stroke-width="1.77438" stroke-linecap="round" stroke-linejoin="round"/>
<path opacity="0.1" d="M91.8591 13.0374L75.7699 67.7138L57.532 77.3942L40.0203 86.5282L46.137 71.4272L64.2402 30.9085L91.8591 13.0374Z" fill="#03467A"/>
<path d="M73.3739 29.0966L79.6554 34.8989" stroke="#03467A" stroke-width="0.965802" stroke-linecap="round" stroke-linejoin="round"/>
<path d="M80.3065 27.7939L72.7224 36.2017" stroke="#03467A" stroke-width="0.965802" stroke-linecap="round" stroke-linejoin="round"/>
<path d="M18.2932 61.7392L31.8743 68.2303L42.7901 63.5061L60.2045 60.8483L65.5202 52.8823L61.6794 47.2746L67.8935 44.789L69.608 42.3184" stroke="#03467A" stroke-width="0.965802" stroke-linecap="round" stroke-linejoin="round"/>
<path d="M71.9291 38.9567L70.5889 45.0285L69.4359 42.5653L66.7257 42.3482L71.9291 38.9567Z" fill="#03467A"/>
</svg>
