<svg width="118" height="117" viewBox="0 0 118 117" fill="none" xmlns="http://www.w3.org/2000/svg">
<path d="M111.197 58.6C111.197 29.3215 87.3769 5.50171 58.0983 5.50171C28.8197 5.50171 5 29.3215 5 58.6C5 87.8786 28.8197 111.698 58.0983 111.698C87.3769 111.698 111.197 87.8786 111.197 58.6Z" stroke="#03467A" stroke-width="0.995921" stroke-miterlimit="10" stroke-dasharray="1.99 1.99"/>
<path d="M115.41 60.8566C115.41 60.8566 115.41 60.8162 115.39 60.796L114.098 57.3756L99.5744 58.2644L88.8958 32.5645L100.854 22.7747L99.3522 19.3812L95.9386 17.9134L86.3777 29.1104L60.5633 19.0378L61.8426 3.41048L60.7653 3.01997L58.3548 2.13794L54.9277 3.57207L56.3955 18.8291L31.416 29.2383L22.6833 16.21L19.1619 17.3815L17.3777 20.6403L27.7937 31.5343L18.2866 57.2073L3.37973 55.248L1.93213 58.6684L3.19794 62.1628L18.1385 61.4559L28.4198 86.5296L14.5969 96.3194L15.8628 99.8071L19.1687 101.517L30.8774 89.6066L41.3068 93.6666L56.7389 99.9957L55.0153 113.576L58.4424 115.004C58.5501 116.02 61.9301 113.724 61.9301 113.724L61.2231 99.9014L76.736 93.4108L86.7547 89.6268L95.0431 101.989L99.2512 100.13L100.84 96.7705L89.145 86.0449L98.8001 62.5129L113.599 64.2433H113.613L114.037 64.2905L115.431 60.8499L115.41 60.8566Z" fill="white"/>
<path d="M56.8273 20.827L55.0623 2.46965L58.558 0.999969L62.1154 2.30483L60.6114 20.6759L56.8273 20.827Z" stroke="#03467A" stroke-width="1.43535" stroke-miterlimit="10"/>
<path d="M84.9093 31.1284L96.8865 17.0977L100.368 18.5949L101.907 22.0562L87.6426 33.7381L84.9093 31.1284Z" stroke="#03467A" stroke-width="1.43535" stroke-miterlimit="10"/>
<path d="M97.0029 58.4757L115.415 57.3494L116.754 60.9L115.333 64.4093L97.0235 62.2598L97.0029 58.4757Z" stroke="#03467A" stroke-width="1.43535" stroke-miterlimit="10"/>
<path d="M88.281 85.0604L101.879 97.5253L100.258 100.952L96.7489 102.367L85.5752 87.6976L88.281 85.0604Z" stroke="#03467A" stroke-width="1.43535" stroke-miterlimit="10"/>
<path d="M61.2429 96.3989L62.1906 114.818L58.6332 116.13L55.1375 114.674L57.4588 96.3783L61.2429 96.3989Z" fill="white" stroke="#03467A" stroke-width="1.43535" stroke-miterlimit="10"/>
<path d="M31.5058 89.2084L18.5739 102.367L15.2019 100.622L13.9176 97.065L28.9647 86.4133L31.5058 89.2084Z" fill="white" stroke="#03467A" stroke-width="1.43535" stroke-miterlimit="10"/>
<path d="M20.7169 61.3532L2.29091 62.2254L0.999786 58.6611L2.47634 55.1723L20.7512 57.5691L20.7169 61.3532Z" stroke="#03467A" stroke-width="1.43535" stroke-miterlimit="10"/>
<path d="M29.576 33.1407L16.754 19.8724L18.574 16.5484L22.1726 15.3534L32.4398 30.6684L29.576 33.1407Z" stroke="#03467A" stroke-width="1.43535" stroke-miterlimit="10"/>
<path d="M88.6381 29.6588L58.798 17.4206L29.0335 29.8717L16.7884 59.7118L29.2326 89.4763L59.0796 101.721L88.8441 89.2703L101.082 59.4302L88.6381 29.6657V29.6588ZM80.3488 80.8299L59.0384 89.7441L37.673 80.981L28.7588 59.6706L37.5219 38.3052L58.8324 29.3909L80.1977 38.1541L89.1051 59.4645L80.3419 80.8299H80.3488Z" fill="white" stroke="#03467A" stroke-width="1.43535" stroke-miterlimit="10"/>
<path d="M58.7772 29.0338V51.5529" stroke="#03467A" stroke-width="1.43535" stroke-miterlimit="10"/>
<path d="M50.6116 59.5881H28.2161" stroke="#03467A" stroke-width="1.43535" stroke-miterlimit="10"/>
<path d="M66.9432 59.5881H89.4005" stroke="#03467A" stroke-width="1.43535" stroke-miterlimit="10"/>
<path d="M58.7772 67.7538V90.2111" stroke="#03467A" stroke-width="1.43535" stroke-miterlimit="10"/>
<path d="M37.1714 37.9893C42.5282 43.3461 47.885 48.7029 53.2418 54.0597" stroke="#03467A" stroke-width="1.43535" stroke-miterlimit="10"/>
<path d="M80.3764 37.9893C75.0677 43.3049 69.7521 48.6136 64.4366 53.9292" stroke="#03467A" stroke-width="1.43535" stroke-miterlimit="10"/>
<path d="M52.981 65.3845C47.7135 70.652 42.446 75.9195 37.1784 81.187" stroke="#03467A" stroke-width="1.43535" stroke-miterlimit="10"/>
<path d="M64.567 65.3845C69.8346 70.652 75.1089 75.9195 80.3765 81.187" stroke="#03467A" stroke-width="1.43535" stroke-miterlimit="10"/>
<path d="M52.9398 65.5012L50.4125 59.4783L52.878 53.4278L58.901 50.9005L64.9514 53.366L67.4856 59.389L65.0132 65.4394L58.9903 67.9736L52.9398 65.5012Z" stroke="#03467A" stroke-width="1.43535" stroke-miterlimit="10"/>
<path d="M37.6802 80.974L28.7659 59.6705L37.5291 38.3051L58.8395 29.3909L80.2049 38.1609L89.1122 59.4645L80.3491 80.8298L59.0455 89.7441L37.6802 80.974Z" stroke="#03467A" stroke-width="1.43535" stroke-miterlimit="10"/>
<g opacity="0.2">
<path d="M88.9535 30.2356L88.4522 29.0338L60.8029 18.2447L61.0089 1.89958L58.5503 0.999912C58.5503 0.999912 58.5503 7.84699 58.5503 18.2103L88.9535 30.2356Z" fill="#03467A"/>
<path d="M88.9535 30.2356L88.4522 29.0338L60.8029 18.2447L61.0089 1.89958L58.5503 0.999912C58.5503 0.999912 58.5503 7.84699 58.5503 18.2103L88.9535 30.2356Z" fill="#03467A"/>
<path opacity="0.1" d="M88.9535 30.2356L88.4522 29.0338L60.8029 18.2447L61.0089 1.89958L58.5503 0.999912C58.5503 0.999912 58.5503 7.84699 58.5503 18.2103L88.9535 30.2356Z" fill="#03467A"/>
</g>
<path opacity="0.2" d="M88.9952 29.5352L100.368 18.595L101.906 22.0563L89.4004 31.4719" fill="#03467A"/>
<path opacity="0.2" d="M101.089 60.2818C101.089 60.2818 117.029 60.2405 116.761 60.8998C116.493 61.5591 114.907 64.3543 114.907 64.3543L99.908 62.3146" fill="#03467A"/>
<path opacity="0.2" d="M28.7658 89.2703L15.2021 100.623L18.5741 102.367L30.6681 90.0601" fill="#03467A"/>
<path opacity="0.2" d="M0.999786 58.661L16.8573 59.3134L16.9809 61.4905L2.29091 62.2253L0.999786 58.661Z" fill="#03467A"/>
<path opacity="0.2" d="M29.0334 29.8717L18.574 16.5484L16.754 19.8723L28.2162 31.8633" fill="#03467A"/>
<path opacity="0.3" d="M51.1955 59.6226L52.9536 60.014L54.5125 63.132L58.798 64.8832L63.6672 62.5276L65.233 59.2311L67.3276 59.3616L65.0338 64.4918L58.7774 67.7539L52.9398 65.5013L50.4125 59.4783" fill="#03467A"/>
<path opacity="0.2" d="M16.7953 59.7118H23.0587L33.5319 85.1909L58.2556 95.3207L83.666 85.0192L94.1392 59.4371H101.089L88.8442 89.2703L87.5119 90.2455L58.5989 101.158L29.0679 89.6549L16.7953 59.7118Z" fill="#03467A"/>
<path opacity="0.2" d="M100.258 100.952L88.8444 89.2703L87.5121 90.2455L95.9662 102.848L100.258 100.952Z" fill="#03467A"/>
<path opacity="0.2" d="M101.089 59.4233L88.9745 30.27L85.1011 33.9099L58.5506 23.5946C58.5506 25.4901 58.5506 27.468 58.5506 29.5077L58.8391 29.3841L80.2044 38.1472L89.1118 59.4576L80.3487 80.823L59.0382 89.7373L58.5575 89.5381C58.5712 104.709 58.5918 115.8 58.6262 116.123C58.7361 117.16 62.1836 114.818 62.1836 114.818L61.4625 100.719L88.844 89.2634L101.082 59.4233H101.089Z" fill="#03467A"/>
<path opacity="0.2" d="M58.839 29.3909L58.578 26.8979L81.3856 36.0594L91.3231 59.2516L81.7702 82.2583L58.578 91.8044L59.045 89.7441L80.3486 80.8298L89.1117 59.4645L80.2043 38.1609L58.839 29.3909Z" fill="#03467A"/>
<path opacity="0.15" d="M59.0589 16.9879V20.0303L30.558 32.0007L19.2401 59.8491L16.8501 59.4164L27.7285 30.0434" fill="#03467A"/>
<path d="M58.2558 95.3207L83.7143 84.2569L94.1394 59.4371L90.0531 59.4508L81.0908 81.2419L58.5992 90.5202L58.2558 95.3207Z" fill="white"/>
</svg>
