<svg width="115" height="110" viewBox="0 0 115 110" fill="none" xmlns="http://www.w3.org/2000/svg">
<path d="M109.698 55.6001C109.698 26.3215 85.8783 2.50171 56.5998 2.50171C27.3212 2.50171 3.50146 26.3215 3.50146 55.6001C3.50146 84.8786 27.3212 108.698 56.5998 108.698C85.8783 108.698 109.698 84.8786 109.698 55.6001Z" stroke="#03467A" stroke-width="0.995921" stroke-miterlimit="10" stroke-dasharray="1.99 1.99"/>
<path fill-rule="evenodd" clip-rule="evenodd" d="M19.1381 27.1278L28.86 43.9403L28.9139 44.1021L28.9439 44.264L28.9559 44.4318L28.9439 44.5996L28.9139 44.7615L28.86 44.9233L21.2899 58.0616L10.573 58.3313L15.9794 67.268L15.8835 67.5018L15.8355 67.7475V67.9933L15.8775 68.233L15.9674 68.4608L16.0993 68.6706L16.2671 68.8504L16.5368 69.0362L16.7825 69.1501L17.0283 69.204H17.28L17.5258 69.1681L17.7595 69.0842L17.9693 68.9523L18.1551 68.7785L25.8271 55.6042L26.0429 55.4184L26.2887 55.2865L26.5584 55.2146L26.8341 55.2026L27.1098 55.2505L27.3735 55.3584L31.3354 58.2954L42.0583 63.1743L42.2501 63.3002L42.4179 63.456L42.5497 63.6418L42.6516 63.8456L42.7116 64.0674L42.7356 64.3011L40.4519 77.2177L40.4819 77.4694L40.5598 77.7032L40.6797 77.919L40.8415 78.1108L41.0333 78.2666L41.2611 78.3865L41.5847 78.4704L41.8545 78.4944L42.1062 78.4644L42.34 78.3865L42.5557 78.2666L42.7475 78.1048L42.9034 77.913L43.0233 77.6852L45.3428 65.1343L45.4627 64.9065L45.6245 64.7087L45.8163 64.5469L46.0381 64.427L46.2779 64.3491L46.5356 64.3251L57.5462 65.5838L67.0942 65.1163L67.34 65.1582L67.5677 65.2421L67.7775 65.362L67.9573 65.5179L68.1072 65.7097L68.221 65.9314L70.3968 77.6852L70.5167 77.913L70.6725 78.1048L70.8643 78.2666L71.0801 78.3865L71.3138 78.4644L71.5656 78.4944L71.9012 78.4584L72.1649 78.3865L72.3927 78.2666L72.5845 78.1108L72.7463 77.919L72.8662 77.7032L72.9441 77.4694L72.9741 77.2177L70.9063 65.4999L70.9362 65.2541L71.0081 65.0204L71.122 64.8046L71.2719 64.6188L71.4577 64.463L71.6735 64.3431L77.7451 62.6528L84.7638 59.584L88.1923 57.4862L88.45 57.4083L88.7137 57.3843L88.9715 57.4143L89.2172 57.4982L89.445 57.6301L89.6428 57.8099L96.0381 68.7785L96.2239 68.9523L96.4337 69.0842L96.6675 69.1681L96.9132 69.21H97.1649L97.4107 69.1501L97.7104 69.0062L97.9321 68.8504L98.106 68.6646L98.2378 68.4548L98.3217 68.2211L98.3637 67.9753V67.7236L98.3038 67.4778L98.1959 67.2381L85.2733 44.8334L85.2194 44.6715L85.1894 44.5037L85.1774 44.3359L85.1894 44.1681L85.2194 44.0002L85.2733 43.8384L94.0542 28.7401L94.192 28.4105L94.234 28.0748L94.186 27.7511L94.0602 27.4515L93.8624 27.1937L93.6046 26.9899L93.293 26.8581L92.9393 26.8101L75.3836 26.7322L75.2158 26.6962L75.0599 26.6423L74.9101 26.5704L74.7722 26.4805L74.6464 26.3726L74.5325 26.2467L67.6456 14.391L67.4598 14.2172L67.2501 14.0854L67.0163 14.0014L66.7706 13.9595H66.5188L66.2731 14.0194L65.9734 14.1633L65.7516 14.3191L65.5778 14.5049L65.4459 14.7147L65.362 14.9485L65.3201 15.1942V15.4459L65.38 15.6917L68.4668 21.14L68.5207 21.3918V21.6435L68.4848 21.8892L68.3949 22.123L68.263 22.3388L68.0892 22.5246L65.3261 23.8852L64.6488 24.1069H64.3671L64.0973 24.059L63.8456 23.9511L63.6238 23.7893L63.438 23.5855L63.3002 23.3397L62.0774 16.9024L61.9576 16.6747L61.8017 16.4829L61.6099 16.321L61.3941 16.2012L61.1604 16.1232L60.9087 16.0933L60.573 16.1292L60.3093 16.2012L60.0815 16.321L59.8897 16.4769L59.7279 16.6687L59.608 16.8844L59.5301 17.1182L59.5001 17.3699L60.6629 24.1189L60.6269 24.3766L60.543 24.6164L60.4172 24.8382L60.2493 25.03L60.0455 25.1858L59.8118 25.2997L58.8288 25.4495L54.5133 25.5155L53.6622 25.4136L53.4164 25.3057L53.2007 25.1558L53.0209 24.964L52.883 24.7423L52.7931 24.4965L52.7571 24.2328L53.9379 17.3879L53.9079 17.1362L53.83 16.9024L53.7101 16.6866L53.5483 16.4948L53.3565 16.339L53.1287 16.2191L52.8051 16.1352L52.5354 16.1112L52.2836 16.1412L52.0499 16.2191L51.8341 16.339L51.6423 16.5008L51.4865 16.6926L51.3666 16.9204L50.1139 23.5375L49.976 23.7833L49.7902 23.9871L49.5684 24.1489L49.3167 24.2568L49.041 24.3107H48.7593L48.4716 24.2268L46.0621 23.046L45.8583 22.8902L45.6965 22.7044L45.5706 22.4946L45.4927 22.2668L45.4567 22.0271L45.4687 21.7813L45.5227 21.5416L48.8252 15.7217L48.8792 15.4759V15.2242L48.8432 14.9784L48.7593 14.7447L48.6274 14.5349L48.4536 14.3491L48.1779 14.1573L47.9321 14.0434L47.6864 13.9895H47.4347L47.1889 14.0254L46.9552 14.1093L46.7454 14.2412L46.5596 14.415L39.6667 26.2767L39.5529 26.4025L39.427 26.5104L39.2891 26.6003L39.1393 26.6723L38.9835 26.7262L38.8156 26.7622L19.1561 26.7981V27.1578L19.1381 27.1278ZM43.6586 59.3383L43.5747 59.614L43.4428 59.8538L43.263 60.0575L43.0472 60.2194L42.8015 60.3333L42.5378 60.3932H42.262L41.9803 60.3392L34.4522 57.0846L31.2755 55.0587L28.5483 52.8051L28.3985 52.6373L28.2846 52.4515L28.2007 52.2537L28.1527 52.0439L28.1407 51.8341L28.1647 51.6243L28.2246 51.4145L43.1132 25.6353L43.299 25.4615L43.5147 25.3297L43.7485 25.2457L43.9942 25.2038H44.246L44.4917 25.2697L48.5735 27.1338L48.7653 27.2597L48.9271 27.4155L49.059 27.6013L49.1609 27.8051L49.2208 28.0269L49.2448 28.2546L43.6526 59.3323L43.6586 59.3383ZM66.2251 62.521L59.1345 62.9405L47.2129 61.7298L46.9672 61.6519L46.7454 61.532L46.5536 61.3762L46.3977 61.1904L46.2779 60.9746L46.2 60.7408L46.17 60.4951L51.882 28.89L51.9899 28.6742L52.1338 28.4884L52.3076 28.3325L52.5114 28.2067L52.7332 28.1228L52.9729 28.0808L60.3572 27.9549L60.603 27.9909L60.8307 28.0748L61.0405 28.1947L61.2203 28.3505L61.3702 28.5423L61.4841 28.7641L67.3579 61.2863L67.322 61.55L67.2381 61.7957L67.1062 62.0175L66.9324 62.2093L66.7226 62.3651L66.4829 62.473L66.2191 62.533L66.2251 62.521ZM86.8017 55.1966L79.9029 58.9966L71.5356 61.6279L71.2659 61.6579L71.0081 61.6339L70.7624 61.562L70.5406 61.4421L70.3428 61.2803L70.181 61.0825L70.0611 60.8547L64.1273 28.0628L64.1513 27.8351L64.2112 27.6133L64.3131 27.4095L64.445 27.2237L64.6068 27.0679L64.7986 26.942L69.4618 24.9041L69.7135 24.8502H69.9652L70.211 24.8801L70.4447 24.964L70.6605 25.0959L70.8463 25.2697L87.2812 53.7281L87.3412 53.9619L87.3532 54.1956L87.3232 54.4294L87.2513 54.6512L87.1434 54.8609L86.9935 55.0468L86.8077 55.2086L86.8017 55.1966Z" fill="white" stroke="#03467A" stroke-width="1.3486" stroke-linecap="round" stroke-linejoin="round"/>
<path fill-rule="evenodd" clip-rule="evenodd" d="M47.3627 15.7996L43.5927 22.3987L46.182 24.8382L54.5013 25.4915L70.199 23.2858L69.4378 20.0492L66.0813 16.9444" fill="white"/>
<path fill-rule="evenodd" clip-rule="evenodd" d="M58.9187 89.4929L45.5946 88.474C45.5586 88.474 45.5227 88.468 45.4927 88.456L32.8458 85.4651C32.8099 85.4591 32.7739 85.4471 32.7439 85.4292L21.0741 80.5622C21.0381 80.5502 21.0022 80.5263 20.9722 80.5083L10.567 73.8612C10.531 73.8372 10.4951 73.8072 10.4591 73.7773L0.881082 64.5229C0.749219 64.391 0.6713 64.2112 0.677294 64.0254C0.677294 63.8396 0.761207 63.6598 0.899063 63.5399L9.38024 55.8799C9.50611 55.766 9.66794 55.7061 9.82977 55.7061C10.0096 55.7061 10.1954 55.778 10.3273 55.9278L14.433 60.4112L19.198 64.421L30.6221 70.9902L44.0542 75.2218L58.9847 76.7262L72.3208 75.5334L84.5241 72.141L95.217 66.8425L104.088 59.8717C104.208 59.7758 104.357 59.7279 104.501 59.7279C104.663 59.7279 104.825 59.7878 104.951 59.9017L113.42 67.5497C113.564 67.6756 113.642 67.8554 113.642 68.0472C113.642 68.239 113.564 68.4188 113.42 68.5447L109.051 72.5306C109.051 72.5306 108.997 72.5785 108.967 72.5965L96.9851 80.5083C96.9492 80.5323 96.9132 80.5502 96.8712 80.5682L85.2014 85.4351C85.1654 85.4471 85.1355 85.4591 85.0995 85.4711L72.4526 88.462C72.4167 88.468 72.3807 88.474 72.3507 88.48L59.0266 89.4989C59.0266 89.4989 58.9906 89.4989 58.9727 89.4989C58.9547 89.4989 58.9367 89.4989 58.9187 89.4989V89.4929Z" fill="white"/>
<path d="M9.82978 56.3834L13.9655 60.8967L18.8084 64.9724L30.3464 71.6075L43.9163 75.8871L58.9787 77.4035L72.4407 76.1988L84.7639 72.7763L95.5766 67.4179L104.501 60.4052L110.04 65.41L112.971 68.0532L108.601 72.0391L96.6195 79.9509L84.9497 84.8178L72.3028 87.8087L58.9787 88.8276L45.6545 87.8087L33.0077 84.8178L21.3378 79.9509L10.9326 73.3038L1.35459 64.0494L9.83577 56.3894M9.83577 55.0408C9.51211 55.0408 9.18845 55.1546 8.93071 55.3884L0.44354 63.0484C0.167827 63.3002 0.00599526 63.6538 1.49234e-06 64.0254C-0.00599227 64.397 0.143852 64.7567 0.413571 65.0144L9.99161 74.2688C10.0575 74.3287 10.1295 74.3886 10.2014 74.4366L20.6066 81.0837C20.6725 81.1256 20.7444 81.1616 20.8164 81.1916L32.4862 86.0585C32.5522 86.0885 32.6241 86.1065 32.696 86.1244L45.3428 89.1153C45.4088 89.1333 45.4807 89.1393 45.5526 89.1453L58.8768 90.1642C58.9127 90.1642 58.9427 90.1642 58.9787 90.1642C59.0146 90.1642 59.0446 90.1642 59.0806 90.1642L72.4047 89.1453C72.4766 89.1453 72.5426 89.1273 72.6145 89.1153L85.2613 86.1244C85.3333 86.1065 85.3992 86.0825 85.4711 86.0585L97.141 81.1916C97.2189 81.1616 97.2968 81.1196 97.3628 81.0717L109.344 73.1599C109.404 73.124 109.458 73.076 109.512 73.034L113.882 69.0482C114.163 68.7905 114.319 68.4308 114.319 68.0472C114.319 67.6696 114.157 67.304 113.876 67.0523L110.945 64.409L105.406 59.4042C105.149 59.1705 104.825 59.0566 104.501 59.0566C104.208 59.0566 103.914 59.1525 103.668 59.3443L94.8514 66.2731L84.2784 71.5176L72.1949 74.8741L58.9847 76.0549L44.1861 74.5685L30.8919 70.3788L19.5876 63.8756L14.9065 59.9317L10.8307 55.4783C10.567 55.1906 10.2014 55.0408 9.83577 55.0408Z" fill="#03467A"/>
<path opacity="0.2" d="M4.21961 61.496L11.2683 68.9943L25.4256 78.2187L41.4948 84.1045L60.1115 86.1724L76.9719 83.4692L94.7914 77.2656L103.069 72.1709L110.082 65.41L112.959 68.0532L107.36 74.5625L97.0211 80.9218L84.9377 84.8178L60.2673 89.8346L45.6425 87.8027L32.2644 85.8547L21.4457 81.2395L11.1064 74.4006L1.34859 64.0434" fill="#03467A"/>
<path fill-rule="evenodd" clip-rule="evenodd" d="M58.9667 85.6869L45.6425 84.578C45.6066 84.578 45.5646 84.5661 45.5286 84.5601L32.8818 81.3054C32.8458 81.2935 32.8099 81.2815 32.7739 81.2695L21.104 75.971C21.0621 75.953 21.0261 75.929 20.9902 75.9051L8.78086 67.0822C8.75089 67.0583 8.72092 67.0343 8.69695 67.0103L3.7461 61.9755C3.62023 61.8437 3.5483 61.6699 3.55429 61.4841C3.55429 61.2983 3.63821 61.1304 3.77606 61.0046L6.36537 58.661C6.49124 58.5471 6.65307 58.4872 6.8149 58.4872C6.97674 58.4872 7.15055 58.5531 7.28242 58.679L11.4121 62.6708L21.7274 70.181L33.2894 75.6773L45.8163 79.0518L59.0206 80.2026L72.2309 79.0518L84.7578 75.6773L96.3198 70.181L106.947 62.3951C107.067 62.3052 107.204 62.2632 107.342 62.2632C107.504 62.2632 107.666 62.3232 107.792 62.4371L110.531 64.9125C110.675 65.0384 110.753 65.2242 110.753 65.41C110.753 65.6018 110.669 65.7816 110.531 65.9075L107.522 68.6166C107.522 68.6166 107.48 68.6526 107.456 68.6706L97.051 75.9111C97.0151 75.935 96.9791 75.953 96.9432 75.971L85.2733 81.2695C85.2373 81.2875 85.2014 81.2994 85.1654 81.3054L72.5186 84.5601C72.4826 84.572 72.4466 84.578 72.4047 84.578L59.0805 85.6869C59.0805 85.6869 59.0446 85.6869 59.0266 85.6869C59.0086 85.6869 58.9906 85.6869 58.9727 85.6869H58.9667Z" fill="white"/>
<path d="M6.81491 59.1525L10.9806 63.1803L21.3858 70.7564L33.0556 76.3007L45.7025 79.7111L59.0266 80.8739L72.3507 79.7111L84.9976 76.3007L96.6675 70.7564L107.348 62.9346L110.088 65.41L107.079 68.1192L96.6735 75.3596L85.0036 80.6581L72.3567 83.9127L59.0326 85.0216L45.7085 83.9127L33.0616 80.6581L21.3917 75.3596L9.18244 66.5368L4.23159 61.502L6.8209 59.1585M6.8209 57.8099C6.49724 57.8099 6.17357 57.9238 5.91584 58.1575L3.32653 60.5011C3.05682 60.7468 2.89498 61.0945 2.883 61.4601C2.87101 61.8257 3.00886 62.1793 3.2666 62.4431L8.21745 67.4778C8.27139 67.5318 8.32534 67.5797 8.39127 67.6277L20.6006 76.4505C20.6725 76.5044 20.7504 76.5464 20.8343 76.5824L32.5042 81.8808C32.5761 81.9108 32.648 81.9408 32.726 81.9588L45.3728 85.2134C45.4447 85.2314 45.5227 85.2434 45.5946 85.2493L58.9187 86.3582C58.9547 86.3582 58.9906 86.3582 59.0326 86.3582C59.0746 86.3582 59.1045 86.3582 59.1465 86.3582L72.4706 85.2493C72.5485 85.2434 72.6205 85.2314 72.6924 85.2134L85.3393 81.9588C85.4172 81.9408 85.4891 81.9108 85.561 81.8808L97.2309 76.5824C97.3028 76.5464 97.3747 76.5104 97.4407 76.4625L107.846 69.222C107.894 69.192 107.936 69.1561 107.978 69.1201L110.987 66.4109C111.268 66.1532 111.43 65.7936 111.43 65.41C111.43 65.0264 111.268 64.6668 110.987 64.409L108.247 61.9336C107.99 61.7058 107.666 61.586 107.342 61.586C107.067 61.586 106.785 61.6699 106.545 61.8437L95.9722 69.5936L84.5241 75.036L72.111 78.3805L59.0206 79.5193L45.9302 78.3805L33.5171 75.036L22.069 69.5936L11.8437 62.1434L7.74993 58.1815C7.4922 57.9298 7.15056 57.8039 6.81491 57.8039L6.8209 57.8099Z" fill="#03467A"/>
<path fill-rule="evenodd" clip-rule="evenodd" d="M69.3898 78.9859C69.0961 78.9859 68.8324 78.7941 68.7425 78.5004L53.1168 25.5574L49.1549 22.7763C49.065 22.7164 48.999 22.6325 48.9451 22.5426L46.4936 17.9034C46.4277 17.7775 46.4037 17.6337 46.4217 17.4898L47.6564 9.1345C47.6804 8.96068 47.7763 8.79885 47.9202 8.69096L54.7051 3.6562C54.825 3.57229 54.9628 3.52434 55.1067 3.52434C55.1367 3.52434 55.1726 3.52434 55.2026 3.53033L63.5579 4.76505C63.7317 4.78902 63.8935 4.88492 64.0014 5.02877L69.0362 11.8137C69.1201 11.9276 69.1681 12.0655 69.1681 12.2093L69.204 17.4539C69.204 17.5617 69.1801 17.6636 69.1321 17.7595L66.9564 22.087L78.1947 76.1328C78.2666 76.4865 78.0508 76.8341 77.6972 76.924L69.5397 78.9739C69.4857 78.9859 69.4318 78.9919 69.3778 78.9919L69.3898 78.9859Z" fill="white"/>
<path d="M55.1127 4.19564L63.468 5.43035L68.5028 12.2153L68.5387 17.4598L66.2551 21.9971L77.5414 76.2707L69.3838 78.3205L53.6922 25.1498L49.5385 22.2309L47.087 17.5917L48.3218 9.23639L55.1067 4.20163M55.1067 2.85303C54.819 2.85303 54.5373 2.94294 54.3035 3.11676L47.5186 8.15152C47.2309 8.3673 47.0391 8.68497 46.9911 9.0386L45.7564 17.3939C45.7145 17.6756 45.7624 17.9633 45.9003 18.2211L48.3517 22.8602C48.4536 23.046 48.5915 23.2079 48.7713 23.3337L52.5414 25.983L68.0952 78.6982C68.269 79.2796 68.8025 79.6632 69.3838 79.6632C69.4917 79.6632 69.6056 79.6512 69.7135 79.6212L77.871 77.5713C78.5723 77.3975 79.0098 76.6962 78.86 75.989L67.6696 22.1769L69.7435 18.0592C69.8394 17.8674 69.8873 17.6576 69.8873 17.4479L69.8514 12.2033C69.8514 11.9156 69.7555 11.6399 69.5876 11.4061L64.5529 4.62119C64.3371 4.33349 64.0194 4.14169 63.6658 4.09374L55.3105 2.85903C55.2445 2.84704 55.1786 2.84704 55.1127 2.84704L55.1067 2.85303Z" fill="#03467A"/>
<path fill-rule="evenodd" clip-rule="evenodd" d="M65.5478 81.6291V81.8089L64.6608 83.667H64.3731L65.2601 81.8629L64.2652 81.8569V81.6291H65.5538H65.5478Z" fill="#03467A"/>
<path fill-rule="evenodd" clip-rule="evenodd" d="M57.1865 6.5392C57.0906 6.5392 57.0007 6.51523 56.9108 6.47327C56.695 6.37138 56.5272 6.16159 56.5032 5.92184C56.4793 5.64613 56.6051 5.37641 56.8509 5.25054C56.9528 5.20259 57.0667 5.17262 57.1805 5.17262C57.2525 5.17262 57.3184 5.18461 57.3843 5.20259C57.5521 5.26253 57.714 5.37042 57.7919 5.53225C57.9178 5.78998 57.8758 6.11964 57.672 6.32343C57.5402 6.45529 57.3603 6.53321 57.1805 6.53321L57.1865 6.5392Z" fill="white"/>
<path d="M57.1865 5.83193L57.2045 5.8679H57.1925L57.1506 5.84992L57.1865 5.83193ZM57.1865 4.48334C56.9827 4.48334 56.779 4.53129 56.5872 4.62719L56.5512 4.64517C56.0537 4.89691 55.76 5.42436 55.814 5.98178C55.8679 6.5392 56.2635 7.00072 56.7969 7.15056H56.8209C56.9468 7.19252 57.0726 7.2105 57.2045 7.2105C57.5521 7.2105 57.8938 7.07864 58.1515 6.82091C58.5651 6.41333 58.679 5.78398 58.4152 5.26253L58.3973 5.22656C58.1635 4.75306 57.684 4.48334 57.1925 4.48334H57.1865Z" fill="#03467A"/>
<path fill-rule="evenodd" clip-rule="evenodd" d="M85.6509 79.2316L85.4711 78.7042L84.578 79.0098L84.5181 78.836L84.9556 77.3076L85.2374 77.2117L85.6509 78.4105L85.9206 78.3205L85.9926 78.5243L85.7228 78.6142L85.9027 79.1417L85.6569 79.2256L85.6509 79.2316ZM85.3992 78.5004L85.0815 77.5533H85.0755L84.7638 78.7161L85.3932 78.5064L85.3992 78.5004Z" fill="#03467A"/>
<path fill-rule="evenodd" clip-rule="evenodd" d="M87.3112 77.5593L87.4131 78.0089V78.2007L87.3951 78.3685L87.3412 78.5123L87.2573 78.6322L87.1434 78.7281L86.9995 78.7941L86.8557 78.824H86.7178L86.58 78.7761L86.4481 78.6982L86.3222 78.5843L86.2083 78.4344L86.0165 78.0268L85.9506 77.7931L85.9206 77.5773V77.3855L85.9506 77.2177L86.0105 77.0738L86.0945 76.954L86.2083 76.8581L86.3462 76.7921L86.496 76.7622H86.6399L86.7778 76.8101L86.9096 76.888L87.0295 77.0019L87.1374 77.1518L87.3232 77.5474L87.3112 77.5593ZM86.2743 77.9489L86.4181 78.2726L86.496 78.3985L86.58 78.4944L86.6699 78.5663L86.7598 78.6082L86.8497 78.6202L86.9396 78.6023L87.0295 78.5543L87.0954 78.4824L87.1374 78.3925L87.1614 78.2786V78.1467L87.1134 77.835L86.9935 77.4874L86.8497 77.2177L86.7718 77.1158L86.6878 77.0439L86.5979 77.0019L86.502 76.9899L86.4001 77.0079L86.3222 77.0499L86.2623 77.1158L86.2143 77.2057L86.1844 77.3136V77.4455L86.2203 77.7631L86.2743 77.9489Z" fill="#03467A"/>
<path fill-rule="evenodd" clip-rule="evenodd" d="M58.3253 23.9631C58.2894 23.9631 58.2534 23.9631 58.2234 23.9571L52.5833 23.076C52.4095 23.046 52.2477 22.9501 52.1458 22.8063C52.0379 22.6624 51.9959 22.4826 52.0259 22.3028L55.3225 1.2467C55.3524 1.07288 55.4483 0.911049 55.5922 0.809155C55.7061 0.725242 55.8499 0.677292 55.9878 0.677292C56.0237 0.677292 56.0597 0.677292 56.0897 0.683286L61.7298 1.56437C62.0954 1.62431 62.3472 1.96595 62.2932 2.33157L58.9966 23.3877C58.9667 23.5615 58.8708 23.7233 58.7269 23.8252C58.613 23.9091 58.4692 23.9571 58.3313 23.9571L58.3253 23.9631Z" fill="white"/>
<path d="M55.9818 1.3486L61.6219 2.22968L58.3253 23.2858L52.6852 22.4047L55.9818 1.3486ZM55.9818 0C55.7001 0 55.4184 0.0899065 55.1906 0.257732C54.9029 0.467514 54.7111 0.785183 54.6512 1.13882L51.3546 22.1949C51.3007 22.5485 51.3846 22.9082 51.5943 23.1959C51.8041 23.4836 52.1218 23.6754 52.4754 23.7353L58.1156 24.6164C58.1875 24.6284 58.2534 24.6344 58.3253 24.6344C58.9787 24.6344 59.5481 24.1609 59.656 23.4956L62.9525 2.43946C63.0664 1.70223 62.5629 1.01295 61.8317 0.899065L56.1916 0.0179813C56.1196 0.00599377 56.0537 0 55.9818 0Z" fill="#03467A"/>
<path fill-rule="evenodd" clip-rule="evenodd" d="M109.188 40.0144C109.129 40.0144 109.075 40.0084 109.021 39.9904C108.985 39.9784 108.925 39.9604 108.889 39.9485C108.847 39.9305 108.787 39.8945 108.751 39.8705C108.703 39.8406 108.619 39.7686 108.583 39.7267L108.511 39.6428C108.409 39.5229 108.355 39.3671 108.355 39.2052V26.1568C108.355 26.007 108.403 25.8631 108.499 25.7432L108.547 25.6833C108.571 25.6533 108.601 25.6234 108.631 25.5934L108.679 25.5514C108.679 25.5514 108.739 25.5035 108.775 25.4795C108.799 25.4615 108.853 25.4375 108.877 25.4256C108.913 25.4076 108.973 25.3836 109.015 25.3776C109.069 25.3656 109.146 25.3536 109.2 25.3536H111.532C111.586 25.3536 111.64 25.3596 111.694 25.3716C111.736 25.3836 111.796 25.4016 111.832 25.4196C111.874 25.4375 111.934 25.4675 111.97 25.4915C112.018 25.5275 112.107 25.5994 112.143 25.6413L112.215 25.7252C112.251 25.7672 112.281 25.8152 112.305 25.8631L112.461 26.1868C112.491 26.2467 112.509 26.3066 112.521 26.3666L113 29.2496C113 29.2496 113.006 29.3035 113.006 29.3335L113.132 32.648C113.132 32.648 113.132 32.69 113.132 32.708L112.917 36.9456C112.917 36.9755 112.917 37.0115 112.905 37.0415L112.521 39.0014C112.509 39.0554 112.491 39.1153 112.467 39.1633L112.311 39.4869C112.293 39.5289 112.263 39.5708 112.239 39.6068L112.191 39.6667C112.167 39.6967 112.137 39.7267 112.107 39.7567L112.059 39.7986C112.059 39.7986 112 39.8466 111.964 39.8705C111.94 39.8885 111.886 39.9125 111.862 39.9245C111.826 39.9425 111.766 39.9604 111.73 39.9724C111.676 39.9844 111.592 40.0024 111.532 40.0024H109.2L109.188 40.0144Z" fill="white"/>
<path d="M111.52 26.0249H111.544L111.568 26.0429L111.616 26.0789L111.688 26.1628L111.844 26.4865L112.323 29.3695L112.449 32.684L112.233 36.9216L111.85 38.8816L111.694 39.2052L111.646 39.2652L111.598 39.3071L111.574 39.3191L111.55 39.3311H111.526L109.194 39.3371H109.17L109.146 39.3191L109.099 39.2831L109.027 39.1992V26.1508L109.075 26.0909L109.123 26.0489L109.146 26.0369L109.17 26.0249H109.194L111.526 26.0189M111.526 24.6703H109.194C109.081 24.6703 108.961 24.6883 108.847 24.7183C108.781 24.7363 108.685 24.7662 108.625 24.7962C108.565 24.8202 108.487 24.8621 108.433 24.8921C108.367 24.9341 108.277 24.994 108.223 25.048L108.175 25.0899C108.116 25.1439 108.062 25.2038 108.014 25.2637L107.966 25.3237C107.78 25.5574 107.684 25.8511 107.684 26.1508V39.1992C107.684 39.5169 107.798 39.8226 108.002 40.0683L108.074 40.1522C108.146 40.2362 108.229 40.3141 108.325 40.38L108.373 40.416C108.445 40.4699 108.529 40.5119 108.613 40.5538C108.679 40.5838 108.775 40.6198 108.841 40.6377C108.949 40.6677 109.087 40.6857 109.206 40.6857H111.538C111.652 40.6857 111.766 40.6737 111.88 40.6437C111.952 40.6258 112.041 40.5958 112.107 40.5658C112.167 40.5418 112.245 40.4999 112.299 40.4699C112.365 40.428 112.455 40.368 112.515 40.3141L112.563 40.2721C112.623 40.2182 112.677 40.1582 112.725 40.0983L112.773 40.0384C112.833 39.9664 112.881 39.8825 112.923 39.7986L113.078 39.4749C113.126 39.3731 113.162 39.2652 113.186 39.1513L113.57 37.1913C113.582 37.1314 113.588 37.0655 113.594 36.9995L113.81 32.7619C113.81 32.72 113.81 32.684 113.81 32.6421L113.684 29.3275C113.684 29.2736 113.678 29.2136 113.666 29.1597L113.186 26.2767C113.168 26.1508 113.126 26.0249 113.072 25.9111L112.917 25.5874C112.869 25.4855 112.809 25.3896 112.731 25.3057L112.659 25.2218C112.587 25.1379 112.503 25.0599 112.413 24.994L112.365 24.958C112.293 24.9041 112.209 24.8621 112.125 24.8202C112.059 24.7902 111.97 24.7603 111.904 24.7423C111.79 24.7123 111.652 24.6883 111.532 24.6883L111.526 24.6703Z" fill="#03467A"/>
<path fill-rule="evenodd" clip-rule="evenodd" d="M105.976 38.1144C105.604 38.1144 105.304 37.8147 105.304 37.4431V27.925C105.304 27.5533 105.604 27.2537 105.976 27.2537H108.949C109.296 27.2537 109.584 27.5174 109.62 27.859L110.07 32.4263C110.07 32.4682 110.07 32.5102 110.07 32.5521L109.62 37.503C109.59 37.8506 109.296 38.1144 108.949 38.1144H105.976Z" fill="#03467A"/>
<path d="M108.949 27.925L109.404 32.4922L108.949 37.4431H105.976V27.925H108.949ZM108.949 26.5764H105.976C105.233 26.5764 104.627 27.1817 104.627 27.925V37.4431C104.627 38.1863 105.233 38.7917 105.976 38.7917H108.949C109.644 38.7917 110.225 38.2582 110.291 37.5689L110.747 32.6181C110.753 32.5342 110.753 32.4503 110.747 32.3603L110.291 27.7931C110.225 27.1038 109.644 26.5824 108.949 26.5824V26.5764Z" fill="#03467A"/>
<path fill-rule="evenodd" clip-rule="evenodd" d="M104.621 41.1532C104.549 41.1532 104.483 41.1412 104.417 41.1232C104.381 41.1112 104.322 41.0873 104.292 41.0753C104.262 41.0573 104.208 41.0273 104.178 41.0094C104.148 40.9854 104.088 40.9434 104.064 40.9135L104.016 40.8655C104.016 40.8655 103.962 40.8056 103.944 40.7756L103.896 40.7037C103.824 40.5958 103.782 40.4639 103.782 40.3321V25.048C103.782 24.9161 103.818 24.7842 103.896 24.6763L103.944 24.6044C103.968 24.5744 103.992 24.5385 104.016 24.5145L104.064 24.4666C104.064 24.4666 104.124 24.4126 104.154 24.3886C104.184 24.3707 104.238 24.3287 104.268 24.3167C104.298 24.2987 104.357 24.2748 104.393 24.2628C104.459 24.2448 104.549 24.2208 104.621 24.2208H106.953C107.025 24.2208 107.091 24.2328 107.157 24.2508C107.193 24.2628 107.246 24.2808 107.276 24.2987C107.312 24.3167 107.366 24.3467 107.396 24.3707C107.426 24.3946 107.486 24.4366 107.51 24.4666L107.558 24.5145C107.558 24.5145 107.612 24.5744 107.63 24.6044L107.678 24.6763C107.702 24.7123 107.72 24.7543 107.738 24.7902L107.894 25.1738C107.918 25.2398 107.936 25.3057 107.942 25.3716L108.547 32.6301C108.547 32.6301 108.547 32.69 108.547 32.714L108.331 37.6768C108.331 37.6768 108.331 37.7308 108.325 37.7607L107.942 40.0563C107.936 40.1043 107.918 40.1522 107.9 40.2002L107.744 40.5838C107.726 40.6258 107.708 40.6617 107.684 40.6977L107.636 40.7696C107.612 40.7996 107.588 40.8355 107.564 40.8595L107.516 40.9075C107.516 40.9075 107.456 40.9614 107.426 40.9854C107.396 41.0094 107.342 41.0453 107.306 41.0633C107.276 41.0813 107.216 41.1053 107.187 41.1172C107.121 41.1352 107.031 41.1592 106.959 41.1592H104.627L104.621 41.1532Z" fill="white"/>
<path d="M106.953 24.8801H106.977L107.001 24.8981L107.025 24.9161L107.073 24.964L107.121 25.036L107.276 25.4196L107.882 32.678L107.666 37.6409L107.282 39.9365L107.127 40.3201L107.079 40.392L107.031 40.4399L107.007 40.4579L106.983 40.4699H106.959L104.627 40.4759H104.603L104.579 40.4579L104.555 40.4399L104.507 40.392L104.459 40.3201V25.036L104.507 24.964L104.555 24.9161L104.579 24.8981L104.603 24.8861H104.627L106.959 24.8801M106.959 23.5315H104.627C104.495 23.5315 104.357 23.5495 104.232 23.5915C104.154 23.6154 104.052 23.6514 103.98 23.6934C103.92 23.7233 103.842 23.7713 103.788 23.8072C103.722 23.8552 103.632 23.9271 103.578 23.9871L103.53 24.035C103.476 24.0889 103.428 24.1549 103.386 24.2148L103.339 24.2867C103.195 24.5085 103.117 24.7662 103.117 25.03V40.3141C103.117 40.5778 103.195 40.8355 103.339 41.0573L103.386 41.1292C103.428 41.1952 103.476 41.2551 103.53 41.315L103.578 41.363C103.632 41.4229 103.692 41.4769 103.758 41.5248C103.812 41.5668 103.896 41.6207 103.962 41.6507C104.034 41.6866 104.13 41.7286 104.208 41.7526C104.333 41.7945 104.495 41.8185 104.627 41.8185H106.959C107.091 41.8185 107.228 41.8005 107.354 41.7586C107.432 41.7346 107.528 41.6986 107.6 41.6627C107.66 41.6327 107.744 41.5788 107.804 41.5368C107.87 41.4889 107.954 41.4169 108.008 41.363L108.056 41.315C108.11 41.2551 108.158 41.1952 108.199 41.1292L108.247 41.0573C108.295 40.9854 108.337 40.9075 108.367 40.8235L108.523 40.4399C108.559 40.344 108.589 40.2481 108.607 40.1522L108.991 37.8566C109.003 37.8027 109.003 37.7487 109.009 37.6948L109.224 32.732C109.224 32.678 109.224 32.6181 109.224 32.5641L108.619 25.3057C108.607 25.1678 108.577 25.03 108.523 24.9041L108.367 24.5205C108.331 24.4366 108.295 24.3647 108.247 24.2867L108.199 24.2148C108.158 24.1489 108.11 24.0889 108.056 24.035L108.008 23.9871C107.948 23.9271 107.888 23.8732 107.822 23.8252C107.768 23.7893 107.69 23.7353 107.63 23.7053C107.558 23.6694 107.456 23.6214 107.378 23.5975C107.252 23.5555 107.091 23.5315 106.959 23.5315Z" fill="#03467A"/>
<path fill-rule="evenodd" clip-rule="evenodd" d="M88.8516 39.2532C88.48 39.2532 88.1803 38.9535 88.1803 38.5819V26.7801C88.1803 26.4085 88.48 26.1088 88.8516 26.1088H104.459C104.813 26.1088 105.107 26.3846 105.131 26.7382L105.508 32.8279C105.508 32.8279 105.508 32.8878 105.508 32.9118L105.131 38.6238C105.107 38.9775 104.813 39.2532 104.459 39.2532H88.8516Z" fill="white"/>
<path d="M104.453 26.7802L104.837 32.8698L104.453 38.5819H88.8456V26.7802H104.453ZM104.453 25.4316H88.8456C88.1024 25.4316 87.497 26.0369 87.497 26.7802V38.5819C87.497 39.3251 88.1024 39.9305 88.8456 39.9305H104.453C105.161 39.9305 105.748 39.379 105.796 38.6718L106.18 32.9597C106.18 32.8998 106.18 32.8458 106.18 32.7859L105.796 26.6962C105.754 25.989 105.161 25.4316 104.453 25.4316Z" fill="#03467A"/>
<path fill-rule="evenodd" clip-rule="evenodd" d="M86.4001 43.0592C86.3342 43.0592 86.2683 43.0472 86.2083 43.0293C86.1724 43.0173 86.1065 42.9933 86.0705 42.9813C86.0405 42.9633 85.9806 42.9334 85.9506 42.9154C85.9206 42.8914 85.8547 42.8434 85.8247 42.8195L85.7648 42.7595C85.7648 42.7595 85.7109 42.6996 85.6929 42.6696L85.6329 42.5797C85.555 42.4658 85.5131 42.334 85.5131 42.1961V23.1839C85.5131 23.046 85.555 22.9082 85.6329 22.8003L85.6929 22.7104C85.7169 22.6804 85.7408 22.6504 85.7708 22.6205L85.8307 22.5605C85.8307 22.5605 85.8847 22.5066 85.9207 22.4886C85.9506 22.4706 86.0106 22.4287 86.0465 22.4107C86.0825 22.3927 86.1484 22.3627 86.1844 22.3568C86.2443 22.3388 86.3402 22.3208 86.4061 22.3208H89.457C89.5229 22.3208 89.5888 22.3328 89.6488 22.3508C89.6847 22.3627 89.7507 22.3867 89.7866 22.3987C89.8166 22.4167 89.8825 22.4467 89.9125 22.4706C89.9425 22.4946 90.0024 22.5366 90.0324 22.5665L90.0923 22.6265C90.0923 22.6265 90.1463 22.6864 90.1702 22.7164L90.2302 22.8063C90.2541 22.8422 90.2781 22.8842 90.2961 22.9262L90.4999 23.3997C90.5299 23.4656 90.5478 23.5375 90.5538 23.6094L91.345 32.6421C91.345 32.6421 91.345 32.702 91.345 32.732L91.0573 38.9055C91.0573 38.9055 91.0573 38.9655 91.0453 38.9895L90.5418 41.8485C90.5299 41.9024 90.5179 41.9504 90.4939 41.9983L90.2901 42.4718C90.2721 42.5138 90.2481 42.5557 90.2242 42.5917L90.1642 42.6816C90.1403 42.7116 90.1163 42.7416 90.0923 42.7715L90.0324 42.8315C90.0324 42.8315 89.9724 42.8854 89.9425 42.9094C89.9125 42.9274 89.8526 42.9693 89.8226 42.9813C89.7866 42.9993 89.7207 43.0293 89.6847 43.0352C89.6248 43.0532 89.5289 43.0712 89.463 43.0712H86.4121L86.4001 43.0592Z" fill="white"/>
<path d="M89.451 22.9801L89.4809 22.9921L89.5109 23.0101L89.5409 23.034L89.6008 23.094L89.6608 23.1839L89.8645 23.6574L90.6557 32.69L90.368 38.8636L89.8645 41.7226L89.6608 42.1961L89.6008 42.286L89.5409 42.346L89.5109 42.3699L89.4809 42.3879L89.451 42.3999H86.4001L86.3702 42.3879L86.3402 42.3699L86.3102 42.346L86.2503 42.286L86.1904 42.1961V23.1839L86.2503 23.094L86.3102 23.034L86.3402 23.0101L86.3702 22.9921L86.4001 22.9801H89.451ZM89.451 21.6315H86.4001C86.2743 21.6315 86.1484 21.6495 86.0225 21.6854L85.9926 21.6974C85.9147 21.7214 85.8427 21.7514 85.7708 21.7873L85.7408 21.8053C85.6809 21.8353 85.627 21.8653 85.573 21.9012L85.543 21.9252C85.4771 21.9731 85.4112 22.0271 85.3512 22.081L85.2913 22.141C85.2374 22.1949 85.1834 22.2549 85.1415 22.3208L85.0815 22.4107C84.9257 22.6385 84.8418 22.9022 84.8418 23.1779V42.1901C84.8418 42.4658 84.9257 42.7356 85.0815 42.9573L85.1415 43.0472C85.1834 43.1132 85.2374 43.1731 85.2913 43.227L85.3512 43.287C85.4112 43.3469 85.4711 43.3949 85.537 43.4428L85.567 43.4668C85.621 43.5028 85.6809 43.5387 85.7408 43.5687L85.7708 43.5867C85.8367 43.6226 85.9087 43.6466 85.9806 43.6706L86.0106 43.6826C86.1364 43.7185 86.2623 43.7365 86.3942 43.7365H89.445C89.5768 43.7365 89.7027 43.7185 89.8286 43.6826L89.8586 43.6706C89.9305 43.6466 90.0024 43.6226 90.0683 43.5867L90.0983 43.5687C90.1582 43.5387 90.2182 43.5028 90.2721 43.4668L90.3021 43.4428C90.368 43.3949 90.428 43.3469 90.4879 43.287L90.5478 43.227C90.6018 43.1731 90.6557 43.1132 90.6977 43.0472L90.7576 42.9573C90.8116 42.8854 90.8535 42.8015 90.8895 42.7236L91.0933 42.2501C91.1352 42.1542 91.1652 42.0523 91.1832 41.9504L91.6867 39.0913C91.6986 39.0374 91.7046 38.9775 91.7046 38.9175L91.9923 32.7439C91.9923 32.684 91.9923 32.6241 91.9923 32.5641L91.2012 23.5315C91.1892 23.3877 91.1532 23.2498 91.0933 23.112L90.8895 22.6385C90.8535 22.5545 90.8116 22.4766 90.7576 22.4047L90.6977 22.3148C90.6497 22.2489 90.6018 22.1889 90.5478 22.135L90.4879 22.075C90.428 22.0151 90.368 21.9672 90.3021 21.9192L90.2721 21.8952C90.2182 21.8593 90.1642 21.8233 90.1043 21.7933L90.0743 21.7754C90.0024 21.7394 89.9305 21.7094 89.8526 21.6914L89.8226 21.6795C89.7027 21.6435 89.5708 21.6255 89.445 21.6255L89.451 21.6315Z" fill="#03467A"/>
<path fill-rule="evenodd" clip-rule="evenodd" d="M86.3402 43.0532C86.2983 43.0532 86.2503 43.0412 86.2083 43.0293C86.1724 43.0173 86.1065 42.9933 86.0705 42.9813C86.0405 42.9633 85.9806 42.9333 85.9506 42.9154C85.9206 42.8914 85.8547 42.8434 85.8247 42.8195L85.7648 42.7595C85.7648 42.7595 85.7109 42.6996 85.6929 42.6696L85.6329 42.5797C85.609 42.5438 85.585 42.5018 85.567 42.4598L85.3632 41.9863C85.3392 41.9324 85.3213 41.8784 85.3153 41.8185L84.6919 37.6169C84.6919 37.5809 84.6859 37.539 84.6859 37.503L84.9497 25.3357C84.9497 25.2937 84.9497 25.2517 84.9616 25.2098L85.3213 23.5135C85.3333 23.4716 85.3452 23.4296 85.3632 23.3877L85.567 22.9142C85.585 22.8722 85.609 22.8303 85.6329 22.7943L85.6929 22.7044C85.7169 22.6744 85.7408 22.6444 85.7708 22.6145L85.8307 22.5545C85.8307 22.5545 85.8847 22.5006 85.9206 22.4826C85.9506 22.4646 86.0105 22.4227 86.0465 22.4047C86.0825 22.3867 86.1484 22.3567 86.1844 22.3508C86.2263 22.3388 86.3042 22.3208 86.3462 22.3148C86.3702 22.3148 86.3882 22.3148 86.4121 22.3148C86.568 22.3148 86.7358 22.3627 86.8557 22.4586L87.1074 22.6564C87.1973 22.7284 87.2692 22.8243 87.3112 22.9262L87.545 23.4896C87.5689 23.5555 87.5869 23.6214 87.5929 23.6874L88.3541 32.6301C88.3541 32.66 88.3541 32.69 88.3541 32.72L87.9885 39.5828C87.9885 39.6128 87.9885 39.6428 87.9765 39.6727L87.5809 41.7526C87.5749 41.8005 87.5569 41.8425 87.539 41.8844L87.3052 42.4479C87.2633 42.5557 87.1913 42.6516 87.1014 42.7236L86.8497 42.9214C86.7298 43.0173 86.586 43.0652 86.4361 43.0652C86.4181 43.0652 86.3402 43.0652 86.3402 43.0652V43.0532Z" fill="#03467A"/>
<path d="M86.4361 22.9741L86.6879 23.1719L86.9216 23.7353L87.6828 32.678L87.3172 39.5409L86.9216 41.6207L86.6879 42.1841L86.4361 42.3819H86.4061L86.3762 42.3699L86.3462 42.352L86.3162 42.328L86.2563 42.268L86.1964 42.1781L85.9926 41.7046L85.3692 37.503L85.6329 25.3357L85.9926 23.6394L86.1964 23.1659L86.2563 23.076L86.3162 23.0161L86.3462 22.9921L86.3762 22.9741L86.4061 22.9621H86.4361M86.4361 21.6135C86.3882 21.6135 86.3462 21.6135 86.2983 21.6195H86.2683C86.1844 21.6315 86.1065 21.6495 86.0285 21.6675L85.9986 21.6795C85.9206 21.7034 85.8487 21.7334 85.7768 21.7694L85.7468 21.7873C85.6869 21.8173 85.6329 21.8473 85.579 21.8832L85.549 21.9072C85.4831 21.9552 85.4172 22.0091 85.3572 22.0631L85.2973 22.123C85.2433 22.1769 85.1894 22.2369 85.1474 22.3028L85.0875 22.3927C85.0336 22.4646 84.9916 22.5426 84.9557 22.6265L84.7519 23.1C84.7159 23.1839 84.6919 23.2678 84.6679 23.3577L84.3083 25.0539C84.2903 25.1379 84.2784 25.2218 84.2784 25.3057L84.0146 37.473C84.0146 37.5509 84.0146 37.6229 84.0266 37.7008L84.65 41.9024C84.6679 42.0163 84.6979 42.1302 84.7459 42.2381L84.9497 42.7116C84.9856 42.7955 85.0276 42.8734 85.0815 42.9453L85.1415 43.0352C85.1834 43.1012 85.2374 43.1611 85.2913 43.2151L85.3512 43.275C85.4112 43.3349 85.4711 43.3829 85.537 43.4308L85.567 43.4548C85.621 43.4908 85.6809 43.5267 85.7408 43.5567L85.7708 43.5747C85.8367 43.6106 85.9087 43.6346 85.9806 43.6586L86.0106 43.6706C86.0945 43.6946 86.1784 43.7125 86.2623 43.7185H86.2923C86.3342 43.7245 86.3762 43.7305 86.4241 43.7305C86.7238 43.7305 87.0175 43.6286 87.2573 43.4428L87.509 43.245C87.6888 43.1012 87.8327 42.9154 87.9226 42.6996L88.1563 42.1362C88.1923 42.0523 88.2163 41.9624 88.2342 41.8725L88.6298 39.7926C88.6418 39.7327 88.6478 39.6727 88.6538 39.6128L89.0194 32.7499C89.0194 32.69 89.0194 32.6241 89.0194 32.5641L88.2582 23.6214C88.2462 23.4836 88.2163 23.3517 88.1623 23.2199L87.9286 22.6564C87.8386 22.4407 87.7008 22.2549 87.515 22.111L87.2632 21.9132C87.0235 21.7274 86.7298 21.6255 86.4301 21.6255L86.4361 21.6135Z" fill="#03467A"/>
<path fill-rule="evenodd" clip-rule="evenodd" d="M71.5356 39.2532C71.164 39.2532 70.8643 38.9535 70.8643 38.5819V26.7801C70.8643 26.4085 71.164 26.1088 71.5356 26.1088H86.1844C86.538 26.1088 86.8317 26.3846 86.8557 26.7382L87.2393 32.4503C87.2393 32.4503 87.2393 32.5102 87.2393 32.5402L86.8557 38.6298C86.8317 38.9835 86.538 39.2592 86.1844 39.2592H71.5356V39.2532Z" fill="white"/>
<path d="M86.1844 26.7802L86.568 32.4922L86.1844 38.5819H71.5356V26.7802H86.1844ZM86.1844 25.4316H71.5356C70.7924 25.4316 70.187 26.0369 70.187 26.7802V38.5819C70.187 39.3251 70.7924 39.9305 71.5356 39.9305H86.1844C86.8976 39.9305 87.485 39.379 87.527 38.6658L87.9106 32.5761C87.9106 32.5162 87.9106 32.4622 87.9106 32.4023L87.527 26.6902C87.479 25.983 86.8916 25.4316 86.1844 25.4316Z" fill="#03467A"/>
<path fill-rule="evenodd" clip-rule="evenodd" d="M69.4378 41.2971C69.276 41.2971 69.1201 41.2371 68.9942 41.1292C68.8504 41.0034 68.7665 40.8176 68.7665 40.6198L68.7905 24.8981C68.7905 24.7063 68.8744 24.5265 69.0122 24.4006C69.1381 24.2867 69.2939 24.2268 69.4618 24.2268C69.4857 24.2268 69.5097 24.2268 69.5337 24.2268L75.4975 24.8621C75.5634 24.8681 75.6293 24.8861 75.6893 24.9101C75.7193 24.9221 75.7732 24.9461 75.8032 24.964C75.8271 24.982 75.8751 25.012 75.8991 25.03C75.929 25.0539 75.977 25.0959 76.001 25.1259L76.0429 25.1738C76.0429 25.1738 76.0849 25.2278 76.1029 25.2577L76.1448 25.3297C76.1688 25.3656 76.1868 25.4016 76.1988 25.4375L76.3426 25.8032C76.3606 25.8391 76.3666 25.8811 76.3786 25.923L76.6363 27.1817C76.6363 27.1817 76.6483 27.2417 76.6483 27.2656L76.942 31.3774C76.942 31.4073 76.942 31.4373 76.942 31.4733L76.3965 39.3371C76.3965 39.409 76.3786 39.4749 76.3486 39.5409L76.2047 39.9065C76.1868 39.9545 76.1628 39.9964 76.1388 40.0324L76.0729 40.1283C76.0429 40.1702 76.013 40.2062 75.977 40.2422L75.929 40.2841C75.8991 40.3141 75.8631 40.338 75.8211 40.362C75.7912 40.38 75.7372 40.41 75.7073 40.422C75.6533 40.4459 75.5694 40.4699 75.5095 40.4759L69.5217 41.2791C69.5217 41.2791 69.4618 41.2851 69.4318 41.2851L69.4378 41.2971Z" fill="white"/>
<path d="M69.4618 24.9041L75.4256 25.5394L75.4495 25.5514L75.4735 25.5634L75.4975 25.5814L75.5394 25.6293L75.5814 25.7013L75.7252 26.0669L75.983 27.3256L76.2767 31.4373L75.7312 39.3011L75.5874 39.6667L75.5215 39.7626L75.4735 39.8046L75.4495 39.8166L75.4256 39.8286L69.4378 40.6317L69.4618 24.9101M69.4618 23.5615C69.1321 23.5615 68.8084 23.6814 68.5627 23.9031C68.281 24.1609 68.1132 24.5205 68.1132 24.9041L68.0892 40.6258C68.0892 41.0153 68.257 41.387 68.5507 41.6387C68.7965 41.8545 69.1141 41.9743 69.4378 41.9743C69.4977 41.9743 69.5577 41.9743 69.6176 41.9624L75.6054 41.1592C75.7193 41.1412 75.8331 41.1112 75.947 41.0693C76.0129 41.0393 76.0969 40.9974 76.1568 40.9614C76.2287 40.9135 76.3246 40.8475 76.3906 40.7876L76.4385 40.7456C76.5104 40.6797 76.5764 40.6018 76.6363 40.5179L76.7022 40.422C76.7562 40.344 76.8041 40.2601 76.8401 40.1702L76.9839 39.8046C77.0379 39.6727 77.0679 39.5349 77.0798 39.391L77.6253 31.5272C77.6253 31.4673 77.6253 31.4013 77.6253 31.3414L77.3316 27.2297C77.3316 27.1697 77.3196 27.1158 77.3076 27.0559L77.0499 25.7972C77.0319 25.7133 77.0079 25.6353 76.9779 25.5574L76.8341 25.1918C76.8041 25.1199 76.7682 25.0479 76.7262 24.976L76.6843 24.9041C76.6483 24.8442 76.6063 24.7902 76.5584 24.7363L76.5164 24.6883C76.4685 24.6344 76.4145 24.5804 76.3606 24.5385C76.3126 24.5025 76.2467 24.4486 76.1928 24.4186C76.1328 24.3826 76.0429 24.3347 75.977 24.3047C75.8571 24.2568 75.7073 24.2148 75.5814 24.1968L69.6176 23.5615C69.5697 23.5615 69.5217 23.5555 69.4738 23.5555L69.4618 23.5615Z" fill="#03467A"/>
<path fill-rule="evenodd" clip-rule="evenodd" d="M69.1501 41.1532C69.1021 41.1532 69.0602 41.1412 69.0182 41.1232C68.9823 41.1112 68.9223 41.0873 68.8924 41.0753C68.8624 41.0573 68.8084 41.0273 68.7785 41.0093C68.7485 40.9854 68.6886 40.9434 68.6646 40.9135L68.6166 40.8655C68.6166 40.8655 68.5627 40.8056 68.5447 40.7756L68.4968 40.7037C68.4728 40.6677 68.4548 40.6317 68.4368 40.5898L68.281 40.2062C68.251 40.1403 68.239 40.0683 68.233 39.9964L67.6457 31.3534C67.6457 31.3234 67.6457 31.2935 67.6457 31.2635L67.9573 26.7442C67.9573 26.7442 67.9573 26.6842 67.9693 26.6603L68.245 25.2997C68.251 25.2577 68.269 25.2158 68.281 25.1738L68.4368 24.7902C68.4548 24.7483 68.4728 24.7123 68.4968 24.6763L68.5447 24.6044C68.5687 24.5744 68.5927 24.5385 68.6166 24.5145L68.6646 24.4666C68.6646 24.4666 68.7245 24.4126 68.7545 24.3886C68.7845 24.3707 68.8384 24.3287 68.8684 24.3167C68.8983 24.2987 68.9583 24.2748 68.9942 24.2628C69.0422 24.2508 69.1081 24.2328 69.1561 24.2268C69.1801 24.2268 69.198 24.2268 69.222 24.2268C69.3838 24.2268 69.5517 24.2807 69.6715 24.3766L69.8633 24.5325C69.9533 24.6044 70.0192 24.7003 70.0611 24.8082L70.241 25.2637C70.2649 25.3237 70.2769 25.3896 70.2829 25.4555L70.8643 32.648C70.8643 32.648 70.8643 32.708 70.8643 32.738L70.5886 38.2582C70.5886 38.2582 70.5886 38.3181 70.5766 38.3421L70.2769 40.0144C70.2709 40.0563 70.2589 40.0983 70.241 40.1403L70.0611 40.5958C70.0192 40.7037 69.9533 40.7936 69.8633 40.8655L69.6715 41.0213C69.5517 41.1232 69.3958 41.1772 69.24 41.1772C69.216 41.1772 69.1441 41.1712 69.1441 41.1712L69.1501 41.1532Z" fill="#03467A"/>
<path d="M69.246 24.8801L69.4378 25.036L69.6176 25.4915L70.199 32.684L69.9173 38.1983L69.6176 39.8705L69.4378 40.3261L69.246 40.4819H69.222L69.198 40.4699L69.1741 40.4579L69.1501 40.4399L69.1021 40.392L69.0542 40.3201L68.8983 39.9365L68.311 31.2935L68.6286 26.7742L68.9043 25.4136L69.0602 25.03L69.1081 24.958L69.1561 24.9101L69.1801 24.8921L69.204 24.8801H69.228L69.252 24.8681M69.252 23.5195C69.204 23.5195 69.1621 23.5195 69.1141 23.5255H69.0901C69.0002 23.5375 68.9163 23.5555 68.8324 23.5795C68.7545 23.6035 68.6526 23.6394 68.5807 23.6814C68.5207 23.7113 68.4428 23.7593 68.3889 23.7953C68.3229 23.8432 68.233 23.9151 68.1791 23.9751L68.1311 24.023C68.0772 24.077 68.0293 24.1429 67.9873 24.2028L67.9393 24.2748C67.8914 24.3467 67.8494 24.4246 67.8195 24.5085L67.6636 24.8921C67.6337 24.97 67.6037 25.0539 67.5917 25.1379L67.316 26.4984C67.304 26.5524 67.298 26.6123 67.292 26.6723L66.9743 31.1916C66.9743 31.2515 66.9743 31.3174 66.9743 31.3774L67.5617 40.0204C67.5737 40.1642 67.6037 40.3081 67.6576 40.4399L67.8135 40.8235C67.8494 40.9075 67.8854 40.9794 67.9333 41.0573L67.9813 41.1292C68.0233 41.1952 68.0712 41.2551 68.1252 41.315L68.1731 41.363C68.227 41.4229 68.287 41.4769 68.3529 41.5248C68.4069 41.5668 68.4908 41.6207 68.5567 41.6507C68.6286 41.6866 68.7245 41.7286 68.8024 41.7526C68.8864 41.7766 69.0002 41.8065 69.0842 41.8125C69.1321 41.8125 69.1801 41.8185 69.222 41.8185C69.5397 41.8185 69.8573 41.7106 70.1031 41.5128L70.2949 41.357C70.4687 41.2131 70.6066 41.0213 70.6905 40.8116L70.8703 40.356C70.9003 40.2721 70.9242 40.1882 70.9422 40.1043L71.2419 38.432C71.2539 38.3781 71.2599 38.3182 71.2599 38.2582L71.5416 32.7439C71.5416 32.684 71.5416 32.6241 71.5416 32.5701L70.9602 25.3776C70.9482 25.2457 70.9182 25.1139 70.8703 24.994L70.6905 24.5385C70.6066 24.3287 70.4687 24.1369 70.2949 23.993L70.1031 23.8372C69.8633 23.6394 69.5577 23.5255 69.246 23.5255L69.252 23.5195Z" fill="#03467A"/>
<path fill-rule="evenodd" clip-rule="evenodd" d="M16.1832 68.3709L15.7876 68.293L15.8775 68.0952L16.375 68.1911L16.5548 68.3409L15.2661 69.9233L15.0623 69.7555L16.1892 68.3769L16.1832 68.3709Z" fill="#03467A"/>
<path fill-rule="evenodd" clip-rule="evenodd" d="M16.0933 70.187L16.1832 70.3668L16.2611 70.4747L16.363 70.5706L16.4649 70.6425L16.5608 70.6845L16.6507 70.7025H16.7346L16.8065 70.6785L16.8724 70.6485L16.9264 70.6066L16.9683 70.5586L17.0223 70.4747L17.0523 70.3908V70.3009L17.0403 70.217L17.0043 70.1331L16.9564 70.0551L16.8964 69.9832L16.7046 69.8214L16.8365 69.6596L17.0163 69.8034L17.0882 69.8394L17.1661 69.8693L17.2441 69.8873H17.322L17.3939 69.8753L17.4658 69.8394L17.5258 69.7794L17.5617 69.7315L17.5857 69.6775L17.5977 69.6236V69.5637L17.5857 69.5037L17.5557 69.4438L17.5078 69.3838L17.4419 69.3239L17.34 69.258L17.2321 69.21L17.1302 69.1801L17.0403 69.1681L17.1122 68.9643L17.2261 68.9823L17.3579 69.0242L17.4958 69.0901L17.6277 69.1801L17.7296 69.276L17.8015 69.3779L17.8494 69.4797L17.8734 69.5816V69.6775L17.8554 69.7674L17.8195 69.8514L17.7655 69.9293L17.7116 69.9832L17.6516 70.0312L17.5857 70.0671L17.5138 70.0911L17.4359 70.1031H17.352L17.262 70.0911L17.1721 70.0671L17.2261 70.151L17.268 70.235L17.298 70.3249L17.31 70.4148V70.5047L17.286 70.5946L17.2501 70.6845L17.1901 70.7684L17.1062 70.8523L17.0043 70.9182L16.8904 70.9602L16.7706 70.9782H16.6387L16.5008 70.9362L16.363 70.8703L16.1592 70.7145L16.0513 70.5946L15.9674 70.4807L15.8955 70.3309L16.0873 70.211L16.0933 70.187Z" fill="#03467A"/>
<path fill-rule="evenodd" clip-rule="evenodd" d="M18.7965 71.4517L18.4668 71.7814L18.305 71.8892L18.1491 71.9552L17.9933 71.9851L17.8434 71.9732L17.6996 71.9252L17.5617 71.8353L17.4598 71.7334L17.3939 71.6135L17.3579 71.4757V71.3258L17.3879 71.158L17.4538 70.9842L17.6936 70.6066L17.8554 70.4268L18.0173 70.2889L18.1791 70.187L18.3409 70.1211L18.4968 70.0971L18.6466 70.1091L18.7845 70.157L18.9103 70.235L19.0182 70.3428L19.0901 70.4687L19.1261 70.6066V70.7564L19.0901 70.9182L19.0242 71.0921L18.7845 71.4577L18.7965 71.4517ZM17.9214 70.7744L17.7236 71.0681L17.6636 71.2L17.6277 71.3198L17.6157 71.4277L17.6277 71.5236L17.6636 71.6075L17.7236 71.6735L17.8075 71.7214L17.9034 71.7394L18.0053 71.7274L18.1132 71.6854L18.227 71.6195L18.4608 71.4097L18.6946 71.128L18.8504 70.8583L18.8924 70.7384L18.9103 70.6246L18.8983 70.5227L18.8624 70.4328L18.7965 70.3608L18.7185 70.3189L18.6286 70.3009H18.5327L18.4248 70.3428L18.311 70.4028L18.0652 70.6126L17.9334 70.7564L17.9214 70.7744Z" fill="#03467A"/>
<path fill-rule="evenodd" clip-rule="evenodd" d="M24.5684 73.9211H24.1669L24.2148 73.7113H24.7183L24.9281 73.8072L23.999 75.6234L23.7593 75.5035L24.5684 73.9211Z" fill="#03467A"/>
<path fill-rule="evenodd" clip-rule="evenodd" d="M24.6584 75.971L24.7363 75.8211L25.8092 75.4555L25.935 75.3836L26.0369 75.3057L26.1208 75.2218L26.1808 75.1259L26.2107 75.0539L26.2287 74.982V74.9101V74.8382L26.2047 74.7662L26.1628 74.7003L26.0969 74.6404L26.007 74.5864L25.8811 74.5385L25.7552 74.5205H25.6413L25.5394 74.5385L25.5514 74.3227L25.6953 74.3047H25.8451L26.001 74.3407L26.1568 74.4066L26.2887 74.4905L26.3846 74.5864L26.4505 74.6883L26.4924 74.7962L26.5104 74.9041V75.012L26.4805 75.1199L26.4385 75.2218L26.3666 75.3416L26.2707 75.4435L26.1568 75.5334L25.8751 75.6833L25.1019 75.935L25.917 76.3606L25.8152 76.5644L24.6584 75.971Z" fill="#03467A"/>
<path fill-rule="evenodd" clip-rule="evenodd" d="M27.7691 76.3965L27.5174 76.7861L27.3795 76.924L27.2417 77.0259L27.0978 77.0858L26.948 77.1098L26.7981 77.0918L26.6483 77.0319L26.5284 76.954L26.4385 76.8521L26.3726 76.7262L26.3366 76.5764V76.4085L26.3606 76.2227L26.5164 75.8032L26.6363 75.5934L26.7682 75.4196L26.906 75.2877L27.0499 75.1918L27.1937 75.1319L27.3376 75.1079L27.4814 75.1259L27.6193 75.1798L27.7451 75.2637L27.841 75.3716L27.907 75.4975L27.9369 75.6473V75.8152L27.907 75.995L27.7511 76.4025L27.7691 76.3965ZM26.7682 75.917L26.6303 76.2467L26.5943 76.3906L26.5824 76.5164L26.5943 76.6243L26.6243 76.7142L26.6783 76.7861L26.7502 76.8401L26.8461 76.8701H26.942L27.0379 76.8401L27.1338 76.7802L27.2297 76.6902L27.4155 76.4385L27.5833 76.1148L27.6792 75.8211L27.6972 75.6953V75.5814L27.6612 75.4855L27.6073 75.4076L27.5234 75.3476L27.4395 75.3177H27.3496L27.2537 75.3476L27.1578 75.4016L27.0559 75.4855L26.8581 75.7372L26.7622 75.9051L26.7682 75.917Z" fill="#03467A"/>
<path fill-rule="evenodd" clip-rule="evenodd" d="M32.3364 77.5414L31.9408 77.6073L31.9588 77.3915L32.4562 77.3136L32.678 77.3915L32.0187 79.3215L31.767 79.2376L32.3424 77.5534L32.3364 77.5414Z" fill="#03467A"/>
<path fill-rule="evenodd" clip-rule="evenodd" d="M33.8588 78.0628H33.8528L33.4572 78.1288L33.4752 77.913L33.9727 77.8351L34.1944 77.913L33.5351 79.843L33.2834 79.7591L33.8588 78.0748V78.0628Z" fill="#03467A"/>
<path fill-rule="evenodd" clip-rule="evenodd" d="M35.8547 79.5313L35.6629 79.9509L35.549 80.1067L35.4232 80.2266L35.2913 80.3105L35.1474 80.3524H34.9976L34.8418 80.3225L34.7099 80.2625L34.602 80.1726L34.5241 80.0527L34.4701 79.9089L34.4462 79.7411V79.5493L34.5421 79.1057L34.632 78.884L34.7399 78.6982L34.8597 78.5483L34.9856 78.4344L35.1235 78.3565L35.2673 78.3146H35.4112L35.561 78.3385L35.6989 78.4045L35.8068 78.5004L35.8907 78.6202L35.9446 78.7641L35.9686 78.9259V79.1117L35.8667 79.5373L35.8547 79.5313ZM34.7998 79.2016L34.7099 79.5433L34.6979 79.6871V79.813L34.7339 79.9209L34.7758 80.0108L34.8358 80.0767L34.9137 80.1187L35.0096 80.1367L35.1055 80.1247L35.1954 80.0827L35.2853 80.0108L35.3692 79.9089L35.5191 79.6332L35.6389 79.2855L35.6929 78.9799V78.854L35.6689 78.7461L35.6269 78.6562L35.561 78.5843L35.4711 78.5363L35.3812 78.5183L35.2913 78.5303L35.2014 78.5723L35.1115 78.6442L35.0276 78.7401L34.8657 79.0218L34.7938 79.2016H34.7998Z" fill="#03467A"/>
<path fill-rule="evenodd" clip-rule="evenodd" d="M40.5538 79.9868H40.5478L40.1582 80.0947V79.8789L40.6377 79.7471L40.8655 79.801L40.416 81.7909L40.1582 81.731L40.5478 79.9928L40.5538 79.9868Z" fill="#03467A"/>
<path fill-rule="evenodd" clip-rule="evenodd" d="M42.6936 81.2275L42.5438 81.6651L42.4479 81.8329L42.334 81.9648L42.2081 82.0607L42.0702 82.1206L41.9204 82.1386L41.7586 82.1206L41.6207 82.0726L41.5068 81.9947L41.4169 81.8868L41.345 81.749L41.303 81.5871L41.2851 81.4013L41.333 80.9518L41.3989 80.7181L41.4829 80.5203L41.5847 80.3584L41.6986 80.2326L41.8245 80.1427L41.9624 80.0827L42.1062 80.0647L42.2561 80.0827L42.3999 80.1307L42.5198 80.2086L42.6157 80.3165L42.6816 80.4543L42.7236 80.6162L42.7356 80.802L42.6816 81.2335L42.6936 81.2275ZM41.6087 81.0177L41.5608 81.3714V81.5152L41.5847 81.6411L41.6207 81.743L41.6747 81.8269L41.7466 81.8868L41.8305 81.9228H41.9324L42.0283 81.9048L42.1122 81.8509L42.1901 81.767L42.262 81.6591L42.3819 81.3654L42.4598 81.0058L42.4778 80.7001L42.4598 80.5742L42.4239 80.4663L42.3699 80.3824L42.298 80.3225L42.2021 80.2865H42.1122L42.0283 80.3045L41.9444 80.3524L41.8665 80.4304L41.7945 80.5382L41.6687 80.8319L41.6207 81.0237L41.6087 81.0177Z" fill="#03467A"/>
<path fill-rule="evenodd" clip-rule="evenodd" d="M44.264 81.5871L44.1141 82.0247L44.0182 82.1925L43.9043 82.3244L43.7785 82.4203L43.6406 82.4802L43.4908 82.4982L43.3289 82.4802L43.1911 82.4323L43.0772 82.3543L42.9873 82.2465L42.9154 82.1086L42.8734 81.9468L42.8554 81.761L42.9034 81.3114L42.9693 81.0777L43.0532 80.8799L43.1551 80.7181L43.269 80.5922L43.3949 80.5023L43.5327 80.4423L43.6766 80.4244L43.8264 80.4423L43.9703 80.4903L44.0901 80.5682L44.186 80.6761L44.252 80.814L44.2939 80.9758L44.3059 81.1616L44.252 81.5931L44.264 81.5871ZM43.1791 81.3774L43.1311 81.731V81.8749L43.1551 82.0007L43.1911 82.1026L43.245 82.1865L43.3169 82.2465L43.4009 82.2824H43.5028L43.5987 82.2644L43.6826 82.2105L43.7605 82.1266L43.8324 82.0187L43.9523 81.725L44.0302 81.3654L44.0482 81.0597L44.0302 80.9338L43.9942 80.8259L43.9403 80.742L43.8684 80.6821L43.7725 80.6461H43.6826L43.5987 80.6641L43.5147 80.7121L43.4368 80.79L43.3649 80.8979L43.239 81.1916L43.1911 81.3834L43.1791 81.3774Z" fill="#03467A"/>
<path fill-rule="evenodd" clip-rule="evenodd" d="M49.97 83.0077H50.1918L50.3117 82.9957L50.4256 82.9597L50.5334 82.9118L50.6293 82.8458L50.7312 82.7499L50.8152 82.6301L50.8871 82.4862L50.935 82.3184H50.923L50.8211 82.4023L50.7073 82.4622L50.5754 82.4982H50.4316L50.2997 82.4802L50.1858 82.4383L50.0899 82.3723L50.006 82.2884L49.9401 82.1925L49.8981 82.0846L49.8741 81.9648V81.8389L49.8921 81.701L49.9401 81.5692L50.006 81.4493L50.0959 81.3474L50.2038 81.2635L50.3297 81.2035L50.4675 81.1676H50.6174L50.7672 81.1916L50.8991 81.2455L51.007 81.3294L51.0969 81.4373L51.1628 81.5692L51.2107 81.719L51.2347 81.8868L51.2167 82.2345L51.1448 82.5162L51.0369 82.7499L50.8991 82.9298L50.7552 83.0556L50.6114 83.1395L50.4555 83.1995L50.1738 83.2414H49.958L49.976 83.0137L49.97 83.0077ZM50.1498 81.8449V81.9348L50.1678 82.0187L50.1978 82.0966L50.2398 82.1626L50.2937 82.2165L50.3596 82.2585L50.4316 82.2884L50.5155 82.3004H50.5814L50.6473 82.2944L50.7073 82.2824L50.7612 82.2585L50.8092 82.2285L50.8571 82.1925L50.8991 82.1566L50.941 82.1026L50.953 82.0846V82.0607L50.965 82.0307V81.773L50.935 81.6651L50.8991 81.5692L50.8451 81.4913L50.7792 81.4313L50.6953 81.3894L50.5934 81.3714H50.5095L50.4316 81.3954L50.3596 81.4313L50.2997 81.4853L50.2457 81.5512L50.2038 81.6351L50.1738 81.731L50.1618 81.8329L50.1498 81.8449Z" fill="#03467A"/>
<path fill-rule="evenodd" clip-rule="evenodd" d="M52.8291 82.3603L52.7511 82.8159L52.6792 82.9957L52.5893 83.1395L52.4814 83.2534L52.3555 83.3313L52.2117 83.3733H52.0499L51.906 83.3553L51.7801 83.2954L51.6723 83.2055L51.5824 83.0796L51.5164 82.9238L51.4685 82.7379L51.4505 82.2884L51.4805 82.0487L51.5344 81.8389L51.6123 81.6591L51.7082 81.5152L51.8221 81.4013L51.948 81.3234L52.0858 81.2815H52.2357L52.3855 81.3054L52.5174 81.3654L52.6253 81.4613L52.7152 81.5871L52.7811 81.737L52.8231 81.9168L52.8351 82.3543L52.8291 82.3603ZM51.7202 82.3124V82.666L51.7502 82.8099L51.7921 82.9297L51.8461 83.0257L51.912 83.0976L51.9899 83.1455L52.0798 83.1635H52.1817L52.2716 83.1156L52.3496 83.0496L52.4155 82.9537L52.4694 82.8338L52.5414 82.5282L52.5653 82.1625L52.5354 81.8569L52.4994 81.731L52.4515 81.6291L52.3855 81.5512L52.3016 81.5032L52.2057 81.4793H52.1158L52.0319 81.5212L51.954 81.5812L51.888 81.6711L51.8281 81.7849L51.7442 82.0966L51.7202 82.2944V82.3124Z" fill="#03467A"/>
<path fill-rule="evenodd" clip-rule="evenodd" d="M56.6711 83.1455V83.0556L56.701 82.9717L56.737 82.8938L56.7849 82.8219L56.8449 82.7559L56.9168 82.696L57.0846 82.6001V82.5881L57.0007 82.5462L56.9348 82.4982L56.8808 82.4443L56.8389 82.3843L56.8029 82.3244L56.779 82.2585L56.767 82.1925V82.1266L56.773 82.0127L56.8089 81.9048L56.8629 81.8149L56.9408 81.737L57.0307 81.6711L57.1386 81.6231L57.2585 81.5931L57.3903 81.5812L57.5282 81.5931L57.648 81.6231L57.7499 81.6711L57.8339 81.737L57.8998 81.8149L57.9477 81.8988L57.9777 81.9887L57.9897 82.0846V82.1506L57.9717 82.2165L57.9477 82.2824L57.9118 82.3484L57.8638 82.4083L57.8039 82.4682L57.732 82.5222L57.648 82.5701V82.5821L57.8219 82.672L57.8938 82.726L57.9537 82.7859L58.0017 82.8578L58.0376 82.9357L58.0616 83.0197V83.1096L58.0556 83.2354L58.0137 83.3493L57.9477 83.4512L57.8638 83.5351L57.7619 83.607L57.6421 83.661L57.5102 83.691L57.3663 83.7029L57.2165 83.691L57.0786 83.661L56.9588 83.607L56.8629 83.5411L56.7849 83.4572L56.725 83.3613L56.689 83.2594L56.6771 83.1515L56.6711 83.1455ZM57.7679 83.1335V83.0436L57.738 82.9657L57.702 82.8998L57.648 82.8398L57.5821 82.7919L57.4203 82.714L57.3244 82.684L57.2405 82.714L57.1685 82.7499L57.1026 82.7919L57.0487 82.8458L57.0067 82.8998L56.9767 82.9597L56.9588 83.0257V83.0976V83.1755L56.9767 83.2474L57.0127 83.3134L57.0607 83.3733L57.1206 83.4212L57.1925 83.4572L57.2764 83.4812H57.3663H57.4562L57.5342 83.4632L57.6061 83.4332L57.666 83.3913L57.714 83.3373L57.7499 83.2774L57.7739 83.2055V83.1275H57.7799L57.7679 83.1335ZM57.0067 82.1146V82.1865L57.0367 82.2525L57.0726 82.3064L57.1206 82.3543L57.1745 82.3963L57.3184 82.4622L57.4023 82.4862L57.5222 82.4263L57.5761 82.3903L57.6241 82.3484L57.66 82.3004L57.69 82.2465L57.708 82.1865V82.1206V82.0607L57.696 82.0007L57.672 81.9468L57.6361 81.8988L57.5881 81.8569L57.5282 81.8209L57.4562 81.7969H57.3723H57.2884L57.2165 81.8149L57.1566 81.8449L57.1086 81.8868L57.0667 81.9348L57.0367 81.9887L57.0187 82.0487V82.1146H57.0067Z" fill="#03467A"/>
<path fill-rule="evenodd" clip-rule="evenodd" d="M59.662 82.6241L59.614 83.0856L59.5541 83.2714L59.4761 83.4212L59.3743 83.5411L59.2544 83.631L59.1105 83.685L58.9487 83.7029L58.8048 83.685L58.673 83.631L58.5591 83.5471L58.4632 83.4272L58.3853 83.2774L58.3253 83.0976L58.2714 82.648L58.2834 82.4083L58.3253 82.1985L58.3853 82.0187L58.4692 81.8688L58.5711 81.749L58.691 81.6651L58.8288 81.6111L58.9787 81.5931L59.1285 81.6111L59.2604 81.6651L59.3743 81.749L59.4702 81.8688L59.5481 82.0187L59.602 82.1925L59.644 82.6301L59.662 82.6241ZM58.5531 82.654L58.5831 83.0077L58.619 83.1515L58.667 83.2714L58.7269 83.3673L58.7989 83.4332L58.8768 83.4752L58.9667 83.4872L59.0686 83.4692L59.1525 83.4272L59.2244 83.3553L59.2843 83.2594L59.3323 83.1395L59.3862 82.8279V82.4622L59.3383 82.1566L59.2963 82.0367L59.2364 81.9408L59.1645 81.8688L59.0806 81.8269L58.9787 81.8089L58.8888 81.8209L58.8108 81.8629L58.7389 81.9288L58.679 82.0247L58.631 82.1446L58.5711 82.4622V82.66H58.5651L58.5531 82.654Z" fill="#03467A"/>
<path fill-rule="evenodd" clip-rule="evenodd" d="M67.1901 82.6241L67.1422 83.0856L67.0822 83.2714L67.0043 83.4212L66.9024 83.5411L66.7825 83.631L66.6387 83.685L66.4769 83.7029L66.333 83.685L66.2011 83.631L66.0873 83.5471L65.9914 83.4272L65.9135 83.2774L65.8535 83.0976L65.7996 82.648L65.8116 82.4083L65.8535 82.1985L65.9135 82.0187L65.9974 81.8688L66.0993 81.749L66.2191 81.6651L66.357 81.6111L66.5068 81.5931L66.6567 81.6111L66.7885 81.6651L66.9024 81.749L66.9983 81.8688L67.0762 82.0187L67.1302 82.1925L67.1721 82.6301L67.1901 82.6241ZM66.0813 82.654L66.1112 83.0077L66.1472 83.1515L66.1952 83.2714L66.2551 83.3673L66.327 83.4332L66.4049 83.4752L66.4948 83.4872L66.5967 83.4692L66.6807 83.4272L66.7526 83.3553L66.8125 83.2594L66.8605 83.1395L66.9144 82.8279V82.4622L66.8665 82.1566L66.8245 82.0367L66.7646 81.9408L66.6926 81.8688L66.6087 81.8269L66.5068 81.8089L66.4169 81.8209L66.339 81.8629L66.2671 81.9288L66.2071 82.0247L66.1592 82.1446L66.0993 82.4622V82.66H66.0933L66.0813 82.654Z" fill="#03467A"/>
<path fill-rule="evenodd" clip-rule="evenodd" d="M72.7823 80.73L72.5785 80.772L72.4347 80.8319L72.3088 80.9099L72.2069 80.9998L72.123 81.1017L72.0571 81.2155L72.0091 81.3354L71.9851 81.4613L71.9732 81.5872H71.9851L72.0571 81.4853L72.159 81.3954L72.2848 81.3294L72.4407 81.2875H72.5725L72.6924 81.2995L72.8063 81.3414L72.9082 81.4073L72.9921 81.4913L73.058 81.5932L73.106 81.713L73.1359 81.8509V81.9887L73.124 82.1266L73.082 82.2525L73.0221 82.3723L72.9382 82.4742L72.8303 82.5581L72.7044 82.6181L72.5546 82.654H72.3987L72.2549 82.6361L72.123 82.5821L72.0091 82.4982L71.9072 82.3843L71.8233 82.2465L71.7634 82.0846L71.7094 81.755L71.7214 81.4853L71.7814 81.2455L71.8773 81.0357L71.9971 80.8799L72.129 80.76L72.2848 80.6641L72.5785 80.5562L72.7464 80.5203L72.7763 80.742L72.7823 80.73ZM72.8602 81.9048L72.8363 81.8029L72.8003 81.713L72.7523 81.6411L72.6924 81.5812L72.6265 81.5392L72.5486 81.5092L72.4646 81.4973H72.3747L72.3148 81.5152L72.2549 81.5392L72.2009 81.5692L72.153 81.6051L72.111 81.6471L72.075 81.695L72.0451 81.749L72.0151 81.8209V81.8509L72.0031 81.8809V81.9168L72.0331 82.0547L72.0691 82.1626L72.117 82.2585L72.1769 82.3364L72.2489 82.3963L72.3328 82.4383L72.4227 82.4563H72.5246L72.6085 82.4323L72.6804 82.3963L72.7404 82.3424L72.7883 82.2764L72.8243 82.1985L72.8482 82.1086V82.0127V81.9108L72.8602 81.9048Z" fill="#03467A"/>
<path fill-rule="evenodd" clip-rule="evenodd" d="M74.6704 81.2815L74.6883 81.743L74.6584 81.9348L74.5984 82.0966L74.5145 82.2285L74.4066 82.3304L74.2748 82.4023L74.1189 82.4443H73.9751L73.8372 82.4143L73.7114 82.3484L73.5975 82.2465L73.5016 82.1086L73.4177 81.9408L73.3038 81.5032L73.2858 81.2635L73.2978 81.0477L73.3337 80.8619L73.3997 80.7001L73.4836 80.5682L73.5915 80.4663L73.7173 80.3944L73.8612 80.3584H74.017L74.1549 80.3884L74.2808 80.4603L74.3946 80.5622L74.4905 80.7001L74.5685 80.8679L74.6704 81.2935V81.2815ZM73.5795 81.4613L73.6574 81.8089L73.7114 81.9468L73.7773 82.0547L73.8492 82.1386L73.9271 82.1985L74.011 82.2285H74.1009L74.1968 82.2045L74.2748 82.1506L74.3347 82.0667L74.3767 81.9588L74.4066 81.8329V81.5152L74.3647 81.1556L74.2748 80.8619L74.2148 80.748L74.1429 80.6581L74.065 80.5982L73.9751 80.5682H73.8732L73.7893 80.5922L73.7173 80.6461L73.6574 80.7241L73.6095 80.826L73.5735 80.9518L73.5555 81.2755L73.5735 81.4733L73.5795 81.4613Z" fill="#03467A"/>
<path fill-rule="evenodd" clip-rule="evenodd" d="M79.5073 79.2736L78.7521 79.4474L78.7941 79.9748L78.9559 79.9269L79.1896 79.9029H79.3035L79.4774 79.9628L79.5433 79.9928L79.6032 80.0348L79.6572 80.0827L79.7051 80.1427L79.7471 80.2146L79.783 80.2925L79.807 80.3824L79.825 80.5263L79.813 80.6641L79.777 80.796L79.7111 80.9159L79.6212 81.0237L79.5073 81.1136L79.3754 81.1856L79.1417 81.2515L78.9918 81.2635H78.86L78.7461 81.2395L78.7042 81.2275L78.7221 81.0058L78.9139 81.0357H79.0398L79.1717 81.0118L79.2616 80.9818L79.3455 80.9398L79.4174 80.8859L79.4774 80.8199L79.5193 80.742L79.5493 80.6581V80.5682V80.4723L79.5193 80.3824L79.4714 80.3045L79.4114 80.2386L79.3335 80.1906L79.2436 80.1546L79.1357 80.1367H79.0098L78.6023 80.2505L78.5064 79.2676L79.4534 79.0458L79.5073 79.2736Z" fill="#03467A"/>
<path fill-rule="evenodd" clip-rule="evenodd" d="M81.3834 79.6212L81.4433 80.0827L81.4313 80.2745L81.3893 80.4423L81.3174 80.5802L81.2215 80.6941L81.0957 80.778L80.9458 80.8319L80.802 80.8499L80.6641 80.8319L80.5322 80.778L80.4124 80.6881L80.3045 80.5622L80.2086 80.4004L80.0587 79.9748L80.0168 79.7351L80.0048 79.5193L80.0228 79.3275L80.0707 79.1597L80.1427 79.0218L80.2385 78.9139L80.3584 78.83L80.5023 78.7821L80.6521 78.7641L80.796 78.7821L80.9278 78.842L81.0477 78.9319L81.1556 79.0578L81.2515 79.2196L81.3953 79.6332L81.3834 79.6212ZM80.3105 79.9029L80.4184 80.2385L80.4843 80.3704L80.5562 80.4723L80.6341 80.5502L80.7181 80.5982L80.808 80.6221H80.8979L80.9878 80.5802L81.0597 80.5203L81.1136 80.4363L81.1496 80.3285L81.1676 80.1966L81.1496 79.8789L81.0657 79.5253L80.9458 79.2436L80.8739 79.1357L80.796 79.0518L80.7121 78.9978L80.6162 78.9739H80.5143L80.4304 79.0158L80.3644 79.0758L80.3105 79.1597L80.2745 79.2676L80.2505 79.3934L80.2625 79.7171L80.2985 79.9089L80.3105 79.9029Z" fill="#03467A"/>
<path fill-rule="evenodd" clip-rule="evenodd" d="M90.4519 76.96L90.6557 76.9719L90.7876 76.954L90.9254 76.918L91.0333 76.8641L91.1172 76.8041L91.1772 76.7382L91.2131 76.6663L91.2311 76.5943V76.5224V76.4505L91.2131 76.3905L91.1652 76.3006L91.1053 76.2347L91.0333 76.1868L90.9494 76.1568L90.8595 76.1448H90.7636L90.6677 76.1688L90.428 76.2527L90.35 76.0609L90.5658 75.971L90.6318 75.929L90.6917 75.8751L90.7456 75.8151L90.7876 75.7492L90.8116 75.6773V75.5994L90.7936 75.5155L90.7696 75.4615L90.7336 75.4136L90.6917 75.3716L90.6377 75.3416L90.5778 75.3237H90.5119H90.434L90.35 75.3476L90.2422 75.4016L90.1522 75.4735L90.0743 75.5514L90.0204 75.6233L89.8825 75.4615L89.9545 75.3716L90.0563 75.2817L90.1822 75.1978L90.3261 75.1259L90.4579 75.0839L90.5838 75.0659H90.6917L90.7876 75.1019L90.8715 75.1498L90.9434 75.2098L90.9974 75.2817L91.0393 75.3656L91.0633 75.4375L91.0753 75.5155V75.5934L91.0573 75.6713L91.0273 75.7432L90.9854 75.8151L90.9314 75.8871L90.8655 75.953H90.9614H91.0573L91.1472 75.977L91.2311 76.0069L91.309 76.0549L91.381 76.1148L91.4409 76.1928L91.4889 76.2827L91.5188 76.3965V76.5164L91.5068 76.6363L91.4649 76.7502L91.393 76.8581L91.2971 76.96L91.1712 77.0499L90.9374 77.1518L90.7816 77.1877L90.6377 77.1997L90.4699 77.1877V76.96H90.4639H90.4519Z" fill="#03467A"/>
<path fill-rule="evenodd" clip-rule="evenodd" d="M92.8854 75.2338L93.0113 75.6773L93.0233 75.8691L93.0053 76.0429L92.9573 76.1928L92.8734 76.3186L92.7595 76.4205L92.6157 76.4925L92.4778 76.5284H92.34L92.2021 76.4925L92.0702 76.4205L91.9444 76.3126L91.8245 76.1688L91.6147 75.7672L91.5368 75.5394L91.4948 75.3297V75.1379L91.5128 74.97L91.5668 74.8202L91.6507 74.6943L91.7586 74.5984L91.8904 74.5265L92.0403 74.4905H92.1841L92.322 74.5265L92.4538 74.5984L92.5797 74.7063L92.6936 74.8502L92.8914 75.2398L92.8854 75.2338ZM91.8665 75.6653L92.0223 75.983L92.1062 76.1029L92.1961 76.1928L92.286 76.2587L92.3759 76.2947L92.4658 76.3066L92.5557 76.2887L92.6397 76.2407L92.7056 76.1688L92.7475 76.0729L92.7655 75.959V75.8272L92.6996 75.5155L92.5677 75.1738L92.4119 74.9101L92.328 74.8142L92.2381 74.7423L92.1482 74.7003L92.0523 74.6883L91.9564 74.7123L91.8784 74.7543L91.8185 74.8202L91.7766 74.9101L91.7526 75.018V75.1499L91.8065 75.4675L91.8725 75.6533L91.8665 75.6653Z" fill="#03467A"/>
<path fill-rule="evenodd" clip-rule="evenodd" d="M96.212 74.3107L96.14 74.1609L96.4997 73.088L96.5236 72.9441V72.8183L96.5056 72.7044L96.4697 72.5965L96.4337 72.5306L96.3858 72.4706L96.3318 72.4227L96.2719 72.3867L96.2 72.3627H96.122L96.0321 72.3747L95.9362 72.4107L95.8224 72.4826L95.7325 72.5725L95.6665 72.6684L95.6186 72.7583L95.4567 72.6205L95.5287 72.4946L95.6246 72.3747L95.7444 72.2668L95.8883 72.1769L96.0321 72.123L96.164 72.099H96.2839L96.3918 72.135L96.4877 72.1889L96.5716 72.2609L96.6435 72.3448L96.6974 72.4407L96.7454 72.5725L96.7694 72.7104V72.8542L96.7214 73.1719L96.4517 73.9451L97.2788 73.5555L97.3747 73.7593L96.2 74.3227L96.212 74.3107Z" fill="#03467A"/>
<path fill-rule="evenodd" clip-rule="evenodd" d="M98.4356 72.093L98.5915 72.5306L98.6214 72.7224V72.8962L98.5735 73.046L98.5016 73.1779L98.3997 73.2858L98.2618 73.3697L98.124 73.4177L97.9861 73.4296L97.8482 73.3997L97.7104 73.3337L97.5725 73.2318L97.4407 73.094L97.2009 72.7104L97.111 72.4886L97.0571 72.2788L97.0331 72.087L97.0451 71.9132L97.087 71.7634L97.159 71.6315L97.2609 71.5236L97.3867 71.4457L97.5306 71.3978L97.6744 71.3858L97.8183 71.4157L97.9561 71.4817L98.088 71.5836L98.2139 71.7214L98.4416 72.093H98.4356ZM97.4527 72.5965L97.6325 72.9022L97.7284 73.0161L97.8243 73.1L97.9202 73.1599L98.0161 73.1899H98.106L98.1959 73.1659L98.2798 73.112L98.3397 73.0341L98.3757 72.9382L98.3877 72.8243L98.3757 72.6924L98.2858 72.3867L98.1299 72.0571L97.9561 71.8053L97.8662 71.7154L97.7703 71.6555L97.6744 71.6195H97.5785L97.4826 71.6435L97.4107 71.6914L97.3567 71.7634L97.3208 71.8533L97.3088 71.9672V72.099L97.3987 72.4107L97.4766 72.5905L97.4527 72.5965Z" fill="#03467A"/>
<path fill-rule="evenodd" clip-rule="evenodd" d="M101.181 69.216L100.989 69.5756L100.827 69.4258L101.073 68.9823L101.271 68.8564L102.38 70.5646L102.158 70.7085L101.187 69.216H101.181Z" fill="#03467A"/>
<path fill-rule="evenodd" clip-rule="evenodd" d="M103.572 68.5447L103.782 68.9583L103.836 69.1441L103.854 69.3179L103.836 69.4738L103.782 69.6116L103.692 69.7315L103.566 69.8334L103.434 69.8993L103.297 69.9293H103.153L103.009 69.8753L102.859 69.7914L102.709 69.6715L102.421 69.3239L102.302 69.1141L102.218 68.9163L102.17 68.7305L102.158 68.5567L102.182 68.4009L102.236 68.263L102.32 68.1431L102.433 68.0472L102.571 67.9813L102.715 67.9513H102.859L103.003 68.0053L103.147 68.0892L103.291 68.2091L103.566 68.5507L103.572 68.5447ZM102.661 69.1741L102.877 69.4558L102.985 69.5577L103.087 69.6296L103.189 69.6775L103.285 69.6955L103.374 69.6835L103.458 69.6476L103.53 69.5816L103.578 69.4977L103.596 69.3958V69.282L103.56 69.1561L103.434 68.8684L103.237 68.5627L103.027 68.3349L102.925 68.257L102.823 68.2091L102.727 68.1911L102.631 68.2031L102.541 68.245L102.475 68.305L102.433 68.3829L102.409 68.4788V68.5927L102.433 68.7185L102.553 69.0182L102.655 69.1861L102.661 69.1741Z" fill="#03467A"/>
<path fill-rule="evenodd" clip-rule="evenodd" d="M107.264 65.4699L107.498 65.8715L107.558 66.0573L107.582 66.2251L107.57 66.381L107.522 66.5248L107.438 66.6507L107.318 66.7586L107.193 66.8305L107.061 66.8665H106.917L106.767 66.8305L106.617 66.7586L106.461 66.6507L106.156 66.321L106.024 66.1172L105.928 65.9254L105.868 65.7396L105.844 65.5658L105.856 65.41L105.904 65.2721L105.982 65.1522L106.09 65.0503L106.222 64.9724L106.359 64.9365H106.503L106.647 64.9724L106.797 65.0444L106.947 65.1522L107.24 65.4759L107.264 65.4699ZM106.389 66.1532L106.623 66.4229L106.737 66.5188L106.845 66.5847L106.947 66.6267L107.043 66.6387L107.133 66.6267L107.21 66.5847L107.282 66.5128L107.324 66.4289L107.342 66.327L107.33 66.2131L107.294 66.0873L107.151 65.8056L106.935 65.5119L106.713 65.2961L106.605 65.2242L106.503 65.1822L106.401 65.1642L106.305 65.1822L106.216 65.2302L106.156 65.2901L106.114 65.368L106.096 65.4639V65.5778L106.132 65.7037L106.269 65.9974L106.377 66.1592L106.389 66.1532Z" fill="#03467A"/>
<path fill-rule="evenodd" clip-rule="evenodd" d="M60.0036 72.4886L83.5411 66.4109L90.434 93.1072L66.8964 99.1848L60.0036 72.4886ZM67.6217 85.5071L82.9298 81.6651L81.5871 76.3246L66.2791 80.1666L67.6217 85.5071Z" fill="white"/>
<path d="M83.0556 67.2321L89.6128 92.6217L67.3819 98.3637L60.8247 72.9741L83.0556 67.2321ZM67.1302 86.3222L83.7449 82.1506L82.0786 75.5035L65.4639 79.6751L67.1302 86.3222ZM84.0206 65.5898L82.714 65.9254L60.4831 71.6675L59.1765 72.0031L59.5121 73.3098L66.0693 98.6994L66.4049 100.006L67.7116 99.6703L89.9425 93.9283L91.2491 93.5927L90.9134 92.286L84.3563 66.8964L84.0206 65.5898ZM67.0942 80.6581L81.0957 77.1398L82.1086 81.1736L68.1072 84.6919L67.0942 80.6581Z" fill="#03467A"/>
<path d="M11.0295 40.1146L6.08339 42.3562L13.8695 59.5366L18.8156 57.295L11.0295 40.1146Z" fill="white"/>
<path d="M10.6929 41.0034L17.9274 56.9588L14.2052 58.643L6.97075 42.6876L10.6929 41.0034ZM11.3642 39.2232L10.1355 39.7806L6.41333 41.4649L5.18461 42.0223L5.74203 43.251L12.9765 59.2064L13.5339 60.4352L14.7626 59.8777L18.4848 58.1935L19.7135 57.6361L19.1561 56.4073L11.9216 40.4519L11.3642 39.2232Z" fill="#03467A"/>
<path opacity="0.2" d="M68.7605 34.1525L69.1501 39.9425L69.3119 40.3261L69.3539 40.392L69.4018 40.4459L69.4258 40.4639L69.4498 40.4759L69.4738 40.4819H69.4977L69.6895 40.3261V40.6258L75.6773 39.8226L75.7013 39.8166L75.7253 39.7986L75.7672 39.7567L75.8331 39.6608L75.983 39.2951L76.0309 38.5819H85.7648L86.2323 41.7106L86.4361 42.1901L86.4961 42.274L86.562 42.34L86.592 42.358L86.6219 42.3759L86.6579 42.3819L86.6879 42.3879L86.6938 42.3819H89.7027L89.7387 42.3759L89.7687 42.358L89.7986 42.34L89.8645 42.274L89.9245 42.1901L90.1283 41.7106L90.6318 38.8516L90.6437 38.5819H104.711V40.3261L104.753 40.392L104.801 40.4459L104.825 40.4639L104.849 40.4759L104.873 40.4819H107.205L107.228 40.4759L107.252 40.4639L107.276 40.4459L107.324 40.392L107.372 40.3261L107.528 39.9425L107.918 37.6409L107.924 37.4371H109.206L109.278 36.6519V39.2052L109.344 39.2891L109.392 39.3251L109.416 39.3311L109.44 39.3371H111.772L111.796 39.3311L111.82 39.3251L111.844 39.3071L111.892 39.2652L111.94 39.2052L112.095 38.8816L112.485 36.9156L112.629 34.1525H68.7605Z" fill="#03467A"/>
<path opacity="0.2" d="M19.1381 26.7682L33.2834 36.4481L28.9499 44.5996" fill="#03467A"/>
<path opacity="0.2" d="M57.9357 23.8852L70.9782 68.7965L65.9254 69.9652L53.4045 25.2817L50.1019 23.5076L46.0921 17.28L46.8713 9.30832L53.2846 12.2213L52.6852 22.4047L57.9357 23.8852Z" fill="#03467A"/>
<path opacity="0.2" d="M8.66099 41.4589L16.1652 58.3134L13.7077 59.5421L6.97075 42.6876" fill="#03467A"/>
<path opacity="0.2" d="M66.2251 95.5766L87.1314 90.1642L81.2275 67.292L83.0556 67.2321L90.5778 92.9933L66.7166 99.3886" fill="#03467A"/>
<path opacity="0.2" d="M44.3359 18.6706L46.0441 23.0161L50.6294 26.8041L41.8844 74.2088L43.9103 75.8871L46.176 59.4821L52.0019 28.6682L54.0038 27.5713L53.4045 25.2817L48.3277 22.5066L46.0921 17.28" fill="#03467A"/>
</svg>
