<svg width="108" height="108" viewBox="0 0 108 108" fill="none" xmlns="http://www.w3.org/2000/svg">
<path d="M106.698 53.6C106.698 24.3215 82.8783 0.501709 53.5998 0.501709C24.3212 0.501709 0.501465 24.3215 0.501465 53.6C0.501465 82.8786 24.3212 106.698 53.5998 106.698C82.8783 106.698 106.698 82.8786 106.698 53.6Z" stroke="#03467A" stroke-width="0.995921" stroke-miterlimit="10" stroke-dasharray="1.99 1.99"/>
<path opacity="0.2" d="M91.756 41.6375L53.4865 53.6413L63.2207 14.1566L57.8651 13.3702L72.6987 17.9633L81.2117 23.7001L88.1697 32.4156L91.756 41.6375Z" fill="#03467A"/>
<path d="M23.6284 80.8839L15.6576 68.3617L12.7504 53.26L15.9316 37.4912L24.6173 24.6175L37.4909 15.9318L53.2598 12.7506L69.0287 15.9318L81.9083 24.6175L90.5881 37.4912L93.7752 53.26L90.5881 69.0289L81.9083 81.9085L69.0287 90.5883L53.2598 93.7754L41.0594 91.9048L30.3482 86.6743" stroke="#03467A" stroke-width="1.50123" stroke-linecap="round" stroke-linejoin="round"/>
<path d="M53.2598 46.8142V12.7505" stroke="#03467A" stroke-width="1.50123" stroke-linecap="round" stroke-linejoin="round"/>
<path d="M59.7115 53.2599H93.7751" stroke="#03467A" stroke-width="1.50123" stroke-linecap="round" stroke-linejoin="round"/>
<path d="M53.2598 93.7753V59.7116" stroke="#03467A" stroke-width="1.50123" stroke-linecap="round" stroke-linejoin="round"/>
<path d="M46.814 53.2599H12.7504" stroke="#03467A" stroke-width="1.50123" stroke-linecap="round" stroke-linejoin="round"/>
<path d="M40.2849 41.0356L46.0753 36.943L53.2598 35.4298L58.3175 36.1566L62.8033 38.2" stroke="#03467A" stroke-width="1.50123" stroke-linecap="round" stroke-linejoin="round"/>
<path d="M67.5155 42.5488L70.1427 47.5172L71.0899 53.26L69.6899 60.2002L65.8653 65.8655L60.2 69.6901L53.2598 71.0901L46.3196 69.6901L40.6542 65.8655L36.8356 60.2002L35.4714 52.1043L36.0075 48.7503" stroke="#03467A" stroke-width="1.50123" stroke-linecap="round" stroke-linejoin="round"/>
<path d="M76.6123 35.2391L81.128 43.5733L82.7602 53.2598L80.4369 64.7395L74.1162 74.1162L64.7395 80.4368L53.2599 82.7602L41.7802 80.4368L32.4035 74.1162L26.0828 64.7395L23.7654 53.2598L26.0828 41.7802L32.4035 32.4034L41.7802 26.0828L53.2599 23.7654L62.3089 25.1773L70.2142 29.121" stroke="#03467A" stroke-width="1.50123" stroke-linecap="round" stroke-linejoin="round"/>
<path d="M76.8388 28.859L79.4123 26.2855" stroke="#03467A" stroke-width="1.50123" stroke-linecap="round" stroke-linejoin="round"/>
<path d="M57.3883 48.3095L70.5598 35.138" stroke="#03467A" stroke-width="1.50123" stroke-linecap="round" stroke-linejoin="round"/>
<path d="M42.1317 44.6398L41.7803 46.3674L40.8271 47.7793L39.4152 48.7324L37.6876 49.0779L35.96 48.7324L34.5481 47.7793L33.595 46.3674L33.2495 44.6398L33.595 42.9122L34.5481 41.5003L35.96 40.5471L37.6876 40.2016L39.4152 40.5471L40.8271 41.5003L41.7803 42.9122L42.1317 44.6398Z" stroke="#03467A" stroke-width="1.50123" stroke-linecap="round" stroke-linejoin="round"/>
<path d="M31.2715 83.9638L30.9201 85.6914L29.9728 87.1032L28.561 88.0504L26.8334 88.4019L25.1058 88.0504L23.6939 87.1032L22.7407 85.6914L22.3893 83.9638L22.7407 82.2302L23.6939 80.8243L25.1058 79.8711L26.8334 79.5196L28.561 79.8711L29.9728 80.8243L30.9201 82.2302L31.2715 83.9638Z" stroke="#03467A" stroke-width="1.50123" stroke-linecap="round" stroke-linejoin="round"/>
<path d="M78.0838 31.9389L77.7383 33.6665L76.7851 35.0784L75.3732 36.0316L73.6456 36.3831L71.918 36.0316L70.5062 35.0784L69.553 33.6665L69.2015 31.9389L69.553 30.2113L70.5062 28.7995L71.918 27.8522L73.6456 27.5008L75.3732 27.8522L76.7851 28.7995L77.7383 30.2113L78.0838 31.9389Z" fill="white" stroke="#03467A" stroke-width="1.50123" stroke-linecap="round" stroke-linejoin="round"/>
<path d="M59.7115 53.26L59.1992 55.768L57.8231 57.8233L55.7678 59.1994L53.2598 59.7117L50.7518 59.1994L48.7025 57.8233L47.3204 55.768L46.8141 53.26L47.3204 50.752L48.7025 48.7027L50.7518 47.3206L53.2598 46.8142L55.7678 47.3206L57.8231 48.7027L59.1992 50.752L59.7115 53.26Z" fill="white" stroke="#03467A" stroke-width="1.50123" stroke-linecap="round" stroke-linejoin="round"/>
</svg>
