<svg width="119" height="108" viewBox="0 0 119 108" fill="none" xmlns="http://www.w3.org/2000/svg">
<path d="M117.698 53.6C117.698 24.3215 93.8783 0.501709 64.5998 0.501709C35.3212 0.501709 11.5015 24.3215 11.5015 53.6C11.5015 82.8786 35.3212 106.698 64.5998 106.698C93.8783 106.698 117.698 82.8786 117.698 53.6Z" stroke="#03467A" stroke-width="0.995921" stroke-miterlimit="10" stroke-dasharray="1.99 1.99"/>
<path opacity="0.1" d="M48.3486 26.8477C53.3878 30.0678 58.4392 33.2634 63.4354 36.5512C63.9147 36.8707 64.4248 37.8601 64.2711 38.321C63.0236 42.0512 61.6532 45.7446 60.2398 49.4133C60.0186 49.9848 59.3917 50.3966 58.6113 51.2569C54.9056 43.0099 51.3721 35.1316 47.8324 27.2533C48.0044 27.1181 48.1765 26.989 48.3424 26.8538L48.3486 26.8477Z" fill="#03467A"/>
<path opacity="0.1" d="M49.3373 31.524C53.8972 41.6884 58.4508 51.8589 63.3056 62.687C59.2251 60.6529 55.7961 58.9752 52.4161 57.2176C51.9737 56.9903 51.5312 56.3512 51.4759 55.8595C50.5541 47.803 49.6999 39.7403 48.8273 31.6777C48.9993 31.6285 49.1714 31.5794 49.3435 31.524H49.3373Z" fill="#03467A"/>
<path opacity="0.1" d="M50.2099 64.6413C50.5909 64.205 51.0825 63.6519 51.6971 62.9514C55.1139 65.643 58.4385 68.2609 61.9229 71.0017C59.2804 72.4397 57.191 72.6241 55.2736 70.1537C53.8172 68.2732 52.0596 66.6263 50.216 64.6413H50.2099Z" fill="#03467A"/>
<path d="M30.2136 44.8102L25.4816 43.4091L22.6056 37.6816L23.2632 29.6866L27.1962 22.472L32.9113 18.7971L38.9829 20.3703L41.0908 25.7904L40.4394 33.7917L36.5002 41.0063L30.2136 44.8102Z" fill="white" stroke="#03467A" stroke-width="1.9112" stroke-miterlimit="10"/>
<path d="M39.524 24.2541L35.0379 22.9636L33.8826 23.7071C33.4586 23.9099 33.0284 24.1803 32.6044 24.5306L30.8652 25.6491L27.9954 30.9156L27.516 36.7537L29.6177 40.9325L31.1479 41.3872C31.2094 41.4118 31.2708 41.4426 31.3384 41.461C37.9201 43.366 44.4956 45.2711 51.0772 47.1761C49.7498 46.7951 48.6682 45.5353 48.1582 43.5012C47.1196 39.3962 48.7604 33.681 51.8147 30.7251C53.351 29.2379 54.9611 28.734 56.3069 29.1273L39.524 24.2664V24.2541Z" fill="white" stroke="#03467A" stroke-width="1.39499" stroke-miterlimit="10"/>
<path d="M45.1467 48.1596L44.0774 48.5038L41.2014 42.7763L41.8528 34.7751L45.7919 27.5605L51.5071 23.8856L57.5725 25.4649L59.6865 30.8851L55.3725 37.1411L51.4395 44.3557L45.1467 48.1596Z" fill="white" stroke="#03467A" stroke-width="1.9112" stroke-miterlimit="10"/>
<path d="M61.3391 26.4234L61.3637 26.3374L55.9989 25.7167L50.5664 29.2134L46.8239 36.0716L46.2032 43.6795L45.2814 47.3852L46.9652 47.9874C47.2233 48.1226 47.4876 48.2455 47.7641 48.3254C48.0345 48.4053 48.3172 48.4852 48.6122 48.5773L50.0748 49.0997L50.1362 49.0567C59.5447 52.1171 76.9421 59.1535 86.3199 61.8697C84.2489 61.2736 82.5712 59.3194 81.7723 56.1484C80.1561 49.7634 82.7064 40.865 87.4629 36.2683C89.8534 33.9515 92.3546 33.171 94.4502 33.7794L61.3453 26.4296L61.3391 26.4234Z" fill="white" stroke="#03467A" stroke-width="1.81902" stroke-miterlimit="10"/>
<path d="M87.457 36.2684C82.7006 40.8651 80.1503 49.7636 81.7665 56.1486C83.3766 62.5335 88.5448 63.9777 93.3012 59.381C98.0577 54.7843 100.608 45.8859 98.9918 39.5009C97.3817 33.1159 92.2197 31.6717 87.457 36.2684Z" fill="white" stroke="#03467A" stroke-width="1.9112" stroke-miterlimit="10"/>
<path d="M96.0666 40.404C92.0168 44.3124 89.8536 51.8835 91.2241 57.3159C92.5945 62.7484 96.9884 63.9775 101.032 60.0629C105.076 56.1545 107.245 48.5834 105.875 43.1571C104.504 37.7246 100.11 36.4956 96.0666 40.404Z" fill="white" stroke="#03467A" stroke-width="1.9112" stroke-miterlimit="10"/>
<path d="M96.0666 40.4041C97.7381 38.7879 99.4711 38.0504 101.026 38.1242C101.868 38.9722 102.538 40.2013 102.943 41.8052C104.314 47.2377 102.15 54.8026 98.1007 58.7171C96.4291 60.3334 94.6962 61.0708 93.1414 60.9971C92.2995 60.149 91.6296 58.9199 91.2241 57.316C89.8536 51.8897 92.0168 44.3186 96.0666 40.4041Z" fill="white" stroke="#03467A" stroke-width="1.9112" stroke-miterlimit="10"/>
<path d="M92.705 47.4219C91.6172 48.4727 91.0396 50.4945 91.4083 51.951C91.777 53.4074 92.9508 53.7331 94.0385 52.6884C95.1201 51.6376 95.7039 49.6096 95.3352 48.1593C94.9664 46.7029 93.7927 46.371 92.705 47.4219Z" fill="white" stroke="#03467A" stroke-width="1.9112" stroke-miterlimit="10"/>
<path opacity="0.4" d="M32.702 37.5528L44.8513 41.0556" stroke="#03467A" stroke-width="1.83131" stroke-linecap="round" stroke-linejoin="round"/>
<path opacity="0.4" d="M49.0058 43.8206L76.6659 52.9956" stroke="#03467A" stroke-width="1.83131" stroke-linecap="round" stroke-linejoin="round"/>
<path d="M89.9398 66.4543L83.4627 64.5369L79.5174 56.6893L80.4146 45.7322L85.8102 35.8444L93.6332 30.8114L106.637 34.222L104.848 40.3981L103.951 51.3613L98.5617 61.243L89.9398 66.4543Z" fill="white" stroke="#03467A" stroke-width="1.9112" stroke-miterlimit="10"/>
<g style="mix-blend-mode:multiply">
<path d="M86.5659 47.5571L23.1093 31.524L22.8205 35.0637C22.8205 35.0637 24.1233 37.7984 24.7624 37.7615C25.3953 37.7246 26.778 38.2716 26.778 38.2716L30.3792 36.938L34.3737 37.0425L37.8028 38.29L38.0424 39.7219L67.4048 48.737L73.0155 47.3543L78.9641 49.7572L86.0374 52.1723" fill="#8FADC2"/>
</g>
<path opacity="0.2" d="M89.1352 43.0158L24.9964 27.7938L23.1098 31.524L26.6249 32.962L86.5665 47.5572L89.1352 43.0158Z" fill="#03467A"/>
<path d="M96.8839 68.101L89.6079 66.3619L85.6687 58.5143L86.5659 47.5572L91.9615 37.6755L99.7845 32.6425L107.061 34.3816L111 42.2292L110.103 53.1863L104.707 63.068L96.8839 68.101Z" fill="white" stroke="#03467A" stroke-width="1.9112" stroke-miterlimit="10"/>
<path d="M92.8836 62.2322L90.5484 57.5679L91.249 48.9583L95.5753 41.037L100.657 37.7677L103.785 38.5113L106.127 43.1756L105.42 51.7852L101.1 59.7065L96.0116 62.9819L92.8836 62.2322Z" fill="white" stroke="#03467A" stroke-width="1.9112" stroke-miterlimit="10"/>
<path d="M98.1686 58.5819L102.489 50.6606L103.196 42.0448L101.1 37.8721L100.657 37.7677L95.5753 41.037L91.249 48.9583L90.5484 57.5679L92.644 61.7467L93.0803 61.8512L98.1686 58.5819Z" fill="white" stroke="#03467A" stroke-width="1.9112" stroke-miterlimit="10"/>
<g style="mix-blend-mode:multiply">
<path d="M98.1686 58.5819L102.489 50.6606L103.196 42.0448L101.1 37.8721L100.657 37.7677L95.5753 41.037L91.249 48.9583L90.5484 57.5679L92.644 61.7467L93.0803 61.8512L98.1686 58.5819Z" fill="#8FADC2"/>
</g>
<path d="M93.7687 55.0914L92.2938 54.7411L91.4949 53.1434L91.6731 50.9187L92.767 48.9092L94.3586 47.8891L95.8397 48.2394L96.6386 49.8372L96.4542 52.0618L95.3603 54.0713L93.7687 55.0914Z" fill="white" stroke="#03467A" stroke-width="1.9112" stroke-miterlimit="10"/>
<path d="M8.03499 54.8825L3.45672 53.0451L1.13379 47.0718L2.54107 39.1689L7.13777 32.3538L13.1725 29.2381L19.0658 31.3767L20.6575 36.9751L19.2502 44.878L14.6535 51.687L8.03499 54.8825Z" fill="white" stroke="#03467A" stroke-width="1.9112" stroke-miterlimit="10"/>
<path d="M19.2439 35.2973L14.8992 33.5889L13.6763 34.2218C13.2338 34.3816 12.7852 34.6151 12.3243 34.9163L10.493 35.8626L7.13764 40.8342L6.11137 46.5985L7.80748 50.9556L9.28851 51.5517C9.34996 51.5824 9.40527 51.6193 9.47287 51.6438C15.8456 54.1634 22.2121 56.6769 28.5848 59.1964C27.3005 58.6864 26.3418 57.3344 26.0222 55.2573C25.377 51.0723 27.5463 45.5354 30.8709 42.8806C32.5424 41.5471 34.1894 41.1968 35.4922 41.713L19.2378 35.2911L19.2439 35.2973Z" fill="white" stroke="#03467A" stroke-width="1.39499" stroke-miterlimit="10"/>
<path d="M26.7658 61.796L22.1875 59.9524L19.8646 53.9792L21.2719 46.0763L25.8747 39.2673L31.9094 36.1516L37.8028 38.2902L39.3944 43.8885L37.9871 51.7914L33.3904 58.6005L26.7658 61.796Z" fill="white" stroke="#03467A" stroke-width="1.9112" stroke-miterlimit="10"/>
<path d="M44.938 41.6823L44.9687 41.5962L36.2055 38.3884L30.4658 41.3566L26.0903 47.8337L24.7506 55.3495L26.9568 61.0339L28.573 61.7898C28.8188 61.9495 29.0708 62.097 29.335 62.2015C29.5993 62.306 29.8697 62.4166 30.1524 62.5333L31.5596 63.1909L31.6211 63.154C40.6977 67.087 53.6951 73.9944 62.7779 77.5832C60.7745 76.7905 59.2873 74.6888 58.7896 71.4564C57.7879 64.9485 61.1617 56.3327 66.3299 52.2031C68.9294 50.1259 71.492 49.579 73.5199 50.384L44.9134 41.6823H44.938Z" fill="white" stroke="#03467A" stroke-width="1.81902" stroke-miterlimit="10"/>
<path d="M66.3543 52.2032C61.186 56.3267 57.8061 64.9486 58.8139 71.4565C59.8156 77.9644 64.8179 79.8879 69.9861 75.7644C75.1544 71.6347 78.5343 63.019 77.5326 56.5111C76.5309 50.0032 71.5286 48.0736 66.3543 52.2032Z" fill="white" stroke="#03467A" stroke-width="1.9112" stroke-miterlimit="10"/>
<path d="M74.534 57.1318C70.134 60.6408 67.2641 67.9722 68.1183 73.5091C68.9725 79.0461 73.2251 80.6869 77.6251 77.1717C82.0252 73.6628 84.8951 66.3314 84.0409 60.7944C83.1867 55.2575 78.9341 53.6167 74.534 57.1318Z" fill="white" stroke="#03467A" stroke-width="1.9112" stroke-miterlimit="10"/>
<path d="M74.534 57.1317C76.3531 55.6814 78.1475 55.1099 79.6838 55.3312C80.4458 56.253 80.9928 57.5435 81.2447 59.1781C82.0989 64.7151 79.2291 72.0465 74.829 75.5554C73.01 77.0057 71.2156 77.5772 69.6792 77.356C68.9172 76.4342 68.3703 75.1437 68.1183 73.509C67.2641 67.9721 70.134 60.6407 74.534 57.1317Z" fill="white" stroke="#03467A" stroke-width="1.9112" stroke-miterlimit="10"/>
<path d="M70.5266 63.8055C69.3467 64.7457 68.5785 66.7061 68.8059 68.1933C69.0332 69.6804 70.1763 70.1168 71.35 69.1765C72.5299 68.2363 73.2981 66.2698 73.0707 64.7888C72.8433 63.3077 71.7003 62.8653 70.5266 63.8055Z" fill="white" stroke="#03467A" stroke-width="1.9112" stroke-miterlimit="10"/>
<path d="M65.9727 82.4872L59.7045 79.9676L56.5212 71.7881L58.4508 60.9601L64.7498 51.6315L73.0152 47.3605L85.6377 51.9756L83.2718 57.9612L81.3422 68.7831L75.0432 78.1178L65.9727 82.4872Z" fill="white" stroke="#03467A" stroke-width="1.9112" stroke-miterlimit="10"/>
<path d="M72.727 84.792L65.6538 82.3707L62.4705 74.1851L64.4001 63.3632L70.6991 54.0285L78.9646 49.7575L86.044 52.1787L89.2211 60.3643L87.2976 71.1862L80.9925 80.5148L72.727 84.792Z" fill="white" stroke="#03467A" stroke-width="1.9112" stroke-miterlimit="10"/>
<path d="M69.3035 78.5665L67.4107 73.7056L68.9286 65.1943L73.9801 57.7155L79.3511 54.9439L82.393 55.9825L84.2796 60.8434L82.7679 69.3486L77.7164 76.8274L72.3454 79.6051L69.3035 78.5665Z" fill="white" stroke="#03467A" stroke-width="1.9112" stroke-miterlimit="10"/>
<path d="M74.908 75.4324L79.9533 67.9536L81.4712 59.4423L79.7751 55.0914L79.3511 54.9439L73.9801 57.7155L68.9286 65.1943L67.4107 73.7056L69.1068 78.0565L69.537 78.204L74.908 75.4324Z" fill="white" stroke="#03467A" stroke-width="1.9112" stroke-miterlimit="10"/>
<g style="mix-blend-mode:multiply">
<path d="M74.908 75.4324L79.9533 67.9536L81.4712 59.4423L79.7751 55.0914L79.3511 54.9439L73.9801 57.7155L68.9286 65.1943L67.4107 73.7056L69.1068 78.0565L69.537 78.204L74.908 75.4324Z" fill="#8FADC2"/>
</g>
<path d="M70.8582 71.5424L69.4202 71.0507L68.7749 69.3854L69.1621 67.1853L70.4465 65.2926L72.1241 64.4261L73.5622 64.9177L74.2074 66.577L73.8141 68.777L72.5359 70.6759L70.8582 71.5424Z" fill="white" stroke="#03467A" stroke-width="1.9112" stroke-miterlimit="10"/>
<path opacity="0.2" d="M64.3999 63.3629L2.54107 39.1688L1.13379 45.5538V51.7114L8.03499 54.8824L10.8987 52.9958L20.9586 56.7936L22.1877 59.9523L26.9687 61.0277L57.4434 74.8916L59.3792 79.9676L65.0882 82.1308L62.4703 74.0251L64.2954 65.5384" fill="#03467A"/>
<g opacity="0.4">
<path d="M62.4701 74.1851L1.31793 46.0457L2.66375 51.0049L6.11743 54.1145L10.2532 53.42H12.484L19.8645 56.3821L20.6573 58.4776L25.6288 61.3352L27.5216 61.7961L56.3124 74.7935L59.7047 79.9678L64.2952 81.8176" fill="#03467A"/>
<path d="M62.4701 74.1851L1.31793 46.0457L2.66375 51.0049L6.11743 54.1145L10.2532 53.42H12.484L19.8645 56.3821L20.6573 58.4776L25.6288 61.3352L27.5216 61.7961L56.3124 74.7935L59.7047 79.9678L64.2952 81.8176" stroke="#03467A" stroke-width="1.83131" stroke-linecap="round" stroke-linejoin="round"/>
</g>
<path d="M62.47 26.6756L36.4998 41.0065L42.5899 43.0038L67.7734 27.3639L62.47 26.6756Z" fill="white" stroke="#03467A" stroke-width="1.9112" stroke-miterlimit="10"/>
</svg>
