<?xml version="1.0" encoding="UTF-8" standalone="no"?>
<!DOCTYPE svg PUBLIC "-//W3C//DTD SVG 1.1//EN" "http://www.w3.org/Graphics/SVG/1.1/DTD/svg11.dtd">
<svg width="100%" height="100%" viewBox="0 0 111 100" version="1.1" xmlns="http://www.w3.org/2000/svg" xmlns:xlink="http://www.w3.org/1999/xlink" xml:space="preserve" xmlns:serif="http://www.serif.com/" style="fill-rule:evenodd;clip-rule:evenodd;stroke-linejoin:round;stroke-miterlimit:2;">
    <g transform="matrix(1,0,0,1,-1331,-151)">
        <path d="M1365.45,188.386C1364.6,187.689 1364.27,186.717 1364.03,185.697C1364.43,185.18 1364.11,184.902 1363.68,184.657L1363.69,184.678C1363.96,184.025 1363.41,183.445 1363.49,182.849C1363.62,181.804 1362.91,181.32 1362.31,180.728C1361.67,179.729 1361.1,179.609 1359.9,180.242C1358.83,180.811 1358.02,181.745 1357.01,182.403C1356.62,182.658 1356.79,182.496 1356.33,182.822C1356.18,182.193 1356.07,182.041 1356,181.742C1356.36,181.52 1356.27,181.13 1356.35,180.805C1356.5,180.128 1356.54,179.418 1356.87,178.796C1358.61,175.612 1361.54,173.615 1364.27,171.413C1364.29,171.392 1364.37,171.44 1364.49,171.472C1363.93,173.8 1363.44,176.145 1362.78,178.442C1362.49,179.462 1362.76,180.03 1363.57,180.564C1364.44,181.143 1364.66,181.106 1364.94,180.111C1365.55,178.013 1366.14,175.913 1366.73,173.811C1366.87,173.322 1367.06,172.864 1367.32,172.424C1370.61,167.069 1374.59,162.227 1378.45,157.294C1379.01,156.577 1379.69,155.858 1380.7,155.694C1380.59,156.769 1380.01,157.693 1379.71,158.705C1379.03,159.389 1378.6,160.236 1378.14,161.057C1377.32,162.534 1376.14,163.82 1375.76,165.532C1375.6,165.539 1375.44,165.55 1375.4,165.746C1375.4,165.781 1375.47,165.869 1375.49,165.866C1375.69,165.844 1375.7,165.669 1375.76,165.532C1376.72,165.714 1377.84,165.342 1378.56,166.345C1378.32,167.626 1377.67,168.736 1377.14,169.897C1377.01,170.116 1376.88,170.336 1376.75,170.555C1376.65,170.435 1376.59,170.242 1376.4,170.298C1375.4,170.588 1374.54,170.395 1373.79,169.641C1373.42,169.269 1373.15,169.541 1372.9,169.912C1370.63,173.247 1369.47,177.058 1368.19,180.815C1367.91,182.159 1368.04,183.479 1368.43,184.783C1368.38,185.018 1368.33,185.252 1368.28,185.488C1368.1,185.654 1367.95,185.89 1367.74,185.977C1366.8,186.353 1366.13,186.842 1366.47,188.011C1366.52,188.221 1366.37,188.489 1366.32,188.731C1366.03,188.615 1365.74,188.499 1365.45,188.382L1365.45,188.386Z" style="fill:rgb(131,151,155);fill-rule:nonzero;"/>
    </g>
    <g transform="matrix(1,0,0,1,-1331,-151)">
        <path d="M1380.7,155.697C1379.69,155.861 1379.01,156.581 1378.45,157.295C1374.59,162.228 1370.61,167.071 1367.33,172.426C1367.06,172.866 1366.87,173.322 1366.73,173.813C1366.14,175.915 1365.55,178.016 1364.95,180.113C1364.66,181.107 1364.92,182.023 1363.57,180.566C1362.76,180.033 1362.49,179.464 1362.78,178.443C1363.45,176.148 1363.94,173.803 1364.5,171.474C1364.38,171.441 1364.29,171.394 1364.27,171.415C1361.54,173.617 1358.61,175.614 1356.88,178.798C1356.54,179.42 1356.5,180.129 1356.35,180.806C1356.27,181.132 1356.36,181.521 1356,181.744C1356.19,178.868 1357.15,176.368 1359.36,174.375C1360.37,173.46 1361.37,172.532 1362.4,171.623C1362.51,171.521 1362.67,171.41 1362.7,171.284C1363.11,168.852 1364.89,167.194 1366.21,165.308C1368.13,162.588 1370.15,159.945 1372.55,157.593C1374.1,156.072 1375.73,154.705 1377.58,153.586C1377.75,153.484 1377.91,153.383 1378.08,153.282C1378.26,153.237 1378.44,153.195 1378.63,153.151C1381.02,153.236 1383.23,152.626 1385.25,151.334C1385.56,151.132 1385.91,150.776 1386.27,151.289C1385.18,152.097 1384.09,152.905 1383,153.713C1382.23,154.369 1381.1,154.603 1380.7,155.694L1380.7,155.697Z" style="fill:rgb(239,240,242);fill-rule:nonzero;"/>
    </g>
    <g transform="matrix(1,0,0,1,-1331,-151)">
        <path d="M1428.74,152.789C1428.24,152.128 1427.7,152.416 1427.22,152.608C1426.68,152.828 1426.08,153.267 1425.52,153.573C1423.54,154.664 1422.03,156.824 1419.55,156.793C1416.27,156.752 1413.94,158.468 1411.59,160.357C1410.06,161.585 1409.21,163.303 1408.1,164.822C1404.72,169.461 1401.45,174.171 1399.12,179.459C1397.8,182.442 1396.88,185.775 1393.21,186.941C1391.05,187.862 1389.25,189.387 1387.56,190.906C1385.21,193.037 1384.65,199.172 1384.65,199.172C1384.65,199.172 1385.32,200.304 1386.13,199.943C1387.87,199.164 1389.56,198.282 1391.34,197.605C1394.62,196.357 1396.66,195.855 1398.11,197.458C1398.66,198.06 1398.68,199.306 1399.29,200.415C1399.57,200.919 1399.92,201.38 1400.24,201.859C1400.43,202.402 1402.23,201.719 1402.42,202.262C1402.93,202.909 1401.86,202.308 1402.37,202.955C1405.09,203.241 1407.65,200.598 1409.49,198.886C1411.12,197.357 1410.78,197.259 1412.56,195.922C1416.01,193.335 1418.73,191.917 1419.09,187.794C1420.11,188.202 1420.17,188.23 1420.4,189.117C1420.85,190.862 1421.27,192.617 1421.77,194.681C1422.86,189.843 1422.27,185.347 1421.52,180.852C1420.97,179.473 1420.58,179.673 1420.73,178.966C1422.27,171.279 1422.53,163.09 1427.34,156.373C1427.82,155.699 1428.29,155.071 1428.78,154.399C1429.2,153.81 1429.1,153.268 1428.74,152.786L1428.74,152.789Z" style="fill:rgb(234,246,254);fill-rule:nonzero;"/>
    </g>
    <g transform="matrix(1,0,0,1,-1331,-151)">
        <path d="M1385.16,185.553L1385.24,185.494L1385.15,185.541L1385.16,185.553Z" style="fill:rgb(107,127,131);fill-rule:nonzero;"/>
    </g>
    <g transform="matrix(1,0,0,1,-1331,-151)">
        <path d="M1368.19,180.816C1369.47,177.06 1370.63,173.249 1372.9,169.914C1373.15,169.542 1373.42,169.271 1373.79,169.642C1374.55,170.396 1375.4,170.589 1376.4,170.3C1376.59,170.244 1376.65,170.437 1376.75,170.557C1376.32,172.025 1375.62,173.378 1374.91,174.727C1373.06,174.423 1372.84,174.526 1371.95,176.042C1370.99,177.688 1370.3,179.469 1368.98,180.934C1368.37,181.616 1368.43,180.888 1368.19,180.816Z" style="fill:rgb(107,127,131);fill-rule:nonzero;"/>
    </g>
    <g transform="matrix(1,0,0,1,-1331,-151)">
        <path d="M1368.19,180.816C1368.43,180.89 1368.37,181.616 1368.98,180.934C1370.3,179.469 1370.99,177.687 1371.95,176.042C1372.84,174.526 1373.06,174.423 1374.91,174.727C1374.33,177.149 1373.46,179.47 1372.38,181.713C1371.86,181.801 1371.07,181.67 1370.89,182.095C1370.38,183.314 1369.14,183.793 1368.43,184.784C1368.04,183.481 1367.91,182.161 1368.19,180.816Z" style="fill:rgb(107,127,131);fill-rule:nonzero;"/>
    </g>
    <g transform="matrix(1,0,0,1,-1331,-151)">
        <path d="M1375.76,165.534C1376.14,163.821 1377.32,162.536 1378.15,161.059C1378.6,160.239 1379.04,159.392 1379.71,158.707C1380.04,158.843 1380.11,159.142 1380.24,159.44C1380.48,160.015 1380.79,160.562 1381.08,161.119C1380.39,162.902 1379.34,164.533 1378.87,166.407C1378.77,166.387 1378.66,166.366 1378.56,166.347C1377.84,165.342 1376.72,165.714 1375.76,165.534Z" style="fill:rgb(107,127,131);fill-rule:nonzero;"/>
    </g>
    <g transform="matrix(1,0,0,1,-1331,-151)">
        <path d="M1381.08,161.119C1380.79,160.562 1380.48,160.015 1380.24,159.44C1380.11,159.142 1380.04,158.843 1379.71,158.707C1380.01,157.694 1380.59,156.77 1380.7,155.696C1381.1,154.605 1382.23,154.373 1383,153.715C1383.38,154.314 1382.82,155.053 1383.29,155.637C1382.22,157.33 1382,159.364 1381.08,161.118L1381.08,161.119Z" style="fill:rgb(86,105,109);fill-rule:nonzero;"/>
    </g>
    <g transform="matrix(1,0,0,1,-1331,-151)">
        <path d="M1378.56,166.346C1378.66,166.366 1378.77,166.387 1378.87,166.407C1379.3,167.493 1379.73,168.582 1380.17,169.663C1380.47,170.399 1380.1,171.093 1380.06,171.806C1380.04,172.274 1379.93,172.737 1379.8,173.507C1378.92,172.117 1378.44,170.673 1377.14,169.899C1377.67,168.738 1378.33,167.625 1378.56,166.346Z" style="fill:rgb(239,240,242);fill-rule:nonzero;"/>
    </g>
    <g transform="matrix(1,0,0,1,-1331,-151)">
        <path d="M1368.43,184.784C1369.14,183.793 1370.38,183.314 1370.89,182.095C1371.07,181.672 1371.86,181.801 1372.38,181.713C1372.33,182.141 1372.06,182.455 1371.81,182.774C1371,183.811 1370.18,184.838 1369.37,185.874C1369.18,186.12 1369.02,186.397 1368.66,186.43C1368.44,186.155 1368.59,185.731 1368.29,185.489C1368.34,185.254 1368.39,185.02 1368.43,184.784Z" style="fill:rgb(107,127,131);fill-rule:nonzero;"/>
    </g>
    <g transform="matrix(1,0,0,1,-1331,-151)">
        <path d="M1383.29,155.64C1382.81,155.056 1383.38,154.317 1383,153.718C1384.09,152.91 1385.18,152.102 1386.27,151.294C1386.41,151.347 1386.54,151.399 1386.68,151.451C1386.81,151.636 1386.77,151.819 1386.67,152.001C1385.55,153.215 1384.42,154.427 1383.29,155.64Z" style="fill:rgb(131,151,155);fill-rule:nonzero;"/>
    </g>
    <g transform="matrix(1,0,0,1,-1331,-151)">
        <path d="M1368.29,185.489C1368.59,185.731 1368.43,186.155 1368.66,186.429C1368.22,187.538 1367.4,188.269 1366.32,188.732C1366.37,188.49 1366.53,188.222 1366.47,188.013C1366.13,186.843 1366.81,186.354 1367.74,185.978C1367.95,185.891 1368.1,185.656 1368.29,185.489Z" style="fill:rgb(131,151,155);fill-rule:nonzero;"/>
    </g>
    <g transform="matrix(1,0,0,1,-1331,-151)">
        <path d="M1375.76,165.534C1375.7,165.669 1375.69,165.846 1375.5,165.867C1375.47,165.871 1375.4,165.784 1375.41,165.748C1375.44,165.552 1375.6,165.54 1375.76,165.534Z" style="fill:rgb(107,127,131);fill-rule:nonzero;"/>
    </g>
    <g transform="matrix(1,0,0,1,-1331,-151)">
        <path d="M1347.11,218.953C1347.46,218.912 1347.8,218.871 1348.14,218.83C1347.86,219.429 1347.55,219.669 1347.11,218.953Z" style="fill:rgb(71,88,93);fill-rule:nonzero;"/>
    </g>
    <g transform="matrix(1,0,0,1,-1331,-151)">
        <path d="M1377.78,161.806C1377.78,161.806 1376.4,164.372 1374.61,166.94C1372.83,169.506 1371.74,171.778 1371.74,171.778L1376.59,170.988L1378.77,166.052L1377.78,161.808L1377.78,161.806Z" style="fill:rgb(107,127,131);fill-rule:nonzero;"/>
    </g>
    <g transform="matrix(1,0,0,1,-1331,-151)">
        <path d="M1386.19,151.599L1381.4,155.203C1381.12,155.485 1380.57,155.897 1380.11,156.121C1379.53,156.618 1379.03,157.231 1378.51,157.806C1375.9,160.777 1373.41,163.857 1371.05,167.03C1370.27,168.09 1369.51,169.165 1368.78,170.267C1368.08,171.368 1367.36,172.486 1366.93,173.721C1366.06,176.209 1365.31,178.736 1364.7,181.297C1364.69,181.325 1364.66,181.341 1364.63,181.335C1364.61,181.328 1364.59,181.302 1364.6,181.274C1365.18,178.7 1365.91,176.161 1366.75,173.659C1367.18,172.398 1367.89,171.263 1368.59,170.141C1370.74,166.809 1373.17,163.672 1375.66,160.584C1376.98,158.986 1378.26,157.356 1379.72,155.879C1379.77,155.828 1379.92,155.725 1379.97,155.707C1380.38,155.486 1380.77,155.185 1381.11,154.865C1381.13,154.84 1385.85,151.211 1385.88,151.188C1386.14,150.992 1386.47,151.374 1386.19,151.599Z" style="fill:white;fill-rule:nonzero;"/>
    </g>
    <g transform="matrix(1,0,0,1,-1331,-151)">
        <path d="M1362.31,180.728L1363.16,182.692L1363.39,185.061L1364.35,186.917L1364.74,187.627L1365.3,185.89L1364.31,182.573L1362.31,180.728Z" style="fill:rgb(131,151,155);fill-rule:nonzero;"/>
    </g>
    <g transform="matrix(1,0,0,1,-1331,-151)">
        <path d="M1362.31,180.728L1362.25,182.969L1363.55,185.929L1364.74,187.627L1365.1,187.35L1364.31,182.573" style="fill:rgb(131,151,155);fill-rule:nonzero;"/>
    </g>
    <g transform="matrix(1,0,0,1,-1331,-151)">
        <path d="M1360.41,180.005L1361.17,179.838L1361.88,180.216L1362.11,180.596L1362.1,181.901L1362.16,182.522L1362.25,182.969L1363.27,182.005L1362.27,179.549L1360.71,179.231L1360.41,180.005Z" style="fill:rgb(131,151,155);fill-rule:nonzero;"/>
    </g>
    <g transform="matrix(1,0,0,1,-1331,-151)">
        <path d="M1386.13,199.943C1386.13,199.943 1385.89,196.436 1386.4,196.132C1386.91,195.828 1388.13,193.085 1388.13,193.085L1390.79,190.445L1394.05,188.515L1396.29,188.109L1397.31,195.118C1397.31,195.118 1397.92,198.063 1397.72,197.758C1397.51,197.452 1395.68,196.64 1395.68,196.64C1395.68,196.64 1392.92,197.656 1392.52,197.758C1392.11,197.859 1386.13,199.943 1386.13,199.943Z" style="fill:rgb(131,151,155);fill-rule:nonzero;"/>
    </g>
    <g transform="matrix(1,0,0,1,-1331,-151)">
        <path d="M1428.94,153.238L1424.24,158.038L1422.32,158.834L1418.78,163.493L1415.92,168.396L1413.2,174.77L1408.56,184.65L1407.28,190.865L1406.79,197.756L1414.48,193.734L1415.97,186.991L1413.84,186.564L1413.68,183.376L1415.76,179.711L1418.42,177.342L1421.2,169.989L1424.33,160.077L1428.94,153.238Z" style="fill:rgb(107,120,127);fill-opacity:0.65;fill-rule:nonzero;"/>
    </g>
    <g transform="matrix(1,0,0,1,-1331,-151)">
        <path d="M1422.33,158.843C1421.03,160.715 1419.5,162.856 1418.17,164.714C1417.92,165.21 1416.37,168.118 1416.1,168.643C1415.87,169.142 1415.21,170.548 1414.96,171.068C1414.06,172.975 1412.8,175.648 1411.89,177.519C1411.95,177.369 1410.07,182.47 1410.08,182.439C1409.85,183.075 1409.05,185.224 1408.82,185.836C1408.36,187.175 1408.05,188.561 1407.75,189.944C1407.23,192.512 1406.88,195.128 1406.93,197.751C1406.93,197.825 1406.87,197.883 1406.8,197.885C1406.72,197.885 1406.67,197.833 1406.66,197.762C1406.53,195.996 1406.63,194.22 1406.82,192.463C1407.11,190.16 1407.54,187.857 1408.23,185.636C1408.44,185.031 1409.22,182.866 1409.46,182.221C1409.47,182.192 1411.27,177.254 1411.28,177.23C1412.18,175.36 1413.5,172.686 1414.43,170.799C1414.68,170.287 1415.37,168.893 1415.62,168.394C1415.94,167.792 1417.48,165.103 1417.84,164.472C1418.39,163.77 1419.51,162.341 1420.06,161.643L1421.18,160.233C1421.55,159.762 1421.93,159.296 1422.31,158.828C1422.32,158.815 1422.34,158.831 1422.33,158.844L1422.33,158.843Z" style="fill:rgb(212,237,252);fill-rule:nonzero;"/>
    </g>
    <g transform="matrix(1,0,0,1,-1331,-151)">
        <path d="M1396.29,188.108L1397.21,196.74L1403.33,198.772L1406.79,197.756L1407.28,190.896" style="fill:rgb(131,151,155);fill-opacity:0.4;fill-rule:nonzero;"/>
    </g>
    <g transform="matrix(1,0,0,1,-1331,-151)">
        <path d="M1398.13,196.436L1403.33,198.772L1406.79,197.756L1409.34,195.623L1413.83,192.576L1415.05,188.819L1415.97,186.991L1419.09,187.797L1418.31,192.272L1416.99,195.623L1411.74,198.59L1407.71,203.24L1402.18,203.076C1402.18,203.076 1400.22,201.699 1400.24,201.86C1400.27,202.02 1397.72,197.754 1397.72,197.754L1397.21,196.739L1398.13,196.434L1398.13,196.436Z" style="fill:rgb(103,122,124);fill-rule:nonzero;"/>
    </g>
    <g transform="matrix(1,0,0,1,-1331,-151)">
        <path d="M1408.56,184.65L1399.43,182.658L1396.29,188.108L1407.28,190.896L1408.56,184.65Z" style="fill:rgb(131,151,155);fill-opacity:0.1;fill-rule:nonzero;"/>
    </g>
    <g transform="matrix(1,0,0,1,-1331,-151)">
        <path d="M1364.47,209.18C1364.97,208.371 1365.46,207.561 1366.07,206.833L1366.23,206.583L1367.4,204.189C1367.53,203.781 1367.7,203.382 1367.97,203.006L1367.92,201.492C1367.92,201.492 1367.5,199.575 1367.56,199.336C1367.62,199.097 1366.77,198.319 1366.77,198.319L1364.15,197.277C1360.97,197.062 1358.08,198.317 1355.09,199.061C1353.73,199.743 1352.36,199.333 1350.97,199.172C1346.76,198.69 1342.84,199.67 1338.5,201.709C1340.47,202.255 1341.86,202.686 1343.27,203.019C1344.9,203.404 1345.2,204.252 1344.02,205.365C1340.21,208.973 1337.41,213.353 1334.26,218.135C1334.04,216.897 1334.03,215.723 1332.69,216.315C1330.89,221.874 1330.87,227.61 1331.21,233.336C1331.27,234.37 1330.62,235.815 1331.98,236.64C1332.54,234.587 1333.1,232.536 1333.66,230.485C1333.6,228.603 1333.49,226.722 1333.49,224.841C1333.48,222.469 1335.86,223.032 1337.02,222.08C1338.02,219.677 1340.41,218.742 1342.37,217.646C1348.74,214.082 1355.7,212.162 1362.97,211.395L1364.48,209.182L1364.47,209.18Z" style="fill:rgb(199,203,209);fill-rule:nonzero;"/>
    </g>
    <g transform="matrix(1,0,0,1,-1331,-151)">
        <path d="M1368.09,202.798L1357.99,207.259L1348.83,211.41L1344.66,213.69L1334.91,222.872C1334.91,222.872 1354.97,215.245 1355.29,215.142C1355.6,215.039 1363.05,211.254 1363.05,211.254C1363.05,211.254 1365.81,207.259 1366.22,206.948C1366.64,206.637 1368.1,202.798 1368.1,202.798L1368.09,202.798Z" style="fill:rgb(103,122,124);fill-opacity:0.4;fill-rule:nonzero;"/>
    </g>
    <g transform="matrix(1,0,0,1,-1331,-151)">
        <path d="M1337.01,222.095L1340.14,221.496L1343.57,220.058L1345.93,219.275L1351.92,217.962L1356.91,216.704L1359.26,215.507L1361.76,213.068L1363.05,211.254L1357.64,211.674L1354.27,212.332L1350.9,213.232L1346.87,214.728L1343.02,216.764L1339.18,218.981L1337.07,220.718L1334.91,222.873L1337.01,222.095Z" style="fill:rgb(103,122,124);fill-rule:nonzero;"/>
    </g>
    <g transform="matrix(1,0,0,1,-1331,-151)">
        <g opacity="0.25">
            <path d="M1385.21,185.43L1385.12,185.476L1385.12,185.489L1385.21,185.43Z" style="fill:rgb(3,70,122);fill-rule:nonzero;"/>
            <path d="M1386.67,151.422C1386.53,151.37 1386.39,151.317 1386.26,151.265C1385.89,150.75 1385.55,151.108 1385.23,151.309C1383.21,152.6 1381.01,153.211 1378.61,153.126C1378.43,153.17 1378.25,153.213 1378.06,153.257C1377.9,153.359 1377.73,153.46 1377.56,153.561C1375.71,154.678 1374.08,156.047 1372.53,157.568C1370.13,159.92 1368.11,162.564 1366.19,165.283C1364.87,167.169 1363.09,168.826 1362.68,171.26C1362.66,171.386 1362.49,171.497 1362.38,171.598C1361.36,172.506 1360.35,173.435 1359.34,174.351C1357.13,176.343 1356.17,178.842 1355.99,181.719C1356.06,182.019 1356.16,182.171 1356.31,182.799C1356.78,182.473 1356.61,182.634 1357,182.38C1358.01,181.722 1358.81,180.789 1359.88,180.219C1360.07,180.118 1360.25,180.04 1360.41,179.977L1361.08,179.832C1361.12,179.832 1361.16,179.832 1361.19,179.837L1361.87,180.193L1362.1,180.573L1362.08,181.876L1362.14,182.498L1362.23,182.944L1363.54,185.906L1364.73,187.604L1364.74,187.591C1364.93,187.872 1365.15,188.132 1365.43,188.361C1365.72,188.477 1366.01,188.593 1366.3,188.71C1367.39,188.247 1368.2,187.516 1368.64,186.407C1369,186.374 1369.16,186.098 1369.35,185.849C1370.16,184.814 1370.98,183.788 1371.79,182.75C1372.04,182.431 1372.31,182.117 1372.36,181.688C1373.45,179.446 1374.31,177.125 1374.89,174.703C1375.56,173.44 1376.21,172.174 1376.65,170.813L1376.87,170.303C1376.95,170.161 1377.04,170.018 1377.12,169.876C1378.43,170.65 1378.9,172.092 1379.79,173.484C1379.91,172.714 1380.02,172.251 1380.05,171.783C1380.08,171.07 1380.45,170.377 1380.15,169.641C1379.71,168.559 1379.29,167.47 1378.86,166.384C1379.32,164.51 1380.37,162.878 1381.06,161.096C1381.98,159.343 1382.2,157.308 1383.27,155.616C1384.4,154.402 1385.53,153.19 1386.66,151.977C1386.76,151.793 1386.8,151.612 1386.66,151.427L1386.67,151.422Z" style="fill:rgb(3,70,122);fill-rule:nonzero;"/>
            <path d="M1418.8,189.179C1418.92,188.733 1419.01,188.25 1419.06,187.723C1420.07,188.132 1420.13,188.16 1420.36,189.047C1420.81,190.793 1421.23,192.547 1421.73,194.611C1422.82,189.773 1422.23,185.275 1421.48,180.782L1420.9,179.004L1420.69,178.862C1420.95,177.557 1421.18,176.237 1421.4,174.914L1421.66,173.463L1422.68,168.044L1423.79,163.872L1425.18,160.339L1426.48,157.919L1428.74,154.33C1429.16,153.741 1429.06,153.2 1428.7,152.717C1428.21,152.057 1427.66,152.345 1427.19,152.536C1426.64,152.757 1426.05,153.195 1425.49,153.501C1423.5,154.592 1421.99,156.752 1419.52,156.721C1416.24,156.68 1413.91,158.396 1411.55,160.285C1410.02,161.514 1409.17,163.231 1408.06,164.75C1404.69,169.389 1401.41,174.099 1399.08,179.387C1397.77,182.37 1396.84,185.703 1393.18,186.87C1391.01,187.79 1389.21,189.315 1387.53,190.834C1385.17,192.965 1384.61,199.1 1384.61,199.1C1384.61,199.1 1385.29,200.232 1386.09,199.871C1386.09,199.871 1392.07,197.787 1392.48,197.686C1392.89,197.584 1395.64,196.569 1395.64,196.569C1395.64,196.569 1397.48,197.381 1397.68,197.686C1397.68,197.686 1398.44,198.952 1399.12,200.078C1399.16,200.168 1399.2,200.257 1399.25,200.345C1399.45,200.703 1399.69,201.04 1399.92,201.377C1400.1,201.657 1400.21,201.822 1400.21,201.789C1400.26,201.938 1400.43,201.992 1400.66,202.008C1401.23,202.365 1402.14,203.006 1402.14,203.006L1407.67,203.17L1411.71,198.52L1416.95,195.551L1418.28,192.2L1418.8,189.181L1418.8,189.179ZM1420.7,179.361L1420.84,179.618C1420.77,179.519 1420.72,179.438 1420.69,179.351L1420.7,179.361Z" style="fill:rgb(3,70,122);fill-rule:nonzero;"/>
            <path d="M1367.88,201.42C1367.88,201.42 1367.46,199.503 1367.52,199.264C1367.58,199.025 1366.74,198.247 1366.74,198.247L1364.11,197.205C1360.93,196.99 1358.04,198.245 1355.05,198.989C1353.7,199.671 1352.32,199.261 1350.93,199.1C1346.72,198.618 1342.81,199.598 1338.46,201.637C1340.44,202.183 1341.82,202.614 1343.24,202.947C1344.86,203.332 1345.16,204.18 1343.99,205.293C1340.17,208.901 1337.37,213.281 1334.22,218.063C1334,216.825 1333.99,215.651 1332.66,216.243C1330.85,221.799 1330.83,227.536 1331.17,233.262C1331.23,234.296 1330.58,235.742 1331.94,236.566C1332.5,234.514 1333.06,232.463 1333.62,230.412C1333.56,228.529 1333.45,226.648 1333.45,224.767C1333.44,222.422 1335.77,222.944 1336.94,222.036L1336.98,222.023L1340.1,221.424L1343.53,219.986L1345.89,219.203L1347.11,218.936C1347.53,219.582 1347.84,219.342 1348.11,218.76C1347.97,218.776 1347.84,218.791 1347.71,218.807L1351.89,217.891L1356.88,216.634L1359.22,215.436L1361.72,212.998L1362.91,211.325C1362.92,211.325 1362.93,211.323 1362.94,211.321L1363.74,210.142C1364.58,208.935 1365.91,207.083 1366.18,206.876C1366.6,206.565 1368.06,202.726 1368.06,202.726L1367.93,202.784L1367.88,201.421L1367.88,201.42Z" style="fill:rgb(3,70,122);fill-rule:nonzero;"/>
        </g>
    </g>
</svg>
