<?xml version="1.0" encoding="UTF-8" standalone="no"?>
<!DOCTYPE svg PUBLIC "-//W3C//DTD SVG 1.1//EN" "http://www.w3.org/Graphics/SVG/1.1/DTD/svg11.dtd">
<svg width="100%" height="100%" viewBox="0 0 91 111" version="1.1" xmlns="http://www.w3.org/2000/svg" xmlns:xlink="http://www.w3.org/1999/xlink" xml:space="preserve" xmlns:serif="http://www.serif.com/" style="fill-rule:evenodd;clip-rule:evenodd;stroke-linejoin:round;stroke-miterlimit:2;">
    <g transform="matrix(1,0,0,1,-1207,-48)">
        <path d="M1211.42,126.058L1217.12,124.269L1237.86,124.269L1240.87,125.933L1241.09,127.925L1236.67,131.204L1215.57,132.725L1209.85,127.989L1211.42,126.058Z" style="fill:rgb(255,255,248);fill-rule:nonzero;"/>
    </g>
    <g transform="matrix(1,0,0,1,-1207,-48)">
        <path d="M1208.96,127.521C1209.06,127.227 1209.13,126.926 1209.24,126.637L1209.3,126.679C1209.31,126.695 1209.33,126.728 1209.34,126.745C1209.14,129.219 1208.91,145.464 1208.69,147.94C1208.64,148.404 1208.63,148.876 1208.55,149.337C1208.04,148.834 1207.55,148.317 1207.04,147.827C1207.02,149.165 1207.03,150.501 1207.01,151.839C1206.99,151.113 1207.01,150.386 1207.01,149.66C1207.02,149.032 1206.99,148.404 1207.02,147.778C1207.66,145.615 1208.32,129.684 1208.96,127.521Z" style="fill:rgb(114,114,114);fill-rule:nonzero;"/>
    </g>
    <g transform="matrix(1,0,0,1,-1207,-48)">
        <path d="M1224.25,123.511C1227.86,123.258 1231.46,122.997 1235.06,122.74C1235.19,124.449 1235.32,126.155 1235.45,127.866C1235.11,127.845 1234.78,127.902 1234.44,127.916C1231.59,128.116 1228.74,128.321 1225.89,128.523C1225.17,128.589 1224.44,128.605 1223.72,128.694C1223.71,128.288 1223.72,127.885 1223.72,127.479C1223.76,126.754 1223.74,126.028 1223.76,125.303C1223.78,124.716 1223.76,124.13 1223.8,123.544C1223.95,123.54 1224.1,123.521 1224.26,123.507L1224.25,123.511Z" style="fill:rgb(209,18,66);fill-rule:nonzero;"/>
    </g>
    <g transform="matrix(1,0,0,1,-1207,-48)">
        <path d="M1208.6,149.389C1209.4,150.189 1210.2,150.997 1211,151.794L1211,151.811C1211.02,152.523 1210.99,153.232 1211,153.944C1211,154.868 1211.02,155.794 1210.99,156.717C1210.34,156.093 1209.72,155.449 1209.08,154.812C1209.09,154.503 1209.04,154.196 1209.02,153.89C1208.9,152.695 1208.78,151.498 1208.66,150.303C1208.63,149.998 1208.57,149.695 1208.6,149.391L1208.6,149.389Z" style="fill:rgb(137,11,47);fill-rule:nonzero;"/>
    </g>
    <g transform="matrix(1,0,0,1,-1207,-48)">
        <path d="M1211,151.813C1215.25,152.5 1219.5,153.184 1223.75,153.876C1223.74,155.499 1223.76,157.124 1223.74,158.748C1223.72,158.76 1223.68,158.784 1223.66,158.796C1219.43,158.118 1215.21,157.424 1210.99,156.754L1210.99,156.719C1211.02,155.795 1211,154.87 1211.01,153.946C1211,153.234 1211.02,152.524 1211,151.813Z" style="fill:rgb(153,4,53);fill-rule:nonzero;"/>
    </g>
    <g transform="matrix(1,0,0,1,-1207,-48)">
        <path d="M1210.32,132.676C1210.69,130.068 1211.02,127.455 1211.37,124.847C1211.37,124.962 1211.32,125.103 1211.44,125.19C1212.4,126.065 1213.37,126.945 1214.34,127.819L1214.34,127.829C1214.12,129.903 1213.92,131.979 1213.7,134.054C1213.64,134.557 1213.63,135.067 1213.52,135.564C1212.87,135.018 1212.28,134.411 1211.65,133.851C1211.21,133.466 1210.8,133.052 1210.34,132.69L1210.32,132.678L1210.32,132.676Z" style="fill:rgb(153,4,53);fill-rule:nonzero;"/>
    </g>
    <g transform="matrix(1,0,0,1,-1207,-48)">
        <path d="M1214.36,102.504C1215.16,103.207 1215.93,103.936 1216.73,104.64C1216.46,107.21 1216.2,109.782 1215.94,112.353C1215.07,111.591 1214.22,110.805 1213.37,110.03L1213.35,110.011C1213.69,107.546 1214,105.079 1214.33,102.614C1214.34,102.586 1214.35,102.532 1214.36,102.504Z" style="fill:rgb(153,4,53);fill-rule:nonzero;"/>
    </g>
    <g transform="matrix(1,0,0,1,-1207,-48)">
        <path d="M1213.14,125.938C1213.72,126.065 1214.32,126.115 1214.9,126.213C1217.38,126.576 1219.85,126.938 1222.32,127.295C1222.5,127.331 1222.72,127.295 1222.83,127.448C1223.03,127.705 1223.2,127.984 1223.4,128.243C1223.5,128.396 1223.64,128.544 1223.65,128.732C1223.67,129.109 1223.6,129.491 1223.67,129.866C1223.67,130.418 1223.65,130.969 1223.66,131.523C1223.5,131.512 1223.35,131.488 1223.2,131.469C1220.74,131.095 1218.27,130.747 1215.81,130.383C1214.8,130.237 1213.78,130.082 1212.77,129.943C1212.77,129.812 1212.76,129.684 1212.77,129.555C1212.9,128.349 1213.02,127.142 1213.14,125.936L1213.14,125.938Z" style="fill:rgb(153,4,53);fill-rule:nonzero;"/>
    </g>
    <g transform="matrix(1,0,0,1,-1207,-48)">
        <path d="M1233.89,120.715C1235.51,119.961 1237.14,119.215 1238.77,118.456L1238.84,118.422C1239.14,120.725 1239.42,123.03 1239.71,125.336C1239.74,125.564 1239.77,125.79 1239.79,126.02C1238.01,126.827 1236.25,127.658 1234.47,128.467C1234.28,125.884 1234.07,123.302 1233.89,120.718L1233.89,120.713L1233.89,120.715Z" style="fill:rgb(209,18,66);fill-rule:nonzero;"/>
    </g>
    <g transform="matrix(1,0,0,1,-1207,-48)">
        <path d="M1216.73,104.641L1216.75,104.648C1219.28,105.02 1221.81,105.387 1224.34,105.756C1224.29,106.687 1224.31,107.621 1224.28,108.554C1224.25,109.164 1224.27,109.778 1224.25,110.391C1224.22,111.447 1224.24,112.501 1224.2,113.557C1221.51,113.19 1218.83,112.773 1216.14,112.395C1216.07,112.383 1216,112.371 1215.94,112.355C1216.19,109.784 1216.46,107.212 1216.73,104.642L1216.73,104.641Z" style="fill:rgb(153,4,53);fill-rule:nonzero;"/>
    </g>
    <g transform="matrix(1,0,0,1,-1207,-48)">
        <path d="M1232.71,105.152C1234.12,104.506 1235.52,103.863 1236.92,103.205C1237.25,105.73 1237.55,108.259 1237.88,110.786L1237.87,110.791C1236.35,111.511 1234.82,112.202 1233.29,112.913C1233.18,111.513 1233.08,110.114 1232.97,108.713C1232.89,107.527 1232.78,106.34 1232.71,105.152Z" style="fill:rgb(209,18,66);fill-rule:nonzero;"/>
    </g>
    <g transform="matrix(1,0,0,1,-1207,-48)">
        <path d="M1213.37,110.032C1214.22,110.805 1215.07,111.591 1215.94,112.355C1216,112.369 1216.07,112.383 1216.14,112.395C1216.07,112.405 1216,112.416 1215.93,112.43C1215.76,113.844 1215.65,115.266 1215.49,116.68C1215.36,117.818 1215.26,118.958 1215.13,120.095C1214.19,119.266 1213.28,118.411 1212.34,117.58C1212.65,115.224 1212.97,112.872 1213.28,110.516C1213.29,110.354 1213.32,110.191 1213.37,110.034L1213.37,110.032Z" style="fill:rgb(136,136,136);fill-rule:nonzero;"/>
    </g>
    <g transform="matrix(1,0,0,1,-1207,-48)">
        <path d="M1218.33,89.177C1220.39,89.486 1222.45,89.772 1224.51,90.087C1224.53,90.095 1224.57,90.113 1224.6,90.122C1224.57,92.716 1224.5,95.308 1224.48,97.902L1224.47,97.902C1222.19,97.578 1219.92,97.236 1217.64,96.91C1217.59,96.898 1217.55,96.886 1217.5,96.872C1217.61,96.418 1217.6,95.95 1217.67,95.491C1217.78,94.412 1217.89,93.332 1218,92.251C1218.12,91.226 1218.19,90.198 1218.33,89.177Z" style="fill:rgb(153,4,53);fill-rule:nonzero;"/>
    </g>
    <g transform="matrix(1,0,0,1,-1207,-48)">
        <path d="M1217.37,79.822C1217.55,78.437 1217.73,77.052 1217.92,75.667C1217.95,75.918 1218.22,76.048 1218.39,76.222C1218.78,76.535 1219.17,76.857 1219.52,77.217C1219.54,77.238 1219.56,77.261 1219.58,77.283C1219.46,77.55 1219.5,77.845 1219.45,78.124C1219.32,79.211 1219.26,80.305 1219.1,81.389C1218.52,80.867 1217.94,80.344 1217.37,79.822Z" style="fill:rgb(153,4,53);fill-rule:nonzero;"/>
    </g>
    <g transform="matrix(1,0,0,1,-1207,-48)">
        <path d="M1219.7,75.749C1220.34,75.858 1220.99,75.938 1221.63,76.038C1222.7,76.186 1223.76,76.365 1224.83,76.49C1224.81,76.688 1224.82,76.887 1224.84,77.085C1224.8,77.557 1224.84,78.031 1224.81,78.503C1224.79,78.767 1224.79,79.032 1224.78,79.298C1223.68,79.164 1222.59,78.978 1221.49,78.832C1221.34,78.806 1221.16,78.806 1221.05,78.696C1220.8,78.458 1220.53,78.235 1220.3,77.974C1220.08,77.727 1219.79,77.532 1219.58,77.283C1219.55,77.261 1219.53,77.24 1219.52,77.217C1219.63,76.734 1219.63,76.236 1219.7,75.749Z" style="fill:rgb(153,4,53);fill-rule:nonzero;"/>
    </g>
    <g transform="matrix(1,0,0,1,-1207,-48)">
        <path d="M1230.51,76.316C1230.59,77.336 1230.66,78.355 1230.75,79.375C1229.93,80.243 1229.13,81.13 1228.3,81.99C1227.17,82.07 1226.03,82.146 1224.89,82.237L1224.73,82.237C1224.7,81.669 1224.79,81.108 1224.77,80.54C1224.77,80.125 1224.78,79.71 1224.78,79.296C1224.79,79.032 1224.79,78.766 1224.81,78.501C1224.83,78.028 1224.8,77.555 1224.84,77.083C1224.89,76.904 1224.9,76.72 1224.89,76.537C1225.19,76.643 1225.47,76.772 1225.76,76.892C1226.07,77.024 1226.42,76.941 1226.75,76.921C1227.99,76.845 1229.23,76.73 1230.47,76.664C1230.48,76.547 1230.5,76.431 1230.51,76.314L1230.51,76.316Z" style="fill:rgb(153,4,53);fill-rule:nonzero;"/>
    </g>
    <g transform="matrix(1,0,0,1,-1207,-48)">
        <path d="M1219.45,78.124C1219.5,77.843 1219.45,77.549 1219.58,77.283C1219.8,77.534 1220.08,77.729 1220.3,77.974C1220.53,78.235 1220.8,78.458 1221.06,78.696C1221.17,78.807 1221.34,78.806 1221.49,78.832C1222.59,78.978 1223.68,79.164 1224.78,79.298C1224.78,79.712 1224.77,80.126 1224.77,80.542C1224.79,81.109 1224.7,81.671 1224.73,82.238C1222.86,81.97 1221,81.704 1219.13,81.419C1219.12,81.41 1219.1,81.396 1219.09,81.389C1219.26,80.305 1219.32,79.211 1219.45,78.124Z" style="fill:rgb(153,4,53);fill-rule:nonzero;"/>
    </g>
    <g transform="matrix(1,0,0,1,-1207,-48)">
        <path d="M1233.29,76.714C1233.59,76.615 1233.56,77.791 1233.69,77.57C1233.82,78.501 1233.93,79.436 1234.05,80.368L1234,80.384C1232.98,80.84 1231.97,81.332 1230.94,81.79L1230.92,81.795C1230.88,80.987 1230.51,77.473 1230.47,76.664C1231.32,76.3 1233.3,76.711 1233.3,76.711L1233.29,76.714Z" style="fill:rgb(209,18,66);fill-rule:nonzero;"/>
    </g>
    <g transform="matrix(1,0,0,1,-1207,-48)">
        <path d="M1233.69,77.57L1233.8,78.305L1230.75,78.841L1224.4,79.296L1219.58,78.921L1217.44,79.275L1217.99,76.713C1217.99,76.713 1233.57,76.834 1233.68,77.569L1233.69,77.57Z" style="fill:rgb(119,14,49);fill-rule:nonzero;"/>
    </g>
    <g transform="matrix(1,0,0,1,-1207,-48)">
        <path d="M1215.93,112.428C1216,112.414 1216.07,112.404 1216.14,112.393C1218.83,112.771 1221.51,113.188 1224.2,113.556C1224.38,113.552 1224.56,113.542 1224.74,113.529C1224.56,113.55 1224.38,113.569 1224.2,113.583C1224.15,115.146 1224.16,116.71 1224.11,118.272C1224.11,119.313 1224.06,120.353 1224.07,121.394C1224.27,121.385 1224.48,121.38 1224.68,121.371C1224.47,121.39 1224.27,121.416 1224.06,121.414C1221.08,120.992 1218.11,120.543 1215.13,120.118L1215.13,120.096C1215.26,118.958 1215.36,117.818 1215.49,116.68C1215.65,115.264 1215.76,113.844 1215.93,112.43L1215.93,112.428Z" style="fill:rgb(147,147,147);fill-rule:nonzero;"/>
    </g>
    <g transform="matrix(1,0,0,1,-1207,-48)">
        <path d="M1212.76,130.162C1215.01,130.519 1217.26,130.891 1219.51,131.251C1220.99,131.498 1222.47,131.73 1223.94,131.972C1223.96,131.98 1224,131.994 1224.01,132.001C1224.02,132.542 1223.98,146.854 1223.97,147.395C1223.9,149.547 1223.82,151.701 1223.76,153.855C1223.86,153.852 1223.96,153.852 1224.06,153.848C1223.96,153.859 1223.86,153.871 1223.75,153.876C1219.5,153.184 1215.25,152.5 1211,151.813L1211,151.795C1211.14,151.244 1211.26,150.689 1211.38,150.134C1211.84,148.067 1212.31,132.231 1212.76,130.162Z" style="fill:rgb(147,147,147);fill-rule:nonzero;"/>
    </g>
    <g transform="matrix(1,0,0,1,-1207,-48)">
        <path d="M1228.3,81.99C1229.13,81.128 1229.93,80.243 1230.75,79.375C1230.79,80.182 1230.88,80.989 1230.92,81.796C1230.05,81.873 1229.18,81.925 1228.3,81.99Z" style="fill:rgb(209,18,66);fill-rule:nonzero;"/>
    </g>
    <g transform="matrix(1,0,0,1,-1207,-48)">
        <path d="M1224.61,90.092C1226.91,89.935 1229.21,89.765 1231.52,89.601C1231.61,90.758 1231.7,91.917 1231.78,93.076C1231.89,94.501 1232.02,95.926 1232.1,97.352C1229.57,97.551 1227.02,97.721 1224.48,97.902C1224.5,95.308 1224.57,92.716 1224.6,90.122C1224.57,90.113 1224.53,90.095 1224.51,90.087C1224.53,90.087 1224.59,90.09 1224.61,90.092Z" style="fill:rgb(209,18,66);fill-rule:nonzero;"/>
    </g>
    <g transform="matrix(1,0,0,1,-1207,-48)">
        <path d="M1217.37,79.822C1217.94,80.344 1218.52,80.867 1219.1,81.389C1219.1,81.396 1219.12,81.412 1219.13,81.419C1219.03,81.894 1219.03,82.383 1218.96,82.863C1218.78,84.692 1218.59,86.52 1218.4,88.351C1218.38,88.622 1218.36,88.893 1218.31,89.161C1217.65,88.582 1217.01,87.983 1216.35,87.399C1216.65,85.128 1216.96,82.86 1217.26,80.589C1217.29,80.333 1217.32,80.076 1217.37,79.822Z" style="fill:rgb(141,141,141);fill-rule:nonzero;"/>
    </g>
    <g transform="matrix(1,0,0,1,-1207,-48)">
        <path d="M1230.94,81.791C1231.97,81.334 1232.98,80.841 1234,80.385L1234.06,80.365C1234.3,82.285 1234.55,84.204 1234.79,86.123C1234.86,86.746 1234.95,87.367 1235.01,87.992C1233.85,88.521 1232.69,89.065 1231.53,89.596C1231.48,89.224 1231.47,88.85 1231.44,88.476C1231.29,86.654 1231.16,84.832 1231.02,83.013C1231,82.605 1230.94,82.2 1230.94,81.791Z" style="fill:white;fill-rule:nonzero;"/>
    </g>
    <g transform="matrix(1,0,0,1,-1207,-48)">
        <path d="M1219.13,81.419C1221,81.704 1222.86,81.97 1224.73,82.238L1224.9,82.238C1224.84,82.256 1224.79,82.275 1224.74,82.296C1224.71,83.211 1224.74,84.128 1224.69,85.043C1224.68,85.321 1224.68,85.598 1224.68,85.876C1224.65,87.282 1224.63,88.688 1224.61,90.092C1224.59,90.092 1224.54,90.088 1224.51,90.087C1222.45,89.772 1220.39,89.488 1218.33,89.177L1218.31,89.161C1218.36,88.893 1218.38,88.622 1218.4,88.35C1218.6,86.522 1218.78,84.693 1218.97,82.863C1219.04,82.383 1219.03,81.894 1219.14,81.419L1219.13,81.419Z" style="fill:rgb(149,149,149);fill-rule:nonzero;"/>
    </g>
    <g transform="matrix(1,0,0,1,-1207,-48)">
        <path d="M1228.3,81.99C1229.18,81.924 1230.05,81.871 1230.92,81.797L1230.94,81.791C1230.94,82.198 1231,82.606 1231.02,83.013C1231.16,84.834 1231.29,86.656 1231.44,88.476C1231.47,88.85 1231.47,89.224 1231.53,89.596C1231.53,89.596 1231.52,89.6 1231.52,89.601C1229.21,89.763 1226.91,89.934 1224.61,90.092C1224.62,88.686 1224.65,87.282 1224.68,85.876C1224.96,85.628 1225.19,85.335 1225.45,85.073C1226.4,84.044 1227.36,83.027 1228.3,81.991L1228.3,81.99Z" style="fill:rgb(208,208,210);fill-rule:nonzero;"/>
    </g>
    <g transform="matrix(1,0,0,1,-1207,-48)">
        <path d="M1224.89,82.237C1226.03,82.148 1227.17,82.071 1228.3,81.99C1227.36,83.023 1226.4,84.041 1225.45,85.071C1225.19,85.334 1224.96,85.626 1224.68,85.875L1224.68,85.041C1224.74,84.126 1224.71,83.209 1224.73,82.294C1224.79,82.273 1224.84,82.254 1224.89,82.237Z" style="fill:rgb(168,161,156);fill-rule:nonzero;"/>
    </g>
    <g transform="matrix(1,0,0,1,-1207,-48)">
        <path d="M1216.35,87.399C1217.01,87.983 1217.64,88.582 1218.3,89.161L1218.33,89.177C1218.19,90.198 1218.12,91.228 1218,92.251C1217.89,93.332 1217.78,94.41 1217.67,95.491C1217.6,95.95 1217.61,96.418 1217.5,96.872C1216.79,96.223 1216.06,95.583 1215.36,94.917C1215.36,94.845 1215.37,94.776 1215.38,94.706C1215.71,92.272 1216.04,89.836 1216.35,87.399Z" style="fill:rgb(153,4,53);fill-rule:nonzero;"/>
    </g>
    <g transform="matrix(1,0,0,1,-1207,-48)">
        <path d="M1231.53,89.596C1232.69,89.065 1233.85,88.521 1235.01,87.992C1235.32,90.522 1235.65,93.05 1235.96,95.578C1234.7,96.162 1233.44,96.733 1232.19,97.33C1232.17,97.335 1232.12,97.345 1232.1,97.351C1232.01,95.924 1231.88,94.499 1231.78,93.074C1231.69,91.915 1231.61,90.757 1231.51,89.6C1231.52,89.6 1231.53,89.596 1231.53,89.594L1231.53,89.596Z" style="fill:rgb(209,18,66);fill-rule:nonzero;"/>
    </g>
    <g transform="matrix(1,0,0,1,-1207,-48)">
        <path d="M1214.46,101.59C1214.77,99.296 1215.06,96.997 1215.38,94.704C1215.37,94.774 1215.37,94.845 1215.36,94.915C1216.06,95.581 1216.79,96.221 1217.5,96.87C1217.55,96.884 1217.59,96.896 1217.64,96.909C1217.61,96.921 1217.56,96.945 1217.54,96.957C1217.4,97.834 1217.36,98.721 1217.25,99.602C1217.11,101.004 1216.95,102.406 1216.81,103.807C1216.78,104.085 1216.74,104.365 1216.75,104.646L1216.73,104.639C1215.93,103.934 1215.16,103.205 1214.36,102.502C1214.35,102.53 1214.34,102.584 1214.33,102.612C1214.34,102.269 1214.43,101.931 1214.46,101.589L1214.46,101.59Z" style="fill:rgb(139,139,139);fill-rule:nonzero;"/>
    </g>
    <g transform="matrix(1,0,0,1,-1207,-48)">
        <path d="M1232.19,97.33C1233.44,96.733 1234.71,96.162 1235.96,95.578C1236.08,96.208 1236.13,96.844 1236.22,97.478C1236.44,99.266 1236.67,101.056 1236.89,102.847C1236.9,102.965 1236.94,103.087 1236.92,103.205C1235.52,103.863 1234.12,104.506 1232.72,105.152C1232.58,103.788 1232.51,102.42 1232.39,101.055C1232.31,99.832 1232.2,98.608 1232.11,97.385C1232.13,97.371 1232.17,97.344 1232.19,97.33Z" style="fill:white;fill-rule:nonzero;"/>
    </g>
    <g transform="matrix(1,0,0,1,-1207,-48)">
        <path d="M1217.54,96.959C1217.56,96.947 1217.61,96.923 1217.64,96.91C1219.92,97.236 1222.19,97.579 1224.47,97.902C1224.45,98.8 1224.44,99.698 1224.43,100.597C1224.41,101.573 1224.37,102.547 1224.37,103.522C1224.37,104.266 1224.34,105.011 1224.34,105.756C1221.81,105.387 1219.28,105.02 1216.75,104.647C1216.74,104.366 1216.79,104.087 1216.81,103.809C1216.96,102.407 1217.11,101.006 1217.25,99.604C1217.36,98.723 1217.4,97.836 1217.54,96.959Z" style="fill:rgb(148,148,148);fill-rule:nonzero;"/>
    </g>
    <g transform="matrix(1,0,0,1,-1207,-48)">
        <path d="M1224.48,97.9C1227.02,97.719 1229.56,97.549 1232.1,97.351C1232.12,97.345 1232.17,97.335 1232.19,97.33C1232.17,97.344 1232.13,97.371 1232.11,97.385C1232.2,98.608 1232.31,99.83 1232.39,101.055C1232.51,102.42 1232.58,103.788 1232.72,105.152L1232.71,105.152C1229.92,105.364 1227.13,105.552 1224.34,105.756C1224.34,105.011 1224.37,104.266 1224.37,103.522C1224.37,102.546 1224.41,101.571 1224.43,100.597C1224.43,99.699 1224.45,98.8 1224.47,97.902L1224.48,97.902L1224.48,97.9Z" style="fill:rgb(208,208,210);fill-rule:nonzero;"/>
    </g>
    <g transform="matrix(1,0,0,1,-1207,-48)">
        <path d="M1224.34,105.756C1227.13,105.552 1229.92,105.363 1232.71,105.154C1232.78,106.342 1232.89,107.527 1232.97,108.715C1233.08,110.116 1233.18,111.516 1233.3,112.915C1230.44,113.124 1227.59,113.319 1224.74,113.531C1224.56,113.542 1224.38,113.554 1224.2,113.557C1224.24,112.503 1224.23,111.447 1224.25,110.391C1224.27,109.778 1224.25,109.166 1224.28,108.553C1224.32,107.621 1224.29,106.688 1224.34,105.756Z" style="fill:rgb(209,18,66);fill-rule:nonzero;"/>
    </g>
    <g transform="matrix(1,0,0,1,-1207,-48)">
        <path d="M1233.29,112.913C1234.82,112.202 1236.35,111.511 1237.87,110.791C1237.94,110.991 1237.94,111.201 1237.97,111.407C1238.26,113.742 1238.56,116.076 1238.85,118.411C1238.83,118.422 1238.79,118.444 1238.76,118.455C1237.14,119.213 1235.51,119.958 1233.89,120.713C1233.68,118.114 1233.49,115.513 1233.29,112.913Z" style="fill:white;fill-rule:nonzero;"/>
    </g>
    <g transform="matrix(1,0,0,1,-1207,-48)">
        <path d="M1224.74,113.531C1227.59,113.319 1230.44,113.124 1233.29,112.915C1233.49,115.516 1233.68,118.115 1233.89,120.716L1233.89,120.722C1230.82,120.927 1227.75,121.162 1224.68,121.372C1224.48,121.381 1224.27,121.386 1224.07,121.395C1224.06,120.355 1224.11,119.316 1224.11,118.274C1224.16,116.711 1224.15,115.147 1224.2,113.585C1224.38,113.571 1224.56,113.554 1224.74,113.531Z" style="fill:rgb(208,208,210);fill-rule:nonzero;"/>
    </g>
    <g transform="matrix(1,0,0,1,-1207,-48)">
        <path d="M1212.34,117.578C1213.28,118.41 1214.19,119.266 1215.13,120.094L1215.13,120.116C1214.87,122.684 1214.6,125.251 1214.34,127.819C1213.37,126.947 1212.4,126.067 1211.44,125.19C1211.32,125.103 1211.37,124.962 1211.37,124.847C1211.7,122.425 1212.03,120.001 1212.34,117.578Z" style="fill:rgb(153,4,53);fill-rule:nonzero;"/>
    </g>
    <g transform="matrix(1,0,0,1,-1207,-48)">
        <path d="M1215.13,120.116C1218.11,120.543 1221.09,120.991 1224.07,121.412C1224.03,122.14 1224.04,122.869 1224.03,123.596C1223.97,124.916 1224,126.237 1223.95,127.558C1223.93,128.111 1223.94,128.664 1223.93,129.217C1220.73,128.768 1217.54,128.287 1214.34,127.827L1214.34,127.817C1214.6,125.249 1214.88,122.683 1215.13,120.115L1215.13,120.116Z" style="fill:rgb(153,4,53);fill-rule:nonzero;"/>
    </g>
    <g transform="matrix(1,0,0,1,-1207,-48)">
        <path d="M1224.68,121.371C1227.75,121.16 1230.82,120.927 1233.89,120.72C1234.07,123.304 1234.28,125.886 1234.47,128.469L1234.47,128.485C1233.16,128.553 1231.85,128.668 1230.54,128.755C1228.41,128.909 1226.28,129.054 1224.15,129.216C1224.07,129.217 1224,129.219 1223.93,129.219C1223.94,128.666 1223.93,128.111 1223.95,127.559C1224,126.239 1223.97,124.918 1224.02,123.598C1224.04,122.87 1224.03,122.141 1224.06,121.414C1224.27,121.416 1224.47,121.39 1224.68,121.371Z" style="fill:rgb(209,18,66);fill-rule:nonzero;"/>
    </g>
    <g transform="matrix(1,0,0,1,-1207,-48)">
        <path d="M1234.47,128.469C1236.25,127.66 1238.01,126.829 1239.79,126.021L1239.81,126.013C1240.1,128.335 1240.4,130.66 1240.69,132.982C1240.71,133.203 1240.76,133.423 1240.76,133.645C1238.88,134.51 1237,135.385 1235.12,136.253C1235.08,136.215 1235.06,136.173 1235.05,136.126C1234.87,133.579 1234.66,131.032 1234.48,128.485L1234.48,128.469L1234.47,128.469Z" style="fill:rgb(153,4,53);fill-rule:nonzero;"/>
    </g>
    <g transform="matrix(1,0,0,1,-1207,-48)">
        <path d="M1230.56,128.622C1231.76,128.534 1232.97,128.417 1234.17,128.347C1234.35,130.94 1234.53,133.532 1234.7,136.124C1234.71,136.171 1234.73,136.215 1234.76,136.253C1234.75,136.258 1234.72,136.269 1234.71,136.272C1231.4,136.533 1228.1,136.8 1224.79,137.057C1224.65,137.062 1224.51,137.066 1224.37,137.069C1224.37,135.703 1224.42,134.339 1224.43,132.974C1224.46,131.691 1224.44,130.409 1224.49,129.127C1224.56,129.113 1224.62,129.099 1224.69,129.089C1226.64,128.923 1228.6,128.777 1230.56,128.621L1230.56,128.622Z" style="fill:rgb(208,208,210);fill-rule:nonzero;"/>
    </g>
    <g transform="matrix(1,0,0,1,-1207,-48)">
        <path d="M1234.76,136.253C1236.49,135.37 1238.22,134.48 1239.94,133.6C1240.17,135.566 1240.39,137.534 1240.61,139.5C1240.68,140.165 1240.77,140.829 1240.84,141.494C1239.02,142.423 1237.2,143.35 1235.39,144.286C1235.36,144.298 1235.31,144.324 1235.29,144.337C1235.19,143.39 1235.15,142.437 1235.07,141.49C1234.96,139.75 1234.84,138.012 1234.71,136.274C1234.72,136.269 1234.75,136.259 1234.76,136.255L1234.76,136.253Z" style="fill:rgb(209,18,66);fill-rule:nonzero;"/>
    </g>
    <g transform="matrix(1,0,0,1,-1207,-48)">
        <path d="M1209.24,126.597C1209.88,126.268 1210.52,125.927 1211.18,125.614C1211.18,125.693 1211.17,125.773 1211.17,125.853C1211.14,126.068 1211.11,126.286 1211.09,126.502C1211.07,126.43 1211.06,126.359 1211.05,126.291C1210.84,126.274 1210.64,126.291 1210.45,126.366C1210.09,126.496 1209.72,126.601 1209.36,126.738L1209.34,126.745C1209.33,126.728 1209.31,126.695 1209.3,126.679C1209.28,126.658 1209.25,126.616 1209.24,126.596L1209.24,126.597Z" style="fill:white;fill-rule:nonzero;"/>
    </g>
    <g transform="matrix(1,0,0,1,-1207,-48)">
        <path d="M1240.62,125.726C1240.91,125.976 1241.16,126.268 1241.44,126.535C1241.85,126.954 1242.28,127.361 1242.68,127.791C1241.8,128.243 1240.91,128.701 1240.02,129.146C1239.34,129.51 1238.65,129.863 1237.95,130.207C1237.74,130.166 1237.53,130.235 1237.33,130.263C1236.99,130.312 1236.64,130.371 1236.3,130.418C1236,130.454 1235.7,130.545 1235.39,130.51C1237.2,129.574 1239.02,128.647 1240.84,127.718C1240.77,127.053 1240.68,126.388 1240.61,125.724L1240.62,125.726Z" style="fill:rgb(255,255,248);fill-rule:nonzero;"/>
    </g>
    <g transform="matrix(1,0,0,1,-1207,-48)">
        <path d="M1210.45,126.366C1210.64,126.291 1210.84,126.272 1211.04,126.291C1211.06,126.361 1211.07,126.43 1211.09,126.502C1211.08,126.557 1211.08,126.615 1211.07,126.674C1211.83,127.434 1212.59,128.196 1213.35,128.958C1213.65,129.247 1213.92,129.562 1214.24,129.833C1215.17,129.974 1216.1,130.133 1217.03,130.281C1219.3,130.649 1221.56,131.003 1223.82,131.385C1223.34,131.438 1222.86,131.364 1222.38,131.358C1221.64,131.323 1220.9,131.288 1220.17,131.253C1219.95,131.232 1219.73,131.229 1219.51,131.253C1217.26,130.893 1215.01,130.522 1212.76,130.164C1211.62,129.024 1210.49,127.887 1209.35,126.74C1209.71,126.603 1210.08,126.496 1210.44,126.368L1210.45,126.366Z" style="fill:white;fill-rule:nonzero;"/>
    </g>
    <g transform="matrix(1,0,0,1,-1207,-48)">
        <path d="M1209.34,126.745L1209.36,126.738C1210.49,127.883 1211.63,129.022 1212.76,130.162C1212.31,132.231 1211.84,148.067 1211.38,150.134C1211.26,150.689 1211.14,151.242 1211,151.795C1210.19,150.998 1209.4,150.191 1208.6,149.391C1208.59,149.379 1208.56,149.352 1208.55,149.339C1208.63,148.876 1208.64,148.406 1208.69,147.941C1208.9,145.467 1209.14,129.223 1209.34,126.747L1209.34,126.745Z" style="fill:rgb(140,140,140);fill-rule:nonzero;"/>
    </g>
    <g transform="matrix(1,0,0,1,-1207,-48)">
        <path d="M1234.44,127.916C1234.78,127.9 1235.11,127.843 1235.45,127.866C1235.54,128.796 1235.57,129.732 1235.68,130.663C1232.96,130.874 1230.22,131.053 1227.49,131.257C1226.21,131.342 1224.94,131.446 1223.66,131.524C1223.65,130.971 1223.67,130.42 1223.67,129.868C1223.72,129.478 1222.85,128.904 1222.86,128.513C1223.58,128.424 1225.17,128.589 1225.89,128.523C1228.74,128.321 1231.59,128.116 1234.44,127.916Z" style="fill:rgb(153,4,53);fill-rule:nonzero;"/>
    </g>
    <g transform="matrix(1,0,0,1,-1207,-48)">
        <path d="M1240.02,129.148C1240.91,128.702 1241.8,128.245 1242.68,127.792C1243.4,130.279 1244.12,146.536 1244.84,149.022C1244.84,149.055 1244.86,149.1 1244.84,149.137C1242.5,150.351 1240.15,151.547 1237.8,152.749C1237.68,152.338 1237.64,151.908 1237.56,151.489C1237.18,149.25 1236.79,133.242 1236.42,131.001C1236.93,130.75 1237.44,130.474 1237.95,130.211C1238.64,129.868 1239.33,129.513 1240.02,129.15L1240.02,129.148Z" style="fill:white;fill-rule:nonzero;"/>
    </g>
    <g transform="matrix(1,0,0,1,-1207,-48)">
        <path d="M1237.33,130.265C1237.53,130.235 1237.74,130.168 1237.95,130.209C1237.44,130.472 1236.93,130.749 1236.42,130.999C1232.69,131.304 1228.95,131.591 1225.22,131.888C1224.79,131.916 1224.37,131.977 1223.94,131.972C1222.47,131.73 1220.99,131.498 1219.51,131.251C1219.73,131.227 1219.95,131.231 1220.17,131.251C1220.9,131.286 1221.64,131.321 1222.38,131.356C1222.86,131.363 1223.34,131.436 1223.82,131.384C1223.96,131.403 1224.1,131.427 1224.24,131.438C1225.41,131.358 1226.59,131.251 1227.76,131.164C1230.27,130.957 1232.78,130.776 1235.29,130.561C1235.31,130.549 1235.36,130.522 1235.39,130.51C1235.7,130.545 1236,130.455 1236.3,130.418C1236.64,130.371 1236.98,130.312 1237.33,130.263L1237.33,130.265Z" style="fill:white;fill-rule:nonzero;"/>
    </g>
    <g transform="matrix(1,0,0,1,-1207,-48)">
        <path d="M1225.22,131.888C1228.96,131.591 1232.69,131.303 1236.42,130.999C1236.79,133.24 1237.18,149.248 1237.56,151.487C1237.64,151.907 1237.68,152.336 1237.8,152.747C1237.8,152.749 1237.78,152.754 1237.78,152.757C1233.2,153.13 1228.63,153.483 1224.06,153.847C1223.96,153.85 1223.86,153.85 1223.76,153.854C1223.82,151.7 1223.9,149.547 1223.97,147.394C1223.98,146.852 1224.02,132.541 1224.01,131.999C1224,131.992 1223.96,131.977 1223.94,131.97C1224.37,131.975 1224.8,131.914 1225.22,131.886L1225.22,131.888Z" style="fill:rgb(208,208,210);fill-rule:nonzero;"/>
    </g>
    <g transform="matrix(1,0,0,1,-1207,-48)">
        <path d="M1207.03,147.827C1207.55,148.317 1208.04,148.834 1208.55,149.337C1208.56,149.351 1208.59,149.375 1208.6,149.389C1208.57,149.694 1208.63,149.998 1208.66,150.301C1208.78,151.498 1208.9,152.693 1209.02,153.888C1209.04,154.196 1209.09,154.501 1209.08,154.81C1208.39,154.121 1207.71,153.422 1207.01,152.735C1207.01,152.436 1207,152.136 1207.01,151.837C1207.03,150.499 1207.02,149.163 1207.04,147.825L1207.03,147.827Z" style="fill:rgb(137,11,47);fill-rule:nonzero;"/>
    </g>
    <g transform="matrix(1,0,0,1,-1207,-48)">
        <path d="M1237.8,152.747C1240.15,151.545 1242.5,150.349 1244.84,149.135C1244.86,150.393 1244.84,151.651 1244.84,152.909C1244.84,153.3 1244.85,153.692 1244.83,154.083C1242.47,155.277 1240.12,156.493 1237.77,157.697C1237.76,156.051 1237.77,154.405 1237.77,152.759C1237.78,152.756 1237.79,152.75 1237.8,152.749L1237.8,152.747Z" style="fill:rgb(153,4,53);fill-rule:nonzero;"/>
    </g>
    <g transform="matrix(1,0,0,1,-1207,-48)">
        <path d="M1224.06,153.846C1228.63,153.483 1233.2,153.13 1237.77,152.757C1237.77,154.403 1237.76,156.049 1237.77,157.695C1233.28,158.055 1228.78,158.407 1224.29,158.763C1224.08,158.782 1223.87,158.805 1223.65,158.793C1223.68,158.781 1223.72,158.758 1223.73,158.744C1223.76,157.121 1223.74,155.496 1223.75,153.873C1223.85,153.867 1223.95,153.855 1224.06,153.845L1224.06,153.846Z" style="fill:rgb(209,18,66);fill-rule:nonzero;"/>
    </g>
    <g transform="matrix(1,0,0,1,-1207,-48)">
        <path d="M1224.57,48.249C1224.91,48.009 1225.35,48.014 1225.76,48C1226.03,48.03 1226.3,48.045 1226.55,48.131C1227.34,48.811 1228.14,49.484 1228.93,50.166C1229.69,50.792 1230.41,51.462 1231.19,52.07C1232.16,52.242 1233.14,52.362 1234.11,52.515C1234.26,52.536 1234.35,52.673 1234.46,52.764C1235.11,53.414 1235.81,54.025 1236.47,54.667C1236.14,54.785 1235.85,54.975 1235.53,55.112C1234.79,55.45 1234.06,55.798 1233.32,56.134C1233.01,56.27 1232.73,56.452 1232.41,56.569C1229.73,56.764 1227.06,56.965 1224.38,57.15C1222.04,56.823 1219.7,56.45 1217.36,56.115C1217.21,56.096 1217.06,56.068 1216.97,55.958C1216.25,55.285 1215.52,54.62 1214.8,53.949C1216.02,53.36 1217.25,52.786 1218.47,52.207C1218.66,52.123 1218.83,52.009 1219.05,52.01C1219.33,51.996 1219.62,51.956 1219.92,51.962C1219.06,52.649 1218.19,53.322 1217.35,54.027C1217.92,54.568 1218.5,55.116 1219.09,55.64C1220.47,55.875 1221.86,56.047 1223.24,56.27C1223.72,56.327 1224.2,56.438 1224.69,56.459C1225.31,56.459 1225.92,56.376 1226.54,56.346C1227.52,56.264 1228.49,56.21 1229.47,56.134C1229.92,56.094 1230.37,56.092 1230.81,56.012C1229.39,53.594 1227.92,51.193 1226.5,48.774C1226.43,48.682 1226.38,48.569 1226.28,48.51C1226.03,48.506 1225.78,48.562 1225.53,48.565C1225.28,48.539 1225.03,48.491 1224.78,48.449C1224.71,48.383 1224.64,48.317 1224.57,48.249Z" style="fill:rgb(209,18,66);fill-rule:nonzero;"/>
    </g>
    <g transform="matrix(1,0,0,1,-1207,-48)">
        <path d="M1219.92,51.96C1221.48,50.735 1223.02,49.481 1224.57,48.247C1224.64,48.313 1224.71,48.379 1224.78,48.447C1222.9,50.852 1221,53.246 1219.09,55.638C1218.5,55.114 1217.93,54.566 1217.35,54.025C1218.19,53.322 1219.06,52.649 1219.92,51.96Z" style="fill:rgb(191,17,67);fill-rule:nonzero;"/>
    </g>
    <g transform="matrix(1,0,0,1,-1207,-48)">
        <path d="M1224.78,48.449C1225.03,48.491 1225.28,48.539 1225.53,48.566C1225.36,50.072 1225.21,51.581 1225.04,53.087C1224.93,54.211 1224.79,55.332 1224.69,56.458C1224.2,56.435 1223.72,56.325 1223.24,56.268C1221.86,56.047 1220.47,55.875 1219.09,55.638C1221,53.246 1222.9,50.852 1224.78,48.447L1224.78,48.449Z" style="fill:rgb(209,18,66);fill-rule:nonzero;"/>
    </g>
    <g transform="matrix(1,0,0,1,-1207,-48)">
        <path d="M1225.53,48.564C1225.78,48.56 1226.03,48.505 1226.28,48.508C1226.38,48.567 1226.44,48.679 1226.5,48.772C1227.92,51.191 1229.39,53.592 1230.81,56.01C1230.37,56.09 1229.91,56.092 1229.47,56.132C1228.49,56.21 1227.52,56.262 1226.54,56.344C1225.93,56.374 1225.31,56.459 1224.69,56.457C1224.79,55.332 1224.93,54.211 1225.04,53.087C1225.21,51.581 1225.36,50.072 1225.53,48.565L1225.53,48.564Z" style="fill:rgb(226,19,78);fill-rule:nonzero;"/>
    </g>
    <g transform="matrix(1,0,0,1,-1207,-48)">
        <path d="M1210.99,66.707C1212.04,67.646 1213.06,68.614 1214.09,69.565C1213.92,69.863 1213.78,70.173 1213.63,70.477C1212.82,69.715 1212,68.957 1211.18,68.196C1211.01,68.024 1210.82,67.859 1210.61,67.725C1210.54,67.673 1210.5,67.591 1210.47,67.511C1210.61,67.227 1210.82,66.977 1210.99,66.703L1210.99,66.707Z" style="fill:rgb(153,4,53);fill-rule:nonzero;"/>
    </g>
    <g transform="matrix(1,0,0,1,-1207,-48)">
        <path d="M1213.73,56.343C1214.09,55.546 1214.44,54.745 1214.8,53.947C1215.52,54.618 1216.25,55.283 1216.97,55.956C1217.06,56.066 1217.21,56.094 1217.36,56.113C1219.7,56.449 1222.04,56.821 1224.38,57.148C1224.34,58.058 1224.29,58.966 1224.26,59.878C1221.94,59.537 1219.63,59.184 1217.31,58.848C1217.16,58.827 1217.02,58.803 1216.88,58.78C1216.67,58.745 1216.46,58.714 1216.25,58.684C1215.41,57.898 1214.57,57.126 1213.73,56.344L1213.73,56.343Z" style="fill:rgb(153,4,53);fill-rule:nonzero;"/>
    </g>
    <g transform="matrix(1,0,0,1,-1207,-48)">
        <path d="M1235.53,55.111C1235.85,54.973 1236.14,54.784 1236.47,54.665C1236.84,55.483 1237.2,56.309 1237.54,57.139C1236.45,57.642 1235.37,58.161 1234.29,58.667C1233.89,58.844 1233.5,59.05 1233.1,59.224C1232.85,58.343 1232.67,57.446 1232.41,56.565C1232.73,56.449 1233.01,56.266 1233.32,56.13C1234.06,55.794 1234.79,55.447 1235.53,55.109L1235.53,55.111Z" style="fill:rgb(153,4,53);fill-rule:nonzero;"/>
    </g>
    <g transform="matrix(1,0,0,1,-1207,-48)">
        <path d="M1224.38,57.148C1227.06,56.964 1229.73,56.76 1232.41,56.567C1232.67,57.446 1232.84,58.343 1233.1,59.225C1232.39,59.297 1231.68,59.33 1230.98,59.389C1228.86,59.545 1226.74,59.692 1224.63,59.857C1224.5,59.867 1224.38,59.876 1224.26,59.878C1224.29,58.968 1224.34,58.058 1224.38,57.148Z" style="fill:rgb(226,19,78);fill-rule:nonzero;"/>
    </g>
    <g transform="matrix(1,0,0,1,-1207,-48)">
        <path d="M1232.26,74.647C1233.44,74.087 1234.62,73.537 1235.8,72.974C1235.76,73.489 1235.78,74.007 1235.77,74.522C1236.03,74.571 1236.28,74.63 1236.53,74.672C1235.66,74.672 1234.79,74.675 1233.92,74.672C1233.56,74.658 1233.28,74.921 1232.96,75.035C1232.34,75.284 1231.77,75.738 1231.06,75.707C1231.08,75.399 1231.05,75.093 1231.06,74.785C1231.46,74.724 1231.88,74.781 1232.26,74.647Z" style="fill:rgb(209,18,66);fill-rule:nonzero;"/>
    </g>
    <g transform="matrix(1,0,0,1,-1207,-48)">
        <path d="M1233.1,59.224C1233.5,59.05 1233.89,58.844 1234.29,58.667C1234.31,58.808 1234.33,58.949 1234.34,59.092C1233.26,59.61 1232.16,60.108 1231.08,60.628C1231.04,60.214 1231.02,59.8 1230.98,59.387C1231.69,59.328 1232.4,59.295 1233.1,59.224Z" style="fill:rgb(73,143,153);fill-rule:nonzero;"/>
    </g>
    <g transform="matrix(1,0,0,1,-1207,-48)">
        <path d="M1216.88,58.78C1217.02,58.803 1217.16,58.827 1217.31,58.848C1217.75,59.309 1218.25,59.725 1218.7,60.174L1218.74,60.21C1218.72,60.494 1218.69,60.777 1218.64,61.059C1218.35,60.737 1218,60.48 1217.69,60.181C1217.4,59.911 1217.11,59.636 1216.81,59.384C1216.83,59.182 1216.85,58.982 1216.88,58.782L1216.88,58.78Z" style="fill:rgb(88,101,111);fill-rule:nonzero;"/>
    </g>
    <g transform="matrix(1,0,0,1,-1207,-48)">
        <path d="M1217.31,58.846C1219.62,59.182 1221.94,59.535 1224.26,59.876C1224.38,59.876 1224.5,59.866 1224.63,59.855C1224.64,60.24 1224.62,60.624 1224.6,61.009C1223.14,60.816 1221.69,60.57 1220.24,60.372C1219.73,60.302 1219.22,60.184 1218.7,60.172C1218.25,59.725 1217.75,59.309 1217.31,58.846Z" style="fill:rgb(0,66,120);fill-opacity:0.8;fill-rule:nonzero;"/>
    </g>
    <g transform="matrix(1,0,0,1,-1207,-48)">
        <path d="M1231.08,60.63C1232.16,60.109 1233.26,59.61 1234.34,59.093C1234.43,59.516 1234.44,59.946 1234.52,60.369C1234.54,60.483 1234.56,60.6 1234.54,60.717C1234.48,60.864 1234.43,61.044 1234.26,61.115C1233.86,61.313 1233.43,61.48 1233.04,61.691C1232.46,61.992 1231.84,62.223 1231.27,62.536C1231.2,62.679 1231.24,62.851 1231.24,63.004C1231.21,62.876 1231.18,62.745 1231.18,62.613C1231.23,61.95 1231.1,61.292 1231.08,60.63Z" style="fill:rgb(198,229,229);fill-rule:nonzero;"/>
    </g>
    <g transform="matrix(1,0,0,1,-1207,-48)">
        <path d="M1216.81,59.38C1217.11,59.634 1217.4,59.909 1217.69,60.177C1218,60.476 1218.35,60.734 1218.64,61.056C1218.86,61.322 1219.13,61.541 1219.38,61.786C1219.5,61.924 1219.67,62.037 1219.88,62.046C1221.04,62.201 1222.2,62.409 1223.38,62.543C1223.78,62.62 1224.18,62.693 1224.58,62.747C1224.56,63.293 1224.58,63.841 1224.56,64.387C1224.54,64.762 1224.56,65.136 1224.55,65.51C1224.47,66.684 1224.56,67.862 1224.47,69.036C1224.47,69.586 1224.47,70.138 1224.45,70.689C1224.21,70.698 1223.97,70.707 1223.73,70.693C1222.18,70.463 1220.63,70.219 1219.07,70.005C1217.88,69.816 1216.68,69.649 1215.49,69.464C1215.58,68.507 1215.74,67.557 1215.84,66.601C1215.86,66.411 1215.88,66.221 1215.91,66.033C1215.97,65.64 1216.01,65.245 1216.07,64.85C1216.1,64.657 1216.13,64.462 1216.15,64.269C1216.38,62.639 1216.57,61.005 1216.8,59.377L1216.81,59.38Z" style="fill:rgb(100,156,175);fill-rule:nonzero;"/>
    </g>
    <g transform="matrix(1,0,0,1,-1207,-48)">
        <path d="M1218.74,60.208L1217.39,69.905L1215.45,69.461L1216.88,58.78L1217.31,58.846" style="fill:rgb(80,123,155);fill-rule:nonzero;"/>
    </g>
    <g transform="matrix(1,0,0,1,-1207,-48)">
        <path d="M1215.22,71.396L1215.12,72.168L1217.3,74.188L1217.32,71.716" style="fill:rgb(80,123,155);fill-rule:nonzero;"/>
    </g>
    <g transform="matrix(1,0,0,1,-1207,-48)">
        <path d="M1224.63,59.855C1226.74,59.69 1228.86,59.544 1230.98,59.387C1231.02,59.8 1231.04,60.215 1231.08,60.628C1229.48,60.737 1227.89,60.861 1226.29,60.974C1225.74,61.019 1225.19,61.037 1224.64,61.113C1224.6,61.579 1224.65,62.049 1224.6,62.515C1224.6,62.039 1224.62,61.56 1224.6,61.082C1222.65,60.786 1220.69,60.502 1218.74,60.207L1218.7,60.17C1219.22,60.182 1219.73,60.301 1220.24,60.37C1221.69,60.569 1223.14,60.814 1224.6,61.007C1224.62,60.623 1224.64,60.238 1224.63,59.853L1224.63,59.855Z" style="fill:rgb(0,66,120);fill-opacity:0.2;fill-rule:nonzero;"/>
    </g>
    <g transform="matrix(1,0,0,1,-1207,-48)">
        <path d="M1218.77,60.134C1220.73,60.431 1222.61,60.609 1224.56,60.905C1224.58,61.381 1224.6,62.041 1224.6,62.517C1224.59,62.594 1224.59,62.672 1224.58,62.749C1224.18,62.695 1223.77,62.622 1223.37,62.545C1222.2,62.41 1221.04,62.203 1219.87,62.048C1219.67,62.037 1219.5,61.926 1219.38,61.788C1219.13,61.543 1218.86,61.324 1218.64,61.058C1218.69,60.776 1218.72,60.494 1218.74,60.209L1218.77,60.134Z" style="fill:rgb(80,123,155);fill-rule:nonzero;"/>
    </g>
    <g transform="matrix(1,0,0,1,-1207,-48)">
        <path d="M1226.29,60.976C1227.89,60.861 1229.48,60.739 1231.08,60.63C1231.1,61.291 1231.22,61.95 1231.18,62.613C1230.87,62.881 1230.62,63.199 1230.34,63.49C1229.66,64.209 1228.98,64.934 1228.31,65.66C1228.05,65.559 1227.86,65.359 1227.65,65.195C1227.32,64.93 1226.99,64.673 1226.66,64.407C1226.57,64.344 1226.48,64.25 1226.36,64.275C1225.76,64.325 1225.16,64.398 1224.56,64.395C1224.58,63.848 1224.56,63.3 1224.58,62.754C1224.59,62.677 1224.59,62.599 1224.6,62.523C1224.66,62.056 1224.61,61.587 1224.65,61.12C1225.19,61.044 1225.74,61.026 1226.29,60.981L1226.29,60.976Z" style="fill:rgb(198,229,229);fill-rule:nonzero;"/>
    </g>
    <g transform="matrix(1,0,0,1,-1207,-48)">
        <path d="M1234.26,61.111C1234.43,61.04 1234.48,60.861 1234.54,60.713C1234.72,62.037 1234.86,63.364 1235.05,64.688C1235.05,64.716 1235.06,64.77 1235.06,64.798C1235.11,65.13 1235.14,65.464 1235.19,65.797C1235.22,66.025 1235.24,66.254 1235.27,66.482C1235.36,67.42 1235.5,68.354 1235.61,69.29C1235.15,69.506 1234.7,69.717 1234.25,69.938C1234.13,70 1233.99,70.026 1233.86,70.033C1232.98,70.096 1232.11,70.165 1231.24,70.212C1231.42,70.19 1231.6,70.169 1231.78,70.153C1231.66,68.351 1231.52,66.548 1231.38,64.746C1231.33,64.165 1231.33,63.578 1231.24,63.001C1231.24,62.848 1231.2,62.675 1231.27,62.533C1231.84,62.218 1232.46,61.988 1233.04,61.687C1233.43,61.477 1233.86,61.31 1234.26,61.111Z" style="fill:white;fill-rule:nonzero;"/>
    </g>
    <g transform="matrix(1,0,0,1,-1207,-48)">
        <path d="M1230.34,63.488C1230.62,63.197 1230.87,62.879 1231.18,62.611C1231.18,62.743 1231.21,62.874 1231.24,63.003C1231.33,63.58 1231.33,64.167 1231.38,64.748C1231.52,66.55 1231.66,68.353 1231.78,70.155C1231.6,70.172 1231.42,70.192 1231.23,70.214C1229.04,70.39 1226.84,70.536 1224.64,70.703C1224.34,70.727 1224.03,70.745 1223.73,70.696C1223.97,70.71 1224.21,70.701 1224.45,70.693C1224.47,70.141 1224.47,69.591 1224.47,69.04C1224.51,68.993 1224.53,68.913 1224.61,68.901C1224.84,68.857 1225.08,68.862 1225.31,68.847C1226.3,67.778 1227.3,66.715 1228.31,65.659C1228.98,64.934 1229.65,64.208 1230.34,63.49L1230.34,63.488Z" style="fill:white;fill-rule:nonzero;"/>
    </g>
    <g transform="matrix(1,0,0,1,-1207,-48)">
        <path d="M1214.86,64.871C1215.3,64.675 1215.71,64.454 1216.16,64.273C1216.13,64.466 1216.1,64.661 1216.07,64.854C1215.7,64.962 1215.39,65.181 1215.04,65.332C1214.44,65.605 1213.85,65.882 1213.26,66.157C1212.86,66.34 1212.46,66.514 1212.09,66.74C1212.35,66.996 1212.62,67.241 1212.89,67.479C1213.19,67.728 1213.46,67.991 1213.74,68.257C1214.09,68.595 1214.46,68.918 1214.8,69.259C1214.96,69.433 1215.23,69.41 1215.45,69.459L1215.49,69.466C1216.69,69.65 1217.88,69.818 1219.07,70.007C1218.79,70.117 1218.47,70.093 1218.17,70.159C1218.11,70.155 1218.05,70.15 1217.99,70.146C1216.69,69.946 1215.39,69.753 1214.09,69.565C1213.06,68.612 1212.04,67.646 1210.99,66.707C1212.28,66.086 1213.57,65.484 1214.86,64.871Z" style="fill:rgb(209,18,66);fill-rule:nonzero;"/>
    </g>
    <g transform="matrix(1,0,0,1,-1207,-48)">
        <path d="M1210.15,72.015C1210.76,71.711 1211.38,71.422 1212,71.138C1212.02,71.749 1211.93,72.363 1212.01,72.969C1212.3,73.287 1212.64,73.565 1212.96,73.859C1212.97,73.87 1213,73.891 1213.01,73.901C1213.32,73.898 1213.63,73.851 1213.94,73.814C1214.67,73.738 1215.4,73.668 1216.12,73.591C1216.33,73.537 1216.48,73.699 1216.62,73.825C1216.82,74.025 1217.02,74.247 1217.29,74.378C1217.29,74.71 1217.28,75.041 1217.29,75.373C1218.38,75.516 1219.47,75.721 1220.57,75.839C1220.46,75.867 1220.35,75.888 1220.24,75.914C1220.62,75.966 1221.01,75.897 1221.39,75.874C1222.3,75.804 1223.21,75.749 1224.12,75.676C1224.75,75.61 1225.39,75.564 1226.03,75.521C1226.46,75.497 1226.89,75.432 1227.32,75.448C1227.31,75.625 1227.3,75.808 1227.39,75.973C1227.4,75.996 1227.42,76.039 1227.43,76.06L1227.5,76.067C1227.65,76.074 1227.8,76.071 1227.95,76.064C1227.12,76.145 1226.29,76.06 1225.46,76.114C1224.61,76.18 1223.76,76.243 1222.92,76.299C1222.79,76.309 1222.67,76.361 1222.56,76.4C1219.51,75.945 1216.47,75.479 1213.42,75.042C1212.32,74.039 1211.24,73.022 1210.15,72.019L1210.15,72.015Z" style="fill:rgb(209,18,66);fill-rule:nonzero;"/>
    </g>
    <g transform="matrix(1,0,0,1,-1207,-48)">
        <path d="M1224.56,64.389C1225.16,64.394 1225.76,64.321 1226.36,64.269C1226.48,64.246 1226.57,64.339 1226.66,64.401C1226.99,64.668 1227.32,64.925 1227.65,65.189C1227.86,65.353 1228.05,65.555 1228.31,65.654C1227.3,66.71 1226.3,67.773 1225.31,68.841C1225.08,68.859 1224.84,68.852 1224.61,68.895C1224.53,68.906 1224.51,68.986 1224.47,69.035C1224.56,67.86 1224.47,66.682 1224.56,65.508C1224.56,65.134 1224.54,64.76 1224.56,64.386L1224.56,64.389Z" style="fill:rgb(198,229,229);fill-rule:nonzero;"/>
    </g>
    <g transform="matrix(1,0,0,1,-1207,-48)">
        <path d="M1235.02,64.475C1235.72,64.579 1236.41,64.685 1237.11,64.784C1237.85,65.456 1238.57,66.141 1239.31,66.818C1239.64,67.144 1240.02,67.422 1240.3,67.786C1240.23,67.759 1240.16,67.735 1240.09,67.711C1239.06,68.241 1238,68.713 1236.94,69.195C1236.6,69.099 1236.25,69.228 1235.91,69.151C1236.34,68.934 1236.79,68.741 1237.22,68.518C1237.44,68.401 1237.67,68.295 1237.9,68.187C1238,68.14 1238.09,68.095 1238.19,68.048C1238.5,67.906 1238.81,67.763 1239.11,67.617C1238.37,66.916 1237.62,66.234 1236.87,65.538C1236.66,65.346 1236.47,65.138 1236.24,64.967C1235.85,64.887 1235.46,64.835 1235.06,64.8C1235.06,64.772 1235.05,64.718 1235.05,64.69C1235.04,64.636 1235.03,64.53 1235.02,64.476L1235.02,64.475Z" style="fill:rgb(221,38,90);fill-rule:nonzero;"/>
    </g>
    <g transform="matrix(1,0,0,1,-1207,-48)">
        <path d="M1239.15,71.275C1239.78,71.843 1240.41,72.417 1241.02,73.003C1240.16,73.449 1239.27,73.821 1238.4,74.252C1237.36,74.76 1236.29,75.234 1235.24,75.747C1232.43,75.952 1229.61,76.157 1226.8,76.363C1225.79,76.425 1224.78,76.528 1223.77,76.57C1223.37,76.531 1222.96,76.453 1222.56,76.396C1222.68,76.356 1222.79,76.305 1222.92,76.295C1223.77,76.239 1224.62,76.177 1225.46,76.11C1226.29,76.057 1227.13,76.142 1227.96,76.06C1228.99,75.975 1230.02,75.902 1231.05,75.836C1231.05,75.803 1231.06,75.74 1231.07,75.707C1231.78,75.738 1232.34,75.284 1232.96,75.035C1233.28,74.92 1233.56,74.658 1233.93,74.672C1234.79,74.675 1235.66,74.672 1236.54,74.672L1236.59,74.672C1237.21,74.432 1237.79,74.101 1238.41,73.826C1238.42,73.228 1238.4,72.629 1238.41,72.032C1238.65,72.02 1238.89,72.013 1239.14,72.01C1239.15,71.764 1239.16,71.519 1239.16,71.274L1239.15,71.275Z" style="fill:rgb(221,38,90);fill-rule:nonzero;"/>
    </g>
    <g transform="matrix(1,0,0,1,-1207,-48)">
        <path d="M1235.06,64.798C1235.46,64.833 1235.85,64.885 1236.24,64.965C1236.12,65.285 1235.95,65.583 1235.77,65.875C1235.58,65.842 1235.38,65.821 1235.19,65.797C1235.14,65.465 1235.11,65.13 1235.06,64.798Z" style="fill:rgb(144,35,30);fill-rule:nonzero;"/>
    </g>
    <g transform="matrix(1,0,0,1,-1207,-48)">
        <path d="M1215.04,65.334C1215.39,65.183 1215.7,64.963 1216.07,64.856C1216.02,65.25 1215.97,65.645 1215.91,66.039C1215.26,66.319 1214.63,66.647 1213.98,66.943C1213.62,67.124 1213.23,67.269 1212.89,67.483C1212.62,67.243 1212.35,66.999 1212.09,66.743C1212.46,66.517 1212.86,66.343 1213.26,66.16C1213.85,65.885 1214.44,65.607 1215.04,65.336L1215.04,65.334Z" style="fill:rgb(209,18,66);fill-rule:nonzero;"/>
    </g>
    <g transform="matrix(1,0,0,1,-1207,-48)">
        <path d="M1236.24,64.967C1236.47,65.137 1236.66,65.348 1236.87,65.538C1237.62,66.233 1238.37,66.915 1239.11,67.617C1238.8,67.763 1238.5,67.905 1238.19,68.048C1237.43,67.413 1236.74,66.705 1236.01,66.047C1235.93,65.985 1235.85,65.927 1235.77,65.875C1235.95,65.583 1236.12,65.285 1236.24,64.965L1236.24,64.967Z" style="fill:rgb(137,11,47);fill-rule:nonzero;"/>
    </g>
    <g transform="matrix(1,0,0,1,-1207,-48)">
        <path d="M1226.8,76.363C1229.61,76.158 1232.43,75.952 1235.24,75.747L1235.24,77.466C1235.02,77.492 1234.8,77.536 1234.57,77.543C1233.78,77.55 1232.99,77.657 1232.2,77.704C1229.49,77.905 1226.79,78.087 1224.08,78.305C1223.99,78.293 1223.9,78.278 1223.81,78.265C1223.78,77.701 1223.85,77.132 1223.77,76.57C1224.78,76.53 1225.79,76.426 1226.8,76.363Z" style="fill:rgb(209,18,66);fill-rule:nonzero;"/>
    </g>
    <g transform="matrix(1,0,0,1,-1207,-48)">
        <path d="M1236.01,73.516C1236.32,73.13 1236.45,72.659 1236.58,72.2C1236.6,73.024 1236.56,73.847 1236.59,74.672L1236.54,74.672C1236.28,74.628 1236.03,74.571 1235.77,74.522C1235.78,74.005 1235.76,73.489 1235.8,72.974C1235.83,73.195 1235.85,73.417 1235.85,73.642C1235.9,73.6 1235.96,73.562 1236.01,73.516Z" style="fill:rgb(153,4,53);fill-rule:nonzero;"/>
    </g>
    <g transform="matrix(1,0,0,1,-1207,-48)">
        <path d="M1235.19,65.797C1235.38,65.821 1235.58,65.842 1235.77,65.875C1235.85,65.927 1235.93,65.985 1236.01,66.047C1236.74,66.705 1237.43,67.411 1238.19,68.048C1238.09,68.094 1238,68.139 1237.9,68.187C1237.69,67.956 1237.44,67.758 1237.23,67.533C1236.92,67.217 1236.6,66.91 1236.26,66.632C1235.94,66.549 1235.6,66.528 1235.28,66.484C1235.25,66.256 1235.22,66.027 1235.19,65.799L1235.19,65.797Z" style="fill:rgb(137,11,47);fill-rule:nonzero;"/>
    </g>
    <g transform="matrix(1,0,0,1,-1207,-48)">
        <path d="M1213.98,66.943C1214.63,66.647 1215.26,66.319 1215.91,66.039C1215.89,66.227 1215.86,66.416 1215.84,66.606C1215.71,66.667 1215.58,66.729 1215.45,66.794C1214.9,67.06 1214.34,67.33 1213.78,67.587C1213.78,67.812 1213.77,68.038 1213.74,68.26C1213.46,67.996 1213.18,67.731 1212.89,67.483C1213.23,67.269 1213.61,67.124 1213.98,66.943Z" style="fill:rgb(137,11,47);fill-rule:nonzero;"/>
    </g>
    <g transform="matrix(1,0,0,1,-1207,-48)">
        <path d="M1215.45,66.792C1215.58,66.728 1215.71,66.665 1215.84,66.604C1215.75,67.561 1215.58,68.511 1215.49,69.468L1215.45,69.461C1215.44,68.572 1215.47,67.683 1215.45,66.792Z" style="fill:rgb(161,161,161);fill-rule:nonzero;"/>
    </g>
    <g transform="matrix(1,0,0,1,-1207,-48)">
        <path d="M1213.78,67.585C1214.34,67.328 1214.9,67.058 1215.45,66.792C1215.47,67.681 1215.44,68.57 1215.45,69.461C1215.23,69.412 1214.96,69.435 1214.8,69.261C1214.46,68.92 1214.09,68.596 1213.74,68.259C1213.77,68.036 1213.79,67.81 1213.78,67.585Z" style="fill:rgb(209,18,66);fill-rule:nonzero;"/>
    </g>
    <g transform="matrix(1,0,0,1,-1207,-48)">
        <path d="M1220.94,73.386C1222.09,73.536 1223.24,73.746 1224.4,73.88C1224.4,74.018 1224.39,74.155 1224.39,74.292C1223.54,74.185 1222.7,74.03 1221.85,73.929C1221.8,74.244 1221.78,74.559 1221.76,74.875C1221.48,74.834 1221.21,74.794 1220.94,74.752C1220.92,74.296 1220.94,73.842 1220.94,73.386Z" style="fill:rgb(113,113,113);fill-rule:nonzero;"/>
    </g>
    <g transform="matrix(1,0,0,1,-1207,-48)">
        <path d="M1237.23,67.533C1237.44,67.758 1237.69,67.956 1237.9,68.187C1237.67,68.295 1237.44,68.403 1237.22,68.518C1237.21,68.189 1237.21,67.86 1237.22,67.533L1237.23,67.533Z" style="fill:rgb(137,11,47);fill-rule:nonzero;"/>
    </g>
    <g transform="matrix(1,0,0,1,-1207,-48)">
        <path d="M1227.43,71.75C1229.99,71.564 1232.55,71.378 1235.1,71.189C1235,71.357 1234.9,71.53 1234.84,71.717C1234.87,71.738 1234.91,71.782 1234.94,71.803C1234.67,71.942 1234.34,71.919 1234.04,71.947C1233.34,71.998 1232.64,72.048 1231.93,72.102C1231.65,72.125 1231.35,72.137 1231.07,72.17C1229.88,72.26 1228.7,72.354 1227.51,72.426C1227.45,72.761 1227.49,73.101 1227.47,73.438C1227.43,74.092 1227.44,74.746 1227.45,75.401C1227.46,75.592 1227.44,75.783 1227.39,75.97C1227.31,75.804 1227.32,75.62 1227.32,75.444C1227.33,75.317 1227.33,75.19 1227.33,75.063C1227.35,74.186 1227.34,73.309 1227.34,72.434C1226.47,72.504 1225.59,72.565 1224.72,72.627C1224.51,72.64 1224.3,72.664 1224.09,72.673C1224.04,72.659 1223.94,72.629 1223.9,72.613C1223.88,72.433 1223.86,72.253 1223.85,72.074C1223.99,72.046 1224.14,72.018 1224.28,71.994C1225.33,71.888 1226.38,71.837 1227.43,71.752L1227.43,71.75Z" style="fill:rgb(137,11,47);fill-rule:nonzero;"/>
    </g>
    <g transform="matrix(1,0,0,1,-1207,-48)">
        <path d="M1240.09,67.711C1240.16,67.735 1240.23,67.759 1240.3,67.786C1240.45,68.033 1240.61,68.274 1240.76,68.52C1240.74,68.527 1240.71,68.541 1240.69,68.549C1238.83,69.419 1236.97,70.298 1235.11,71.187C1234.95,70.882 1234.85,70.555 1234.74,70.234C1235.06,70.131 1235.33,69.946 1235.63,69.809C1236.07,69.605 1236.51,69.407 1236.94,69.197C1238,68.715 1239.06,68.243 1240.09,67.712L1240.09,67.711Z" style="fill:rgb(236,52,41);fill-rule:nonzero;"/>
    </g>
    <g transform="matrix(1,0,0,1,-1207,-48)">
        <path d="M1210.61,67.728C1210.82,67.862 1211.01,68.027 1211.18,68.2C1212,68.958 1212.82,69.718 1213.63,70.481L1213.64,70.501C1213.73,70.67 1213.82,70.844 1213.86,71.032C1213.59,70.788 1213.33,70.534 1213.05,70.291C1212.7,69.959 1212.34,69.64 1212,69.296C1211.69,68.989 1211.35,68.699 1211.04,68.396C1210.86,68.196 1210.73,67.963 1210.61,67.732L1210.61,67.728Z" style="fill:rgb(137,11,47);fill-rule:nonzero;"/>
    </g>
    <g transform="matrix(1,0,0,1,-1207,-48)">
        <path d="M1235.11,71.187C1236.97,70.298 1238.83,69.419 1240.7,68.549C1240.54,68.81 1240.39,69.078 1240.19,69.311C1239.85,69.503 1239.48,69.635 1239.14,69.83C1238.91,69.948 1238.66,70.051 1238.43,70.164C1237.81,70.451 1237.2,70.738 1236.59,71.041C1236.58,71.427 1236.6,71.815 1236.58,72.201C1236.45,72.661 1236.33,73.132 1236.01,73.518C1235.96,73.564 1235.9,73.602 1235.85,73.644C1235.85,73.419 1235.83,73.198 1235.8,72.976C1235.78,72.617 1235.8,72.259 1235.79,71.9L1235.79,71.403C1235.5,71.535 1235.22,71.671 1234.94,71.806C1234.92,71.785 1234.87,71.742 1234.84,71.721C1234.9,71.531 1235,71.361 1235.11,71.192L1235.11,71.187Z" style="fill:rgb(137,11,47);fill-rule:nonzero;"/>
    </g>
    <g transform="matrix(1,0,0,1,-1207,-48)">
        <path d="M1235.61,69.29C1235.71,69.243 1235.81,69.196 1235.91,69.149C1236.25,69.226 1236.6,69.099 1236.94,69.193C1236.51,69.403 1236.07,69.602 1235.63,69.805C1235.33,69.943 1235.06,70.129 1234.74,70.23C1231.14,70.5 1227.53,70.757 1223.92,71.02C1222,70.743 1220.08,70.463 1218.17,70.159C1218.47,70.092 1218.79,70.115 1219.07,70.007C1220.63,70.219 1222.18,70.465 1223.73,70.694C1224.03,70.743 1224.34,70.726 1224.64,70.701C1226.84,70.534 1229.04,70.388 1231.24,70.213C1232.11,70.166 1232.98,70.094 1233.86,70.033C1233.99,70.026 1234.13,70 1234.25,69.938C1234.7,69.717 1235.15,69.506 1235.61,69.29Z" style="fill:rgb(221,38,90);fill-rule:nonzero;"/>
    </g>
    <g transform="matrix(1,0,0,1,-1207,-48)">
        <path d="M1212,69.292C1212.34,69.638 1212.7,69.955 1213.05,70.287C1212.98,70.634 1213.02,70.987 1213.01,71.337C1213.01,71.846 1213,72.358 1213,72.868C1213,73.196 1213.04,73.532 1212.96,73.858C1212.64,73.564 1212.3,73.287 1212.01,72.967C1211.93,72.361 1212.02,71.745 1212,71.137C1212.01,70.522 1212.01,69.906 1212,69.292Z" style="fill:rgb(153,4,53);fill-rule:nonzero;"/>
    </g>
    <g transform="matrix(1,0,0,1,-1207,-48)">
        <path d="M1210.15,72.015C1211.25,73.019 1212.33,74.037 1213.42,75.039C1213.34,75.594 1213.43,76.158 1213.36,76.714C1213.01,76.429 1212.72,76.097 1212.39,75.796C1211.64,75.11 1210.9,74.416 1210.15,73.736C1210.15,73.162 1210.16,72.589 1210.15,72.015Z" style="fill:rgb(153,4,53);fill-rule:nonzero;"/>
    </g>
    <g transform="matrix(1,0,0,1,-1207,-48)">
        <path d="M1214.09,69.565C1215.39,69.753 1216.69,69.948 1217.99,70.146C1217.71,70.446 1217.39,70.698 1217.11,70.999C1215.96,70.841 1214.81,70.639 1213.64,70.498L1213.63,70.477C1213.78,70.172 1213.92,69.863 1214.09,69.565Z" style="fill:rgb(209,18,66);fill-rule:nonzero;"/>
    </g>
    <g transform="matrix(1,0,0,1,-1207,-48)">
        <path d="M1238.43,70.164C1238.66,70.051 1238.91,69.948 1239.14,69.83C1239.16,70.312 1239.14,70.794 1239.15,71.275C1239.16,71.521 1239.15,71.766 1239.14,72.011C1238.89,72.015 1238.65,72.022 1238.41,72.034C1238.41,71.411 1238.42,70.788 1238.43,70.165L1238.43,70.164Z" style="fill:rgb(153,4,53);fill-rule:nonzero;"/>
    </g>
    <g transform="matrix(1,0,0,1,-1207,-48)">
        <path d="M1227.51,72.426C1228.7,72.354 1229.88,72.262 1231.07,72.17L1231.07,73.739C1229.88,73.835 1228.69,73.924 1227.5,73.995C1227.48,74.684 1227.52,75.373 1227.5,76.064L1227.44,76.057C1227.43,76.034 1227.4,75.991 1227.39,75.97C1227.44,75.782 1227.46,75.592 1227.45,75.399C1227.44,74.745 1227.43,74.091 1227.47,73.437C1227.49,73.099 1227.45,72.758 1227.51,72.424L1227.51,72.426Z" style="fill:rgb(153,4,53);fill-rule:nonzero;"/>
    </g>
    <g transform="matrix(1,0,0,1,-1207,-48)">
        <path d="M1217.99,70.148C1218.05,70.153 1218.11,70.157 1218.17,70.16C1220.08,70.465 1222,70.745 1223.92,71.022C1223.89,71.347 1223.87,71.672 1223.86,71.999C1221.61,71.683 1219.36,71.34 1217.11,71.001C1217.39,70.7 1217.72,70.447 1217.99,70.148Z" style="fill:rgb(209,18,66);fill-rule:nonzero;"/>
    </g>
    <g transform="matrix(1,0,0,1,-1207,-48)">
        <path d="M1236.59,71.041C1237.19,70.738 1237.81,70.451 1238.42,70.164C1238.42,70.787 1238.41,71.409 1238.41,72.032C1238.4,72.629 1238.42,73.228 1238.4,73.826C1237.79,74.101 1237.21,74.432 1236.58,74.672C1236.55,73.847 1236.6,73.022 1236.58,72.199C1236.6,71.813 1236.58,71.425 1236.59,71.039L1236.59,71.041Z" style="fill:rgb(209,18,66);fill-rule:nonzero;"/>
    </g>
    <g transform="matrix(1,0,0,1,-1207,-48)">
        <path d="M1223.92,71.022C1227.53,70.757 1231.14,70.501 1234.74,70.232C1234.85,70.554 1234.95,70.881 1235.11,71.185L1235.11,71.189C1232.55,71.378 1229.99,71.563 1227.43,71.751C1226.38,71.836 1225.33,71.888 1224.28,71.992C1224.14,71.999 1224,72.001 1223.86,71.999C1223.87,71.674 1223.89,71.347 1223.92,71.022Z" style="fill:rgb(209,47,38);fill-rule:nonzero;"/>
    </g>
    <g transform="matrix(1,0,0,1,-1207,-48)">
        <path d="M1213.01,71.337C1213.01,70.987 1212.98,70.634 1213.05,70.287C1213.32,70.531 1213.59,70.785 1213.86,71.028C1213.9,71.067 1213.94,71.105 1213.98,71.143C1213.9,72.031 1213.95,72.923 1213.95,73.812C1213.64,73.849 1213.33,73.896 1213.01,73.899C1213,73.889 1212.97,73.868 1212.96,73.858C1213.04,73.532 1213.01,73.198 1213.01,72.868C1213,72.358 1213.01,71.846 1213.01,71.337Z" style="fill:rgb(153,4,53);fill-rule:nonzero;"/>
    </g>
    <g transform="matrix(1,0,0,1,-1207,-48)">
        <path d="M1213.64,70.5C1214.8,70.64 1215.96,70.842 1217.11,71.001C1219.36,71.342 1221.61,71.683 1223.86,71.999C1224,72.001 1224.14,71.999 1224.28,71.992C1224.13,72.017 1223.99,72.046 1223.85,72.072C1223.86,72.251 1223.88,72.431 1223.89,72.612C1223.94,72.626 1224.04,72.655 1224.09,72.671C1223.75,72.692 1223.43,72.608 1223.11,72.566C1222.38,72.466 1221.66,72.342 1220.93,72.248C1220.81,72.232 1220.69,72.217 1220.57,72.201C1219.49,72.038 1218.41,71.883 1217.33,71.716C1216.63,71.592 1215.92,71.496 1215.22,71.397C1214.81,71.309 1214.36,71.335 1213.98,71.145C1213.94,71.107 1213.9,71.068 1213.86,71.03C1213.82,70.842 1213.74,70.668 1213.64,70.5Z" style="fill:rgb(137,11,47);fill-rule:nonzero;"/>
    </g>
    <g transform="matrix(1,0,0,1,-1207,-48)">
        <path d="M1213.94,73.812C1213.95,72.923 1213.9,72.031 1213.98,71.143C1214.35,71.333 1214.81,71.307 1215.22,71.396C1215.19,71.653 1215.15,71.909 1215.12,72.166C1215.84,72.843 1216.57,73.513 1217.3,74.186C1217.3,74.233 1217.29,74.327 1217.29,74.376C1217.02,74.244 1216.83,74.021 1216.62,73.823C1216.49,73.697 1216.34,73.536 1216.13,73.59C1215.4,73.666 1214.67,73.736 1213.95,73.812L1213.94,73.812Z" style="fill:rgb(209,18,66);fill-rule:nonzero;"/>
    </g>
    <g transform="matrix(1,0,0,1,-1207,-48)">
        <path d="M1215.22,71.396C1215.92,71.497 1216.63,71.591 1217.32,71.714C1217.27,72.537 1217.33,73.362 1217.3,74.187C1216.57,73.513 1215.84,72.843 1215.12,72.167C1215.15,71.909 1215.19,71.653 1215.22,71.396Z" style="fill:rgb(109,109,109);fill-rule:nonzero;"/>
    </g>
    <g transform="matrix(1,0,0,1,-1207,-48)">
        <path d="M1234.94,71.805C1235.22,71.669 1235.5,71.533 1235.79,71.401L1235.79,71.899C1234.55,72.49 1233.3,73.069 1232.05,73.65C1232.01,73.134 1231.97,72.619 1231.94,72.102C1232.64,72.048 1233.34,71.998 1234.04,71.947C1234.34,71.919 1234.67,71.942 1234.94,71.803L1234.94,71.805Z" style="fill:white;fill-rule:nonzero;"/>
    </g>
    <g transform="matrix(1,0,0,1,-1207,-48)">
        <path d="M1217.32,71.716C1218.4,71.885 1219.49,72.038 1220.57,72.201C1220.56,73.115 1220.58,74.03 1220.58,74.943C1220.55,75.241 1220.55,75.538 1220.57,75.838C1219.47,75.719 1218.38,75.514 1217.29,75.371L1217.29,74.186C1217.33,73.364 1217.27,72.537 1217.32,71.714L1217.32,71.716Z" style="fill:rgb(153,4,53);fill-rule:nonzero;"/>
    </g>
    <g transform="matrix(1,0,0,1,-1207,-48)">
        <path d="M1213.42,75.039C1216.47,75.477 1219.51,75.942 1222.56,76.396C1222.96,76.453 1223.37,76.53 1223.77,76.57C1223.86,77.132 1223.78,77.701 1223.82,78.265C1223.9,78.278 1223.99,78.292 1224.08,78.305C1223.73,78.355 1223.4,78.244 1223.06,78.204C1221.59,77.988 1220.12,77.753 1218.65,77.555C1217.97,77.454 1217.29,77.341 1216.6,77.252C1215.52,77.085 1214.44,76.913 1213.36,76.749L1213.36,76.713C1213.43,76.156 1213.34,75.594 1213.42,75.037L1213.42,75.039Z" style="fill:rgb(153,4,53);fill-rule:nonzero;"/>
    </g>
    <g transform="matrix(1,0,0,1,-1207,-48)">
        <path d="M1232.05,73.65C1233.29,73.069 1234.55,72.49 1235.79,71.898C1235.79,72.257 1235.78,72.615 1235.8,72.974C1234.62,73.537 1233.44,74.087 1232.26,74.647C1232.23,74.651 1232.16,74.658 1232.12,74.661C1232.09,74.348 1232.08,74.033 1232.05,73.72L1232.05,73.65Z" style="fill:rgb(208,208,210);fill-rule:nonzero;"/>
    </g>
    <g transform="matrix(1,0,0,1,-1207,-48)">
        <path d="M1231.07,72.17C1231.36,72.137 1231.65,72.125 1231.94,72.102C1231.97,72.619 1232.01,73.134 1232.05,73.65L1232.05,73.72C1231.66,73.993 1231.4,74.393 1231.07,74.721L1231.07,72.17Z" style="fill:rgb(208,208,210);fill-rule:nonzero;"/>
    </g>
    <g transform="matrix(1,0,0,1,-1207,-48)">
        <path d="M1224.71,72.626C1225.59,72.565 1226.46,72.502 1227.34,72.433C1227.34,73.31 1227.35,74.186 1227.33,75.062C1226.34,75.109 1225.36,75.216 1224.37,75.258C1224.37,74.936 1224.38,74.614 1224.39,74.291C1224.39,74.153 1224.39,74.016 1224.4,73.878C1224.4,73.485 1224.41,73.092 1224.41,72.701C1224.51,72.673 1224.61,72.647 1224.71,72.624L1224.71,72.626Z" style="fill:rgb(208,208,210);fill-rule:nonzero;"/>
    </g>
    <g transform="matrix(1,0,0,1,-1207,-48)">
        <path d="M1220.57,72.201C1220.69,72.219 1220.81,72.233 1220.93,72.248C1220.85,73.151 1220.73,74.049 1220.58,74.943C1220.58,74.03 1220.56,73.115 1220.57,72.201Z" style="fill:rgb(209,18,66);fill-rule:nonzero;"/>
    </g>
    <g transform="matrix(1,0,0,1,-1207,-48)">
        <path d="M1220.58,74.943C1220.73,74.049 1220.85,73.151 1220.93,72.248C1220.93,72.627 1220.93,73.007 1220.94,73.386C1220.95,73.842 1220.92,74.296 1220.94,74.752C1221.21,74.793 1221.49,74.832 1221.76,74.875C1222.43,74.983 1223.11,75.067 1223.78,75.188C1223.35,75.248 1222.91,75.178 1222.48,75.175C1221.97,75.164 1221.46,75.119 1220.95,75.11C1220.94,75.275 1220.95,75.442 1220.91,75.606C1220.82,75.709 1220.69,75.773 1220.58,75.836C1220.56,75.538 1220.55,75.239 1220.58,74.941L1220.58,74.943Z" style="fill:rgb(209,18,66);fill-rule:nonzero;"/>
    </g>
    <g transform="matrix(1,0,0,1,-1207,-48)">
        <path d="M1220.93,72.248C1221.66,72.342 1222.38,72.466 1223.11,72.566C1223.43,72.608 1223.75,72.692 1224.08,72.671C1224.29,72.662 1224.5,72.638 1224.71,72.626C1224.61,72.648 1224.51,72.674 1224.41,72.702C1224.41,73.095 1224.4,73.487 1224.4,73.88C1223.24,73.744 1222.09,73.536 1220.94,73.386C1220.93,73.007 1220.93,72.627 1220.93,72.248Z" style="fill:rgb(136,136,136);fill-rule:nonzero;"/>
    </g>
    <g transform="matrix(1,0,0,1,-1207,-48)">
        <path d="M1241.02,73.003L1241.03,73C1241.01,73.579 1241.02,74.16 1241.02,74.74C1239.09,75.651 1237.17,76.56 1235.24,77.468L1235.24,75.749C1236.29,75.235 1237.35,74.762 1238.4,74.254C1239.27,73.823 1240.16,73.45 1241.02,73.005L1241.02,73.003Z" style="fill:rgb(209,18,66);fill-rule:nonzero;"/>
    </g>
    <g transform="matrix(1,0,0,1,-1207,-48)">
        <path d="M1227.5,73.997C1228.69,73.925 1229.88,73.835 1231.07,73.741C1231.07,74.068 1231.06,74.395 1231.07,74.722L1231.07,74.787C1231.05,75.095 1231.08,75.401 1231.07,75.709C1231.06,75.742 1231.05,75.806 1231.05,75.838C1230.02,75.904 1228.99,75.977 1227.96,76.062C1227.81,76.069 1227.65,76.072 1227.5,76.065C1227.52,75.375 1227.48,74.686 1227.5,73.997Z" style="fill:rgb(153,4,53);fill-rule:nonzero;"/>
    </g>
    <g transform="matrix(1,0,0,1,-1207,-48)">
        <path d="M1231.07,74.72C1231.4,74.393 1231.66,73.991 1232.05,73.72C1232.08,74.033 1232.09,74.348 1232.12,74.661C1232.16,74.658 1232.23,74.651 1232.26,74.647C1231.88,74.781 1231.46,74.726 1231.06,74.785L1231.06,74.72L1231.07,74.72Z" style="fill:rgb(157,150,143);fill-rule:nonzero;"/>
    </g>
    <g transform="matrix(1,0,0,1,-1207,-48)">
        <path d="M1221.85,73.929C1222.7,74.031 1223.54,74.185 1224.39,74.292C1224.38,74.614 1224.38,74.936 1224.37,75.26C1224.17,75.241 1223.98,75.209 1223.78,75.188C1223.11,75.067 1222.44,74.983 1221.76,74.875C1221.78,74.559 1221.81,74.242 1221.85,73.929Z" style="fill:rgb(126,126,126);fill-rule:nonzero;"/>
    </g>
    <g transform="matrix(1,0,0,1,-1207,-48)">
        <path d="M1220.95,75.112C1221.46,75.121 1221.97,75.166 1222.48,75.176C1222.91,75.18 1223.35,75.249 1223.78,75.19C1223.98,75.209 1224.17,75.241 1224.37,75.262C1225.36,75.22 1226.34,75.112 1227.33,75.065C1227.33,75.192 1227.33,75.319 1227.32,75.446C1226.89,75.43 1226.46,75.495 1226.03,75.519C1225.4,75.563 1224.76,75.608 1224.12,75.674C1223.21,75.747 1222.3,75.803 1221.4,75.872C1221.01,75.895 1220.63,75.964 1220.24,75.912C1220.35,75.886 1220.46,75.865 1220.58,75.837C1220.7,75.775 1220.82,75.71 1220.91,75.608C1220.95,75.446 1220.94,75.277 1220.95,75.112Z" style="fill:rgb(226,19,78);fill-rule:nonzero;"/>
    </g>
    <g transform="matrix(1,0,0,1,-1207,-48)">
        <path d="M1231.08,60.63L1224.64,61.115L1225.04,70.19L1298,124.414L1298,58.667L1231.08,60.63Z" style="fill:url(#_Linear1);fill-rule:nonzero;"/>
    </g>
    <g transform="matrix(1,0,0,1,-1207,-48)">
        <path d="M1235.13,157.845L1234.36,142.155L1226.51,142.578L1226.51,158.588L1235.13,157.845Z" style="fill:rgb(153,4,53);fill-rule:nonzero;"/>
    </g>
    <g transform="matrix(1,0,0,1,-1207,-48)">
        <path d="M1235.14,157.853L1234.37,142.163L1226.52,142.584L1226.52,158.594L1235.14,157.853Z" style="fill:rgb(154,4,53);fill-rule:nonzero;"/>
    </g>
    <g transform="matrix(1,0,0,1,-1207,-48)">
        <path d="M1235.16,157.862L1234.39,142.17L1226.53,142.593L1226.53,158.603L1235.16,157.862Z" style="fill:rgb(155,5,54);fill-rule:nonzero;"/>
    </g>
    <g transform="matrix(1,0,0,1,-1207,-48)">
        <path d="M1235.17,157.869L1234.4,142.179L1226.54,142.602L1226.54,158.612L1235.17,157.869Z" style="fill:rgb(156,5,54);fill-rule:nonzero;"/>
    </g>
    <g transform="matrix(1,0,0,1,-1207,-48)">
        <path d="M1235.18,157.878L1234.41,142.188L1226.55,142.609L1226.55,158.619L1235.18,157.878Z" style="fill:rgb(157,5,54);fill-rule:nonzero;"/>
    </g>
    <g transform="matrix(1,0,0,1,-1207,-48)">
        <path d="M1235.19,157.886L1234.42,142.195L1226.57,142.618L1226.57,158.628L1235.19,157.886Z" style="fill:rgb(158,5,54);fill-rule:nonzero;"/>
    </g>
    <g transform="matrix(1,0,0,1,-1207,-48)">
        <path d="M1235.2,157.893L1234.43,142.203L1226.58,142.626L1226.58,158.636L1235.2,157.893Z" style="fill:rgb(160,6,55);fill-rule:nonzero;"/>
    </g>
    <g transform="matrix(1,0,0,1,-1207,-48)">
        <path d="M1235.21,157.902L1234.44,142.212L1226.59,142.633L1226.59,158.643L1235.21,157.902Z" style="fill:rgb(161,6,55);fill-rule:nonzero;"/>
    </g>
    <g transform="matrix(1,0,0,1,-1207,-48)">
        <path d="M1235.22,157.911L1234.45,142.219L1226.6,142.642L1226.6,158.652L1235.22,157.911Z" style="fill:rgb(162,6,55);fill-rule:nonzero;"/>
    </g>
    <g transform="matrix(1,0,0,1,-1207,-48)">
        <path d="M1235.24,157.918L1234.47,142.228L1226.61,142.651L1226.61,158.661L1235.24,157.918Z" style="fill:rgb(163,6,55);fill-rule:nonzero;"/>
    </g>
    <g transform="matrix(1,0,0,1,-1207,-48)">
        <path d="M1235.25,157.926L1234.48,142.237L1226.62,142.658L1226.62,158.668L1235.25,157.926Z" style="fill:rgb(164,7,56);fill-rule:nonzero;"/>
    </g>
    <g transform="matrix(1,0,0,1,-1207,-48)">
        <path d="M1235.26,157.935L1234.49,142.243L1226.63,142.666L1226.63,158.676L1235.26,157.935Z" style="fill:rgb(165,7,56);fill-rule:nonzero;"/>
    </g>
    <g transform="matrix(1,0,0,1,-1207,-48)">
        <path d="M1235.27,157.942L1234.5,142.252L1226.64,142.675L1226.64,158.685L1235.27,157.942Z" style="fill:rgb(166,7,56);fill-rule:nonzero;"/>
    </g>
    <g transform="matrix(1,0,0,1,-1207,-48)">
        <path d="M1235.28,157.951L1234.51,142.261L1226.66,142.682L1226.66,158.692L1235.28,157.951Z" style="fill:rgb(167,8,56);fill-rule:nonzero;"/>
    </g>
    <g transform="matrix(1,0,0,1,-1207,-48)">
        <path d="M1235.29,157.959L1234.52,142.268L1226.67,142.691L1226.67,158.701L1235.29,157.959Z" style="fill:rgb(168,8,57);fill-rule:nonzero;"/>
    </g>
    <g transform="matrix(1,0,0,1,-1207,-48)">
        <path d="M1235.3,157.966L1234.53,142.277L1226.68,142.699L1226.68,158.709L1235.3,157.966Z" style="fill:rgb(169,8,57);fill-rule:nonzero;"/>
    </g>
    <g transform="matrix(1,0,0,1,-1207,-48)">
        <path d="M1235.32,157.975L1234.55,142.285L1226.69,142.706L1226.69,158.716L1235.32,157.975Z" style="fill:rgb(171,8,57);fill-rule:nonzero;"/>
    </g>
    <g transform="matrix(1,0,0,1,-1207,-48)">
        <path d="M1235.33,157.984L1234.56,142.292L1226.7,142.715L1226.7,158.725L1235.33,157.984Z" style="fill:rgb(172,9,57);fill-rule:nonzero;"/>
    </g>
    <g transform="matrix(1,0,0,1,-1207,-48)">
        <path d="M1235.34,157.991L1234.57,142.301L1226.71,142.724L1226.71,158.734L1235.34,157.991Z" style="fill:rgb(173,9,58);fill-rule:nonzero;"/>
    </g>
    <g transform="matrix(1,0,0,1,-1207,-48)">
        <path d="M1235.35,157.999L1234.58,142.308L1226.72,142.731L1226.72,158.741L1235.35,157.999Z" style="fill:rgb(174,9,58);fill-rule:nonzero;"/>
    </g>
    <g transform="matrix(1,0,0,1,-1207,-48)">
        <path d="M1235.36,158.008L1234.59,142.317L1226.74,142.739L1226.74,158.749L1235.36,158.008Z" style="fill:rgb(175,9,58);fill-rule:nonzero;"/>
    </g>
    <g transform="matrix(1,0,0,1,-1207,-48)">
        <path d="M1235.37,158.015L1234.6,142.325L1226.75,142.748L1226.75,158.756L1235.37,158.015Z" style="fill:rgb(176,10,58);fill-rule:nonzero;"/>
    </g>
    <g transform="matrix(1,0,0,1,-1207,-48)">
        <path d="M1235.38,158.024L1234.61,142.332L1226.76,142.755L1226.76,158.765L1235.38,158.024Z" style="fill:rgb(177,10,59);fill-rule:nonzero;"/>
    </g>
    <g transform="matrix(1,0,0,1,-1207,-48)">
        <path d="M1235.4,158.033L1234.62,142.341L1226.77,142.764L1226.77,158.774L1235.4,158.033Z" style="fill:rgb(178,10,59);fill-rule:nonzero;"/>
    </g>
    <g transform="matrix(1,0,0,1,-1207,-48)">
        <path d="M1235.41,158.039L1234.64,142.35L1226.78,142.772L1226.78,158.781L1235.41,158.039Z" style="fill:rgb(179,11,59);fill-rule:nonzero;"/>
    </g>
    <g transform="matrix(1,0,0,1,-1207,-48)">
        <path d="M1235.42,158.048L1234.65,142.356L1226.79,142.779L1226.79,158.789L1235.42,158.048Z" style="fill:rgb(180,11,59);fill-rule:nonzero;"/>
    </g>
    <g transform="matrix(1,0,0,1,-1207,-48)">
        <path d="M1235.43,158.057L1234.66,142.365L1226.8,142.788L1226.8,158.798L1235.43,158.057Z" style="fill:rgb(182,11,60);fill-rule:nonzero;"/>
    </g>
    <g transform="matrix(1,0,0,1,-1207,-48)">
        <path d="M1235.44,158.064L1234.67,142.374L1226.82,142.797L1226.82,158.805L1235.44,158.064Z" style="fill:rgb(183,11,60);fill-rule:nonzero;"/>
    </g>
    <g transform="matrix(1,0,0,1,-1207,-48)">
        <path d="M1235.45,158.073L1234.68,142.381L1226.83,142.804L1226.83,158.814L1235.45,158.073Z" style="fill:rgb(184,12,60);fill-rule:nonzero;"/>
    </g>
    <g transform="matrix(1,0,0,1,-1207,-48)">
        <path d="M1235.46,158.081L1234.69,142.39L1226.84,142.812L1226.84,158.822L1235.46,158.081Z" style="fill:rgb(185,12,60);fill-rule:nonzero;"/>
    </g>
    <g transform="matrix(1,0,0,1,-1207,-48)">
        <path d="M1235.48,158.088L1234.7,142.398L1226.85,142.821L1226.85,158.829L1235.48,158.088Z" style="fill:rgb(186,12,61);fill-rule:nonzero;"/>
    </g>
    <g transform="matrix(1,0,0,1,-1207,-48)">
        <path d="M1235.49,158.097L1234.71,142.405L1226.86,142.828L1226.86,158.838L1235.49,158.097Z" style="fill:rgb(187,13,61);fill-rule:nonzero;"/>
    </g>
    <g transform="matrix(1,0,0,1,-1207,-48)">
        <path d="M1235.5,158.104L1234.73,142.414L1226.87,142.837L1226.87,158.847L1235.5,158.104Z" style="fill:rgb(188,13,61);fill-rule:nonzero;"/>
    </g>
    <g transform="matrix(1,0,0,1,-1207,-48)">
        <path d="M1235.51,158.112L1234.74,142.423L1226.88,142.845L1226.88,158.854L1235.51,158.112Z" style="fill:rgb(189,13,61);fill-rule:nonzero;"/>
    </g>
    <g transform="matrix(1,0,0,1,-1207,-48)">
        <path d="M1235.52,158.121L1234.75,142.43L1226.9,142.852L1226.9,158.862L1235.52,158.121Z" style="fill:rgb(190,13,62);fill-rule:nonzero;"/>
    </g>
    <g transform="matrix(1,0,0,1,-1207,-48)">
        <path d="M1235.53,158.128L1234.76,142.438L1226.91,142.861L1226.91,158.871L1235.53,158.128Z" style="fill:rgb(191,14,62);fill-rule:nonzero;"/>
    </g>
    <g transform="matrix(1,0,0,1,-1207,-48)">
        <path d="M1235.54,158.137L1234.77,142.447L1226.92,142.87L1226.92,158.878L1235.54,158.137Z" style="fill:rgb(193,14,62);fill-rule:nonzero;"/>
    </g>
    <g transform="matrix(1,0,0,1,-1207,-48)">
        <path d="M1235.56,158.145L1234.78,142.454L1226.93,142.877L1226.93,158.887L1235.56,158.145Z" style="fill:rgb(194,14,62);fill-rule:nonzero;"/>
    </g>
    <g transform="matrix(1,0,0,1,-1207,-48)">
        <path d="M1235.57,158.153L1234.79,142.463L1226.94,142.885L1226.94,158.895L1235.57,158.153Z" style="fill:rgb(195,14,63);fill-rule:nonzero;"/>
    </g>
    <g transform="matrix(1,0,0,1,-1207,-48)">
        <path d="M1235.58,158.161L1234.81,142.471L1226.95,142.894L1226.95,158.902L1235.58,158.161Z" style="fill:rgb(196,15,63);fill-rule:nonzero;"/>
    </g>
    <g transform="matrix(1,0,0,1,-1207,-48)">
        <path d="M1235.59,158.17L1234.82,142.479L1226.96,142.901L1226.96,158.911L1235.59,158.17Z" style="fill:rgb(197,15,63);fill-rule:nonzero;"/>
    </g>
    <g transform="matrix(1,0,0,1,-1207,-48)">
        <path d="M1235.6,158.177L1234.83,142.487L1226.98,142.91L1226.98,158.92L1235.6,158.177Z" style="fill:rgb(198,15,63);fill-rule:nonzero;"/>
    </g>
    <g transform="matrix(1,0,0,1,-1207,-48)">
        <path d="M1235.61,158.186L1234.84,142.496L1226.99,142.919L1226.99,158.927L1235.61,158.186Z" style="fill:rgb(199,16,64);fill-rule:nonzero;"/>
    </g>
    <g transform="matrix(1,0,0,1,-1207,-48)">
        <path d="M1235.62,158.194L1234.85,142.503L1227,142.925L1227,158.935L1235.62,158.194Z" style="fill:rgb(200,16,64);fill-rule:nonzero;"/>
    </g>
    <g transform="matrix(1,0,0,1,-1207,-48)">
        <path d="M1235.63,158.201L1234.86,142.511L1227.01,142.934L1227.01,158.944L1235.63,158.201Z" style="fill:rgb(201,16,64);fill-rule:nonzero;"/>
    </g>
    <g transform="matrix(1,0,0,1,-1207,-48)">
        <path d="M1235.65,158.21L1234.87,142.52L1227.02,142.943L1227.02,158.951L1235.65,158.21Z" style="fill:rgb(202,16,64);fill-rule:nonzero;"/>
    </g>
    <g transform="matrix(1,0,0,1,-1207,-48)">
        <path d="M1235.66,158.219L1234.89,142.527L1227.03,142.95L1227.03,158.96L1235.66,158.219Z" style="fill:rgb(204,17,65);fill-rule:nonzero;"/>
    </g>
    <g transform="matrix(1,0,0,1,-1207,-48)">
        <path d="M1235.67,158.226L1234.9,142.536L1227.04,142.959L1227.04,158.969L1235.67,158.226Z" style="fill:rgb(205,17,65);fill-rule:nonzero;"/>
    </g>
    <g transform="matrix(1,0,0,1,-1207,-48)">
        <path d="M1235.68,158.234L1234.91,142.544L1227.06,142.967L1227.06,158.975L1235.68,158.234Z" style="fill:rgb(206,17,65);fill-rule:nonzero;"/>
    </g>
    <g transform="matrix(1,0,0,1,-1207,-48)">
        <path d="M1235.69,158.243L1234.92,142.552L1227.07,142.974L1227.07,158.984L1235.69,158.243Z" style="fill:rgb(207,17,65);fill-rule:nonzero;"/>
    </g>
    <g transform="matrix(1,0,0,1,-1207,-48)">
        <path d="M1235.7,158.25L1234.93,142.56L1227.08,142.983L1227.08,158.993L1235.7,158.25Z" style="fill:rgb(208,18,66);fill-rule:nonzero;"/>
    </g>
    <g transform="matrix(1,0,0,1,-1207,-48)">
        <path d="M1235.71,158.259L1234.94,142.569L1227.09,142.992L1227.09,159L1235.71,158.259Z" style="fill:rgb(209,18,66);fill-rule:nonzero;"/>
    </g>
    <g transform="matrix(1,0,0,1,-1207,-48)">
        <path d="M1235.14,158.377L1234.45,143.616L1227.48,143.987L1227.57,158.998L1235.14,158.377Z" style="fill:rgb(127,6,50);fill-rule:nonzero;"/>
    </g>
    <g transform="matrix(1,0,0,1,-1207,-48)">
        <path d="M1227.57,158.711L1227.48,144.018L1234.07,143.665L1234.72,158.175L1227.57,158.711Z" style="fill:rgb(85,85,96);fill-rule:nonzero;"/>
    </g>
    <g transform="matrix(1,0,0,1,-1207,-48)">
        <g opacity="0.2">
            <path d="M1230.59,155.74L1227.55,156.051L1227.48,144.018L1230.34,143.865L1230.59,155.74Z" style="fill:rgb(0,66,120);fill-rule:nonzero;"/>
        </g>
    </g>
    <g transform="matrix(1,0,0,1,-1207,-48)">
        <path d="M1234.72,158.175L1230.59,155.74L1227.55,155.851L1227.57,158.711" style="fill:rgb(100,100,109);fill-rule:nonzero;"/>
    </g>
    <defs>
        <linearGradient id="_Linear1" x1="0" y1="0" x2="1" y2="0" gradientUnits="userSpaceOnUse" gradientTransform="matrix(-73.36,8.98401e-15,-8.98401e-15,-73.36,1298,91.5395)"><stop offset="0" style="stop-color:white;stop-opacity:0"/><stop offset="0.19" style="stop-color:white;stop-opacity:0"/><stop offset="1" style="stop-color:white;stop-opacity:1"/></linearGradient>
    </defs>
</svg>
