<?xml version="1.0" encoding="UTF-8" standalone="no"?>
<!DOCTYPE svg PUBLIC "-//W3C//DTD SVG 1.1//EN" "http://www.w3.org/Graphics/SVG/1.1/DTD/svg11.dtd">
<svg width="100%" height="100%" viewBox="0 0 84 101" version="1.1" xmlns="http://www.w3.org/2000/svg" xmlns:xlink="http://www.w3.org/1999/xlink" xml:space="preserve" xmlns:serif="http://www.serif.com/" style="fill-rule:evenodd;clip-rule:evenodd;stroke-linejoin:round;stroke-miterlimit:2;">
    <g transform="matrix(1,0,0,1,-2244.62,-64.2918)">
        <path d="M2298.84,98.542C2298.96,98.296 2299.2,98.168 2299.4,98C2300.83,96.749 2302.28,95.509 2303.71,94.265C2303.8,94.195 2303.88,94.129 2303.99,94.109C2304.39,93.674 2304.86,93.318 2305.31,92.931C2307.29,91.214 2309.29,89.504 2311.27,87.79C2311.32,87.752 2311.35,87.702 2311.38,87.656C2311.34,87.603 2311.29,87.552 2311.25,87.493C2310.7,86.602 2310.15,85.706 2309.58,84.82C2309.38,84.505 2309.23,84.149 2308.91,83.924C2308.83,84.024 2308.73,84.013 2308.62,83.979C2308.02,83.802 2307.41,83.634 2306.81,83.458C2306.41,83.342 2306.02,83.237 2305.6,83.373C2305.27,83.477 2304.93,83.527 2304.59,83.585C2304.13,83.663 2303.7,83.797 2303.31,84.081C2302.68,84.542 2302.02,84.954 2301.37,85.383C2300.94,85.663 2300.52,85.949 2300.09,86.214C2299.69,86.461 2299.37,86.786 2299.09,87.156C2298.78,87.573 2298.5,88.009 2298.19,88.428C2297.8,88.96 2297.36,89.46 2297.02,90.033C2296.89,90.255 2296.75,90.477 2296.54,90.65C2296.44,90.738 2296.38,90.876 2296.32,91.009C2296.15,91.387 2296,91.77 2295.8,92.132C2295.52,92.663 2295.29,93.221 2295.02,93.757C2294.56,94.669 2294.17,95.618 2293.74,96.549C2293.68,96.673 2293.61,96.778 2293.45,96.752C2293.43,96.82 2293.43,96.915 2293.39,96.952C2293.16,97.135 2293.05,97.408 2292.86,97.617C2292.38,98.154 2291.97,98.741 2291.52,99.305C2291.12,99.814 2290.7,100.304 2290.31,100.826C2290.15,101.051 2289.99,101.301 2289.79,101.491C2289.49,101.768 2289.31,102.131 2289.04,102.43C2288.78,102.715 2288.56,103.047 2288.31,103.341C2287.91,103.815 2287.53,104.312 2287.14,104.798C2286.73,105.312 2286.28,105.805 2285.92,106.355C2285.87,106.421 2285.84,106.52 2285.73,106.491C2285.62,106.46 2285.66,106.36 2285.66,106.281C2285.65,105.936 2285.72,105.597 2285.74,105.255C2285.79,104.523 2285.83,103.791 2285.89,103.06C2285.94,102.258 2286.03,101.458 2286.07,100.654C2286.09,100.382 2286.14,100.112 2286.13,99.84C2286.13,99.583 2286.08,99.54 2285.84,99.63C2285.65,99.701 2285.45,99.733 2285.26,99.802C2284.54,100.066 2283.8,100.266 2283.07,100.496C2282.34,100.727 2281.61,100.958 2280.87,101.171C2279.69,101.51 2278.53,101.909 2277.36,102.283C2277.27,102.313 2277.18,102.326 2277.09,102.268C2276.58,102.736 2276.14,103.282 2275.67,103.786C2275.19,104.29 2274.74,104.817 2274.27,105.328C2273.92,105.711 2273.56,106.086 2273.21,106.465C2272.85,106.861 2272.48,107.257 2272.11,107.656C2271.67,108.132 2271.24,108.608 2270.8,109.088C2270.34,109.603 2269.88,110.123 2269.41,110.638C2269.05,111.037 2268.68,111.431 2268.31,111.829C2267.84,112.338 2267.36,112.838 2266.9,113.36C2266.58,113.722 2266.22,114.045 2265.97,114.47L2265.97,114.715C2266,114.754 2266.01,114.794 2265.98,114.837L2265.98,114.832C2266.03,114.885 2266.04,114.938 2265.98,114.993L2265.99,114.989C2266.11,115.083 2266.07,115.226 2266.09,115.349C2266.47,118.002 2266.85,120.656 2267.23,123.308C2267.5,125.257 2267.78,127.206 2268.06,129.154C2268.09,129.311 2268.09,129.458 2268.01,129.604C2267.86,129.923 2267.71,130.245 2267.56,130.567C2266.99,131.804 2266.43,133.043 2265.85,134.276C2265.68,134.65 2265.53,135.042 2265.31,135.392C2265.28,135.544 2265.36,135.669 2265.41,135.8C2266.88,139.707 2268.35,143.615 2269.82,147.523C2269.85,147.623 2269.89,147.724 2269.92,147.825C2270.12,148.12 2270.31,148.413 2270.5,148.712C2271.01,149.513 2271.51,150.317 2272.01,151.118C2272.75,152.289 2273.48,153.462 2274.23,154.627C2274.39,154.883 2274.51,155.174 2274.76,155.367C2274.71,154.907 2274.58,154.468 2274.46,154.021C2274.07,152.438 2273.7,150.85 2273.32,149.265C2273.14,148.542 2272.96,147.82 2272.79,147.098C2272.43,143.776 2272.07,140.454 2271.71,137.133C2271.7,137.003 2271.7,136.875 2271.72,136.746C2271.98,135.148 2272.23,133.549 2272.49,131.949C2272.5,131.892 2272.53,131.837 2272.54,131.781C2272.55,131.446 2272.62,131.122 2272.7,130.798C2272.71,130.436 2272.78,130.081 2272.86,129.73C2272.87,129.277 2272.99,128.839 2273.06,128.395C2273.15,127.775 2273.23,127.152 2273.37,126.539C2273.32,126.061 2273.63,125.747 2273.89,125.413C2273.99,125.273 2274.11,125.137 2274.21,124.995C2274.84,124.15 2275.47,123.303 2276.12,122.476C2276.35,122.189 2276.55,121.885 2276.78,121.598C2277.16,121.115 2277.51,120.603 2277.88,120.112C2278.42,119.396 2278.98,118.695 2279.52,117.971C2279.81,117.571 2280.11,117.175 2280.41,116.778C2280.63,116.484 2280.85,116.191 2281.08,115.902C2281.13,115.837 2281.2,115.793 2281.26,115.739C2281.62,115.119 2282.09,114.585 2282.51,114.013C2283.37,112.846 2284.24,111.694 2285.13,110.548C2285.43,110.156 2285.7,109.737 2286.08,109.408C2289.83,106.216 2293.57,103.011 2297.32,99.817C2297.82,99.389 2298.3,98.93 2298.84,98.543L2298.84,98.542Z" style="fill:rgb(150,24,42);fill-rule:nonzero;"/>
    </g>
    <g transform="matrix(1,0,0,1,-2244.62,-64.2918)">
        <path d="M2328.08,70.714C2328.06,70.868 2328.03,71.018 2327.98,71.163C2327.77,71.782 2327.57,72.402 2327.36,73.019C2327.32,73.153 2327.27,73.286 2327.18,73.403C2326.77,73.956 2326.36,74.504 2325.96,75.069C2325.4,75.877 2324.78,76.642 2324.26,77.48C2323.58,78.569 2322.9,79.658 2322.24,80.756C2322.07,81.035 2321.87,81.268 2321.61,81.463C2320.87,82.016 2320.14,82.588 2319.4,83.139C2318.89,83.52 2318.4,83.936 2317.83,84.235C2315.78,85.304 2313.73,86.391 2311.69,87.473C2311.59,87.528 2311.49,87.596 2311.39,87.657C2311.34,87.603 2311.29,87.553 2311.25,87.494C2310.7,86.602 2310.15,85.706 2309.58,84.82C2309.38,84.505 2309.23,84.149 2308.91,83.925C2308.77,83.789 2308.64,83.654 2308.5,83.519C2308.49,83.226 2308.51,82.93 2308.48,82.638C2308.42,82.085 2308.57,81.592 2308.87,81.136C2308.99,80.959 2309.1,80.776 2309.22,80.602C2309.82,79.749 2310.27,78.799 2310.88,77.953C2310.9,77.927 2310.93,77.896 2310.88,77.84C2310.7,77.882 2310.52,77.977 2310.34,78.055C2309.6,78.396 2308.84,78.688 2308.09,79.005C2307.35,79.317 2306.61,79.622 2305.87,79.94C2305.73,79.999 2305.56,80.018 2305.49,80.18C2305.45,80.158 2305.41,80.134 2305.37,80.111C2305.42,79.991 2305.52,79.94 2305.63,79.887C2307.18,79.116 2308.74,78.345 2310.29,77.576C2310.35,77.55 2310.4,77.521 2310.42,77.464L2310.44,77.463C2310.47,77.481 2310.49,77.475 2310.52,77.444C2311.17,77.12 2311.83,76.797 2312.49,76.472C2312.62,76.41 2312.74,76.339 2312.86,76.272C2313.84,75.813 2314.79,75.306 2315.74,74.813C2316.16,74.596 2316.6,74.398 2316.99,74.145C2317.33,73.927 2317.75,73.898 2318.07,73.626C2318.39,73.352 2318.77,73.134 2319.12,72.893C2319.46,72.649 2319.81,72.406 2320.16,72.163C2322,70.886 2323.84,69.609 2325.67,68.336C2325.88,68.193 2326.08,68.046 2326.21,67.83C2326.54,67.482 2326.84,67.107 2327.11,66.711C2327.35,66.556 2327.63,66.459 2327.89,66.354C2328.06,66.288 2328.26,66.263 2328.37,66.085L2328.47,67.537C2328.34,68.596 2328.21,69.655 2328.08,70.714L2328.08,70.714Z" style="fill:rgb(230,43,91);fill-rule:nonzero;"/>
    </g>
    <g transform="matrix(1,0,0,1,-2244.62,-64.2918)">
        <path d="M2265.98,114.469C2266.22,114.044 2266.59,113.721 2266.9,113.359C2267.36,112.838 2267.84,112.337 2268.31,111.828C2268.68,111.431 2269.05,111.038 2269.41,110.637C2269.88,110.123 2270.34,109.603 2270.8,109.087C2271.24,108.608 2271.68,108.132 2272.11,107.655C2272.48,107.257 2272.85,106.862 2273.22,106.464C2273.57,106.085 2273.92,105.71 2274.27,105.328C2274.74,104.816 2275.19,104.289 2275.67,103.785C2276.15,103.281 2276.58,102.736 2277.09,102.268C2277.19,102.13 2277.29,102.006 2277.41,101.884C2277.64,101.634 2277.89,101.398 2278.04,101.077C2278.26,100.587 2278.51,100.102 2278.76,99.623C2278.98,99.194 2279.2,98.764 2279.41,98.327C2279.69,97.73 2279.97,97.133 2280.29,96.556C2280.57,96.028 2280.83,95.484 2281.13,94.961C2281.25,94.748 2281.39,94.535 2281.47,94.302C2281.62,93.848 2281.86,93.435 2282.09,93.036C2282.46,92.425 2282.64,91.732 2283.04,91.135C2283.2,90.894 2283.37,90.621 2283.45,90.316C2283.49,90.175 2283.6,90.034 2283.71,89.935C2283.89,89.775 2284.01,89.572 2284.14,89.378C2284.2,89.3 2284.24,89.207 2284.31,89.146C2284.65,88.858 2284.83,88.447 2285.12,88.124C2285.38,87.841 2285.61,87.513 2285.85,87.21C2286.21,86.758 2286.53,86.272 2286.91,85.839C2287.15,85.563 2287.35,85.252 2287.58,84.97C2287.9,84.578 2288.24,84.202 2288.52,83.777C2288.57,83.707 2288.61,83.633 2288.67,83.573C2289.15,83.058 2289.53,82.452 2290,81.921C2290.39,81.469 2290.73,80.968 2291.1,80.495C2291.54,79.929 2292.03,79.394 2292.42,78.782C2292.45,78.733 2292.48,78.685 2292.52,78.641C2292.82,78.307 2293.13,77.978 2293.36,77.593C2293.52,77.324 2293.77,77.135 2293.94,76.875C2293.99,76.798 2294.08,76.75 2294.18,76.746C2294.31,76.575 2294.39,76.372 2294.61,76.283C2294.84,76.188 2295.06,76.084 2295.29,75.979C2296.39,75.47 2297.49,74.964 2298.6,74.449C2299.86,73.86 2301.12,73.265 2302.38,72.671C2302.46,72.633 2302.53,72.6 2302.61,72.657C2302.67,72.661 2302.71,72.625 2302.74,72.58C2302.77,72.57 2302.81,72.561 2302.84,72.551C2303.14,72.401 2303.45,72.258 2303.73,72.067C2303.94,71.927 2304.15,71.825 2304.39,71.779C2304.45,71.737 2304.51,71.714 2304.58,71.732L2304.57,71.732C2304.61,71.681 2304.65,71.655 2304.71,71.672C2304.74,71.666 2304.76,71.673 2304.77,71.692L2304.77,71.694C2304.8,71.638 2304.84,71.604 2304.91,71.611L2304.91,71.612C2305.01,71.519 2305.14,71.491 2305.26,71.443C2307.9,70.38 2310.54,69.319 2313.18,68.258C2315.49,67.329 2317.81,66.406 2320.12,65.469C2320.65,65.251 2321.21,65.072 2321.72,64.796C2321.65,64.714 2321.57,64.757 2321.5,64.781C2321.36,64.82 2321.22,64.883 2321.09,64.778C2321.02,64.755 2321,64.805 2320.97,64.855C2320.94,64.905 2320.9,64.952 2320.84,64.97C2320.35,65.126 2319.85,65.281 2319.35,65.436C2318.9,65.576 2318.45,65.712 2318,65.851C2317.64,65.964 2317.28,66.081 2316.92,66.192C2316.29,66.385 2315.65,66.571 2315.02,66.765C2314.3,66.987 2313.58,67.216 2312.86,67.438C2312.27,67.618 2311.68,67.79 2311.09,67.97C2310.52,68.148 2309.95,68.332 2309.37,68.513C2308.78,68.701 2308.18,68.902 2307.58,69.067C2307.34,69.132 2307.11,69.298 2306.84,69.214C2306.81,69.236 2306.79,69.236 2306.8,69.211C2306.8,69.209 2306.83,69.213 2306.84,69.213C2306.97,69.053 2307.24,69.074 2307.33,68.841C2307.19,68.837 2307.07,68.906 2306.95,68.951C2303.27,70.321 2299.59,71.696 2295.91,73.062C2295.64,73.158 2295.42,73.294 2295.22,73.488C2293.24,75.41 2291.25,77.327 2289.27,79.244C2286.97,81.456 2284.67,83.662 2282.38,85.878C2282.08,86.164 2281.75,86.419 2281.57,86.816C2281.11,87.844 2280.64,88.865 2280.17,89.888C2279.68,90.955 2279.2,92.024 2278.71,93.091C2278.23,94.148 2277.75,95.208 2277.26,96.261C2277,96.818 2276.79,97.4 2276.46,97.925L2276.46,97.918L2276.48,98.004C2276.39,98.221 2276.49,98.425 2276.53,98.628C2276.58,98.831 2276.55,98.998 2276.41,99.15C2276.41,99.302 2276.31,99.371 2276.2,99.441C2275.68,99.747 2275.16,100.061 2274.65,100.37C2274.52,100.443 2274.4,100.509 2274.32,100.636C2273.93,101.243 2273.55,101.861 2273.18,102.48C2272.56,103.515 2271.93,104.542 2271.31,105.58C2270.64,106.699 2269.96,107.81 2269.28,108.923C2268.74,109.802 2268.2,110.678 2267.66,111.556C2267.62,111.626 2267.58,111.702 2267.54,111.774C2267.05,112.581 2266.55,113.389 2266.06,114.196C2266.03,114.286 2265.92,114.355 2265.98,114.47L2265.98,114.469Z" style="fill:rgb(173,24,48);fill-rule:nonzero;"/>
    </g>
    <g transform="matrix(1,0,0,1,-2244.62,-64.2918)">
        <path d="M2276.46,97.926C2276.79,97.4 2277,96.82 2277.26,96.261C2277.75,95.209 2278.23,94.15 2278.71,93.092C2279.19,92.024 2279.68,90.956 2280.17,89.888C2280.63,88.865 2281.11,87.843 2281.57,86.816C2281.75,86.419 2282.08,86.165 2282.38,85.879C2284.67,83.663 2286.97,81.457 2289.26,79.244C2291.25,77.328 2293.24,75.409 2295.22,73.488C2295.42,73.294 2295.64,73.16 2295.9,73.062C2299.59,71.696 2303.27,70.321 2306.95,68.951C2307.07,68.906 2307.19,68.837 2307.32,68.842L2307.32,68.844C2307.36,68.797 2307.41,68.774 2307.47,68.782C2307.64,68.712 2307.81,68.636 2307.98,68.57C2308.72,68.291 2309.47,68.006 2310.21,67.737C2311.12,67.407 2312.02,67.027 2312.95,66.743C2313.98,66.429 2315.03,66.207 2316.08,65.949C2316.21,65.915 2316.37,65.92 2316.46,65.789C2316.39,65.756 2316.32,65.769 2316.25,65.773C2314.73,65.845 2313.23,66.027 2311.72,66.191C2310.26,66.35 2308.79,66.515 2307.33,66.667C2306.84,66.717 2306.39,66.925 2305.94,67.091C2302.81,68.234 2299.68,69.384 2296.55,70.531C2295.97,70.744 2295.39,70.955 2294.81,71.165C2294.62,71.235 2294.44,71.328 2294.27,71.447C2292.58,72.662 2290.88,73.874 2289.18,75.086C2288.74,75.398 2288.4,75.81 2288.02,76.186C2286.54,77.665 2285.06,79.153 2283.58,80.637C2283.36,80.82 2283.21,81.068 2282.96,81.216C2282.91,81.282 2282.87,81.355 2282.81,81.413C2282.36,81.866 2281.91,82.314 2281.46,82.766C2280.46,83.77 2279.46,84.775 2278.46,85.78C2278.42,85.852 2278.38,85.924 2278.34,85.996C2277.77,86.912 2277.18,87.816 2276.65,88.748C2276.18,89.546 2275.66,90.307 2275.22,91.119C2275.24,91.199 2275.27,91.277 2275.28,91.358C2275.47,92.516 2275.67,93.676 2275.86,94.834C2276.03,95.805 2276.2,96.775 2276.36,97.745C2276.38,97.817 2276.39,97.885 2276.46,97.926L2276.46,97.926Z" style="fill:rgb(237,120,156);fill-rule:nonzero;"/>
    </g>
    <g transform="matrix(1,0,0,1,-2244.62,-64.2918)">
        <path d="M2274.32,100.636C2274.39,100.509 2274.52,100.444 2274.64,100.37C2275.16,100.061 2275.67,99.747 2276.19,99.441C2276.31,99.372 2276.41,99.302 2276.41,99.15C2276.18,99.191 2275.98,99.307 2275.73,99.287C2274.2,99.164 2272.67,99.063 2271.15,98.959C2269.17,98.825 2267.2,98.696 2265.22,98.562C2263.36,98.438 2261.5,98.313 2259.65,98.178C2259.43,98.162 2259.2,98.191 2258.98,98.094C2255.17,99.027 2251.36,99.96 2247.55,100.894C2247.53,101.023 2247.63,101.03 2247.69,101.072C2248.63,101.747 2249.66,102.166 2250.8,102.38C2252.32,102.661 2253.81,103.047 2255.31,103.392C2255.52,103.441 2255.73,103.458 2255.94,103.448C2260.71,103.241 2265.47,103.037 2270.23,102.834C2270.32,102.83 2270.4,102.833 2270.48,102.832C2270.61,102.767 2270.73,102.707 2270.86,102.635C2271.9,102.013 2272.95,101.39 2274,100.768C2274.09,100.71 2274.18,100.612 2274.31,100.635L2274.32,100.636Z" style="fill:rgb(150,24,42);fill-rule:nonzero;"/>
    </g>
    <g transform="matrix(1,0,0,1,-2244.62,-64.2918)">
        <path d="M2302.73,72.581C2302.7,72.626 2302.67,72.662 2302.61,72.658C2302.53,72.713 2302.46,72.774 2302.38,72.819C2301.05,73.569 2299.74,74.36 2298.4,75.089C2297.5,75.574 2296.63,76.102 2295.75,76.61C2295.65,76.669 2295.54,76.726 2295.49,76.838C2296.21,76.871 2296.93,76.91 2297.65,76.935C2298.69,76.971 2299.73,77.047 2300.78,77.076C2301.09,77.085 2301.36,77.031 2301.64,76.921C2301.91,76.811 2302.19,76.702 2302.46,76.593C2303.87,76.034 2305.27,75.467 2306.67,74.899C2308.05,74.34 2309.43,73.773 2310.81,73.215C2311.59,72.901 2312.37,72.607 2313.15,72.295C2314.63,71.7 2316.11,71.099 2317.59,70.502C2319.06,69.909 2320.53,69.318 2322,68.726C2323.21,68.239 2324.41,67.737 2325.62,67.268C2326.11,67.077 2326.58,66.816 2327.11,66.708C2327.35,66.552 2327.62,66.455 2327.89,66.35C2328.06,66.285 2328.26,66.26 2328.36,66.081C2328.36,66.07 2328.37,66.057 2328.36,66.047C2328.24,65.558 2327.95,65.212 2327.49,65.008C2327.35,64.947 2327.21,64.89 2327.07,64.83C2326.7,64.954 2326.35,65.102 2325.97,65.204C2325.6,65.304 2325.24,65.436 2324.87,65.543C2324.44,65.667 2324.02,65.822 2323.59,65.941C2323.2,66.051 2322.82,66.199 2322.42,66.298C2321.97,66.41 2321.53,66.577 2321.08,66.716C2320.7,66.833 2320.32,66.942 2319.94,67.06C2319.49,67.198 2319.05,67.342 2318.6,67.482C2318.2,67.608 2317.79,67.714 2317.39,67.849C2316.83,68.042 2316.26,68.219 2315.69,68.378C2315.17,68.521 2314.66,68.67 2314.15,68.826C2311.16,69.742 2308.16,70.671 2305.17,71.596C2305.09,71.623 2305,71.682 2304.9,71.613L2304.91,71.612C2304.88,71.673 2304.83,71.701 2304.77,71.694L2304.77,71.693C2304.74,71.715 2304.71,71.733 2304.68,71.708C2304.65,71.746 2304.61,71.756 2304.57,71.733L2304.57,71.733C2304.53,71.818 2304.47,71.827 2304.39,71.78C2304.15,71.825 2303.93,71.928 2303.73,72.068C2303.45,72.259 2303.14,72.401 2302.84,72.551C2302.8,72.561 2302.77,72.57 2302.73,72.58L2302.73,72.581Z" style="fill:rgb(190,22,53);fill-rule:nonzero;"/>
    </g>
    <g transform="matrix(1,0,0,1,-2244.62,-64.2918)">
        <path d="M2258.98,98.095C2259.2,98.192 2259.43,98.164 2259.65,98.179C2261.5,98.314 2263.36,98.438 2265.22,98.564C2267.2,98.697 2269.17,98.826 2271.15,98.96C2272.67,99.065 2274.2,99.165 2275.72,99.288C2275.98,99.308 2276.18,99.192 2276.41,99.151C2276.55,98.999 2276.58,98.834 2276.53,98.629C2276.48,98.427 2276.39,98.223 2276.47,98.005C2276.47,97.976 2276.46,97.947 2276.46,97.92L2276.46,97.927C2276.39,97.887 2276.37,97.817 2276.36,97.746C2276.19,96.775 2276.02,95.806 2275.86,94.835C2275.66,93.676 2275.47,92.518 2275.28,91.359C2275.26,91.278 2275.24,91.198 2275.21,91.119C2274.29,91.509 2273.39,91.961 2272.47,92.384C2271.19,92.977 2269.93,93.604 2268.64,94.171C2267.42,94.704 2266.18,95.179 2264.95,95.676C2263.05,96.438 2261.16,97.197 2259.27,97.96C2259.17,97.999 2259.08,98.05 2258.98,98.096L2258.98,98.095Z" style="fill:rgb(217,25,74);fill-rule:nonzero;"/>
    </g>
    <g transform="matrix(1,0,0,1,-2244.62,-64.2918)">
        <path d="M2278.46,85.781C2279.46,84.776 2280.46,83.771 2281.45,82.767C2281.9,82.315 2282.36,81.866 2282.81,81.414C2282.86,81.356 2282.91,81.283 2282.96,81.217C2282.74,81.048 2282.48,80.954 2282.25,80.815C2281.72,80.501 2281.2,80.161 2280.67,79.847C2280.15,79.537 2279.62,79.285 2279.03,79.108C2276.73,78.415 2274.44,77.689 2272.15,76.979C2271.85,76.888 2271.57,76.779 2271.31,76.6C2271.04,76.409 2270.76,76.214 2270.47,76.065C2269.71,75.68 2269.04,75.133 2268.27,74.76C2268.18,74.83 2268.24,74.912 2268.26,74.986C2268.45,75.782 2268.65,76.576 2268.84,77.373C2268.88,77.515 2268.94,77.637 2269.01,77.759C2269.75,78.931 2270.49,80.104 2271.23,81.28C2271.33,81.436 2271.45,81.549 2271.61,81.643C2273.8,82.968 2275.99,84.298 2278.18,85.627C2278.26,85.618 2278.31,85.664 2278.35,85.73C2278.39,85.748 2278.42,85.765 2278.46,85.781L2278.46,85.781Z" style="fill:rgb(150,24,42);fill-rule:nonzero;"/>
    </g>
    <g transform="matrix(1,0,0,1,-2244.62,-64.2918)">
        <path d="M2274.76,155.367C2274.51,155.173 2274.39,154.882 2274.23,154.626C2273.48,153.462 2272.75,152.287 2272.01,151.117C2271.51,150.315 2271.01,149.512 2270.51,148.712C2270.32,148.412 2270.12,148.119 2269.92,147.824C2269.1,149.181 2268.28,150.539 2267.46,151.896C2267.25,152.241 2267.04,152.584 2266.82,152.924C2266.74,153.049 2266.7,153.174 2266.71,153.323C2266.81,155.714 2266.92,158.103 2267.02,160.493C2267.02,160.526 2267.04,160.558 2267.05,160.591C2267.46,160.451 2267.9,160.39 2268.32,160.275C2269.36,159.99 2270.42,159.761 2271.47,159.511C2271.69,159.459 2271.91,159.418 2272.12,159.34C2272.29,159.279 2272.48,159.198 2272.67,159.282C2272.84,159.04 2273.01,158.799 2273.12,158.52C2273.03,158.655 2272.93,158.792 2272.84,158.926C2272.69,159.123 2272.66,159.125 2272.49,158.947C2272.14,158.594 2271.8,158.237 2271.44,157.893C2270.06,156.545 2268.75,155.129 2267.35,153.794C2267.18,153.63 2267.03,153.441 2266.87,153.261C2266.96,153.205 2267.02,153.213 2267.07,153.229C2267.83,153.462 2268.58,153.697 2269.34,153.931C2270.61,154.325 2271.89,154.717 2273.16,155.112C2273.66,155.266 2274.15,155.425 2274.65,155.579C2274.77,155.618 2274.79,155.683 2274.73,155.792C2274.68,155.894 2274.57,155.974 2274.59,156.109C2274.76,155.708 2275.06,155.655 2275.47,155.699C2276.69,155.83 2277.92,155.911 2279.14,156.01C2279.25,156.018 2279.35,156.017 2279.46,156.019C2279.5,155.831 2279.38,155.679 2279.34,155.509C2279.15,154.608 2278.92,153.72 2278.69,152.829C2278.51,152.109 2278.35,151.382 2278.18,150.658C2278.16,150.558 2278.17,150.44 2278.05,150.388C2277.88,150.618 2277.79,150.896 2277.63,151.126C2277.08,151.924 2276.65,152.796 2276.1,153.597C2275.99,153.762 2275.87,153.929 2275.79,154.111C2275.58,154.594 2275.24,154.99 2274.97,155.436C2274.91,155.539 2274.86,155.455 2274.81,155.407C2274.8,155.41 2274.79,155.42 2274.78,155.417C2274.75,155.411 2274.75,155.392 2274.76,155.364L2274.76,155.367Z" style="fill:rgb(190,22,53);fill-rule:nonzero;"/>
    </g>
    <g transform="matrix(1,0,0,1,-2244.62,-64.2918)">
        <path d="M2265.52,127.331C2265.51,128.163 2265.51,128.996 2265.43,129.826C2265.46,130.219 2265.44,130.612 2265.39,131.003C2265.43,131.28 2265.41,131.555 2265.37,131.83C2265.41,131.908 2265.4,131.991 2265.39,132.073C2265.36,133.075 2265.33,134.077 2265.3,135.078C2265.29,135.182 2265.3,135.288 2265.31,135.393C2265.54,135.042 2265.68,134.65 2265.85,134.276C2266.43,133.043 2266.99,131.804 2267.56,130.567C2267.71,130.245 2267.86,129.923 2268.02,129.604C2268.09,129.458 2268.09,129.311 2268.06,129.154C2267.78,127.206 2267.51,125.257 2267.23,123.308C2266.85,120.654 2266.47,118.002 2266.09,115.349C2266.07,115.227 2266.11,115.083 2265.99,114.989C2265.89,115.071 2265.92,115.185 2265.92,115.288C2265.84,117.794 2265.76,120.301 2265.68,122.807C2265.68,123.018 2265.7,123.234 2265.63,123.44C2265.64,123.521 2265.66,123.604 2265.65,123.686C2265.62,124.844 2265.58,126 2265.54,127.158C2265.54,127.216 2265.53,127.274 2265.52,127.331Z" style="fill:rgb(237,120,155);fill-rule:nonzero;"/>
    </g>
    <g transform="matrix(1,0,0,1,-2244.62,-64.2918)">
        <path d="M2304.9,71.613C2305,71.682 2305.09,71.623 2305.17,71.596C2308.16,70.671 2311.16,69.744 2314.15,68.826C2314.66,68.671 2315.17,68.521 2315.69,68.378C2316.26,68.219 2316.83,68.043 2317.39,67.849C2317.79,67.714 2318.2,67.608 2318.6,67.482C2319.05,67.343 2319.49,67.198 2319.94,67.06C2320.32,66.942 2320.7,66.833 2321.08,66.716C2321.53,66.577 2321.97,66.41 2322.42,66.298C2322.82,66.199 2323.2,66.051 2323.59,65.941C2324.02,65.823 2324.44,65.667 2324.87,65.543C2325.24,65.436 2325.6,65.305 2325.97,65.204C2326.35,65.102 2326.7,64.955 2327.07,64.83C2326.71,64.611 2326.31,64.538 2325.89,64.514C2325.01,64.461 2324.12,64.381 2323.24,64.3C2322.98,64.275 2322.73,64.306 2322.48,64.41C2322.51,64.457 2322.5,64.506 2322.46,64.525C2322.3,64.585 2322.15,64.689 2321.97,64.68L2321.9,64.718C2321.86,64.793 2321.79,64.803 2321.72,64.788L2321.72,64.795C2321.2,65.072 2320.65,65.251 2320.11,65.468C2317.8,66.405 2315.49,67.329 2313.18,68.257C2310.54,69.318 2307.89,70.379 2305.25,71.442C2305.13,71.49 2305,71.517 2304.9,71.611L2304.9,71.613Z" style="fill:rgb(233,83,128);fill-rule:nonzero;"/>
    </g>
    <g transform="matrix(1,0,0,1,-2244.62,-64.2918)">
        <path d="M2274.76,155.362L2274.76,155.365L2274.76,155.362Z" style="fill:rgb(217,25,74);fill-rule:nonzero;"/>
    </g>
    <g transform="matrix(1,0,0,1,-2244.62,-64.2918)">
        <path d="M2278.08,150.331C2278.07,150.349 2278.06,150.368 2278.05,150.389C2277.88,150.62 2277.79,150.898 2277.63,151.126C2277.08,151.924 2276.65,152.796 2276.1,153.597C2275.99,153.762 2275.87,153.929 2275.79,154.111C2275.58,154.594 2275.24,154.99 2274.97,155.436C2274.91,155.539 2274.86,155.455 2274.81,155.407C2274.8,155.39 2274.78,155.376 2274.76,155.365C2274.71,154.906 2274.58,154.466 2274.47,154.02C2274.08,152.437 2273.7,150.849 2273.32,149.264C2273.14,148.54 2272.96,147.819 2272.79,147.097C2273.52,147.542 2274.25,147.979 2274.97,148.436C2275.73,148.913 2278.08,150.331 2278.08,150.331Z" style="fill:rgb(217,25,74);fill-rule:nonzero;"/>
    </g>
    <g transform="matrix(1,0,0,1,-2244.62,-64.2918)">
        <path d="M2274.59,156.109C2274.57,155.973 2274.68,155.894 2274.73,155.792C2274.79,155.683 2274.77,155.616 2274.65,155.579C2274.15,155.425 2273.66,155.266 2273.16,155.112C2271.89,154.717 2270.61,154.326 2269.34,153.931C2268.58,153.697 2267.83,153.462 2267.07,153.229C2267.02,153.213 2266.96,153.205 2266.87,153.261C2267.03,153.442 2267.18,153.63 2267.35,153.793C2268.75,155.127 2270.06,156.544 2271.44,157.893C2271.8,158.237 2272.14,158.595 2272.49,158.947C2272.66,159.125 2272.69,159.123 2272.84,158.926C2272.93,158.792 2273.03,158.655 2273.12,158.52C2273.64,157.734 2274.12,156.92 2274.59,156.109Z" style="fill:rgb(173,24,48);fill-rule:nonzero;"/>
    </g>
    <g transform="matrix(1,0,0,1,-2244.62,-64.2918)">
        <path d="M2274.32,100.636C2274.18,100.612 2274.1,100.711 2274,100.769C2272.95,101.389 2271.91,102.014 2270.86,102.636C2270.74,102.708 2270.61,102.768 2270.48,102.833C2270.45,103.216 2270.25,103.548 2270.12,103.896C2269.28,106.033 2268.43,108.165 2267.58,110.299C2267.09,111.542 2266.59,112.785 2266.09,114.027C2266.07,114.082 2265.96,114.293 2265.97,114.355C2266.46,113.548 2267.04,112.582 2267.54,111.774C2267.58,111.704 2267.61,111.627 2267.66,111.556C2268.2,110.678 2268.74,109.803 2269.28,108.923C2269.95,107.811 2270.63,106.699 2271.3,105.58C2271.92,104.542 2272.55,103.514 2273.18,102.48C2273.55,101.861 2273.92,101.243 2274.32,100.636Z" style="fill:rgb(237,120,155);fill-rule:nonzero;"/>
    </g>
    <g transform="matrix(1,0,0,1,-2244.62,-64.2918)">
        <path d="M2268.27,74.761C2269.04,75.135 2269.71,75.68 2270.47,76.066C2270.77,76.216 2271.04,76.411 2271.31,76.602C2271.57,76.782 2271.85,76.89 2272.15,76.981C2274.44,77.691 2276.73,78.416 2279.03,79.11C2279.62,79.286 2280.15,79.538 2280.67,79.849C2281.2,80.162 2281.72,80.503 2282.25,80.817C2282.48,80.955 2282.74,81.05 2282.96,81.219C2283.21,81.071 2283.36,80.821 2283.58,80.64C2283.54,80.616 2283.51,80.593 2283.47,80.569C2283.37,80.551 2283.28,80.505 2283.25,80.396C2282.34,79.741 2281.44,79.087 2280.54,78.429C2280.39,78.322 2280.24,78.246 2280.07,78.195C2276.19,77.057 2272.31,75.918 2268.44,74.779C2268.38,74.763 2268.33,74.723 2268.27,74.763L2268.27,74.761Z" style="fill:rgb(217,25,74);fill-rule:nonzero;"/>
    </g>
    <g transform="matrix(1,0,0,1,-2244.62,-64.2918)">
        <path d="M2278.08,150.331C2278.07,150.349 2278.06,150.368 2278.05,150.389C2278.17,150.441 2278.16,150.56 2278.18,150.659C2278.35,151.382 2278.51,152.109 2278.69,152.829C2278.92,153.719 2279.15,154.609 2279.34,155.509C2279.38,155.681 2279.5,155.831 2279.46,156.019C2279.53,156.05 2279.6,156.09 2279.69,156.062C2279.63,155.895 2279.77,155.862 2279.86,155.803C2280.17,155.607 2280.48,155.419 2280.79,155.224C2281.59,154.723 2282.39,154.222 2283.18,153.712C2283.29,153.645 2283.37,153.628 2283.48,153.683C2283.46,153.556 2283.35,153.516 2283.27,153.464C2281.92,152.646 2280.58,151.829 2279.24,151.015C2278.85,150.782 2278.46,150.558 2278.08,150.33L2278.08,150.331Z" style="fill:rgb(230,43,91);fill-rule:nonzero;"/>
    </g>
    <g transform="matrix(1,0,0,1,-2244.62,-64.2918)">
        <path d="M2283.48,153.685C2283.37,153.63 2283.29,153.647 2283.18,153.714C2282.39,154.223 2281.59,154.723 2280.79,155.225C2280.49,155.42 2280.17,155.609 2279.86,155.805C2279.77,155.864 2279.63,155.897 2279.69,156.063C2280.04,156.226 2280.43,156.272 2280.8,156.35C2282.38,156.682 2283.94,157.059 2285.51,157.407C2285.61,157.429 2285.71,157.476 2285.82,157.446C2285.84,157.358 2285.78,157.306 2285.74,157.25C2285.02,156.098 2284.29,154.946 2283.57,153.796C2283.54,153.756 2283.51,153.723 2283.48,153.686L2283.48,153.685Z" style="fill:rgb(217,25,74);fill-rule:nonzero;"/>
    </g>
    <g transform="matrix(1,0,0,1,-2244.62,-64.2918)">
        <path d="M2272.67,159.282C2272.48,159.198 2272.29,159.279 2272.12,159.34C2271.91,159.418 2271.69,159.459 2271.47,159.511C2270.42,159.761 2269.36,159.99 2268.32,160.275C2267.9,160.389 2267.46,160.452 2267.05,160.591L2267.06,160.605C2267.43,160.855 2267.83,161.063 2268.2,161.304C2268.98,161.805 2269.8,162.23 2270.56,162.748C2271.13,161.898 2271.62,160.998 2272.17,160.131C2272.34,159.853 2272.5,159.564 2272.67,159.28L2272.67,159.282Z" style="fill:rgb(168,24,46);fill-rule:nonzero;"/>
    </g>
    <g transform="matrix(1,0,0,1,-2244.62,-64.2918)">
        <path d="M2316.46,65.789C2316.36,65.922 2316.21,65.918 2316.07,65.95C2315.03,66.206 2313.98,66.43 2312.94,66.744C2312.01,67.027 2311.12,67.406 2310.21,67.738C2309.46,68.007 2308.72,68.291 2307.98,68.571C2307.81,68.636 2307.64,68.711 2307.47,68.783C2307.48,68.939 2307.4,68.894 2307.32,68.845L2307.32,68.842C2307.24,69.074 2306.97,69.054 2306.83,69.214C2307.1,69.298 2307.33,69.132 2307.57,69.067C2308.18,68.903 2308.77,68.701 2309.37,68.513C2309.94,68.332 2310.51,68.147 2311.09,67.97C2311.68,67.79 2312.26,67.618 2312.85,67.438C2313.57,67.216 2314.29,66.987 2315.02,66.765C2315.65,66.571 2316.28,66.385 2316.91,66.192C2317.28,66.082 2317.63,65.964 2318,65.851C2318.45,65.711 2318.9,65.575 2319.35,65.436C2319.84,65.281 2320.34,65.125 2320.84,64.97C2320.9,64.951 2320.93,64.905 2320.97,64.854C2320.85,64.778 2320.74,64.845 2320.63,64.871C2319.65,65.107 2318.68,65.341 2317.71,65.585C2317.29,65.689 2316.88,65.754 2316.45,65.787L2316.46,65.789Z" style="fill:rgb(156,24,44);fill-rule:nonzero;"/>
    </g>
    <g transform="matrix(1,0,0,1,-2244.62,-64.2918)">
        <path d="M2270.56,162.749C2269.8,162.232 2268.98,161.807 2268.2,161.305C2267.83,161.064 2267.43,160.857 2267.06,160.606C2267.35,161.189 2267.7,161.731 2268.03,162.291C2268.42,162.965 2268.82,163.635 2269.22,164.306C2269.28,164.404 2269.31,164.524 2269.44,164.594C2269.85,163.998 2270.2,163.372 2270.56,162.749Z" style="fill:rgb(190,22,53);fill-rule:nonzero;"/>
    </g>
    <g transform="matrix(1,0,0,1,-2244.62,-64.2918)">
        <path d="M2321.09,64.778C2321.22,64.884 2321.36,64.821 2321.49,64.781C2321.57,64.758 2321.65,64.715 2321.72,64.796L2321.72,64.79C2321.74,64.745 2321.77,64.699 2321.79,64.654C2321.79,64.636 2321.78,64.618 2321.78,64.6C2321.55,64.659 2321.32,64.719 2321.09,64.777L2321.09,64.778Z" style="fill:rgb(156,24,44);fill-rule:nonzero;"/>
    </g>
    <g transform="matrix(1,0,0,1,-2244.62,-64.2918)">
        <path d="M2321.97,64.682C2322.15,64.69 2322.3,64.586 2322.46,64.527C2322.5,64.508 2322.51,64.459 2322.48,64.411C2322.37,64.458 2322.24,64.448 2322.13,64.521C2322.09,64.531 2322.06,64.538 2322.02,64.548L2322.03,64.547C2322.01,64.592 2321.99,64.637 2321.97,64.682Z" style="fill:rgb(173,24,48);fill-rule:nonzero;"/>
    </g>
    <g transform="matrix(1,0,0,1,-2244.62,-64.2918)">
        <path d="M2321.97,64.682C2321.99,64.637 2322.01,64.592 2322.03,64.548C2321.94,64.534 2321.86,64.567 2321.78,64.601C2321.78,64.619 2321.79,64.637 2321.79,64.655C2321.83,64.676 2321.86,64.697 2321.9,64.719L2321.97,64.681L2321.97,64.682Z" style="fill:rgb(156,24,44);fill-rule:nonzero;"/>
    </g>
    <g transform="matrix(1,0,0,1,-2244.62,-64.2918)">
        <path d="M2283.24,80.395C2283.28,80.504 2283.37,80.551 2283.47,80.569C2283.42,80.479 2283.34,80.429 2283.24,80.395Z" style="fill:rgb(237,120,155);fill-rule:nonzero;"/>
    </g>
    <g transform="matrix(1,0,0,1,-2244.62,-64.2918)">
        <path d="M2244.62,110.213C2244.63,110.328 2244.71,110.37 2244.81,110.392C2244.77,110.302 2244.71,110.251 2244.62,110.213Z" style="fill:rgb(58,93,130);fill-rule:nonzero;"/>
    </g>
    <g transform="matrix(1,0,0,1,-2244.62,-64.2918)">
        <path d="M2278.35,85.73C2278.31,85.664 2278.26,85.618 2278.18,85.627C2278.22,85.687 2278.27,85.729 2278.35,85.73Z" style="fill:rgb(237,120,155);fill-rule:nonzero;"/>
    </g>
    <g transform="matrix(1,0,0,1,-2244.62,-64.2918)">
        <path d="M2265.99,114.992C2266.04,114.938 2266.03,114.884 2265.98,114.831C2265.94,114.885 2265.91,114.94 2265.99,114.992Z" style="fill:rgb(237,120,155);fill-rule:nonzero;"/>
    </g>
    <g transform="matrix(1,0,0,1,-2244.62,-64.2918)">
        <path d="M2265.98,114.836C2266.01,114.793 2266.01,114.753 2265.98,114.714C2265.95,114.758 2265.94,114.799 2265.98,114.836Z" style="fill:rgb(237,120,155);fill-rule:nonzero;"/>
    </g>
    <g transform="matrix(1,0,0,1,-2244.62,-64.2918)">
        <path d="M2322.03,64.548C2322.06,64.539 2322.1,64.531 2322.13,64.521C2322.09,64.511 2322.06,64.517 2322.03,64.548Z" style="fill:rgb(156,24,44);fill-rule:nonzero;"/>
    </g>
    <g transform="matrix(1,0,0,1,-2244.62,-64.2918)">
        <path d="M2326.21,67.829C2326.12,67.797 2326.05,67.856 2325.98,67.898C2325.33,68.308 2324.68,68.719 2324.03,69.13C2323.53,69.446 2323.03,69.762 2322.53,70.078C2321.6,70.664 2320.67,71.252 2319.73,71.838C2318.92,72.348 2318.11,72.851 2317.29,73.362C2316.5,73.861 2315.72,74.371 2314.93,74.87C2314.31,75.262 2313.68,75.641 2313.06,76.034C2312.97,76.088 2312.8,76.09 2312.86,76.272C2312.74,76.339 2312.62,76.41 2312.49,76.473C2311.83,76.799 2311.17,77.122 2310.51,77.445C2310.49,77.451 2310.46,77.458 2310.43,77.464L2310.42,77.464C2310.32,77.383 2310.2,77.4 2310.08,77.4C2308.4,77.395 2306.73,77.387 2305.05,77.379C2304.03,77.374 2303.02,77.372 2302,77.359C2301.75,77.356 2301.57,77.44 2301.44,77.653C2301.38,77.751 2301.38,77.833 2301.48,77.894C2301.96,78.18 2302.38,78.557 2302.9,78.767C2302.93,78.78 2302.97,78.793 2303,78.813C2303.64,79.252 2304.31,79.655 2304.99,80.043C2304.91,80.172 2304.78,80.229 2304.66,80.296C2304.34,80.468 2304.05,80.684 2303.71,80.812C2303.5,80.697 2303.29,80.832 2303.09,80.84C2302.65,80.859 2302.21,80.925 2301.7,80.977C2301.88,81.18 2302.09,81.141 2302.23,81.225C2302.4,81.316 2302.58,81.283 2302.74,81.367C2302.52,81.611 2302.21,81.713 2301.95,81.892C2301.58,82.146 2301.19,82.373 2300.8,82.594C2299.19,83.504 2297.69,84.579 2296.26,85.754C2296.06,85.92 2295.85,86.068 2295.73,86.309C2295.66,86.433 2295.54,86.494 2295.43,86.551C2295.04,86.744 2294.67,86.974 2294.29,87.192C2293.67,87.545 2293.06,87.898 2292.44,88.241C2292.28,88.329 2292.22,88.419 2292.26,88.606C2292.43,89.404 2292.64,90.192 2292.85,90.98C2292.96,91.391 2293.04,91.81 2293.16,92.219C2293.24,92.49 2293.28,92.772 2293.38,93.042C2293.5,93.38 2293.45,93.743 2293.45,94.096C2293.45,94.981 2293.4,95.867 2293.45,96.751C2293.43,96.819 2293.44,96.915 2293.39,96.951C2293.16,97.134 2293.05,97.407 2292.87,97.617C2292.39,98.154 2291.97,98.74 2291.53,99.304C2291.13,99.813 2290.7,100.303 2290.32,100.826C2290.15,101.051 2290,101.301 2289.79,101.491C2289.49,101.767 2289.31,102.13 2289.04,102.429C2288.78,102.715 2288.56,103.047 2288.32,103.34C2287.91,103.815 2287.53,104.312 2287.14,104.797C2286.73,105.312 2286.29,105.805 2285.92,106.355C2285.88,106.421 2285.84,106.519 2285.74,106.491C2285.63,106.459 2285.66,106.36 2285.66,106.281C2285.66,105.936 2285.72,105.596 2285.75,105.254C2285.8,104.522 2285.84,103.791 2285.89,103.06C2285.95,102.257 2286.03,101.457 2286.07,100.653C2286.09,100.382 2286.14,100.112 2286.14,99.839C2286.13,99.583 2286.09,99.539 2285.84,99.63C2285.65,99.701 2285.45,99.732 2285.27,99.802C2284.55,100.066 2283.81,100.266 2283.07,100.495C2282.34,100.726 2281.61,100.958 2280.87,101.171C2279.7,101.51 2278.54,101.909 2277.37,102.282C2277.27,102.312 2277.18,102.326 2277.09,102.268C2277.19,102.131 2277.29,102.007 2277.41,101.884C2277.64,101.634 2277.89,101.398 2278.04,101.078C2278.27,100.587 2278.51,100.102 2278.76,99.623C2278.98,99.194 2279.21,98.764 2279.41,98.327C2279.69,97.73 2279.97,97.133 2280.29,96.557C2280.57,96.028 2280.83,95.484 2281.13,94.961C2281.25,94.749 2281.39,94.536 2281.47,94.302C2281.62,93.848 2281.86,93.436 2282.09,93.037C2282.46,92.425 2282.64,91.733 2283.04,91.135C2283.2,90.894 2283.37,90.622 2283.45,90.316C2283.49,90.175 2283.6,90.035 2283.71,89.936C2283.89,89.775 2284.01,89.572 2284.14,89.378C2284.2,89.3 2284.24,89.207 2284.31,89.146C2284.65,88.859 2284.83,88.447 2285.13,88.124C2285.39,87.841 2285.61,87.514 2285.85,87.21C2286.21,86.758 2286.53,86.272 2286.91,85.839C2287.16,85.563 2287.35,85.253 2287.58,84.97C2287.9,84.578 2288.25,84.202 2288.52,83.777C2288.57,83.708 2288.61,83.633 2288.67,83.573C2289.16,83.058 2289.53,82.452 2290,81.921C2290.39,81.469 2290.73,80.969 2291.1,80.495C2291.55,79.929 2292.03,79.394 2292.42,78.783C2292.45,78.734 2292.49,78.686 2292.52,78.641C2292.82,78.307 2293.13,77.979 2293.36,77.594C2293.52,77.325 2293.77,77.136 2293.94,76.875C2293.99,76.799 2294.08,76.75 2294.18,76.747C2294.56,76.861 2294.94,76.842 2295.32,76.819C2295.38,76.815 2295.44,76.809 2295.49,76.839C2296.21,76.872 2296.93,76.911 2297.65,76.936C2298.7,76.972 2299.74,77.048 2300.78,77.077C2301.09,77.086 2301.37,77.032 2301.64,76.922C2301.92,76.812 2302.19,76.703 2302.47,76.594C2303.87,76.036 2305.27,75.468 2306.68,74.9C2308.06,74.341 2309.43,73.774 2310.81,73.216C2311.59,72.902 2312.37,72.608 2313.15,72.296C2314.63,71.701 2316.11,71.1 2317.59,70.503C2319.06,69.91 2320.53,69.319 2322,68.727C2323.21,68.24 2324.41,67.738 2325.62,67.269C2326.12,67.078 2326.59,66.817 2327.11,66.709C2326.84,67.105 2326.55,67.48 2326.22,67.828L2326.21,67.829ZM2300.95,80.831C2300.27,80.624 2299.59,80.419 2298.92,80.204C2298.8,80.168 2298.72,80.172 2298.62,80.219C2297.72,80.616 2296.82,81.008 2295.92,81.401C2295.86,81.429 2295.79,81.458 2295.73,81.486C2295.52,81.575 2295.33,81.667 2295.27,81.931C2295.25,82.05 2295.16,82.17 2295.06,82.256C2294.73,82.558 2294.56,82.975 2294.29,83.308C2293.86,83.815 2293.55,84.405 2293.09,84.885C2292.8,85.181 2292.73,85.565 2292.66,85.953C2292.57,86.512 2292.46,87.071 2292.36,87.629C2292.35,87.676 2292.35,87.723 2292.35,87.769C2292.34,87.841 2292.34,87.917 2292.43,87.941C2292.5,87.959 2292.53,87.904 2292.57,87.859C2292.96,87.401 2293.34,86.939 2293.73,86.488C2294.11,86.054 2294.52,85.64 2294.89,85.199C2295.16,84.874 2295.44,84.56 2295.72,84.241C2296.04,83.867 2296.36,83.487 2296.69,83.124C2296.99,82.795 2297.27,82.441 2297.56,82.104C2297.76,81.881 2297.96,81.674 2298.15,81.45C2298.24,81.35 2298.34,81.309 2298.46,81.298C2299.16,81.232 2299.85,81.169 2300.54,81.106C2300.74,81.088 2300.94,81.075 2301.1,80.975C2301.09,80.853 2301.01,80.852 2300.95,80.832L2300.95,80.831Z" style="fill:rgb(168,24,46);fill-rule:nonzero;"/>
    </g>
    <g transform="matrix(1,0,0,1,-2244.62,-64.2918)">
        <path d="M2304.99,80.043C2304.91,80.172 2304.78,80.229 2304.66,80.296C2304.34,80.468 2304.05,80.684 2303.71,80.812C2303.41,81.043 2303.09,81.223 2302.74,81.367C2302.52,81.611 2302.21,81.713 2301.95,81.892C2301.58,82.146 2301.19,82.373 2300.8,82.594C2299.19,83.504 2297.69,84.579 2296.26,85.754C2296.06,85.92 2295.85,86.068 2295.73,86.309C2295.66,86.433 2295.54,86.494 2295.43,86.551C2295.04,86.744 2294.67,86.974 2294.29,87.192C2293.67,87.545 2293.06,87.898 2292.44,88.241C2292.28,88.329 2292.22,88.419 2292.26,88.606C2292.43,89.404 2292.64,90.192 2292.85,90.98C2292.96,91.391 2293.04,91.81 2293.16,92.219C2293.24,92.49 2293.28,92.772 2293.38,93.042C2293.5,93.38 2293.45,93.743 2293.45,94.096C2293.45,94.981 2293.4,95.867 2293.45,96.751C2293.61,96.778 2293.69,96.673 2293.75,96.549C2294.17,95.616 2294.56,94.668 2295.03,93.756C2295.3,93.22 2295.52,92.662 2295.81,92.132C2296,91.769 2296.16,91.387 2296.32,91.009C2296.38,90.876 2296.44,90.738 2296.55,90.65C2296.75,90.477 2296.89,90.255 2297.02,90.033C2297.36,89.46 2297.8,88.959 2298.19,88.427C2298.5,88.009 2298.79,87.573 2299.1,87.155C2299.37,86.786 2299.69,86.46 2300.09,86.214C2300.53,85.948 2300.95,85.662 2301.37,85.383C2302.02,84.953 2302.69,84.541 2303.32,84.081C2303.71,83.796 2304.13,83.663 2304.59,83.585C2304.93,83.527 2305.28,83.477 2305.6,83.372C2306.03,83.237 2306.42,83.341 2306.82,83.458C2307.42,83.634 2308.02,83.801 2308.62,83.979C2308.74,84.012 2308.83,84.023 2308.91,83.924C2308.78,83.789 2308.64,83.653 2308.5,83.518C2308.12,83.155 2307.71,82.815 2307.36,82.426C2306.78,81.79 2306.24,81.122 2305.69,80.461C2305.61,80.375 2305.49,80.319 2305.49,80.18C2305.45,80.158 2305.41,80.134 2305.37,80.111C2305.28,79.887 2305.12,80.015 2304.99,80.044L2304.99,80.043Z" style="fill:rgb(156,24,44);fill-rule:nonzero;"/>
    </g>
    <g transform="matrix(1,0,0,1,-2244.62,-64.2918)">
        <path d="M2304.99,80.043C2305.12,80.014 2305.27,79.885 2305.37,80.111C2305.41,79.991 2305.52,79.939 2305.63,79.886C2307.18,79.116 2308.74,78.345 2310.29,77.576C2310.35,77.549 2310.4,77.521 2310.42,77.464C2310.32,77.381 2310.2,77.4 2310.08,77.4C2308.4,77.395 2306.73,77.387 2305.05,77.379C2304.03,77.374 2303.02,77.372 2302,77.359C2301.75,77.355 2301.57,77.44 2301.44,77.652C2301.38,77.751 2301.38,77.832 2301.48,77.894C2301.96,78.179 2302.38,78.557 2302.9,78.766C2302.93,78.78 2302.97,78.793 2303,78.812C2303.64,79.252 2304.31,79.655 2304.99,80.043Z" style="fill:rgb(190,22,53);fill-rule:nonzero;"/>
    </g>
    <g transform="matrix(1,0,0,1,-2244.62,-64.2918)">
        <path d="M2305.49,80.178C2305.49,80.317 2305.61,80.373 2305.68,80.459C2306.23,81.121 2306.78,81.787 2307.35,82.424C2307.71,82.814 2308.12,83.154 2308.5,83.516C2308.49,83.222 2308.51,82.927 2308.48,82.635C2308.42,82.082 2308.56,81.589 2308.87,81.133C2308.99,80.955 2309.1,80.773 2309.22,80.599C2309.82,79.746 2310.27,78.796 2310.88,77.95C2310.9,77.924 2310.93,77.893 2310.88,77.837C2310.7,77.879 2310.52,77.973 2310.34,78.052C2309.6,78.393 2308.84,78.685 2308.09,79.002C2307.35,79.314 2306.61,79.619 2305.87,79.937C2305.73,79.996 2305.56,80.015 2305.49,80.177L2305.49,80.178Z" style="fill:rgb(217,25,74);fill-rule:nonzero;"/>
    </g>
    <g transform="matrix(1,0,0,1,-2244.62,-64.2918)">
        <path d="M2326.21,67.829C2326.12,67.797 2326.05,67.856 2325.98,67.898C2325.33,68.308 2324.68,68.719 2324.03,69.13C2323.53,69.446 2323.03,69.762 2322.53,70.078C2321.6,70.664 2320.67,71.252 2319.73,71.838C2318.92,72.348 2318.11,72.851 2317.29,73.362C2316.5,73.861 2315.72,74.371 2314.93,74.87C2314.31,75.262 2313.68,75.641 2313.06,76.034C2312.97,76.088 2312.8,76.089 2312.86,76.272C2313.83,75.812 2314.78,75.306 2315.74,74.813C2316.16,74.596 2316.59,74.398 2316.99,74.144C2317.33,73.927 2317.75,73.897 2318.07,73.626C2318.39,73.351 2318.76,73.134 2319.11,72.892C2319.46,72.649 2319.81,72.405 2320.16,72.162C2322,70.886 2323.84,69.609 2325.67,68.335C2325.88,68.193 2326.08,68.045 2326.21,67.83L2326.21,67.829Z" style="fill:rgb(156,24,44);fill-rule:nonzero;"/>
    </g>
    <g transform="matrix(1,0,0,1,-2244.62,-64.2918)">
        <path d="M2310.51,77.445C2310.49,77.45 2310.46,77.458 2310.43,77.464C2310.47,77.48 2310.49,77.475 2310.51,77.445Z" style="fill:rgb(190,22,53);fill-rule:nonzero;"/>
    </g>
    <g transform="matrix(1,0,0,1,-2244.62,-64.2918)">
        <path d="M2294.18,76.747C2294.56,76.862 2294.94,76.842 2295.32,76.819C2295.38,76.816 2295.43,76.81 2295.49,76.84C2295.54,76.727 2295.65,76.671 2295.75,76.612C2296.63,76.103 2297.5,75.576 2298.4,75.09C2299.74,74.362 2301.05,73.57 2302.38,72.821C2302.46,72.774 2303.68,72.115 2303.76,72.062C2303.68,72.005 2302.46,72.636 2302.38,72.673C2301.12,73.268 2299.86,73.863 2298.6,74.452C2297.49,74.965 2296.39,75.473 2295.28,75.982C2295.06,76.086 2294.83,76.19 2294.61,76.286C2294.39,76.375 2294.3,76.577 2294.18,76.749L2294.18,76.747Z" style="fill:rgb(150,24,42);fill-rule:nonzero;"/>
    </g>
    <g transform="matrix(1,0,0,1,-2244.62,-64.2918)">
        <path d="M2304.39,71.78C2304.47,71.827 2304.53,71.817 2304.57,71.733C2304.51,71.715 2304.45,71.738 2304.39,71.78Z" style="fill:rgb(230,43,91);fill-rule:nonzero;"/>
    </g>
    <g transform="matrix(1,0,0,1,-2244.62,-64.2918)">
        <path d="M2304.77,71.695C2304.84,71.702 2304.88,71.672 2304.91,71.612C2304.84,71.605 2304.8,71.639 2304.77,71.695Z" style="fill:rgb(237,120,155);fill-rule:nonzero;"/>
    </g>
    <g transform="matrix(1,0,0,1,-2244.62,-64.2918)">
        <path d="M2304.57,71.734C2304.61,71.757 2304.65,71.746 2304.68,71.708C2304.69,71.701 2304.7,71.689 2304.71,71.672C2304.65,71.656 2304.61,71.681 2304.57,71.733L2304.57,71.734Z" style="fill:rgb(230,43,91);fill-rule:nonzero;"/>
    </g>
    <g transform="matrix(1,0,0,1,-2244.62,-64.2918)">
        <path d="M2276.46,97.919C2276.46,97.948 2276.47,97.976 2276.47,98.004C2276.47,97.975 2276.46,97.946 2276.46,97.919Z" style="fill:rgb(237,120,155);fill-rule:nonzero;"/>
    </g>
    <g transform="matrix(1,0,0,1,-2244.62,-64.2918)">
        <path d="M2304.71,71.673C2304.7,71.689 2304.69,71.701 2304.68,71.709C2304.71,71.732 2304.74,71.716 2304.77,71.694C2304.76,71.674 2304.74,71.668 2304.71,71.674L2304.71,71.673Z" style="fill:rgb(237,120,155);fill-rule:nonzero;"/>
    </g>
    <g transform="matrix(1,0,0,1,-2244.62,-64.2918)">
        <path d="M2306.83,69.213C2306.82,69.212 2306.8,69.208 2306.8,69.212C2306.79,69.236 2306.8,69.236 2306.83,69.214L2306.83,69.213Z" style="fill:rgb(156,24,44);fill-rule:nonzero;"/>
    </g>
    <g transform="matrix(1,0,0,1,-2244.62,-64.2918)">
        <path d="M2307.32,68.844C2307.4,68.892 2307.48,68.938 2307.47,68.782C2307.41,68.774 2307.36,68.797 2307.32,68.844Z" style="fill:rgb(173,24,48);fill-rule:nonzero;"/>
    </g>
    <g transform="matrix(1,0,0,1,-2244.62,-64.2918)">
        <path d="M2274.81,155.407C2274.8,155.389 2274.78,155.375 2274.76,155.363C2274.75,155.391 2274.76,155.41 2274.78,155.416C2274.79,155.418 2274.8,155.41 2274.81,155.406L2274.81,155.407Z" style="fill:rgb(150,24,42);fill-rule:nonzero;"/>
    </g>
    <g transform="matrix(1,0,0,1,-2244.62,-64.2918)">
        <path d="M2321.9,64.719C2321.86,64.698 2321.83,64.676 2321.79,64.655C2321.77,64.7 2321.74,64.745 2321.72,64.791C2321.79,64.805 2321.86,64.795 2321.9,64.72L2321.9,64.719Z" style="fill:rgb(173,24,48);fill-rule:nonzero;"/>
    </g>
    <g transform="matrix(1,0,0,1,-2244.62,-64.2918)">
        <path d="M2301.1,80.974C2301.09,80.852 2301.01,80.851 2300.95,80.831C2300.27,80.624 2299.59,80.419 2298.92,80.204C2298.8,80.168 2298.72,80.172 2298.62,80.219C2297.72,80.616 2296.82,81.007 2295.92,81.4C2295.86,81.429 2295.79,81.458 2295.73,81.486C2295.52,81.575 2295.33,81.667 2295.27,81.931C2295.25,82.05 2295.16,82.17 2295.06,82.256C2294.73,82.558 2294.56,82.975 2294.29,83.308C2293.86,83.815 2293.55,84.405 2293.09,84.884C2292.8,85.181 2292.73,85.565 2292.66,85.953C2292.57,86.512 2292.46,87.071 2292.36,87.629C2292.35,87.675 2292.35,87.723 2292.35,87.769C2292.34,87.841 2292.33,87.917 2292.43,87.941C2292.5,87.959 2292.53,87.904 2292.57,87.859C2292.96,87.401 2293.34,86.939 2293.73,86.488C2294.11,86.054 2294.52,85.64 2294.89,85.199C2295.16,84.874 2295.44,84.56 2295.72,84.241C2296.04,83.867 2296.36,83.487 2296.69,83.124C2296.99,82.795 2297.27,82.441 2297.56,82.103C2297.76,81.881 2297.96,81.674 2298.15,81.45C2298.24,81.35 2298.34,81.309 2298.46,81.298C2299.16,81.232 2299.85,81.168 2300.54,81.106C2300.74,81.088 2300.94,81.075 2301.1,80.975L2301.1,80.974Z" style="fill:rgb(168,24,46);fill-rule:nonzero;"/>
    </g>
    <g transform="matrix(1,0,0,1,-2244.62,-64.2918)">
        <path d="M2322.48,64.413L2320.85,65.186L2322.54,65.147L2323.14,64.618L2322.48,64.413Z" style="fill:rgb(233,83,128);fill-rule:nonzero;"/>
    </g>
    <g transform="matrix(1,0,0,1,-2244.62,-64.2918)">
        <path d="M2322.48,64.413L2322.45,64.421L2320.63,64.871L2320.84,64.97L2321.74,64.759" style="fill:rgb(156,24,44);fill-rule:nonzero;"/>
    </g>
    <g transform="matrix(1,0,0,1,-2244.62,-64.2918)">
        <path d="M2318.5,73.292L2316.23,74.568C2316.23,74.568 2318.94,74.442 2318.99,74.363C2319.04,74.286 2319.86,73.104 2319.86,73.104L2318.5,73.292Z" style="fill:rgb(230,43,91);fill-rule:nonzero;"/>
    </g>
    <g transform="matrix(1,0,0,1,-2244.62,-64.2918)">
        <path d="M2265.92,115.148L2265.96,114.357L2266.12,115.435L2265.92,115.148Z" style="fill:rgb(237,120,155);fill-rule:nonzero;"/>
    </g>
    <g transform="matrix(1,0,0,1,-2244.62,-64.2918)">
        <path d="M2265.98,114.469L2266.14,115.651L2266.4,115.499L2265.98,114.469Z" style="fill:rgb(150,24,42);fill-rule:nonzero;"/>
    </g>
    <g transform="matrix(1,0,0,1,-2244.62,-64.2918)">
        <path d="M2302.74,81.367L2292.44,88.241L2298.16,81.449L2302.74,81.367Z" style="fill:rgb(168,24,46);fill-rule:nonzero;"/>
    </g>
    <g transform="matrix(1,0,0,1,-2244.62,-64.2918)">
        <path d="M2292.44,88.241L2305.15,79.96L2306.43,81.354L2294.18,88.203L2292.44,88.241Z" style="fill:rgb(156,24,44);fill-rule:nonzero;"/>
    </g>
    <g transform="matrix(1,0,0,1,-2244.62,-64.2918)">
        <path d="M2298.46,81.297L2304.99,80.043L2292.35,88.409L2298.46,81.297Z" style="fill:rgb(168,24,46);fill-rule:nonzero;"/>
    </g>
    <g transform="matrix(1,0,0,1,-2244.62,-64.2918)">
        <path d="M2304.66,79.86L2305.15,80.211L2307.39,79.013L2301.48,77.892L2304.66,79.86Z" style="fill:rgb(190,22,53);fill-rule:nonzero;"/>
    </g>
    <g transform="matrix(1,0,0,1,-2244.62,-64.2918)">
        <path d="M2309.15,84.196L2305.15,79.96L2302.55,81.654L2309.15,84.196Z" style="fill:rgb(156,24,44);fill-rule:nonzero;"/>
    </g>
    <g transform="matrix(1,0,0,1,-2244.62,-64.2918)">
        <path d="M2308.93,83.971L2305.15,79.96L2310.88,77.839L2308.72,81.738L2308.93,83.971Z" style="fill:rgb(217,25,74);fill-rule:nonzero;"/>
    </g>
    <g transform="matrix(1,0,0,1,-2244.62,-64.2918)">
        <path d="M2305.15,79.96L2301.4,77.14L2300.38,78.295L2303.57,80.115L2304.86,80.195" style="fill:rgb(168,24,46);fill-rule:nonzero;"/>
    </g>
    <g transform="matrix(1,0,0,1,-2244.62,-64.2918)">
        <path d="M2292.26,88.607L2300.8,81.585L2301.98,79.207L2299.52,77.947L2296.46,77.635L2291.75,81.917L2290.2,86.237L2292.26,88.607Z" style="fill:rgb(168,24,46);fill-rule:nonzero;"/>
    </g>
    <g transform="matrix(1,0,0,1,-2244.62,-64.2918)">
        <path d="M2303.73,72.068L2327.07,64.832L2321.99,65.159L2305.88,71.05L2303.73,72.068Z" style="fill:rgb(233,83,128);fill-rule:nonzero;"/>
    </g>
    <g transform="matrix(1,0,0,1,-2244.62,-64.2918)">
        <path d="M2285.16,106.825L2293.99,96.001L2291.37,102.146L2285.38,107.933" style="fill:rgb(150,24,42);fill-rule:nonzero;"/>
    </g>
    <g transform="matrix(1,0,0,1,-2244.62,-64.2918)">
        <path d="M2293.45,96.752L2296.28,90.608L2299.48,86.386L2303.76,83.614L2305.92,83.129L2308.91,83.924L2303.14,86.779L2293.45,96.752Z" style="fill:rgb(150,24,42);fill-rule:nonzero;"/>
    </g>
    <g transform="matrix(1,0,0,1,-2244.62,-64.2918)">
        <path d="M2285.39,106.416L2294.05,95.831L2293.03,98.208L2285.67,106.825L2285.39,106.416Z" style="fill:rgb(150,24,42);fill-rule:nonzero;"/>
    </g>
    <g transform="matrix(1,0,0,1,-2244.62,-64.2918)">
        <path d="M2277.36,102.284L2278.38,101.154L2282.3,93.543L2284.32,90.015L2294.37,76.811L2293.94,76.876L2283.51,89.88L2277.64,101.365L2277.09,102.27L2277.36,102.284Z" style="fill:rgb(168,24,46);fill-rule:nonzero;"/>
    </g>
    <g transform="matrix(1,0,0,1,-2244.62,-64.2918)">
        <path d="M2266.05,114.196L2276.94,102.172L2286.11,99.426L2285.73,106.491L2266.05,114.196Z" style="fill:rgb(150,24,42);fill-rule:nonzero;"/>
    </g>
</svg>
