<?xml version="1.0" encoding="UTF-8" standalone="no"?>
<!DOCTYPE svg PUBLIC "-//W3C//DTD SVG 1.1//EN" "http://www.w3.org/Graphics/SVG/1.1/DTD/svg11.dtd">
<svg width="100%" height="100%" viewBox="0 0 86 113" version="1.1" xmlns="http://www.w3.org/2000/svg" xmlns:xlink="http://www.w3.org/1999/xlink" xml:space="preserve" xmlns:serif="http://www.serif.com/" style="fill-rule:evenodd;clip-rule:evenodd;stroke-linejoin:round;stroke-miterlimit:2;">
    <g transform="matrix(1,0,0,1,-2364.53,-1.08214)">
        <path d="M2377.66,29.435C2377.15,28.632 2376.64,27.836 2376.12,27.047C2373.73,22.711 2371.15,18.527 2368.42,14.499C2367.45,12.396 2366.44,10.318 2365.39,8.265C2365.11,7.296 2364.83,6.326 2364.53,5.362C2364.93,4.517 2365.33,3.667 2365.71,2.81C2366.56,2.236 2367.41,1.662 2368.25,1.082C2369.63,1.199 2371.01,1.325 2372.39,1.466C2375.83,3.048 2379.24,4.749 2382.63,6.57C2385.47,8.133 2388.3,9.783 2391.09,11.518C2395.34,14.615 2399.5,17.934 2403.55,21.47C2405.98,24.466 2408.33,27.562 2410.61,30.759C2412.23,33.521 2413.8,36.343 2415.3,39.222C2416.14,40.786 2416.95,42.367 2417.75,43.964C2419.72,48.82 2421.52,53.805 2423.13,58.913L2423.13,58.929C2423.46,61.028 2423.76,63.138 2424.03,65.259C2424.07,66.308 2424.11,67.361 2424.13,68.413C2424.29,69.038 2424.45,69.668 2424.61,70.298C2424.63,70.465 2424.65,70.634 2424.66,70.801C2425.22,73.098 2425.75,75.418 2426.23,77.76C2427.21,80.413 2428.14,83.108 2429.02,85.844C2428.29,87.772 2427.54,89.691 2426.76,91.597C2425.49,90.65 2424.22,89.718 2422.95,88.801C2421.88,86.68 2420.79,84.592 2419.66,82.54C2418.29,80.9 2416.9,79.291 2415.48,77.714C2414,76.063 2412.49,74.447 2410.96,72.863C2409.39,71.14 2407.79,69.455 2406.16,67.809C2404.16,65.99 2402.12,64.222 2400.06,62.51C2399.11,61.414 2398.15,60.334 2397.18,59.271C2395.17,56.307 2393.09,53.435 2390.94,50.659C2389.59,48.956 2388.21,47.292 2386.81,45.661C2385.75,43.863 2384.66,42.098 2383.54,40.361C2381.7,36.611 2379.74,32.964 2377.66,29.43L2377.66,29.435Z" style="fill:rgb(22,39,74);fill-rule:nonzero;"/>
    </g>
    <g transform="matrix(1,0,0,1,-2364.53,-1.08214)">
        <path d="M2422.84,90.002C2420.01,94.309 2417.08,98.502 2414.04,102.571C2413.27,104.056 2412.49,105.533 2411.69,106.998C2411.84,109.176 2411.96,111.37 2412.04,113.578C2412.78,112.48 2413.51,111.374 2414.24,110.262C2415.2,109.774 2416.16,109.278 2417.12,108.776C2420.65,106.39 2424.15,103.901 2427.62,101.313C2428.21,100.693 2428.79,100.069 2429.38,99.443C2428.55,96.791 2427.68,94.177 2426.75,91.6C2425.45,91.059 2424.14,90.527 2422.84,89.999L2422.84,90.002Z" style="fill:rgb(30,55,89);fill-rule:nonzero;"/>
    </g>
    <g transform="matrix(1,0,0,1,-2364.53,-1.08214)">
        <path d="M2429.02,85.846C2428.29,87.774 2427.53,89.694 2426.75,91.6C2427.67,94.176 2428.55,96.791 2429.38,99.443C2429.9,99.605 2430.43,99.766 2430.95,99.927C2435.3,98.39 2439.65,96.766 2443.98,95.052C2444.71,94.364 2445.43,93.671 2446.14,92.974C2447.09,93.213 2448.04,93.456 2448.99,93.699C2449.34,93.445 2449.7,93.189 2450.05,92.933C2448.91,91.153 2447.75,89.396 2446.56,87.667C2443.83,87.179 2441.1,86.707 2438.36,86.243C2435.97,86.387 2433.58,86.529 2431.19,86.66C2430.47,86.386 2429.75,86.116 2429.02,85.847L2429.02,85.846Z" style="fill:rgb(30,55,89);fill-rule:nonzero;"/>
    </g>
    <g transform="matrix(1,0,0,1,-2364.53,-1.08214)">
        <path d="M2384.37,40.277C2382.67,42.137 2380.57,47.322 2380.57,47.322L2378.98,52.755C2378.98,52.755 2382.81,56.21 2383.81,58.023C2385.56,55.223 2388.48,52.499 2390.08,49.591C2389.93,48.065 2388.52,46.414 2388.32,44.902C2387.47,43.88 2385.24,41.274 2384.37,40.277L2384.37,40.277Z" style="fill:rgb(22,39,74);fill-rule:nonzero;"/>
    </g>
    <g transform="matrix(1,0,0,1,-2364.53,-1.08214)">
        <path d="M2368.25,1.082C2369.63,1.2 2371.01,1.325 2372.39,1.466C2375.03,2.661 2377.66,3.928 2380.27,5.264C2383.92,7.209 2387.53,9.294 2391.09,11.518C2395.34,14.615 2399.5,17.934 2403.55,21.47C2406.7,25.334 2409.73,29.368 2412.62,33.568C2414.72,37.311 2416.7,41.162 2418.57,45.111C2419.96,48.631 2421.25,52.219 2422.45,55.869C2422.68,56.88 2422.91,57.894 2423.13,58.913C2423.46,60.975 2423.76,63.048 2424.03,65.136C2424.07,66.227 2424.1,67.319 2424.13,68.415C2424.3,69.084 2424.47,69.757 2424.64,70.43C2424.65,70.554 2424.66,70.68 2424.66,70.803C2424.98,71.895 2425.28,72.994 2425.58,74.096C2426.83,77.937 2427.98,81.855 2429.02,85.846C2428.48,87.271 2427.93,88.689 2427.36,90.101C2425.5,83.228 2423.3,76.583 2420.81,70.187C2416.05,58.587 2410.3,47.833 2403.76,38.007C2396.94,29.283 2389.48,21.431 2381.55,14.484C2376.94,9.933 2372.13,5.713 2367.16,1.828C2367.52,1.581 2367.89,1.332 2368.25,1.082Z" style="fill:rgb(58,91,130);fill-rule:nonzero;"/>
    </g>
    <g transform="matrix(1,0,0,1,-2364.53,-1.08214)">
        <path d="M2365.72,2.81C2377.18,11.692 2387.8,22.368 2397.1,34.755C2409.58,50.838 2419.83,69.927 2426.75,91.602C2427.88,94.333 2428.96,97.114 2429.99,99.945C2427.98,88.925 2425.13,78.395 2421.56,68.417C2419.35,62.309 2416.87,56.408 2414.15,50.728C2410.41,43.928 2406.32,37.493 2401.91,31.438C2397.96,26.644 2393.8,22.128 2389.48,17.894C2385.66,14.635 2381.74,11.579 2377.74,8.721C2374.27,6.272 2370.74,3.977 2367.16,1.828C2366.68,2.155 2366.2,2.483 2365.71,2.81L2365.72,2.81Z" style="fill:rgb(31,56,95);fill-rule:nonzero;"/>
    </g>
    <g transform="matrix(1,0,0,1,-2364.53,-1.08214)">
        <path d="M2403.55,21.47C2407.55,21.101 2411.6,20.74 2415.69,20.395C2419.29,21.268 2422.86,22.252 2426.39,23.346C2429.04,24.888 2431.62,26.542 2434.13,28.31C2434.71,30.695 2435.21,33.13 2435.64,35.613C2432.86,33.868 2430.01,32.245 2427.1,30.739C2425.4,30.645 2423.71,30.559 2422.01,30.479C2419.74,30.676 2417.48,30.873 2415.24,31.063C2413.83,30.876 2412.42,30.694 2411.02,30.526C2410.2,29.926 2409.38,29.337 2408.55,28.764C2406.99,26.229 2405.32,23.797 2403.55,21.468L2403.55,21.47Z" style="fill:rgb(30,55,89);fill-rule:nonzero;"/>
    </g>
    <g transform="matrix(1,0,0,1,-2364.53,-1.08214)">
        <path d="M2403.95,21.953C2405.44,21.877 2406.93,21.807 2408.43,21.738C2408.6,22.852 2408.75,23.971 2408.9,25.094C2409.65,26.871 2410.36,28.682 2411.02,30.526C2410.2,29.926 2409.38,29.337 2408.55,28.764C2407.11,26.405 2405.57,24.134 2403.95,21.951L2403.95,21.953Z" style="fill:rgb(22,39,74);fill-rule:nonzero;"/>
    </g>
    <g transform="matrix(1,0,0,1,-2364.53,-1.08214)">
        <path d="M2435.22,34.98C2434.71,32.975 2434.14,31.008 2433.51,29.081C2431.23,27.516 2428.89,26.042 2426.5,24.657C2423.2,23.642 2419.86,22.725 2416.51,21.901C2418.78,24.411 2420.92,27.071 2422.93,29.881C2424.22,29.994 2425.51,30.112 2426.8,30.236C2429.67,31.703 2432.48,33.283 2435.22,34.979L2435.22,34.98Z" style="fill:rgb(22,39,74);fill-opacity:0.7;fill-rule:nonzero;"/>
    </g>
    <g transform="matrix(1,0,0,1,-2364.53,-1.08214)">
        <g opacity="0.12">
            <path d="M2426.5,24.657C2426.74,26.665 2426.94,28.691 2427.1,30.739C2429.86,32.055 2432.57,33.468 2435.23,34.98C2434.71,32.976 2434.14,31.008 2433.52,29.081C2431.23,27.516 2428.9,26.042 2426.5,24.657Z" style="fill:rgb(22,39,74);fill-rule:nonzero;"/>
        </g>
    </g>
    <g transform="matrix(1,0,0,1,-2364.53,-1.08214)">
        <path d="M2369.23,1.322C2370.39,1.412 2371.55,1.51 2372.71,1.613C2375.25,2.765 2377.77,3.982 2380.27,5.264C2383.92,7.209 2387.53,9.294 2391.09,11.518C2395.34,14.615 2399.5,17.934 2403.55,21.47C2403.82,23.119 2404.07,24.771 2404.3,26.425C2393.36,16.386 2381.54,8.008 2369.23,1.322Z" style="fill:rgb(80,120,160);fill-rule:nonzero;"/>
    </g>
    <g transform="matrix(1,0,0,1,-2364.53,-1.08214)">
        <path d="M2367.56,2.075C2367.12,2.436 2366.68,2.794 2366.23,3.153C2370.45,6.459 2374.54,10.01 2378.5,13.799C2385.86,20.777 2392.75,28.587 2399.01,37.186C2400.22,35.682 2401.42,34.157 2402.6,32.612C2398.77,27.881 2394.75,23.414 2390.57,19.215C2383.25,12.747 2375.54,7.027 2367.56,2.075Z" style="fill:rgb(58,91,130);fill-opacity:0.3;fill-rule:nonzero;"/>
    </g>
    <g transform="matrix(1,0,0,1,-2364.53,-1.08214)">
        <path d="M2380.35,7.385C2376.71,5.214 2373.01,3.196 2369.28,1.324C2368.69,1.571 2368.11,1.816 2367.52,2.063C2375.51,7.018 2383.23,12.74 2390.56,19.218C2394.75,23.417 2398.77,27.883 2402.6,32.615C2403.2,30.566 2403.76,28.503 2404.3,26.425C2396.72,19.258 2388.69,12.907 2380.35,7.385L2380.35,7.385Z" style="fill:rgb(80,120,160);fill-opacity:0.5;fill-rule:nonzero;"/>
    </g>
    <g transform="matrix(1,0,0,1,-2364.53,-1.08214)">
        <path d="M2404.09,22.093C2404.18,23.536 2404.25,24.981 2404.3,26.426C2403.77,28.503 2403.2,30.567 2402.6,32.615C2401.79,34.091 2400.96,35.555 2400.12,37.004C2399.71,38.71 2399.28,40.406 2398.83,42.094C2399.61,42.588 2400.4,43.091 2401.18,43.598C2402.06,43.193 2402.94,42.785 2403.82,42.372C2405.25,41.782 2406.67,41.186 2408.09,40.582C2409.09,38.823 2410.07,37.044 2411.02,35.246C2410.9,33.747 2410.76,32.252 2410.61,30.759C2408.5,27.784 2406.33,24.894 2404.09,22.093Z" style="fill:rgb(22,39,74);fill-rule:nonzero;"/>
    </g>
    <g transform="matrix(1,0,0,1,-2364.53,-1.08214)">
        <path d="M2422.61,62.472C2421.11,57.212 2419.41,52.073 2417.52,47.068C2415.48,43.011 2413.31,39.07 2411.02,35.246C2410.98,33.824 2410.93,32.4 2410.86,30.979C2411.45,31.836 2412.04,32.697 2412.62,33.568C2414.72,37.312 2416.71,41.162 2418.58,45.112C2419.96,48.632 2421.25,52.219 2422.45,55.87C2422.69,56.88 2422.91,57.895 2423.13,58.914C2423.46,60.975 2423.76,63.049 2424.03,65.136C2424.07,66.227 2424.1,67.319 2424.13,68.416C2424.3,69.085 2424.48,69.758 2424.65,70.431C2424.65,70.554 2424.66,70.68 2424.66,70.804C2424.96,72.477 2425.23,74.158 2425.48,75.849C2424.85,73.563 2424.19,71.301 2423.49,69.063C2423.23,66.854 2422.93,64.656 2422.61,62.472L2422.61,62.472Z" style="fill:rgb(80,120,160);fill-rule:nonzero;"/>
    </g>
    <g transform="matrix(1,0,0,1,-2364.53,-1.08214)">
        <path d="M2424.66,70.803C2426.29,75.695 2427.75,80.711 2429.02,85.846C2428.85,86.198 2428.68,86.547 2428.51,86.897C2427.2,81.832 2425.7,76.889 2424.05,72.07C2423.93,69.751 2423.78,67.439 2423.59,65.141C2423.98,67.018 2424.33,68.903 2424.66,70.804L2424.66,70.803Z" style="fill:rgb(80,120,160);fill-rule:nonzero;"/>
    </g>
    <g transform="matrix(1,0,0,1,-2364.53,-1.08214)">
        <path d="M2426.57,84.388C2427.89,89.372 2429.04,94.474 2430,99.685C2429.96,98.16 2429.91,96.638 2429.85,95.124C2429.45,92.357 2429.01,89.613 2428.51,86.899C2427.86,86.054 2427.22,85.218 2426.57,84.39L2426.57,84.388Z" style="fill:rgb(58,91,130);fill-rule:nonzero;"/>
    </g>
    <g transform="matrix(1,0,0,1,-2364.53,-1.08214)">
        <path d="M2426.75,91.599C2427.3,94.602 2427.79,97.638 2428.22,100.709C2426.83,101.848 2425.43,102.967 2424.03,104.072C2424.26,101.623 2424.45,99.179 2424.6,96.745C2424.03,94.523 2423.44,92.325 2422.81,90.151C2422.85,89.701 2422.9,89.254 2422.94,88.806C2424.22,89.723 2425.49,90.655 2426.75,91.602L2426.75,91.599Z" style="fill:rgb(22,39,74);fill-rule:nonzero;"/>
    </g>
    <g transform="matrix(1,0,0,1,-2364.53,-1.08214)">
        <path d="M2428.51,86.896C2429.45,91.164 2430.27,95.51 2430.95,99.927C2431.86,99.628 2432.77,99.328 2433.68,99.02C2432.43,95.05 2431.07,91.164 2429.62,87.365C2429.25,87.207 2428.88,87.052 2428.5,86.896L2428.51,86.896Z" style="fill:rgb(22,39,74);fill-rule:nonzero;"/>
    </g>
    <g transform="matrix(1,0,0,1,-2364.53,-1.08214)">
        <path d="M2428.51,86.896C2429.17,87.221 2429.84,87.545 2430.5,87.873C2433.01,87.634 2435.52,87.384 2438.04,87.124C2440.79,87.534 2443.55,87.951 2446.3,88.378C2447.42,89.991 2448.52,91.628 2449.6,93.288C2449.75,93.168 2449.9,93.048 2450.05,92.927C2448.91,91.147 2447.75,89.39 2446.56,87.661C2443.83,87.174 2441.1,86.702 2438.36,86.238C2435.97,86.382 2433.58,86.523 2431.19,86.655C2430.47,86.38 2429.74,86.11 2429.02,85.841C2428.85,86.193 2428.68,86.542 2428.51,86.891L2428.51,86.896Z" style="fill:rgb(80,120,160);fill-rule:nonzero;"/>
    </g>
    <g transform="matrix(1,0,0,1,-2364.53,-1.08214)">
        <path d="M2422.8,90.025C2421.69,92.228 2420.55,94.409 2419.39,96.57C2417.73,98.673 2416.05,100.738 2414.34,102.771C2413.47,104.193 2412.59,105.602 2411.7,107.001C2412.49,105.536 2413.28,104.058 2414.05,102.574C2417.07,98.511 2419.99,94.327 2422.8,90.028L2422.8,90.025Z" style="fill:rgb(58,91,130);fill-rule:nonzero;"/>
    </g>
    <g transform="matrix(1,0,0,1,-2364.53,-1.08214)">
        <path d="M2378.98,52.756L2376.97,62.771L2379.79,70.829L2382.49,62.342L2383.81,58.023L2383.54,50.888L2378.98,52.756Z" style="fill:rgb(22,39,74);fill-rule:nonzero;"/>
    </g>
</svg>
